%TF.GenerationSoftware,KiCad,Pcbnew,(5.1.10)-1*%
%TF.CreationDate,2021-06-22T22:03:27+02:00*%
%TF.ProjectId,mister-midi-pcb,6d697374-6572-42d6-9d69-64692d706362,rev?*%
%TF.SameCoordinates,Original*%
%TF.FileFunction,Paste,Top*%
%TF.FilePolarity,Positive*%
%FSLAX46Y46*%
G04 Gerber Fmt 4.6, Leading zero omitted, Abs format (unit mm)*
G04 Created by KiCad (PCBNEW (5.1.10)-1) date 2021-06-22 22:03:27*
%MOMM*%
%LPD*%
G01*
G04 APERTURE LIST*
%ADD10R,1.000000X1.000000*%
%ADD11R,1.500000X1.780000*%
%ADD12R,3.800000X2.000000*%
%ADD13R,1.500000X2.000000*%
G04 APERTURE END LIST*
%TO.C,C1*%
G36*
G01*
X68225000Y-99281000D02*
X68225000Y-98331000D01*
G75*
G02*
X68475000Y-98081000I250000J0D01*
G01*
X69150000Y-98081000D01*
G75*
G02*
X69400000Y-98331000I0J-250000D01*
G01*
X69400000Y-99281000D01*
G75*
G02*
X69150000Y-99531000I-250000J0D01*
G01*
X68475000Y-99531000D01*
G75*
G02*
X68225000Y-99281000I0J250000D01*
G01*
G37*
G36*
G01*
X70300000Y-99281000D02*
X70300000Y-98331000D01*
G75*
G02*
X70550000Y-98081000I250000J0D01*
G01*
X71225000Y-98081000D01*
G75*
G02*
X71475000Y-98331000I0J-250000D01*
G01*
X71475000Y-99281000D01*
G75*
G02*
X71225000Y-99531000I-250000J0D01*
G01*
X70550000Y-99531000D01*
G75*
G02*
X70300000Y-99281000I0J250000D01*
G01*
G37*
%TD*%
D10*
%TO.C,D1*%
X109728000Y-114915000D03*
X109728000Y-112415000D03*
%TD*%
%TO.C,D2*%
G36*
G01*
X71044000Y-142182001D02*
X71044000Y-141281999D01*
G75*
G02*
X71293999Y-141032000I249999J0D01*
G01*
X71944001Y-141032000D01*
G75*
G02*
X72194000Y-141281999I0J-249999D01*
G01*
X72194000Y-142182001D01*
G75*
G02*
X71944001Y-142432000I-249999J0D01*
G01*
X71293999Y-142432000D01*
G75*
G02*
X71044000Y-142182001I0J249999D01*
G01*
G37*
G36*
G01*
X73094000Y-142182001D02*
X73094000Y-141281999D01*
G75*
G02*
X73343999Y-141032000I249999J0D01*
G01*
X73994001Y-141032000D01*
G75*
G02*
X74244000Y-141281999I0J-249999D01*
G01*
X74244000Y-142182001D01*
G75*
G02*
X73994001Y-142432000I-249999J0D01*
G01*
X73343999Y-142432000D01*
G75*
G02*
X73094000Y-142182001I0J249999D01*
G01*
G37*
%TD*%
%TO.C,R1*%
G36*
G01*
X98863999Y-99746000D02*
X99764001Y-99746000D01*
G75*
G02*
X100014000Y-99995999I0J-249999D01*
G01*
X100014000Y-100696001D01*
G75*
G02*
X99764001Y-100946000I-249999J0D01*
G01*
X98863999Y-100946000D01*
G75*
G02*
X98614000Y-100696001I0J249999D01*
G01*
X98614000Y-99995999D01*
G75*
G02*
X98863999Y-99746000I249999J0D01*
G01*
G37*
G36*
G01*
X98863999Y-101746000D02*
X99764001Y-101746000D01*
G75*
G02*
X100014000Y-101995999I0J-249999D01*
G01*
X100014000Y-102696001D01*
G75*
G02*
X99764001Y-102946000I-249999J0D01*
G01*
X98863999Y-102946000D01*
G75*
G02*
X98614000Y-102696001I0J249999D01*
G01*
X98614000Y-101995999D01*
G75*
G02*
X98863999Y-101746000I249999J0D01*
G01*
G37*
%TD*%
%TO.C,R2*%
G36*
G01*
X92259999Y-101746000D02*
X93160001Y-101746000D01*
G75*
G02*
X93410000Y-101995999I0J-249999D01*
G01*
X93410000Y-102696001D01*
G75*
G02*
X93160001Y-102946000I-249999J0D01*
G01*
X92259999Y-102946000D01*
G75*
G02*
X92010000Y-102696001I0J249999D01*
G01*
X92010000Y-101995999D01*
G75*
G02*
X92259999Y-101746000I249999J0D01*
G01*
G37*
G36*
G01*
X92259999Y-99746000D02*
X93160001Y-99746000D01*
G75*
G02*
X93410000Y-99995999I0J-249999D01*
G01*
X93410000Y-100696001D01*
G75*
G02*
X93160001Y-100946000I-249999J0D01*
G01*
X92259999Y-100946000D01*
G75*
G02*
X92010000Y-100696001I0J249999D01*
G01*
X92010000Y-99995999D01*
G75*
G02*
X92259999Y-99746000I249999J0D01*
G01*
G37*
%TD*%
%TO.C,R3*%
G36*
G01*
X77616000Y-142182001D02*
X77616000Y-141281999D01*
G75*
G02*
X77865999Y-141032000I249999J0D01*
G01*
X78566001Y-141032000D01*
G75*
G02*
X78816000Y-141281999I0J-249999D01*
G01*
X78816000Y-142182001D01*
G75*
G02*
X78566001Y-142432000I-249999J0D01*
G01*
X77865999Y-142432000D01*
G75*
G02*
X77616000Y-142182001I0J249999D01*
G01*
G37*
G36*
G01*
X75616000Y-142182001D02*
X75616000Y-141281999D01*
G75*
G02*
X75865999Y-141032000I249999J0D01*
G01*
X76566001Y-141032000D01*
G75*
G02*
X76816000Y-141281999I0J-249999D01*
G01*
X76816000Y-142182001D01*
G75*
G02*
X76566001Y-142432000I-249999J0D01*
G01*
X75865999Y-142432000D01*
G75*
G02*
X75616000Y-142182001I0J249999D01*
G01*
G37*
%TD*%
%TO.C,R4*%
G36*
G01*
X123894001Y-102692000D02*
X122993999Y-102692000D01*
G75*
G02*
X122744000Y-102442001I0J249999D01*
G01*
X122744000Y-101741999D01*
G75*
G02*
X122993999Y-101492000I249999J0D01*
G01*
X123894001Y-101492000D01*
G75*
G02*
X124144000Y-101741999I0J-249999D01*
G01*
X124144000Y-102442001D01*
G75*
G02*
X123894001Y-102692000I-249999J0D01*
G01*
G37*
G36*
G01*
X123894001Y-100692000D02*
X122993999Y-100692000D01*
G75*
G02*
X122744000Y-100442001I0J249999D01*
G01*
X122744000Y-99741999D01*
G75*
G02*
X122993999Y-99492000I249999J0D01*
G01*
X123894001Y-99492000D01*
G75*
G02*
X124144000Y-99741999I0J-249999D01*
G01*
X124144000Y-100442001D01*
G75*
G02*
X123894001Y-100692000I-249999J0D01*
G01*
G37*
%TD*%
%TO.C,R5*%
G36*
G01*
X148024001Y-102692000D02*
X147123999Y-102692000D01*
G75*
G02*
X146874000Y-102442001I0J249999D01*
G01*
X146874000Y-101741999D01*
G75*
G02*
X147123999Y-101492000I249999J0D01*
G01*
X148024001Y-101492000D01*
G75*
G02*
X148274000Y-101741999I0J-249999D01*
G01*
X148274000Y-102442001D01*
G75*
G02*
X148024001Y-102692000I-249999J0D01*
G01*
G37*
G36*
G01*
X148024001Y-100692000D02*
X147123999Y-100692000D01*
G75*
G02*
X146874000Y-100442001I0J249999D01*
G01*
X146874000Y-99741999D01*
G75*
G02*
X147123999Y-99492000I249999J0D01*
G01*
X148024001Y-99492000D01*
G75*
G02*
X148274000Y-99741999I0J-249999D01*
G01*
X148274000Y-100442001D01*
G75*
G02*
X148024001Y-100692000I-249999J0D01*
G01*
G37*
%TD*%
%TO.C,R6*%
G36*
G01*
X132899999Y-101492000D02*
X133800001Y-101492000D01*
G75*
G02*
X134050000Y-101741999I0J-249999D01*
G01*
X134050000Y-102442001D01*
G75*
G02*
X133800001Y-102692000I-249999J0D01*
G01*
X132899999Y-102692000D01*
G75*
G02*
X132650000Y-102442001I0J249999D01*
G01*
X132650000Y-101741999D01*
G75*
G02*
X132899999Y-101492000I249999J0D01*
G01*
G37*
G36*
G01*
X132899999Y-99492000D02*
X133800001Y-99492000D01*
G75*
G02*
X134050000Y-99741999I0J-249999D01*
G01*
X134050000Y-100442001D01*
G75*
G02*
X133800001Y-100692000I-249999J0D01*
G01*
X132899999Y-100692000D01*
G75*
G02*
X132650000Y-100442001I0J249999D01*
G01*
X132650000Y-99741999D01*
G75*
G02*
X132899999Y-99492000I249999J0D01*
G01*
G37*
%TD*%
%TO.C,R7*%
G36*
G01*
X157930001Y-102692000D02*
X157029999Y-102692000D01*
G75*
G02*
X156780000Y-102442001I0J249999D01*
G01*
X156780000Y-101741999D01*
G75*
G02*
X157029999Y-101492000I249999J0D01*
G01*
X157930001Y-101492000D01*
G75*
G02*
X158180000Y-101741999I0J-249999D01*
G01*
X158180000Y-102442001D01*
G75*
G02*
X157930001Y-102692000I-249999J0D01*
G01*
G37*
G36*
G01*
X157930001Y-100692000D02*
X157029999Y-100692000D01*
G75*
G02*
X156780000Y-100442001I0J249999D01*
G01*
X156780000Y-99741999D01*
G75*
G02*
X157029999Y-99492000I249999J0D01*
G01*
X157930001Y-99492000D01*
G75*
G02*
X158180000Y-99741999I0J-249999D01*
G01*
X158180000Y-100442001D01*
G75*
G02*
X157930001Y-100692000I-249999J0D01*
G01*
G37*
%TD*%
D11*
%TO.C,U1*%
X105603000Y-114935000D03*
X96073000Y-109855000D03*
X105603000Y-112395000D03*
X96073000Y-112395000D03*
X105603000Y-109855000D03*
X96073000Y-114935000D03*
%TD*%
%TO.C,D3*%
G36*
G01*
X81712000Y-142182001D02*
X81712000Y-141281999D01*
G75*
G02*
X81961999Y-141032000I249999J0D01*
G01*
X82612001Y-141032000D01*
G75*
G02*
X82862000Y-141281999I0J-249999D01*
G01*
X82862000Y-142182001D01*
G75*
G02*
X82612001Y-142432000I-249999J0D01*
G01*
X81961999Y-142432000D01*
G75*
G02*
X81712000Y-142182001I0J249999D01*
G01*
G37*
G36*
G01*
X83762000Y-142182001D02*
X83762000Y-141281999D01*
G75*
G02*
X84011999Y-141032000I249999J0D01*
G01*
X84662001Y-141032000D01*
G75*
G02*
X84912000Y-141281999I0J-249999D01*
G01*
X84912000Y-142182001D01*
G75*
G02*
X84662001Y-142432000I-249999J0D01*
G01*
X84011999Y-142432000D01*
G75*
G02*
X83762000Y-142182001I0J249999D01*
G01*
G37*
%TD*%
%TO.C,D4*%
G36*
G01*
X94430000Y-142182001D02*
X94430000Y-141281999D01*
G75*
G02*
X94679999Y-141032000I249999J0D01*
G01*
X95330001Y-141032000D01*
G75*
G02*
X95580000Y-141281999I0J-249999D01*
G01*
X95580000Y-142182001D01*
G75*
G02*
X95330001Y-142432000I-249999J0D01*
G01*
X94679999Y-142432000D01*
G75*
G02*
X94430000Y-142182001I0J249999D01*
G01*
G37*
G36*
G01*
X92380000Y-142182001D02*
X92380000Y-141281999D01*
G75*
G02*
X92629999Y-141032000I249999J0D01*
G01*
X93280001Y-141032000D01*
G75*
G02*
X93530000Y-141281999I0J-249999D01*
G01*
X93530000Y-142182001D01*
G75*
G02*
X93280001Y-142432000I-249999J0D01*
G01*
X92629999Y-142432000D01*
G75*
G02*
X92380000Y-142182001I0J249999D01*
G01*
G37*
%TD*%
%TO.C,FB1*%
G36*
G01*
X96487000Y-102971000D02*
X95537000Y-102971000D01*
G75*
G02*
X95287000Y-102721000I0J250000D01*
G01*
X95287000Y-102046000D01*
G75*
G02*
X95537000Y-101796000I250000J0D01*
G01*
X96487000Y-101796000D01*
G75*
G02*
X96737000Y-102046000I0J-250000D01*
G01*
X96737000Y-102721000D01*
G75*
G02*
X96487000Y-102971000I-250000J0D01*
G01*
G37*
G36*
G01*
X96487000Y-100896000D02*
X95537000Y-100896000D01*
G75*
G02*
X95287000Y-100646000I0J250000D01*
G01*
X95287000Y-99971000D01*
G75*
G02*
X95537000Y-99721000I250000J0D01*
G01*
X96487000Y-99721000D01*
G75*
G02*
X96737000Y-99971000I0J-250000D01*
G01*
X96737000Y-100646000D01*
G75*
G02*
X96487000Y-100896000I-250000J0D01*
G01*
G37*
%TD*%
%TO.C,FB2*%
G36*
G01*
X106393000Y-100896000D02*
X105443000Y-100896000D01*
G75*
G02*
X105193000Y-100646000I0J250000D01*
G01*
X105193000Y-99971000D01*
G75*
G02*
X105443000Y-99721000I250000J0D01*
G01*
X106393000Y-99721000D01*
G75*
G02*
X106643000Y-99971000I0J-250000D01*
G01*
X106643000Y-100646000D01*
G75*
G02*
X106393000Y-100896000I-250000J0D01*
G01*
G37*
G36*
G01*
X106393000Y-102971000D02*
X105443000Y-102971000D01*
G75*
G02*
X105193000Y-102721000I0J250000D01*
G01*
X105193000Y-102046000D01*
G75*
G02*
X105443000Y-101796000I250000J0D01*
G01*
X106393000Y-101796000D01*
G75*
G02*
X106643000Y-102046000I0J-250000D01*
G01*
X106643000Y-102721000D01*
G75*
G02*
X106393000Y-102971000I-250000J0D01*
G01*
G37*
%TD*%
%TO.C,FB3*%
G36*
G01*
X129573000Y-99467000D02*
X130523000Y-99467000D01*
G75*
G02*
X130773000Y-99717000I0J-250000D01*
G01*
X130773000Y-100392000D01*
G75*
G02*
X130523000Y-100642000I-250000J0D01*
G01*
X129573000Y-100642000D01*
G75*
G02*
X129323000Y-100392000I0J250000D01*
G01*
X129323000Y-99717000D01*
G75*
G02*
X129573000Y-99467000I250000J0D01*
G01*
G37*
G36*
G01*
X129573000Y-101542000D02*
X130523000Y-101542000D01*
G75*
G02*
X130773000Y-101792000I0J-250000D01*
G01*
X130773000Y-102467000D01*
G75*
G02*
X130523000Y-102717000I-250000J0D01*
G01*
X129573000Y-102717000D01*
G75*
G02*
X129323000Y-102467000I0J250000D01*
G01*
X129323000Y-101792000D01*
G75*
G02*
X129573000Y-101542000I250000J0D01*
G01*
G37*
%TD*%
%TO.C,FB4*%
G36*
G01*
X153703000Y-101542000D02*
X154653000Y-101542000D01*
G75*
G02*
X154903000Y-101792000I0J-250000D01*
G01*
X154903000Y-102467000D01*
G75*
G02*
X154653000Y-102717000I-250000J0D01*
G01*
X153703000Y-102717000D01*
G75*
G02*
X153453000Y-102467000I0J250000D01*
G01*
X153453000Y-101792000D01*
G75*
G02*
X153703000Y-101542000I250000J0D01*
G01*
G37*
G36*
G01*
X153703000Y-99467000D02*
X154653000Y-99467000D01*
G75*
G02*
X154903000Y-99717000I0J-250000D01*
G01*
X154903000Y-100392000D01*
G75*
G02*
X154653000Y-100642000I-250000J0D01*
G01*
X153703000Y-100642000D01*
G75*
G02*
X153453000Y-100392000I0J250000D01*
G01*
X153453000Y-99717000D01*
G75*
G02*
X153703000Y-99467000I250000J0D01*
G01*
G37*
%TD*%
%TO.C,FB5*%
G36*
G01*
X120617000Y-100642000D02*
X119667000Y-100642000D01*
G75*
G02*
X119417000Y-100392000I0J250000D01*
G01*
X119417000Y-99717000D01*
G75*
G02*
X119667000Y-99467000I250000J0D01*
G01*
X120617000Y-99467000D01*
G75*
G02*
X120867000Y-99717000I0J-250000D01*
G01*
X120867000Y-100392000D01*
G75*
G02*
X120617000Y-100642000I-250000J0D01*
G01*
G37*
G36*
G01*
X120617000Y-102717000D02*
X119667000Y-102717000D01*
G75*
G02*
X119417000Y-102467000I0J250000D01*
G01*
X119417000Y-101792000D01*
G75*
G02*
X119667000Y-101542000I250000J0D01*
G01*
X120617000Y-101542000D01*
G75*
G02*
X120867000Y-101792000I0J-250000D01*
G01*
X120867000Y-102467000D01*
G75*
G02*
X120617000Y-102717000I-250000J0D01*
G01*
G37*
%TD*%
%TO.C,FB6*%
G36*
G01*
X144747000Y-102717000D02*
X143797000Y-102717000D01*
G75*
G02*
X143547000Y-102467000I0J250000D01*
G01*
X143547000Y-101792000D01*
G75*
G02*
X143797000Y-101542000I250000J0D01*
G01*
X144747000Y-101542000D01*
G75*
G02*
X144997000Y-101792000I0J-250000D01*
G01*
X144997000Y-102467000D01*
G75*
G02*
X144747000Y-102717000I-250000J0D01*
G01*
G37*
G36*
G01*
X144747000Y-100642000D02*
X143797000Y-100642000D01*
G75*
G02*
X143547000Y-100392000I0J250000D01*
G01*
X143547000Y-99717000D01*
G75*
G02*
X143797000Y-99467000I250000J0D01*
G01*
X144747000Y-99467000D01*
G75*
G02*
X144997000Y-99717000I0J-250000D01*
G01*
X144997000Y-100392000D01*
G75*
G02*
X144747000Y-100642000I-250000J0D01*
G01*
G37*
%TD*%
%TO.C,R8*%
G36*
G01*
X88284000Y-142182001D02*
X88284000Y-141281999D01*
G75*
G02*
X88533999Y-141032000I249999J0D01*
G01*
X89234001Y-141032000D01*
G75*
G02*
X89484000Y-141281999I0J-249999D01*
G01*
X89484000Y-142182001D01*
G75*
G02*
X89234001Y-142432000I-249999J0D01*
G01*
X88533999Y-142432000D01*
G75*
G02*
X88284000Y-142182001I0J249999D01*
G01*
G37*
G36*
G01*
X86284000Y-142182001D02*
X86284000Y-141281999D01*
G75*
G02*
X86533999Y-141032000I249999J0D01*
G01*
X87234001Y-141032000D01*
G75*
G02*
X87484000Y-141281999I0J-249999D01*
G01*
X87484000Y-142182001D01*
G75*
G02*
X87234001Y-142432000I-249999J0D01*
G01*
X86533999Y-142432000D01*
G75*
G02*
X86284000Y-142182001I0J249999D01*
G01*
G37*
%TD*%
%TO.C,R9*%
G36*
G01*
X96952000Y-142182001D02*
X96952000Y-141281999D01*
G75*
G02*
X97201999Y-141032000I249999J0D01*
G01*
X97902001Y-141032000D01*
G75*
G02*
X98152000Y-141281999I0J-249999D01*
G01*
X98152000Y-142182001D01*
G75*
G02*
X97902001Y-142432000I-249999J0D01*
G01*
X97201999Y-142432000D01*
G75*
G02*
X96952000Y-142182001I0J249999D01*
G01*
G37*
G36*
G01*
X98952000Y-142182001D02*
X98952000Y-141281999D01*
G75*
G02*
X99201999Y-141032000I249999J0D01*
G01*
X99902001Y-141032000D01*
G75*
G02*
X100152000Y-141281999I0J-249999D01*
G01*
X100152000Y-142182001D01*
G75*
G02*
X99902001Y-142432000I-249999J0D01*
G01*
X99201999Y-142432000D01*
G75*
G02*
X98952000Y-142182001I0J249999D01*
G01*
G37*
%TD*%
%TO.C,U2*%
G36*
G01*
X82700000Y-116480000D02*
X82400000Y-116480000D01*
G75*
G02*
X82250000Y-116330000I0J150000D01*
G01*
X82250000Y-114680000D01*
G75*
G02*
X82400000Y-114530000I150000J0D01*
G01*
X82700000Y-114530000D01*
G75*
G02*
X82850000Y-114680000I0J-150000D01*
G01*
X82850000Y-116330000D01*
G75*
G02*
X82700000Y-116480000I-150000J0D01*
G01*
G37*
G36*
G01*
X83970000Y-116480000D02*
X83670000Y-116480000D01*
G75*
G02*
X83520000Y-116330000I0J150000D01*
G01*
X83520000Y-114680000D01*
G75*
G02*
X83670000Y-114530000I150000J0D01*
G01*
X83970000Y-114530000D01*
G75*
G02*
X84120000Y-114680000I0J-150000D01*
G01*
X84120000Y-116330000D01*
G75*
G02*
X83970000Y-116480000I-150000J0D01*
G01*
G37*
G36*
G01*
X85240000Y-116480000D02*
X84940000Y-116480000D01*
G75*
G02*
X84790000Y-116330000I0J150000D01*
G01*
X84790000Y-114680000D01*
G75*
G02*
X84940000Y-114530000I150000J0D01*
G01*
X85240000Y-114530000D01*
G75*
G02*
X85390000Y-114680000I0J-150000D01*
G01*
X85390000Y-116330000D01*
G75*
G02*
X85240000Y-116480000I-150000J0D01*
G01*
G37*
G36*
G01*
X86510000Y-116480000D02*
X86210000Y-116480000D01*
G75*
G02*
X86060000Y-116330000I0J150000D01*
G01*
X86060000Y-114680000D01*
G75*
G02*
X86210000Y-114530000I150000J0D01*
G01*
X86510000Y-114530000D01*
G75*
G02*
X86660000Y-114680000I0J-150000D01*
G01*
X86660000Y-116330000D01*
G75*
G02*
X86510000Y-116480000I-150000J0D01*
G01*
G37*
G36*
G01*
X87780000Y-116480000D02*
X87480000Y-116480000D01*
G75*
G02*
X87330000Y-116330000I0J150000D01*
G01*
X87330000Y-114680000D01*
G75*
G02*
X87480000Y-114530000I150000J0D01*
G01*
X87780000Y-114530000D01*
G75*
G02*
X87930000Y-114680000I0J-150000D01*
G01*
X87930000Y-116330000D01*
G75*
G02*
X87780000Y-116480000I-150000J0D01*
G01*
G37*
G36*
G01*
X89050000Y-116480000D02*
X88750000Y-116480000D01*
G75*
G02*
X88600000Y-116330000I0J150000D01*
G01*
X88600000Y-114680000D01*
G75*
G02*
X88750000Y-114530000I150000J0D01*
G01*
X89050000Y-114530000D01*
G75*
G02*
X89200000Y-114680000I0J-150000D01*
G01*
X89200000Y-116330000D01*
G75*
G02*
X89050000Y-116480000I-150000J0D01*
G01*
G37*
G36*
G01*
X90320000Y-116480000D02*
X90020000Y-116480000D01*
G75*
G02*
X89870000Y-116330000I0J150000D01*
G01*
X89870000Y-114680000D01*
G75*
G02*
X90020000Y-114530000I150000J0D01*
G01*
X90320000Y-114530000D01*
G75*
G02*
X90470000Y-114680000I0J-150000D01*
G01*
X90470000Y-116330000D01*
G75*
G02*
X90320000Y-116480000I-150000J0D01*
G01*
G37*
G36*
G01*
X90320000Y-111530000D02*
X90020000Y-111530000D01*
G75*
G02*
X89870000Y-111380000I0J150000D01*
G01*
X89870000Y-109730000D01*
G75*
G02*
X90020000Y-109580000I150000J0D01*
G01*
X90320000Y-109580000D01*
G75*
G02*
X90470000Y-109730000I0J-150000D01*
G01*
X90470000Y-111380000D01*
G75*
G02*
X90320000Y-111530000I-150000J0D01*
G01*
G37*
G36*
G01*
X89050000Y-111530000D02*
X88750000Y-111530000D01*
G75*
G02*
X88600000Y-111380000I0J150000D01*
G01*
X88600000Y-109730000D01*
G75*
G02*
X88750000Y-109580000I150000J0D01*
G01*
X89050000Y-109580000D01*
G75*
G02*
X89200000Y-109730000I0J-150000D01*
G01*
X89200000Y-111380000D01*
G75*
G02*
X89050000Y-111530000I-150000J0D01*
G01*
G37*
G36*
G01*
X87780000Y-111530000D02*
X87480000Y-111530000D01*
G75*
G02*
X87330000Y-111380000I0J150000D01*
G01*
X87330000Y-109730000D01*
G75*
G02*
X87480000Y-109580000I150000J0D01*
G01*
X87780000Y-109580000D01*
G75*
G02*
X87930000Y-109730000I0J-150000D01*
G01*
X87930000Y-111380000D01*
G75*
G02*
X87780000Y-111530000I-150000J0D01*
G01*
G37*
G36*
G01*
X86510000Y-111530000D02*
X86210000Y-111530000D01*
G75*
G02*
X86060000Y-111380000I0J150000D01*
G01*
X86060000Y-109730000D01*
G75*
G02*
X86210000Y-109580000I150000J0D01*
G01*
X86510000Y-109580000D01*
G75*
G02*
X86660000Y-109730000I0J-150000D01*
G01*
X86660000Y-111380000D01*
G75*
G02*
X86510000Y-111530000I-150000J0D01*
G01*
G37*
G36*
G01*
X85240000Y-111530000D02*
X84940000Y-111530000D01*
G75*
G02*
X84790000Y-111380000I0J150000D01*
G01*
X84790000Y-109730000D01*
G75*
G02*
X84940000Y-109580000I150000J0D01*
G01*
X85240000Y-109580000D01*
G75*
G02*
X85390000Y-109730000I0J-150000D01*
G01*
X85390000Y-111380000D01*
G75*
G02*
X85240000Y-111530000I-150000J0D01*
G01*
G37*
G36*
G01*
X83970000Y-111530000D02*
X83670000Y-111530000D01*
G75*
G02*
X83520000Y-111380000I0J150000D01*
G01*
X83520000Y-109730000D01*
G75*
G02*
X83670000Y-109580000I150000J0D01*
G01*
X83970000Y-109580000D01*
G75*
G02*
X84120000Y-109730000I0J-150000D01*
G01*
X84120000Y-111380000D01*
G75*
G02*
X83970000Y-111530000I-150000J0D01*
G01*
G37*
G36*
G01*
X82700000Y-111530000D02*
X82400000Y-111530000D01*
G75*
G02*
X82250000Y-111380000I0J150000D01*
G01*
X82250000Y-109730000D01*
G75*
G02*
X82400000Y-109580000I150000J0D01*
G01*
X82700000Y-109580000D01*
G75*
G02*
X82850000Y-109730000I0J-150000D01*
G01*
X82850000Y-111380000D01*
G75*
G02*
X82700000Y-111530000I-150000J0D01*
G01*
G37*
%TD*%
D12*
%TO.C,U3*%
X68580000Y-110338000D03*
D13*
X68580000Y-104038000D03*
X66280000Y-104038000D03*
X70880000Y-104038000D03*
%TD*%
M02*
