%TF.GenerationSoftware,KiCad,Pcbnew,(6.0.4)*%
%TF.CreationDate,2022-03-30T21:28:38+02:00*%
%TF.ProjectId,mister-midi-pcb,6d697374-6572-42d6-9d69-64692d706362,1.11*%
%TF.SameCoordinates,Original*%
%TF.FileFunction,Copper,L2,Bot*%
%TF.FilePolarity,Positive*%
%FSLAX46Y46*%
G04 Gerber Fmt 4.6, Leading zero omitted, Abs format (unit mm)*
G04 Created by KiCad (PCBNEW (6.0.4)) date 2022-03-30 21:28:38*
%MOMM*%
%LPD*%
G01*
G04 APERTURE LIST*
%TA.AperFunction,ComponentPad*%
%ADD10C,2.500000*%
%TD*%
%TA.AperFunction,ComponentPad*%
%ADD11C,1.200000*%
%TD*%
%TA.AperFunction,ComponentPad*%
%ADD12C,3.450000*%
%TD*%
%TA.AperFunction,ViaPad*%
%ADD13C,0.800000*%
%TD*%
%TA.AperFunction,Conductor*%
%ADD14C,0.250000*%
%TD*%
%TA.AperFunction,Conductor*%
%ADD15C,1.000000*%
%TD*%
G04 APERTURE END LIST*
D10*
%TO.P,J1,1*%
%TO.N,unconnected-(J1-Pad1)*%
X93465000Y-88725000D03*
%TO.P,J1,2*%
%TO.N,unconnected-(J1-Pad2)*%
X100965000Y-88725000D03*
%TO.P,J1,3*%
%TO.N,unconnected-(J1-Pad3)*%
X108465000Y-88725000D03*
%TO.P,J1,4*%
%TO.N,Net-(FB1-Pad2)*%
X95965000Y-91225000D03*
%TO.P,J1,5*%
%TO.N,Net-(FB2-Pad2)*%
X105965000Y-91225000D03*
%TO.P,J1,6*%
%TO.N,N/C*%
X95965000Y-78725000D03*
X105965000Y-78725000D03*
%TD*%
%TO.P,J3,1*%
%TO.N,unconnected-(J3-Pad1)*%
X117595000Y-88725000D03*
%TO.P,J3,2*%
%TO.N,GND*%
X125095000Y-88725000D03*
%TO.P,J3,3*%
%TO.N,unconnected-(J3-Pad3)*%
X132595000Y-88725000D03*
%TO.P,J3,4*%
%TO.N,Net-(FB5-Pad2)*%
X120095000Y-91225000D03*
%TO.P,J3,5*%
%TO.N,Net-(FB3-Pad1)*%
X130095000Y-91225000D03*
%TO.P,J3,6*%
%TO.N,N/C*%
X120095000Y-78725000D03*
X130095000Y-78725000D03*
%TD*%
%TO.P,J4,1*%
%TO.N,unconnected-(J4-Pad1)*%
X141725000Y-88725000D03*
%TO.P,J4,2*%
%TO.N,GND*%
X149225000Y-88725000D03*
%TO.P,J4,3*%
%TO.N,unconnected-(J4-Pad3)*%
X156725000Y-88725000D03*
%TO.P,J4,4*%
%TO.N,Net-(FB6-Pad2)*%
X144225000Y-91225000D03*
%TO.P,J4,5*%
%TO.N,Net-(FB4-Pad1)*%
X154225000Y-91225000D03*
%TO.P,J4,6*%
%TO.N,N/C*%
X144225000Y-78725000D03*
X154225000Y-78725000D03*
%TD*%
D11*
%TO.P,J2,1,VBUS*%
%TO.N,+5V*%
X77749400Y-89992200D03*
%TO.P,J2,2,D-*%
%TO.N,Midi_Out_TX*%
X75249400Y-89992200D03*
%TO.P,J2,3,D+*%
%TO.N,Midi_In_RX*%
X73249400Y-89992200D03*
%TO.P,J2,4,GND*%
%TO.N,GND*%
X70749400Y-89992200D03*
%TO.P,J2,5,SSRX-*%
%TO.N,unconnected-(J2-Pad5)*%
X70249400Y-91492200D03*
%TO.P,J2,6,SSRX+*%
%TO.N,unconnected-(J2-Pad6)*%
X72249400Y-91492200D03*
%TO.P,J2,7,DRAIN*%
%TO.N,unconnected-(J2-Pad7)*%
X74249400Y-91492200D03*
%TO.P,J2,8,SSTX-*%
%TO.N,unconnected-(J2-Pad8)*%
X76249400Y-91492200D03*
%TO.P,J2,9,SSTX+*%
%TO.N,unconnected-(J2-Pad9)*%
X78249400Y-91492200D03*
D12*
%TO.P,J2,10,SHIELD*%
%TO.N,unconnected-(J2-Pad10)*%
X80819400Y-87992200D03*
X67679400Y-87992200D03*
%TD*%
D13*
%TO.N,Midi_Out_TX*%
X78740000Y-97282000D03*
X83566000Y-97282000D03*
%TO.N,Midi_In_RX*%
X87122000Y-112522000D03*
X92202000Y-105664000D03*
X93726000Y-111252000D03*
X77978000Y-102362000D03*
X84328000Y-112522000D03*
%TO.N,+3V3*%
X92202000Y-109474000D03*
X73660000Y-106934000D03*
X150622000Y-104902000D03*
X90678000Y-104140000D03*
X126238000Y-105156000D03*
X82550000Y-108458000D03*
%TO.N,Midi_In_RX_Inv*%
X84582000Y-118364000D03*
X88646000Y-122936000D03*
%TO.N,Midi_Out_TX_INV*%
X99568000Y-127254000D03*
X86614000Y-117602000D03*
%TO.N,Net-(U2-Pad10)*%
X86459990Y-108712000D03*
X84328000Y-109220000D03*
%TO.N,Net-(R6-Pad1)*%
X91440000Y-113538000D03*
X126746000Y-117094000D03*
%TO.N,Net-(R7-Pad2)*%
X92202000Y-118618000D03*
X152146000Y-118618000D03*
%TD*%
D14*
%TO.N,Midi_Out_TX*%
X83566000Y-97282000D02*
X78740000Y-97282000D01*
%TO.N,Midi_In_RX*%
X90066740Y-102362000D02*
X77978000Y-102362000D01*
X87630000Y-112522000D02*
X87122000Y-112522000D01*
X92202000Y-105664000D02*
X92202000Y-104497260D01*
X92456000Y-112522000D02*
X87630000Y-112522000D01*
X92202000Y-104497260D02*
X90066740Y-102362000D01*
X93726000Y-111252000D02*
X92456000Y-112522000D01*
X87630000Y-112522000D02*
X84328000Y-112522000D01*
D15*
%TO.N,+3V3*%
X90678000Y-106934000D02*
X125984000Y-106934000D01*
X73660000Y-106934000D02*
X82296000Y-106934000D01*
X126238000Y-105156000D02*
X126238000Y-106680000D01*
X148590000Y-106934000D02*
X150622000Y-104902000D01*
X90678000Y-104140000D02*
X90678000Y-106934000D01*
X90678000Y-106934000D02*
X90678000Y-107950000D01*
X125984000Y-106934000D02*
X148590000Y-106934000D01*
X82296000Y-106934000D02*
X90678000Y-106934000D01*
X82550000Y-108458000D02*
X82550000Y-107188000D01*
X82550000Y-107188000D02*
X82296000Y-106934000D01*
X126238000Y-106680000D02*
X125984000Y-106934000D01*
X90678000Y-107950000D02*
X92202000Y-109474000D01*
D14*
%TO.N,Midi_In_RX_Inv*%
X84582000Y-118364000D02*
X88646000Y-122428000D01*
X88646000Y-122428000D02*
X88646000Y-122936000D01*
%TO.N,Midi_Out_TX_INV*%
X89916000Y-117602000D02*
X99568000Y-127254000D01*
X86614000Y-117602000D02*
X89916000Y-117602000D01*
%TO.N,Net-(U2-Pad10)*%
X84836000Y-108712000D02*
X84328000Y-109220000D01*
X84836000Y-108712000D02*
X86459990Y-108712000D01*
%TO.N,Net-(R6-Pad1)*%
X94996000Y-117094000D02*
X126746000Y-117094000D01*
X91440000Y-113538000D02*
X94996000Y-117094000D01*
%TO.N,Net-(R7-Pad2)*%
X92202000Y-118618000D02*
X152146000Y-118618000D01*
D15*
%TO.N,unconnected-(J2-Pad10)*%
X67679400Y-87992200D02*
X80819400Y-87992200D01*
%TD*%
%TA.AperFunction,Conductor*%
%TO.N,GND*%
G36*
X167327621Y-76728502D02*
G01*
X167374114Y-76782158D01*
X167385500Y-76834500D01*
X167385500Y-144145500D01*
X167365498Y-144213621D01*
X167311842Y-144260114D01*
X167259500Y-144271500D01*
X61594500Y-144271500D01*
X61526379Y-144251498D01*
X61479886Y-144197842D01*
X61468500Y-144145500D01*
X61468500Y-141737703D01*
X62025743Y-141737703D01*
X62063268Y-142022734D01*
X62139129Y-142300036D01*
X62251923Y-142564476D01*
X62399561Y-142811161D01*
X62579313Y-143035528D01*
X62787851Y-143233423D01*
X63021317Y-143401186D01*
X63025112Y-143403195D01*
X63025113Y-143403196D01*
X63046869Y-143414715D01*
X63275392Y-143535712D01*
X63545373Y-143634511D01*
X63826264Y-143695755D01*
X63854841Y-143698004D01*
X64049282Y-143713307D01*
X64049291Y-143713307D01*
X64051739Y-143713500D01*
X64207271Y-143713500D01*
X64209407Y-143713354D01*
X64209418Y-143713354D01*
X64417548Y-143699165D01*
X64417554Y-143699164D01*
X64421825Y-143698873D01*
X64426020Y-143698004D01*
X64426022Y-143698004D01*
X64562583Y-143669724D01*
X64703342Y-143640574D01*
X64974343Y-143544607D01*
X65229812Y-143412750D01*
X65233313Y-143410289D01*
X65233317Y-143410287D01*
X65347417Y-143330096D01*
X65465023Y-143247441D01*
X65675622Y-143051740D01*
X65857713Y-142829268D01*
X66007927Y-142584142D01*
X66123483Y-142320898D01*
X66202244Y-142044406D01*
X66242751Y-141759784D01*
X66242845Y-141741951D01*
X66242867Y-141737703D01*
X162609743Y-141737703D01*
X162647268Y-142022734D01*
X162723129Y-142300036D01*
X162835923Y-142564476D01*
X162983561Y-142811161D01*
X163163313Y-143035528D01*
X163371851Y-143233423D01*
X163605317Y-143401186D01*
X163609112Y-143403195D01*
X163609113Y-143403196D01*
X163630869Y-143414715D01*
X163859392Y-143535712D01*
X164129373Y-143634511D01*
X164410264Y-143695755D01*
X164438841Y-143698004D01*
X164633282Y-143713307D01*
X164633291Y-143713307D01*
X164635739Y-143713500D01*
X164791271Y-143713500D01*
X164793407Y-143713354D01*
X164793418Y-143713354D01*
X165001548Y-143699165D01*
X165001554Y-143699164D01*
X165005825Y-143698873D01*
X165010020Y-143698004D01*
X165010022Y-143698004D01*
X165146583Y-143669724D01*
X165287342Y-143640574D01*
X165558343Y-143544607D01*
X165813812Y-143412750D01*
X165817313Y-143410289D01*
X165817317Y-143410287D01*
X165931417Y-143330096D01*
X166049023Y-143247441D01*
X166259622Y-143051740D01*
X166441713Y-142829268D01*
X166591927Y-142584142D01*
X166707483Y-142320898D01*
X166786244Y-142044406D01*
X166826751Y-141759784D01*
X166826845Y-141741951D01*
X166828235Y-141476583D01*
X166828235Y-141476576D01*
X166828257Y-141472297D01*
X166790732Y-141187266D01*
X166714871Y-140909964D01*
X166602077Y-140645524D01*
X166454439Y-140398839D01*
X166274687Y-140174472D01*
X166066149Y-139976577D01*
X165832683Y-139808814D01*
X165810843Y-139797250D01*
X165787654Y-139784972D01*
X165578608Y-139674288D01*
X165308627Y-139575489D01*
X165027736Y-139514245D01*
X164996685Y-139511801D01*
X164804718Y-139496693D01*
X164804709Y-139496693D01*
X164802261Y-139496500D01*
X164646729Y-139496500D01*
X164644593Y-139496646D01*
X164644582Y-139496646D01*
X164436452Y-139510835D01*
X164436446Y-139510836D01*
X164432175Y-139511127D01*
X164427980Y-139511996D01*
X164427978Y-139511996D01*
X164291416Y-139540277D01*
X164150658Y-139569426D01*
X163879657Y-139665393D01*
X163624188Y-139797250D01*
X163620687Y-139799711D01*
X163620683Y-139799713D01*
X163610594Y-139806804D01*
X163388977Y-139962559D01*
X163178378Y-140158260D01*
X162996287Y-140380732D01*
X162846073Y-140625858D01*
X162730517Y-140889102D01*
X162651756Y-141165594D01*
X162611249Y-141450216D01*
X162611227Y-141454505D01*
X162611226Y-141454512D01*
X162609765Y-141733417D01*
X162609743Y-141737703D01*
X66242867Y-141737703D01*
X66244235Y-141476583D01*
X66244235Y-141476576D01*
X66244257Y-141472297D01*
X66206732Y-141187266D01*
X66130871Y-140909964D01*
X66018077Y-140645524D01*
X65870439Y-140398839D01*
X65690687Y-140174472D01*
X65482149Y-139976577D01*
X65248683Y-139808814D01*
X65226843Y-139797250D01*
X65203654Y-139784972D01*
X64994608Y-139674288D01*
X64724627Y-139575489D01*
X64443736Y-139514245D01*
X64412685Y-139511801D01*
X64220718Y-139496693D01*
X64220709Y-139496693D01*
X64218261Y-139496500D01*
X64062729Y-139496500D01*
X64060593Y-139496646D01*
X64060582Y-139496646D01*
X63852452Y-139510835D01*
X63852446Y-139510836D01*
X63848175Y-139511127D01*
X63843980Y-139511996D01*
X63843978Y-139511996D01*
X63707416Y-139540277D01*
X63566658Y-139569426D01*
X63295657Y-139665393D01*
X63040188Y-139797250D01*
X63036687Y-139799711D01*
X63036683Y-139799713D01*
X63026594Y-139806804D01*
X62804977Y-139962559D01*
X62594378Y-140158260D01*
X62412287Y-140380732D01*
X62262073Y-140625858D01*
X62146517Y-140889102D01*
X62067756Y-141165594D01*
X62027249Y-141450216D01*
X62027227Y-141454505D01*
X62027226Y-141454512D01*
X62025765Y-141733417D01*
X62025743Y-141737703D01*
X61468500Y-141737703D01*
X61468500Y-118364000D01*
X83668496Y-118364000D01*
X83669186Y-118370565D01*
X83683894Y-118510500D01*
X83688458Y-118553928D01*
X83747473Y-118735556D01*
X83842960Y-118900944D01*
X83847378Y-118905851D01*
X83847379Y-118905852D01*
X83966325Y-119037955D01*
X83970747Y-119042866D01*
X84125248Y-119155118D01*
X84131276Y-119157802D01*
X84131278Y-119157803D01*
X84293681Y-119230109D01*
X84299712Y-119232794D01*
X84387716Y-119251500D01*
X84480056Y-119271128D01*
X84480061Y-119271128D01*
X84486513Y-119272500D01*
X84542406Y-119272500D01*
X84610527Y-119292502D01*
X84631501Y-119309405D01*
X87775284Y-122453189D01*
X87809310Y-122515501D01*
X87806022Y-122581220D01*
X87752458Y-122746072D01*
X87732496Y-122936000D01*
X87752458Y-123125928D01*
X87811473Y-123307556D01*
X87906960Y-123472944D01*
X88034747Y-123614866D01*
X88189248Y-123727118D01*
X88195276Y-123729802D01*
X88195278Y-123729803D01*
X88357681Y-123802109D01*
X88363712Y-123804794D01*
X88457113Y-123824647D01*
X88544056Y-123843128D01*
X88544061Y-123843128D01*
X88550513Y-123844500D01*
X88741487Y-123844500D01*
X88747939Y-123843128D01*
X88747944Y-123843128D01*
X88834887Y-123824647D01*
X88928288Y-123804794D01*
X88934319Y-123802109D01*
X89096722Y-123729803D01*
X89096724Y-123729802D01*
X89102752Y-123727118D01*
X89257253Y-123614866D01*
X89385040Y-123472944D01*
X89480527Y-123307556D01*
X89539542Y-123125928D01*
X89559504Y-122936000D01*
X89539542Y-122746072D01*
X89480527Y-122564444D01*
X89385040Y-122399056D01*
X89276784Y-122278825D01*
X89253269Y-122240900D01*
X89248199Y-122228095D01*
X89244354Y-122216865D01*
X89234230Y-122182022D01*
X89232018Y-122174407D01*
X89221707Y-122156972D01*
X89213012Y-122139224D01*
X89205552Y-122120383D01*
X89179564Y-122084613D01*
X89173048Y-122074693D01*
X89154580Y-122043465D01*
X89154578Y-122043462D01*
X89150542Y-122036638D01*
X89136221Y-122022317D01*
X89123380Y-122007283D01*
X89116131Y-121997306D01*
X89111472Y-121990893D01*
X89077395Y-121962702D01*
X89068616Y-121954712D01*
X85529122Y-118415217D01*
X85495096Y-118352905D01*
X85492907Y-118339292D01*
X85476232Y-118180635D01*
X85476232Y-118180633D01*
X85475542Y-118174072D01*
X85416527Y-117992444D01*
X85321040Y-117827056D01*
X85295064Y-117798206D01*
X85197675Y-117690045D01*
X85197674Y-117690044D01*
X85193253Y-117685134D01*
X85078829Y-117602000D01*
X85044094Y-117576763D01*
X85044093Y-117576762D01*
X85038752Y-117572882D01*
X85032724Y-117570198D01*
X85032722Y-117570197D01*
X84870319Y-117497891D01*
X84870318Y-117497891D01*
X84864288Y-117495206D01*
X84751721Y-117471279D01*
X84683944Y-117456872D01*
X84683939Y-117456872D01*
X84677487Y-117455500D01*
X84486513Y-117455500D01*
X84480061Y-117456872D01*
X84480056Y-117456872D01*
X84412279Y-117471279D01*
X84299712Y-117495206D01*
X84293682Y-117497891D01*
X84293681Y-117497891D01*
X84131278Y-117570197D01*
X84131276Y-117570198D01*
X84125248Y-117572882D01*
X84119907Y-117576762D01*
X84119906Y-117576763D01*
X84085171Y-117602000D01*
X83970747Y-117685134D01*
X83966326Y-117690044D01*
X83966325Y-117690045D01*
X83868937Y-117798206D01*
X83842960Y-117827056D01*
X83747473Y-117992444D01*
X83688458Y-118174072D01*
X83687768Y-118180633D01*
X83687768Y-118180635D01*
X83671093Y-118339292D01*
X83668496Y-118364000D01*
X61468500Y-118364000D01*
X61468500Y-112522000D01*
X83414496Y-112522000D01*
X83434458Y-112711928D01*
X83493473Y-112893556D01*
X83588960Y-113058944D01*
X83593378Y-113063851D01*
X83593379Y-113063852D01*
X83679905Y-113159949D01*
X83716747Y-113200866D01*
X83871248Y-113313118D01*
X83877276Y-113315802D01*
X83877278Y-113315803D01*
X83935651Y-113341792D01*
X84045712Y-113390794D01*
X84139112Y-113410647D01*
X84226056Y-113429128D01*
X84226061Y-113429128D01*
X84232513Y-113430500D01*
X84423487Y-113430500D01*
X84429939Y-113429128D01*
X84429944Y-113429128D01*
X84516888Y-113410647D01*
X84610288Y-113390794D01*
X84720349Y-113341792D01*
X84778722Y-113315803D01*
X84778724Y-113315802D01*
X84784752Y-113313118D01*
X84939253Y-113200866D01*
X84943668Y-113195963D01*
X84948580Y-113191540D01*
X84949705Y-113192789D01*
X85003014Y-113159949D01*
X85036200Y-113155500D01*
X86413800Y-113155500D01*
X86481921Y-113175502D01*
X86501147Y-113191843D01*
X86501420Y-113191540D01*
X86506332Y-113195963D01*
X86510747Y-113200866D01*
X86665248Y-113313118D01*
X86671276Y-113315802D01*
X86671278Y-113315803D01*
X86729651Y-113341792D01*
X86839712Y-113390794D01*
X86933112Y-113410647D01*
X87020056Y-113429128D01*
X87020061Y-113429128D01*
X87026513Y-113430500D01*
X87217487Y-113430500D01*
X87223939Y-113429128D01*
X87223944Y-113429128D01*
X87310888Y-113410647D01*
X87404288Y-113390794D01*
X87514349Y-113341792D01*
X87572722Y-113315803D01*
X87572724Y-113315802D01*
X87578752Y-113313118D01*
X87733253Y-113200866D01*
X87737668Y-113195963D01*
X87742580Y-113191540D01*
X87743705Y-113192789D01*
X87797014Y-113159949D01*
X87830200Y-113155500D01*
X90435605Y-113155500D01*
X90503726Y-113175502D01*
X90550219Y-113229158D01*
X90560323Y-113299432D01*
X90555437Y-113320438D01*
X90548498Y-113341792D01*
X90548497Y-113341797D01*
X90546458Y-113348072D01*
X90545768Y-113354633D01*
X90545768Y-113354635D01*
X90529093Y-113513292D01*
X90526496Y-113538000D01*
X90546458Y-113727928D01*
X90605473Y-113909556D01*
X90700960Y-114074944D01*
X90828747Y-114216866D01*
X90983248Y-114329118D01*
X90989276Y-114331802D01*
X90989278Y-114331803D01*
X91151681Y-114404109D01*
X91157712Y-114406794D01*
X91251112Y-114426647D01*
X91338056Y-114445128D01*
X91338061Y-114445128D01*
X91344513Y-114446500D01*
X91400406Y-114446500D01*
X91468527Y-114466502D01*
X91489501Y-114483405D01*
X94492343Y-117486247D01*
X94499887Y-117494537D01*
X94504000Y-117501018D01*
X94509777Y-117506443D01*
X94553667Y-117547658D01*
X94556509Y-117550413D01*
X94576230Y-117570134D01*
X94579425Y-117572612D01*
X94588447Y-117580318D01*
X94620679Y-117610586D01*
X94627628Y-117614406D01*
X94638432Y-117620346D01*
X94654956Y-117631199D01*
X94670959Y-117643613D01*
X94711543Y-117661176D01*
X94722173Y-117666383D01*
X94760940Y-117687695D01*
X94768617Y-117689666D01*
X94768622Y-117689668D01*
X94780558Y-117692732D01*
X94799266Y-117699137D01*
X94817855Y-117707181D01*
X94825680Y-117708420D01*
X94825682Y-117708421D01*
X94861519Y-117714097D01*
X94873140Y-117716504D01*
X94908289Y-117725528D01*
X94915970Y-117727500D01*
X94936231Y-117727500D01*
X94955940Y-117729051D01*
X94975943Y-117732219D01*
X94983835Y-117731473D01*
X94989062Y-117730979D01*
X95019954Y-117728059D01*
X95031811Y-117727500D01*
X126037800Y-117727500D01*
X126105921Y-117747502D01*
X126125159Y-117763853D01*
X126125432Y-117763550D01*
X126126901Y-117764873D01*
X126127497Y-117765841D01*
X126131434Y-117769187D01*
X126134745Y-117772864D01*
X126132865Y-117774557D01*
X126164134Y-117825324D01*
X126162774Y-117896307D01*
X126123253Y-117955287D01*
X126058120Y-117983538D01*
X126042580Y-117984500D01*
X92910200Y-117984500D01*
X92842079Y-117964498D01*
X92822853Y-117948157D01*
X92822580Y-117948460D01*
X92817668Y-117944037D01*
X92813253Y-117939134D01*
X92658752Y-117826882D01*
X92652724Y-117824198D01*
X92652722Y-117824197D01*
X92490319Y-117751891D01*
X92490318Y-117751891D01*
X92484288Y-117749206D01*
X92382170Y-117727500D01*
X92303944Y-117710872D01*
X92303939Y-117710872D01*
X92297487Y-117709500D01*
X92106513Y-117709500D01*
X92100061Y-117710872D01*
X92100056Y-117710872D01*
X92021830Y-117727500D01*
X91919712Y-117749206D01*
X91913682Y-117751891D01*
X91913681Y-117751891D01*
X91751278Y-117824197D01*
X91751276Y-117824198D01*
X91745248Y-117826882D01*
X91590747Y-117939134D01*
X91586326Y-117944044D01*
X91586325Y-117944045D01*
X91549899Y-117984500D01*
X91537088Y-117998729D01*
X91470312Y-118072891D01*
X91409866Y-118110131D01*
X91338883Y-118108779D01*
X91287581Y-118077676D01*
X90419652Y-117209747D01*
X90412112Y-117201461D01*
X90408000Y-117194982D01*
X90358348Y-117148356D01*
X90355507Y-117145602D01*
X90335770Y-117125865D01*
X90332573Y-117123385D01*
X90323551Y-117115680D01*
X90297100Y-117090841D01*
X90291321Y-117085414D01*
X90284375Y-117081595D01*
X90284372Y-117081593D01*
X90273566Y-117075652D01*
X90257047Y-117064801D01*
X90251048Y-117060148D01*
X90241041Y-117052386D01*
X90233772Y-117049241D01*
X90233768Y-117049238D01*
X90200463Y-117034826D01*
X90189813Y-117029609D01*
X90151060Y-117008305D01*
X90131437Y-117003267D01*
X90112734Y-116996863D01*
X90101420Y-116991967D01*
X90101419Y-116991967D01*
X90094145Y-116988819D01*
X90086322Y-116987580D01*
X90086312Y-116987577D01*
X90050476Y-116981901D01*
X90038856Y-116979495D01*
X90003711Y-116970472D01*
X90003710Y-116970472D01*
X89996030Y-116968500D01*
X89975776Y-116968500D01*
X89956065Y-116966949D01*
X89943886Y-116965020D01*
X89936057Y-116963780D01*
X89928165Y-116964526D01*
X89892039Y-116967941D01*
X89880181Y-116968500D01*
X87322200Y-116968500D01*
X87254079Y-116948498D01*
X87234853Y-116932157D01*
X87234580Y-116932460D01*
X87229668Y-116928037D01*
X87225253Y-116923134D01*
X87070752Y-116810882D01*
X87064724Y-116808198D01*
X87064722Y-116808197D01*
X86902319Y-116735891D01*
X86902318Y-116735891D01*
X86896288Y-116733206D01*
X86802887Y-116713353D01*
X86715944Y-116694872D01*
X86715939Y-116694872D01*
X86709487Y-116693500D01*
X86518513Y-116693500D01*
X86512061Y-116694872D01*
X86512056Y-116694872D01*
X86425113Y-116713353D01*
X86331712Y-116733206D01*
X86325682Y-116735891D01*
X86325681Y-116735891D01*
X86163278Y-116808197D01*
X86163276Y-116808198D01*
X86157248Y-116810882D01*
X86002747Y-116923134D01*
X85998326Y-116928044D01*
X85998325Y-116928045D01*
X85889203Y-117049238D01*
X85874960Y-117065056D01*
X85779473Y-117230444D01*
X85720458Y-117412072D01*
X85719768Y-117418633D01*
X85719768Y-117418635D01*
X85703148Y-117576763D01*
X85700496Y-117602000D01*
X85701186Y-117608565D01*
X85718783Y-117775988D01*
X85720458Y-117791928D01*
X85779473Y-117973556D01*
X85782776Y-117979278D01*
X85782777Y-117979279D01*
X85787074Y-117986721D01*
X85874960Y-118138944D01*
X85879378Y-118143851D01*
X85879379Y-118143852D01*
X85906589Y-118174072D01*
X86002747Y-118280866D01*
X86083163Y-118339292D01*
X86126207Y-118370565D01*
X86157248Y-118393118D01*
X86163276Y-118395802D01*
X86163278Y-118395803D01*
X86235756Y-118428072D01*
X86331712Y-118470794D01*
X86425113Y-118490647D01*
X86512056Y-118509128D01*
X86512061Y-118509128D01*
X86518513Y-118510500D01*
X86709487Y-118510500D01*
X86715939Y-118509128D01*
X86715944Y-118509128D01*
X86802887Y-118490647D01*
X86896288Y-118470794D01*
X86992244Y-118428072D01*
X87064722Y-118395803D01*
X87064724Y-118395802D01*
X87070752Y-118393118D01*
X87101794Y-118370565D01*
X87203671Y-118296546D01*
X87225253Y-118280866D01*
X87229668Y-118275963D01*
X87234580Y-118271540D01*
X87235705Y-118272789D01*
X87289014Y-118239949D01*
X87322200Y-118235500D01*
X89601406Y-118235500D01*
X89669527Y-118255502D01*
X89690501Y-118272405D01*
X98620878Y-127202782D01*
X98654904Y-127265094D01*
X98657092Y-127278703D01*
X98674458Y-127443928D01*
X98733473Y-127625556D01*
X98828960Y-127790944D01*
X98956747Y-127932866D01*
X99111248Y-128045118D01*
X99117276Y-128047802D01*
X99117278Y-128047803D01*
X99279681Y-128120109D01*
X99285712Y-128122794D01*
X99379113Y-128142647D01*
X99466056Y-128161128D01*
X99466061Y-128161128D01*
X99472513Y-128162500D01*
X99663487Y-128162500D01*
X99669939Y-128161128D01*
X99669944Y-128161128D01*
X99756887Y-128142647D01*
X99850288Y-128122794D01*
X99856319Y-128120109D01*
X100018722Y-128047803D01*
X100018724Y-128047802D01*
X100024752Y-128045118D01*
X100179253Y-127932866D01*
X100307040Y-127790944D01*
X100402527Y-127625556D01*
X100461542Y-127443928D01*
X100481504Y-127254000D01*
X100461542Y-127064072D01*
X100402527Y-126882444D01*
X100307040Y-126717056D01*
X100179253Y-126575134D01*
X100024752Y-126462882D01*
X100018724Y-126460198D01*
X100018722Y-126460197D01*
X99856319Y-126387891D01*
X99856318Y-126387891D01*
X99850288Y-126385206D01*
X99756887Y-126365353D01*
X99669944Y-126346872D01*
X99669939Y-126346872D01*
X99663487Y-126345500D01*
X99607595Y-126345500D01*
X99539474Y-126325498D01*
X99518500Y-126308595D01*
X92740058Y-119530153D01*
X92706032Y-119467841D01*
X92711097Y-119397026D01*
X92755092Y-119339123D01*
X92813253Y-119296866D01*
X92817668Y-119291962D01*
X92822580Y-119287540D01*
X92823705Y-119288789D01*
X92877014Y-119255949D01*
X92910200Y-119251500D01*
X151437800Y-119251500D01*
X151505921Y-119271502D01*
X151525147Y-119287843D01*
X151525420Y-119287540D01*
X151530332Y-119291963D01*
X151534747Y-119296866D01*
X151689248Y-119409118D01*
X151695276Y-119411802D01*
X151695278Y-119411803D01*
X151857681Y-119484109D01*
X151863712Y-119486794D01*
X151957113Y-119506647D01*
X152044056Y-119525128D01*
X152044061Y-119525128D01*
X152050513Y-119526500D01*
X152241487Y-119526500D01*
X152247939Y-119525128D01*
X152247944Y-119525128D01*
X152334887Y-119506647D01*
X152428288Y-119486794D01*
X152434319Y-119484109D01*
X152596722Y-119411803D01*
X152596724Y-119411802D01*
X152602752Y-119409118D01*
X152757253Y-119296866D01*
X152885040Y-119154944D01*
X152980527Y-118989556D01*
X153039542Y-118807928D01*
X153059504Y-118618000D01*
X153052080Y-118547365D01*
X153040232Y-118434635D01*
X153040232Y-118434633D01*
X153039542Y-118428072D01*
X152980527Y-118246444D01*
X152974209Y-118235500D01*
X152888341Y-118086774D01*
X152885040Y-118081056D01*
X152805254Y-117992444D01*
X152761675Y-117944045D01*
X152761674Y-117944044D01*
X152757253Y-117939134D01*
X152602752Y-117826882D01*
X152596724Y-117824198D01*
X152596722Y-117824197D01*
X152434319Y-117751891D01*
X152434318Y-117751891D01*
X152428288Y-117749206D01*
X152326170Y-117727500D01*
X152247944Y-117710872D01*
X152247939Y-117710872D01*
X152241487Y-117709500D01*
X152050513Y-117709500D01*
X152044061Y-117710872D01*
X152044056Y-117710872D01*
X151965830Y-117727500D01*
X151863712Y-117749206D01*
X151857682Y-117751891D01*
X151857681Y-117751891D01*
X151695278Y-117824197D01*
X151695276Y-117824198D01*
X151689248Y-117826882D01*
X151534747Y-117939134D01*
X151530332Y-117944037D01*
X151525420Y-117948460D01*
X151524295Y-117947211D01*
X151470986Y-117980051D01*
X151437800Y-117984500D01*
X127449419Y-117984500D01*
X127381298Y-117964498D01*
X127334805Y-117910842D01*
X127324701Y-117840568D01*
X127354195Y-117775988D01*
X127357255Y-117772868D01*
X127357253Y-117772866D01*
X127480621Y-117635852D01*
X127480622Y-117635851D01*
X127485040Y-117630944D01*
X127563409Y-117495206D01*
X127577223Y-117471279D01*
X127577224Y-117471278D01*
X127580527Y-117465556D01*
X127639542Y-117283928D01*
X127648891Y-117194982D01*
X127658814Y-117100565D01*
X127659504Y-117094000D01*
X127645896Y-116964526D01*
X127640232Y-116910635D01*
X127640232Y-116910633D01*
X127639542Y-116904072D01*
X127580527Y-116722444D01*
X127485040Y-116557056D01*
X127357253Y-116415134D01*
X127202752Y-116302882D01*
X127196724Y-116300198D01*
X127196722Y-116300197D01*
X127034319Y-116227891D01*
X127034318Y-116227891D01*
X127028288Y-116225206D01*
X126934887Y-116205353D01*
X126847944Y-116186872D01*
X126847939Y-116186872D01*
X126841487Y-116185500D01*
X126650513Y-116185500D01*
X126644061Y-116186872D01*
X126644056Y-116186872D01*
X126557113Y-116205353D01*
X126463712Y-116225206D01*
X126457682Y-116227891D01*
X126457681Y-116227891D01*
X126295278Y-116300197D01*
X126295276Y-116300198D01*
X126289248Y-116302882D01*
X126134747Y-116415134D01*
X126130332Y-116420037D01*
X126125420Y-116424460D01*
X126124295Y-116423211D01*
X126070986Y-116456051D01*
X126037800Y-116460500D01*
X95310595Y-116460500D01*
X95242474Y-116440498D01*
X95221500Y-116423595D01*
X92387122Y-113589217D01*
X92353096Y-113526905D01*
X92350907Y-113513292D01*
X92334232Y-113354635D01*
X92334232Y-113354633D01*
X92333542Y-113348072D01*
X92324800Y-113321167D01*
X92322774Y-113250200D01*
X92359437Y-113189403D01*
X92423150Y-113158078D01*
X92440674Y-113156295D01*
X92461656Y-113155635D01*
X92463986Y-113155562D01*
X92467945Y-113155500D01*
X92495856Y-113155500D01*
X92499791Y-113155003D01*
X92499856Y-113154995D01*
X92511693Y-113154062D01*
X92543951Y-113153048D01*
X92547970Y-113152922D01*
X92555889Y-113152673D01*
X92575343Y-113147021D01*
X92594700Y-113143013D01*
X92606930Y-113141468D01*
X92606931Y-113141468D01*
X92614797Y-113140474D01*
X92622168Y-113137555D01*
X92622170Y-113137555D01*
X92655912Y-113124196D01*
X92667142Y-113120351D01*
X92701983Y-113110229D01*
X92701984Y-113110229D01*
X92709593Y-113108018D01*
X92716412Y-113103985D01*
X92716417Y-113103983D01*
X92727028Y-113097707D01*
X92744776Y-113089012D01*
X92763617Y-113081552D01*
X92799387Y-113055564D01*
X92809307Y-113049048D01*
X92840535Y-113030580D01*
X92840538Y-113030578D01*
X92847362Y-113026542D01*
X92861683Y-113012221D01*
X92876717Y-112999380D01*
X92886694Y-112992131D01*
X92893107Y-112987472D01*
X92921298Y-112953395D01*
X92929288Y-112944616D01*
X93676499Y-112197405D01*
X93738811Y-112163379D01*
X93765594Y-112160500D01*
X93821487Y-112160500D01*
X93827939Y-112159128D01*
X93827944Y-112159128D01*
X93914887Y-112140647D01*
X94008288Y-112120794D01*
X94014319Y-112118109D01*
X94176722Y-112045803D01*
X94176724Y-112045802D01*
X94182752Y-112043118D01*
X94337253Y-111930866D01*
X94341675Y-111925955D01*
X94460621Y-111793852D01*
X94460622Y-111793851D01*
X94465040Y-111788944D01*
X94560527Y-111623556D01*
X94619542Y-111441928D01*
X94639504Y-111252000D01*
X94619542Y-111062072D01*
X94560527Y-110880444D01*
X94465040Y-110715056D01*
X94337253Y-110573134D01*
X94218415Y-110486793D01*
X94188094Y-110464763D01*
X94188093Y-110464762D01*
X94182752Y-110460882D01*
X94176724Y-110458198D01*
X94176722Y-110458197D01*
X94014319Y-110385891D01*
X94014318Y-110385891D01*
X94008288Y-110383206D01*
X93914887Y-110363353D01*
X93827944Y-110344872D01*
X93827939Y-110344872D01*
X93821487Y-110343500D01*
X93630513Y-110343500D01*
X93624061Y-110344872D01*
X93624056Y-110344872D01*
X93537113Y-110363353D01*
X93443712Y-110383206D01*
X93437682Y-110385891D01*
X93437681Y-110385891D01*
X93275278Y-110458197D01*
X93275276Y-110458198D01*
X93269248Y-110460882D01*
X93263907Y-110464762D01*
X93263906Y-110464763D01*
X93233585Y-110486793D01*
X93114747Y-110573134D01*
X92986960Y-110715056D01*
X92891473Y-110880444D01*
X92832458Y-111062072D01*
X92831768Y-111068633D01*
X92831768Y-111068635D01*
X92815093Y-111227292D01*
X92788080Y-111292949D01*
X92778878Y-111303217D01*
X92230500Y-111851595D01*
X92168188Y-111885621D01*
X92141405Y-111888500D01*
X87830200Y-111888500D01*
X87762079Y-111868498D01*
X87742853Y-111852157D01*
X87742580Y-111852460D01*
X87737668Y-111848037D01*
X87733253Y-111843134D01*
X87711671Y-111827454D01*
X87584094Y-111734763D01*
X87584093Y-111734762D01*
X87578752Y-111730882D01*
X87572724Y-111728198D01*
X87572722Y-111728197D01*
X87410319Y-111655891D01*
X87410318Y-111655891D01*
X87404288Y-111653206D01*
X87291721Y-111629279D01*
X87223944Y-111614872D01*
X87223939Y-111614872D01*
X87217487Y-111613500D01*
X87026513Y-111613500D01*
X87020061Y-111614872D01*
X87020056Y-111614872D01*
X86952279Y-111629279D01*
X86839712Y-111653206D01*
X86833682Y-111655891D01*
X86833681Y-111655891D01*
X86671278Y-111728197D01*
X86671276Y-111728198D01*
X86665248Y-111730882D01*
X86659907Y-111734762D01*
X86659906Y-111734763D01*
X86532329Y-111827454D01*
X86510747Y-111843134D01*
X86506332Y-111848037D01*
X86501420Y-111852460D01*
X86500295Y-111851211D01*
X86446986Y-111884051D01*
X86413800Y-111888500D01*
X85036200Y-111888500D01*
X84968079Y-111868498D01*
X84948853Y-111852157D01*
X84948580Y-111852460D01*
X84943668Y-111848037D01*
X84939253Y-111843134D01*
X84917671Y-111827454D01*
X84790094Y-111734763D01*
X84790093Y-111734762D01*
X84784752Y-111730882D01*
X84778724Y-111728198D01*
X84778722Y-111728197D01*
X84616319Y-111655891D01*
X84616318Y-111655891D01*
X84610288Y-111653206D01*
X84497721Y-111629279D01*
X84429944Y-111614872D01*
X84429939Y-111614872D01*
X84423487Y-111613500D01*
X84232513Y-111613500D01*
X84226061Y-111614872D01*
X84226056Y-111614872D01*
X84158279Y-111629279D01*
X84045712Y-111653206D01*
X84039682Y-111655891D01*
X84039681Y-111655891D01*
X83877278Y-111728197D01*
X83877276Y-111728198D01*
X83871248Y-111730882D01*
X83716747Y-111843134D01*
X83712326Y-111848044D01*
X83712325Y-111848045D01*
X83634257Y-111934749D01*
X83588960Y-111985056D01*
X83493473Y-112150444D01*
X83434458Y-112332072D01*
X83414496Y-112522000D01*
X61468500Y-112522000D01*
X61468500Y-106926925D01*
X72646645Y-106926925D01*
X72664570Y-107123888D01*
X72720410Y-107313619D01*
X72812040Y-107488890D01*
X72935968Y-107643025D01*
X72940692Y-107646989D01*
X72947933Y-107653065D01*
X73087474Y-107770154D01*
X73092872Y-107773121D01*
X73092877Y-107773125D01*
X73190253Y-107826657D01*
X73260787Y-107865433D01*
X73266654Y-107867294D01*
X73266656Y-107867295D01*
X73443436Y-107923373D01*
X73449306Y-107925235D01*
X73603227Y-107942500D01*
X81415500Y-107942500D01*
X81483621Y-107962502D01*
X81530114Y-108016158D01*
X81541500Y-108068500D01*
X81541500Y-108507769D01*
X81541800Y-108510825D01*
X81541800Y-108510832D01*
X81547537Y-108569340D01*
X81555920Y-108654833D01*
X81557702Y-108660734D01*
X81557702Y-108660736D01*
X81560105Y-108668694D01*
X81613084Y-108844169D01*
X81705934Y-109018796D01*
X81715131Y-109030072D01*
X81827040Y-109167287D01*
X81827043Y-109167290D01*
X81830935Y-109172062D01*
X81835682Y-109175989D01*
X81835684Y-109175991D01*
X81978575Y-109294201D01*
X81978579Y-109294203D01*
X81983325Y-109298130D01*
X82157299Y-109392198D01*
X82346232Y-109450682D01*
X82352357Y-109451326D01*
X82352358Y-109451326D01*
X82536796Y-109470711D01*
X82536798Y-109470711D01*
X82542925Y-109471355D01*
X82625424Y-109463847D01*
X82733749Y-109453989D01*
X82733752Y-109453988D01*
X82739888Y-109453430D01*
X82745794Y-109451692D01*
X82745798Y-109451691D01*
X82887697Y-109409928D01*
X82929619Y-109397590D01*
X82935077Y-109394737D01*
X82935081Y-109394735D01*
X83029257Y-109345500D01*
X83104890Y-109305960D01*
X83218598Y-109214536D01*
X83284218Y-109187441D01*
X83354073Y-109200124D01*
X83405981Y-109248560D01*
X83422858Y-109299563D01*
X83433161Y-109397590D01*
X83434458Y-109409928D01*
X83493473Y-109591556D01*
X83588960Y-109756944D01*
X83716747Y-109898866D01*
X83871248Y-110011118D01*
X83877276Y-110013802D01*
X83877278Y-110013803D01*
X83932073Y-110038199D01*
X84045712Y-110088794D01*
X84139113Y-110108647D01*
X84226056Y-110127128D01*
X84226061Y-110127128D01*
X84232513Y-110128500D01*
X84423487Y-110128500D01*
X84429939Y-110127128D01*
X84429944Y-110127128D01*
X84516887Y-110108647D01*
X84610288Y-110088794D01*
X84723927Y-110038199D01*
X84778722Y-110013803D01*
X84778724Y-110013802D01*
X84784752Y-110011118D01*
X84939253Y-109898866D01*
X85067040Y-109756944D01*
X85162527Y-109591556D01*
X85214187Y-109432564D01*
X85254261Y-109373958D01*
X85319657Y-109346321D01*
X85334020Y-109345500D01*
X85751790Y-109345500D01*
X85819911Y-109365502D01*
X85839137Y-109381843D01*
X85839410Y-109381540D01*
X85844322Y-109385963D01*
X85848737Y-109390866D01*
X85857992Y-109397590D01*
X85986196Y-109490736D01*
X86003238Y-109503118D01*
X86009266Y-109505802D01*
X86009268Y-109505803D01*
X86171671Y-109578109D01*
X86177702Y-109580794D01*
X86271103Y-109600647D01*
X86358046Y-109619128D01*
X86358051Y-109619128D01*
X86364503Y-109620500D01*
X86555477Y-109620500D01*
X86561929Y-109619128D01*
X86561934Y-109619128D01*
X86648878Y-109600647D01*
X86742278Y-109580794D01*
X86748309Y-109578109D01*
X86910712Y-109505803D01*
X86910714Y-109505802D01*
X86916742Y-109503118D01*
X86933785Y-109490736D01*
X87013851Y-109432564D01*
X87071243Y-109390866D01*
X87094081Y-109365502D01*
X87194611Y-109253852D01*
X87194612Y-109253851D01*
X87199030Y-109248944D01*
X87294517Y-109083556D01*
X87353532Y-108901928D01*
X87373494Y-108712000D01*
X87359971Y-108583339D01*
X87354222Y-108528635D01*
X87354222Y-108528633D01*
X87353532Y-108522072D01*
X87294517Y-108340444D01*
X87199030Y-108175056D01*
X87178998Y-108152808D01*
X87148282Y-108088802D01*
X87157047Y-108018348D01*
X87202511Y-107963818D01*
X87272636Y-107942500D01*
X89549490Y-107942500D01*
X89617611Y-107962502D01*
X89664104Y-108016158D01*
X89675011Y-108057519D01*
X89681913Y-108136413D01*
X89683400Y-108141532D01*
X89683920Y-108146833D01*
X89710791Y-108235834D01*
X89711126Y-108236967D01*
X89732781Y-108311500D01*
X89737091Y-108326336D01*
X89739544Y-108331068D01*
X89741084Y-108336169D01*
X89743978Y-108341612D01*
X89784731Y-108418260D01*
X89785343Y-108419426D01*
X89810324Y-108467618D01*
X89828108Y-108501926D01*
X89831431Y-108506089D01*
X89833934Y-108510796D01*
X89892755Y-108582918D01*
X89893446Y-108583774D01*
X89924738Y-108622973D01*
X89927242Y-108625477D01*
X89927884Y-108626195D01*
X89931585Y-108630528D01*
X89958935Y-108664062D01*
X89963682Y-108667989D01*
X89963684Y-108667991D01*
X89994262Y-108693287D01*
X90003042Y-108701277D01*
X91524074Y-110222309D01*
X91638261Y-110316102D01*
X91689358Y-110343500D01*
X91760851Y-110381834D01*
X91812563Y-110409562D01*
X91921219Y-110442782D01*
X91995800Y-110465584D01*
X91995802Y-110465584D01*
X92001698Y-110467387D01*
X92015225Y-110468761D01*
X92192334Y-110486751D01*
X92192339Y-110486751D01*
X92198462Y-110487373D01*
X92307322Y-110477083D01*
X92389230Y-110469341D01*
X92389234Y-110469340D01*
X92395362Y-110468761D01*
X92401260Y-110467003D01*
X92401264Y-110467002D01*
X92578993Y-110414019D01*
X92578995Y-110414018D01*
X92584896Y-110412259D01*
X92759846Y-110320018D01*
X92769516Y-110312188D01*
X92908757Y-110199432D01*
X92908758Y-110199431D01*
X92913547Y-110195553D01*
X92925105Y-110181680D01*
X93036205Y-110048335D01*
X93036208Y-110048330D01*
X93040146Y-110043604D01*
X93134821Y-109869959D01*
X93193964Y-109681231D01*
X93200711Y-109619128D01*
X93214659Y-109490736D01*
X93214659Y-109490732D01*
X93215324Y-109484611D01*
X93198087Y-109287587D01*
X93196368Y-109281670D01*
X93196367Y-109281665D01*
X93144626Y-109103577D01*
X93142908Y-109097663D01*
X93051892Y-108922074D01*
X92955261Y-108801027D01*
X92311829Y-108157595D01*
X92277803Y-108095283D01*
X92282868Y-108024468D01*
X92325415Y-107967632D01*
X92391935Y-107942821D01*
X92400924Y-107942500D01*
X125922157Y-107942500D01*
X125935764Y-107943237D01*
X125967262Y-107946659D01*
X125967267Y-107946659D01*
X125973388Y-107947324D01*
X126023053Y-107942979D01*
X126034034Y-107942500D01*
X148528157Y-107942500D01*
X148541764Y-107943237D01*
X148573262Y-107946659D01*
X148573267Y-107946659D01*
X148579388Y-107947324D01*
X148605638Y-107945027D01*
X148629388Y-107942950D01*
X148634214Y-107942621D01*
X148636686Y-107942500D01*
X148639769Y-107942500D01*
X148651738Y-107941326D01*
X148682506Y-107938310D01*
X148683819Y-107938188D01*
X148728084Y-107934315D01*
X148776413Y-107930087D01*
X148781532Y-107928600D01*
X148786833Y-107928080D01*
X148875834Y-107901209D01*
X148876967Y-107900874D01*
X148960414Y-107876630D01*
X148960418Y-107876628D01*
X148966336Y-107874909D01*
X148971068Y-107872456D01*
X148976169Y-107870916D01*
X148992060Y-107862467D01*
X149058260Y-107827269D01*
X149059426Y-107826657D01*
X149136453Y-107786729D01*
X149141926Y-107783892D01*
X149146089Y-107780569D01*
X149150796Y-107778066D01*
X149222918Y-107719245D01*
X149223774Y-107718554D01*
X149262973Y-107687262D01*
X149265477Y-107684758D01*
X149266195Y-107684116D01*
X149270528Y-107680415D01*
X149304062Y-107653065D01*
X149333288Y-107617737D01*
X149341277Y-107608958D01*
X151368127Y-105582107D01*
X151370309Y-105579925D01*
X151464103Y-105465739D01*
X151557562Y-105291437D01*
X151609318Y-105122153D01*
X151613584Y-105108200D01*
X151613584Y-105108198D01*
X151615387Y-105102302D01*
X151627630Y-104981779D01*
X151634752Y-104911666D01*
X151634752Y-104911661D01*
X151635374Y-104905538D01*
X151622546Y-104769831D01*
X151617341Y-104714771D01*
X151617341Y-104714769D01*
X151616761Y-104708638D01*
X151560259Y-104519104D01*
X151468018Y-104344154D01*
X151438774Y-104308040D01*
X151347432Y-104195243D01*
X151347431Y-104195242D01*
X151343553Y-104190453D01*
X151286172Y-104142645D01*
X151196338Y-104067798D01*
X151196337Y-104067797D01*
X151191604Y-104063854D01*
X151017959Y-103969178D01*
X150910252Y-103935425D01*
X150835114Y-103911878D01*
X150835111Y-103911877D01*
X150829232Y-103910035D01*
X150823109Y-103909370D01*
X150823105Y-103909369D01*
X150638737Y-103889341D01*
X150638733Y-103889341D01*
X150632612Y-103888676D01*
X150435587Y-103905913D01*
X150429670Y-103907632D01*
X150429665Y-103907633D01*
X150298936Y-103945614D01*
X150245664Y-103961091D01*
X150070074Y-104052108D01*
X150039465Y-104076543D01*
X149951777Y-104146542D01*
X149951770Y-104146549D01*
X149949027Y-104148738D01*
X149946532Y-104151233D01*
X148209171Y-105888595D01*
X148146859Y-105922620D01*
X148120076Y-105925500D01*
X127372500Y-105925500D01*
X127304379Y-105905498D01*
X127257886Y-105851842D01*
X127246500Y-105799500D01*
X127246500Y-105106231D01*
X127245814Y-105099227D01*
X127232681Y-104965301D01*
X127232080Y-104959167D01*
X127215889Y-104905538D01*
X127176697Y-104775731D01*
X127174916Y-104769831D01*
X127082066Y-104595204D01*
X126995662Y-104489262D01*
X126960960Y-104446713D01*
X126960957Y-104446710D01*
X126957065Y-104441938D01*
X126950724Y-104436692D01*
X126809425Y-104319799D01*
X126809421Y-104319797D01*
X126804675Y-104315870D01*
X126630701Y-104221802D01*
X126441768Y-104163318D01*
X126435643Y-104162674D01*
X126435642Y-104162674D01*
X126251204Y-104143289D01*
X126251202Y-104143289D01*
X126245075Y-104142645D01*
X126174476Y-104149070D01*
X126054251Y-104160011D01*
X126054248Y-104160012D01*
X126048112Y-104160570D01*
X126042206Y-104162308D01*
X126042202Y-104162309D01*
X125959981Y-104186508D01*
X125858381Y-104216410D01*
X125852923Y-104219263D01*
X125852919Y-104219265D01*
X125806243Y-104243667D01*
X125683110Y-104308040D01*
X125528975Y-104431968D01*
X125401846Y-104583474D01*
X125398879Y-104588872D01*
X125398875Y-104588877D01*
X125395397Y-104595204D01*
X125306567Y-104756787D01*
X125304706Y-104762654D01*
X125304705Y-104762656D01*
X125261325Y-104899407D01*
X125246765Y-104945306D01*
X125229500Y-105099227D01*
X125229500Y-105799500D01*
X125209498Y-105867621D01*
X125155842Y-105914114D01*
X125103500Y-105925500D01*
X93227957Y-105925500D01*
X93159836Y-105905498D01*
X93113343Y-105851842D01*
X93102647Y-105786330D01*
X93114814Y-105670565D01*
X93115504Y-105664000D01*
X93106897Y-105582107D01*
X93096232Y-105480635D01*
X93096232Y-105480633D01*
X93095542Y-105474072D01*
X93036527Y-105292444D01*
X92941040Y-105127056D01*
X92867863Y-105045785D01*
X92837147Y-104981779D01*
X92835500Y-104961476D01*
X92835500Y-104576028D01*
X92836027Y-104564845D01*
X92837702Y-104557352D01*
X92836686Y-104525007D01*
X92835562Y-104489262D01*
X92835500Y-104485304D01*
X92835500Y-104457404D01*
X92834996Y-104453413D01*
X92834063Y-104441571D01*
X92833762Y-104431968D01*
X92832674Y-104397371D01*
X92827021Y-104377912D01*
X92823012Y-104358553D01*
X92821881Y-104349604D01*
X92820474Y-104338463D01*
X92817558Y-104331097D01*
X92817556Y-104331091D01*
X92804200Y-104297358D01*
X92800355Y-104286128D01*
X92790230Y-104251277D01*
X92790230Y-104251276D01*
X92788019Y-104243667D01*
X92777705Y-104226226D01*
X92769008Y-104208473D01*
X92764472Y-104197018D01*
X92761552Y-104189643D01*
X92735563Y-104153872D01*
X92729047Y-104143952D01*
X92710578Y-104112723D01*
X92706542Y-104105898D01*
X92692221Y-104091577D01*
X92679380Y-104076543D01*
X92672131Y-104066566D01*
X92667472Y-104060153D01*
X92633395Y-104031962D01*
X92624616Y-104023972D01*
X90570392Y-101969747D01*
X90562852Y-101961461D01*
X90558740Y-101954982D01*
X90509088Y-101908356D01*
X90506247Y-101905602D01*
X90486510Y-101885865D01*
X90483313Y-101883385D01*
X90474291Y-101875680D01*
X90447840Y-101850841D01*
X90442061Y-101845414D01*
X90435115Y-101841595D01*
X90435112Y-101841593D01*
X90424306Y-101835652D01*
X90407787Y-101824801D01*
X90401788Y-101820148D01*
X90391781Y-101812386D01*
X90384512Y-101809241D01*
X90384508Y-101809238D01*
X90351203Y-101794826D01*
X90340553Y-101789609D01*
X90301800Y-101768305D01*
X90282177Y-101763267D01*
X90263474Y-101756863D01*
X90252160Y-101751967D01*
X90252159Y-101751967D01*
X90244885Y-101748819D01*
X90237062Y-101747580D01*
X90237052Y-101747577D01*
X90201216Y-101741901D01*
X90189596Y-101739495D01*
X90154451Y-101730472D01*
X90154450Y-101730472D01*
X90146770Y-101728500D01*
X90126516Y-101728500D01*
X90106805Y-101726949D01*
X90094626Y-101725020D01*
X90086797Y-101723780D01*
X90078905Y-101724526D01*
X90042779Y-101727941D01*
X90030921Y-101728500D01*
X78686200Y-101728500D01*
X78618079Y-101708498D01*
X78598853Y-101692157D01*
X78598580Y-101692460D01*
X78593668Y-101688037D01*
X78589253Y-101683134D01*
X78434752Y-101570882D01*
X78428724Y-101568198D01*
X78428722Y-101568197D01*
X78266319Y-101495891D01*
X78266318Y-101495891D01*
X78260288Y-101493206D01*
X78166887Y-101473353D01*
X78079944Y-101454872D01*
X78079939Y-101454872D01*
X78073487Y-101453500D01*
X77882513Y-101453500D01*
X77876061Y-101454872D01*
X77876056Y-101454872D01*
X77789112Y-101473353D01*
X77695712Y-101493206D01*
X77689682Y-101495891D01*
X77689681Y-101495891D01*
X77527278Y-101568197D01*
X77527276Y-101568198D01*
X77521248Y-101570882D01*
X77366747Y-101683134D01*
X77362326Y-101688044D01*
X77362325Y-101688045D01*
X77253203Y-101809238D01*
X77238960Y-101825056D01*
X77143473Y-101990444D01*
X77084458Y-102172072D01*
X77064496Y-102362000D01*
X77084458Y-102551928D01*
X77143473Y-102733556D01*
X77238960Y-102898944D01*
X77366747Y-103040866D01*
X77521248Y-103153118D01*
X77527276Y-103155802D01*
X77527278Y-103155803D01*
X77632501Y-103202651D01*
X77695712Y-103230794D01*
X77789112Y-103250647D01*
X77876056Y-103269128D01*
X77876061Y-103269128D01*
X77882513Y-103270500D01*
X78073487Y-103270500D01*
X78079939Y-103269128D01*
X78079944Y-103269128D01*
X78166887Y-103250647D01*
X78260288Y-103230794D01*
X78323499Y-103202651D01*
X78428722Y-103155803D01*
X78428724Y-103155802D01*
X78434752Y-103153118D01*
X78589253Y-103040866D01*
X78593668Y-103035963D01*
X78598580Y-103031540D01*
X78599705Y-103032789D01*
X78653014Y-102999949D01*
X78686200Y-102995500D01*
X89752146Y-102995500D01*
X89820267Y-103015502D01*
X89841241Y-103032405D01*
X90011487Y-103202651D01*
X90045513Y-103264963D01*
X90040448Y-103335778D01*
X90001346Y-103389941D01*
X89968975Y-103415968D01*
X89841846Y-103567474D01*
X89838879Y-103572872D01*
X89838875Y-103572877D01*
X89760095Y-103716180D01*
X89746567Y-103740787D01*
X89744706Y-103746654D01*
X89744705Y-103746656D01*
X89688627Y-103923436D01*
X89686765Y-103929306D01*
X89669500Y-104083227D01*
X89669500Y-105799500D01*
X89649498Y-105867621D01*
X89595842Y-105914114D01*
X89543500Y-105925500D01*
X82353904Y-105925500D01*
X82341171Y-105924855D01*
X82305666Y-105921248D01*
X82305661Y-105921248D01*
X82299538Y-105920626D01*
X82257259Y-105924623D01*
X82253891Y-105924941D01*
X82242033Y-105925500D01*
X73610231Y-105925500D01*
X73607175Y-105925800D01*
X73607168Y-105925800D01*
X73548660Y-105931537D01*
X73463167Y-105939920D01*
X73457266Y-105941702D01*
X73457264Y-105941702D01*
X73383947Y-105963838D01*
X73273831Y-105997084D01*
X73099204Y-106089934D01*
X73012938Y-106160291D01*
X72950713Y-106211040D01*
X72950710Y-106211043D01*
X72945938Y-106214935D01*
X72942011Y-106219682D01*
X72942009Y-106219684D01*
X72823799Y-106362575D01*
X72823797Y-106362579D01*
X72819870Y-106367325D01*
X72725802Y-106541299D01*
X72667318Y-106730232D01*
X72646645Y-106926925D01*
X61468500Y-106926925D01*
X61468500Y-97282000D01*
X77826496Y-97282000D01*
X77846458Y-97471928D01*
X77905473Y-97653556D01*
X78000960Y-97818944D01*
X78128747Y-97960866D01*
X78283248Y-98073118D01*
X78289276Y-98075802D01*
X78289278Y-98075803D01*
X78451681Y-98148109D01*
X78457712Y-98150794D01*
X78551113Y-98170647D01*
X78638056Y-98189128D01*
X78638061Y-98189128D01*
X78644513Y-98190500D01*
X78835487Y-98190500D01*
X78841939Y-98189128D01*
X78841944Y-98189128D01*
X78928887Y-98170647D01*
X79022288Y-98150794D01*
X79028319Y-98148109D01*
X79190722Y-98075803D01*
X79190724Y-98075802D01*
X79196752Y-98073118D01*
X79351253Y-97960866D01*
X79355668Y-97955963D01*
X79360580Y-97951540D01*
X79361705Y-97952789D01*
X79415014Y-97919949D01*
X79448200Y-97915500D01*
X82857800Y-97915500D01*
X82925921Y-97935502D01*
X82945147Y-97951843D01*
X82945420Y-97951540D01*
X82950332Y-97955963D01*
X82954747Y-97960866D01*
X83109248Y-98073118D01*
X83115276Y-98075802D01*
X83115278Y-98075803D01*
X83277681Y-98148109D01*
X83283712Y-98150794D01*
X83377113Y-98170647D01*
X83464056Y-98189128D01*
X83464061Y-98189128D01*
X83470513Y-98190500D01*
X83661487Y-98190500D01*
X83667939Y-98189128D01*
X83667944Y-98189128D01*
X83754887Y-98170647D01*
X83848288Y-98150794D01*
X83854319Y-98148109D01*
X84016722Y-98075803D01*
X84016724Y-98075802D01*
X84022752Y-98073118D01*
X84177253Y-97960866D01*
X84305040Y-97818944D01*
X84400527Y-97653556D01*
X84459542Y-97471928D01*
X84479504Y-97282000D01*
X84459542Y-97092072D01*
X84400527Y-96910444D01*
X84305040Y-96745056D01*
X84177253Y-96603134D01*
X84022752Y-96490882D01*
X84016724Y-96488198D01*
X84016722Y-96488197D01*
X83854319Y-96415891D01*
X83854318Y-96415891D01*
X83848288Y-96413206D01*
X83754888Y-96393353D01*
X83667944Y-96374872D01*
X83667939Y-96374872D01*
X83661487Y-96373500D01*
X83470513Y-96373500D01*
X83464061Y-96374872D01*
X83464056Y-96374872D01*
X83377112Y-96393353D01*
X83283712Y-96413206D01*
X83277682Y-96415891D01*
X83277681Y-96415891D01*
X83115278Y-96488197D01*
X83115276Y-96488198D01*
X83109248Y-96490882D01*
X82954747Y-96603134D01*
X82950332Y-96608037D01*
X82945420Y-96612460D01*
X82944295Y-96611211D01*
X82890986Y-96644051D01*
X82857800Y-96648500D01*
X79448200Y-96648500D01*
X79380079Y-96628498D01*
X79360853Y-96612157D01*
X79360580Y-96612460D01*
X79355668Y-96608037D01*
X79351253Y-96603134D01*
X79196752Y-96490882D01*
X79190724Y-96488198D01*
X79190722Y-96488197D01*
X79028319Y-96415891D01*
X79028318Y-96415891D01*
X79022288Y-96413206D01*
X78928888Y-96393353D01*
X78841944Y-96374872D01*
X78841939Y-96374872D01*
X78835487Y-96373500D01*
X78644513Y-96373500D01*
X78638061Y-96374872D01*
X78638056Y-96374872D01*
X78551112Y-96393353D01*
X78457712Y-96413206D01*
X78451682Y-96415891D01*
X78451681Y-96415891D01*
X78289278Y-96488197D01*
X78289276Y-96488198D01*
X78283248Y-96490882D01*
X78128747Y-96603134D01*
X78000960Y-96745056D01*
X77905473Y-96910444D01*
X77846458Y-97092072D01*
X77826496Y-97282000D01*
X61468500Y-97282000D01*
X61468500Y-87992200D01*
X65441108Y-87992200D01*
X65441378Y-87996319D01*
X65455346Y-88209423D01*
X65460257Y-88284356D01*
X65461061Y-88288396D01*
X65461061Y-88288399D01*
X65497000Y-88469074D01*
X65517376Y-88571513D01*
X65518702Y-88575419D01*
X65518703Y-88575423D01*
X65572730Y-88734580D01*
X65611488Y-88848757D01*
X65613309Y-88852450D01*
X65613310Y-88852452D01*
X65726055Y-89081076D01*
X65740982Y-89111346D01*
X65743276Y-89114779D01*
X65897261Y-89345233D01*
X65903644Y-89354786D01*
X65906358Y-89357880D01*
X65906362Y-89357886D01*
X66073981Y-89549018D01*
X66096689Y-89574911D01*
X66099778Y-89577620D01*
X66313714Y-89765238D01*
X66313720Y-89765242D01*
X66316814Y-89767956D01*
X66320240Y-89770245D01*
X66320245Y-89770249D01*
X66442428Y-89851889D01*
X66560254Y-89930618D01*
X66563953Y-89932442D01*
X66563958Y-89932445D01*
X66819148Y-90058290D01*
X66822843Y-90060112D01*
X66826741Y-90061435D01*
X66826743Y-90061436D01*
X67096177Y-90152897D01*
X67096181Y-90152898D01*
X67100087Y-90154224D01*
X67104131Y-90155028D01*
X67104137Y-90155030D01*
X67383201Y-90210539D01*
X67383204Y-90210539D01*
X67387244Y-90211343D01*
X67391355Y-90211612D01*
X67391359Y-90211613D01*
X67675281Y-90230222D01*
X67679400Y-90230492D01*
X67683519Y-90230222D01*
X67967441Y-90211613D01*
X67967445Y-90211612D01*
X67971556Y-90211343D01*
X67975596Y-90210539D01*
X67975599Y-90210539D01*
X68254663Y-90155030D01*
X68254669Y-90155028D01*
X68258713Y-90154224D01*
X68262619Y-90152898D01*
X68262623Y-90152897D01*
X68532057Y-90061436D01*
X68532059Y-90061435D01*
X68535957Y-90060112D01*
X68539652Y-90058290D01*
X68794842Y-89932445D01*
X68794847Y-89932442D01*
X68798546Y-89930618D01*
X68916372Y-89851889D01*
X69038555Y-89770249D01*
X69038560Y-89770245D01*
X69041986Y-89767956D01*
X69045080Y-89765242D01*
X69045086Y-89765238D01*
X69259022Y-89577620D01*
X69262111Y-89574911D01*
X69284819Y-89549018D01*
X69452438Y-89357886D01*
X69452442Y-89357880D01*
X69455156Y-89354786D01*
X69461540Y-89345233D01*
X69615524Y-89114779D01*
X69617818Y-89111346D01*
X69637728Y-89070972D01*
X69685796Y-89018723D01*
X69750734Y-89000700D01*
X70067253Y-89000700D01*
X70135374Y-89020702D01*
X70158234Y-89048021D01*
X70161891Y-89044732D01*
X70168568Y-89052157D01*
X70736589Y-89620179D01*
X70750532Y-89627792D01*
X70752366Y-89627661D01*
X70758980Y-89623410D01*
X71332493Y-89049896D01*
X71333312Y-89050715D01*
X71367912Y-89016114D01*
X71428300Y-89000700D01*
X72363884Y-89000700D01*
X72432005Y-89020702D01*
X72478498Y-89074358D01*
X72488602Y-89144632D01*
X72459108Y-89209212D01*
X72446966Y-89221428D01*
X72441878Y-89225890D01*
X72438311Y-89230415D01*
X72438306Y-89230420D01*
X72364964Y-89323455D01*
X72315751Y-89385881D01*
X72313062Y-89390992D01*
X72313060Y-89390995D01*
X72298346Y-89418962D01*
X72220892Y-89566178D01*
X72160478Y-89760743D01*
X72136532Y-89963059D01*
X72149857Y-90166351D01*
X72169314Y-90242960D01*
X72169386Y-90243245D01*
X72166768Y-90314194D01*
X72126207Y-90372464D01*
X72068602Y-90398441D01*
X71972457Y-90414962D01*
X71901935Y-90406785D01*
X71847026Y-90361779D01*
X71825167Y-90294231D01*
X71828601Y-90261369D01*
X71832231Y-90246248D01*
X71860089Y-90054111D01*
X71860719Y-90046728D01*
X71862050Y-89995904D01*
X71861807Y-89988505D01*
X71844043Y-89795175D01*
X71841945Y-89783854D01*
X71789808Y-89598991D01*
X71785683Y-89588244D01*
X71701563Y-89417665D01*
X71694269Y-89412190D01*
X71681849Y-89418962D01*
X71108610Y-89992200D01*
X70838495Y-90262316D01*
X70776183Y-90296341D01*
X70705367Y-90291276D01*
X70660305Y-90262315D01*
X70390190Y-89992200D01*
X69817942Y-89419953D01*
X69805562Y-89413193D01*
X69799596Y-89417659D01*
X69724045Y-89561258D01*
X69719642Y-89571891D01*
X69662681Y-89755332D01*
X69660291Y-89766576D01*
X69637713Y-89957337D01*
X69637412Y-89968838D01*
X69649975Y-90160504D01*
X69651776Y-90171874D01*
X69699056Y-90358041D01*
X69702899Y-90368894D01*
X69712746Y-90390253D01*
X69723101Y-90460490D01*
X69693839Y-90525176D01*
X69662743Y-90551289D01*
X69595049Y-90591563D01*
X69441878Y-90725890D01*
X69438311Y-90730415D01*
X69438306Y-90730420D01*
X69351731Y-90840240D01*
X69315751Y-90885881D01*
X69220892Y-91066178D01*
X69160478Y-91260743D01*
X69136532Y-91463059D01*
X69149857Y-91666351D01*
X69200005Y-91863810D01*
X69285298Y-92048824D01*
X69402879Y-92215197D01*
X69548810Y-92357357D01*
X69553606Y-92360562D01*
X69553609Y-92360564D01*
X69590481Y-92385201D01*
X69718203Y-92470542D01*
X69723506Y-92472820D01*
X69723509Y-92472822D01*
X69812515Y-92511062D01*
X69905387Y-92550963D01*
X69971501Y-92565923D01*
X70098455Y-92594650D01*
X70098460Y-92594651D01*
X70104092Y-92595925D01*
X70109863Y-92596152D01*
X70109865Y-92596152D01*
X70172870Y-92598627D01*
X70307663Y-92603923D01*
X70509283Y-92574690D01*
X70514747Y-92572835D01*
X70514752Y-92572834D01*
X70696727Y-92511062D01*
X70696732Y-92511060D01*
X70702199Y-92509204D01*
X70879951Y-92409658D01*
X71036586Y-92279386D01*
X71154133Y-92138051D01*
X71213070Y-92098467D01*
X71284052Y-92097031D01*
X71344543Y-92134198D01*
X71353903Y-92145899D01*
X71399545Y-92210480D01*
X71402879Y-92215197D01*
X71548810Y-92357357D01*
X71553606Y-92360562D01*
X71553609Y-92360564D01*
X71590481Y-92385201D01*
X71718203Y-92470542D01*
X71723506Y-92472820D01*
X71723509Y-92472822D01*
X71812515Y-92511062D01*
X71905387Y-92550963D01*
X71971501Y-92565923D01*
X72098455Y-92594650D01*
X72098460Y-92594651D01*
X72104092Y-92595925D01*
X72109863Y-92596152D01*
X72109865Y-92596152D01*
X72172870Y-92598627D01*
X72307663Y-92603923D01*
X72509283Y-92574690D01*
X72514747Y-92572835D01*
X72514752Y-92572834D01*
X72696727Y-92511062D01*
X72696732Y-92511060D01*
X72702199Y-92509204D01*
X72879951Y-92409658D01*
X73036586Y-92279386D01*
X73154133Y-92138051D01*
X73213070Y-92098467D01*
X73284052Y-92097031D01*
X73344543Y-92134198D01*
X73353903Y-92145899D01*
X73399545Y-92210480D01*
X73402879Y-92215197D01*
X73548810Y-92357357D01*
X73553606Y-92360562D01*
X73553609Y-92360564D01*
X73590481Y-92385201D01*
X73718203Y-92470542D01*
X73723506Y-92472820D01*
X73723509Y-92472822D01*
X73812515Y-92511062D01*
X73905387Y-92550963D01*
X73971501Y-92565923D01*
X74098455Y-92594650D01*
X74098460Y-92594651D01*
X74104092Y-92595925D01*
X74109863Y-92596152D01*
X74109865Y-92596152D01*
X74172870Y-92598627D01*
X74307663Y-92603923D01*
X74509283Y-92574690D01*
X74514747Y-92572835D01*
X74514752Y-92572834D01*
X74696727Y-92511062D01*
X74696732Y-92511060D01*
X74702199Y-92509204D01*
X74879951Y-92409658D01*
X75036586Y-92279386D01*
X75154133Y-92138051D01*
X75213070Y-92098467D01*
X75284052Y-92097031D01*
X75344543Y-92134198D01*
X75353903Y-92145899D01*
X75399545Y-92210480D01*
X75402879Y-92215197D01*
X75548810Y-92357357D01*
X75553606Y-92360562D01*
X75553609Y-92360564D01*
X75590481Y-92385201D01*
X75718203Y-92470542D01*
X75723506Y-92472820D01*
X75723509Y-92472822D01*
X75812515Y-92511062D01*
X75905387Y-92550963D01*
X75971501Y-92565923D01*
X76098455Y-92594650D01*
X76098460Y-92594651D01*
X76104092Y-92595925D01*
X76109863Y-92596152D01*
X76109865Y-92596152D01*
X76172870Y-92598627D01*
X76307663Y-92603923D01*
X76509283Y-92574690D01*
X76514747Y-92572835D01*
X76514752Y-92572834D01*
X76696727Y-92511062D01*
X76696732Y-92511060D01*
X76702199Y-92509204D01*
X76879951Y-92409658D01*
X77036586Y-92279386D01*
X77154133Y-92138051D01*
X77213070Y-92098467D01*
X77284052Y-92097031D01*
X77344543Y-92134198D01*
X77353903Y-92145899D01*
X77399545Y-92210480D01*
X77402879Y-92215197D01*
X77548810Y-92357357D01*
X77553606Y-92360562D01*
X77553609Y-92360564D01*
X77590481Y-92385201D01*
X77718203Y-92470542D01*
X77723506Y-92472820D01*
X77723509Y-92472822D01*
X77812515Y-92511062D01*
X77905387Y-92550963D01*
X77971501Y-92565923D01*
X78098455Y-92594650D01*
X78098460Y-92594651D01*
X78104092Y-92595925D01*
X78109863Y-92596152D01*
X78109865Y-92596152D01*
X78172870Y-92598627D01*
X78307663Y-92603923D01*
X78509283Y-92574690D01*
X78514747Y-92572835D01*
X78514752Y-92572834D01*
X78696727Y-92511062D01*
X78696732Y-92511060D01*
X78702199Y-92509204D01*
X78879951Y-92409658D01*
X79036586Y-92279386D01*
X79166858Y-92122751D01*
X79266404Y-91944999D01*
X79268260Y-91939532D01*
X79268262Y-91939527D01*
X79330034Y-91757552D01*
X79330035Y-91757547D01*
X79331890Y-91752083D01*
X79361123Y-91550463D01*
X79362649Y-91492200D01*
X79344008Y-91289326D01*
X79288707Y-91093247D01*
X79278080Y-91071696D01*
X79201156Y-90915710D01*
X79198601Y-90910529D01*
X79180196Y-90885881D01*
X79080158Y-90751915D01*
X79080158Y-90751914D01*
X79076705Y-90747291D01*
X78927103Y-90609000D01*
X78832907Y-90549567D01*
X78785968Y-90496300D01*
X78775279Y-90426113D01*
X78780829Y-90402504D01*
X78784274Y-90392357D01*
X78810806Y-90314194D01*
X78830034Y-90257552D01*
X78830035Y-90257547D01*
X78831890Y-90252083D01*
X78861123Y-90050463D01*
X78862649Y-89992200D01*
X78847140Y-89823410D01*
X78844537Y-89795080D01*
X78844536Y-89795077D01*
X78844008Y-89789326D01*
X78820388Y-89705576D01*
X78790275Y-89598806D01*
X78790274Y-89598804D01*
X78788707Y-89593247D01*
X78784925Y-89585576D01*
X78701156Y-89415710D01*
X78698601Y-89410529D01*
X78683003Y-89389640D01*
X78580158Y-89251915D01*
X78580158Y-89251914D01*
X78576705Y-89247291D01*
X78572467Y-89243374D01*
X78572464Y-89243370D01*
X78546344Y-89219225D01*
X78509898Y-89158297D01*
X78512178Y-89087337D01*
X78552461Y-89028875D01*
X78617955Y-89001471D01*
X78631872Y-89000700D01*
X78748066Y-89000700D01*
X78816187Y-89020702D01*
X78861072Y-89070972D01*
X78880982Y-89111346D01*
X78883276Y-89114779D01*
X79037261Y-89345233D01*
X79043644Y-89354786D01*
X79046358Y-89357880D01*
X79046362Y-89357886D01*
X79213981Y-89549018D01*
X79236689Y-89574911D01*
X79239778Y-89577620D01*
X79453714Y-89765238D01*
X79453720Y-89765242D01*
X79456814Y-89767956D01*
X79460240Y-89770245D01*
X79460245Y-89770249D01*
X79582428Y-89851889D01*
X79700254Y-89930618D01*
X79703953Y-89932442D01*
X79703958Y-89932445D01*
X79959148Y-90058290D01*
X79962843Y-90060112D01*
X79966741Y-90061435D01*
X79966743Y-90061436D01*
X80236177Y-90152897D01*
X80236181Y-90152898D01*
X80240087Y-90154224D01*
X80244131Y-90155028D01*
X80244137Y-90155030D01*
X80523201Y-90210539D01*
X80523204Y-90210539D01*
X80527244Y-90211343D01*
X80531355Y-90211612D01*
X80531359Y-90211613D01*
X80815281Y-90230222D01*
X80819400Y-90230492D01*
X80823519Y-90230222D01*
X81107441Y-90211613D01*
X81107445Y-90211612D01*
X81111556Y-90211343D01*
X81115596Y-90210539D01*
X81115599Y-90210539D01*
X81394663Y-90155030D01*
X81394669Y-90155028D01*
X81398713Y-90154224D01*
X81402619Y-90152898D01*
X81402623Y-90152897D01*
X81672057Y-90061436D01*
X81672059Y-90061435D01*
X81675957Y-90060112D01*
X81679652Y-90058290D01*
X81934842Y-89932445D01*
X81934847Y-89932442D01*
X81938546Y-89930618D01*
X82056372Y-89851889D01*
X82178555Y-89770249D01*
X82178560Y-89770245D01*
X82181986Y-89767956D01*
X82185080Y-89765242D01*
X82185086Y-89765238D01*
X82399022Y-89577620D01*
X82402111Y-89574911D01*
X82424819Y-89549018D01*
X82592438Y-89357886D01*
X82592442Y-89357880D01*
X82595156Y-89354786D01*
X82601540Y-89345233D01*
X82755524Y-89114779D01*
X82757818Y-89111346D01*
X82772746Y-89081076D01*
X82885490Y-88852452D01*
X82885491Y-88852450D01*
X82887312Y-88848757D01*
X82926070Y-88734580D01*
X82944992Y-88678839D01*
X91702173Y-88678839D01*
X91702397Y-88683505D01*
X91702397Y-88683511D01*
X91708443Y-88809374D01*
X91714713Y-88939908D01*
X91765704Y-89196256D01*
X91854026Y-89442252D01*
X91856242Y-89446376D01*
X91953720Y-89627792D01*
X91977737Y-89672491D01*
X91980532Y-89676234D01*
X91980534Y-89676237D01*
X92131330Y-89878177D01*
X92131335Y-89878183D01*
X92134122Y-89881915D01*
X92137431Y-89885195D01*
X92137436Y-89885201D01*
X92316426Y-90062635D01*
X92319743Y-90065923D01*
X92323505Y-90068681D01*
X92323508Y-90068684D01*
X92503924Y-90200970D01*
X92530524Y-90220474D01*
X92534667Y-90222654D01*
X92534669Y-90222655D01*
X92757684Y-90339989D01*
X92757689Y-90339991D01*
X92761834Y-90342172D01*
X92878732Y-90382995D01*
X92997351Y-90424419D01*
X93008590Y-90428344D01*
X93013183Y-90429216D01*
X93260785Y-90476224D01*
X93260788Y-90476224D01*
X93265374Y-90477095D01*
X93395958Y-90482226D01*
X93521875Y-90487174D01*
X93521881Y-90487174D01*
X93526543Y-90487357D01*
X93605977Y-90478657D01*
X93781707Y-90459412D01*
X93781712Y-90459411D01*
X93786360Y-90458902D01*
X93900951Y-90428733D01*
X94034594Y-90393548D01*
X94034596Y-90393547D01*
X94039117Y-90392357D01*
X94044015Y-90390253D01*
X94201571Y-90322561D01*
X94272056Y-90314049D01*
X94335953Y-90344994D01*
X94372977Y-90405573D01*
X94371372Y-90476551D01*
X94367506Y-90487054D01*
X94292697Y-90665455D01*
X94228359Y-90918783D01*
X94227891Y-90923434D01*
X94227890Y-90923438D01*
X94221277Y-90989116D01*
X94202173Y-91178839D01*
X94214713Y-91439908D01*
X94265704Y-91696256D01*
X94354026Y-91942252D01*
X94356242Y-91946376D01*
X94463449Y-92145899D01*
X94477737Y-92172491D01*
X94480532Y-92176234D01*
X94480534Y-92176237D01*
X94631330Y-92378177D01*
X94631335Y-92378183D01*
X94634122Y-92381915D01*
X94637431Y-92385195D01*
X94637436Y-92385201D01*
X94764401Y-92511062D01*
X94819743Y-92565923D01*
X94823505Y-92568681D01*
X94823508Y-92568684D01*
X95026750Y-92717707D01*
X95030524Y-92720474D01*
X95034667Y-92722654D01*
X95034669Y-92722655D01*
X95257684Y-92839989D01*
X95257689Y-92839991D01*
X95261834Y-92842172D01*
X95508590Y-92928344D01*
X95513183Y-92929216D01*
X95760785Y-92976224D01*
X95760788Y-92976224D01*
X95765374Y-92977095D01*
X95895959Y-92982226D01*
X96021875Y-92987174D01*
X96021881Y-92987174D01*
X96026543Y-92987357D01*
X96105977Y-92978657D01*
X96281707Y-92959412D01*
X96281712Y-92959411D01*
X96286360Y-92958902D01*
X96399116Y-92929216D01*
X96534594Y-92893548D01*
X96534596Y-92893547D01*
X96539117Y-92892357D01*
X96779262Y-92789182D01*
X97001519Y-92651646D01*
X97005082Y-92648629D01*
X97005087Y-92648626D01*
X97197439Y-92485787D01*
X97197440Y-92485786D01*
X97201005Y-92482768D01*
X97221736Y-92459128D01*
X97370257Y-92289774D01*
X97370261Y-92289769D01*
X97373339Y-92286259D01*
X97380615Y-92274948D01*
X97512205Y-92070367D01*
X97514733Y-92066437D01*
X97622083Y-91828129D01*
X97666130Y-91671953D01*
X97691760Y-91581076D01*
X97691761Y-91581073D01*
X97693030Y-91576572D01*
X97709832Y-91444496D01*
X97725616Y-91320421D01*
X97725616Y-91320417D01*
X97726014Y-91317291D01*
X97726747Y-91289326D01*
X97728348Y-91228160D01*
X97728431Y-91225000D01*
X97725001Y-91178839D01*
X104202173Y-91178839D01*
X104214713Y-91439908D01*
X104265704Y-91696256D01*
X104354026Y-91942252D01*
X104356242Y-91946376D01*
X104463449Y-92145899D01*
X104477737Y-92172491D01*
X104480532Y-92176234D01*
X104480534Y-92176237D01*
X104631330Y-92378177D01*
X104631335Y-92378183D01*
X104634122Y-92381915D01*
X104637431Y-92385195D01*
X104637436Y-92385201D01*
X104764401Y-92511062D01*
X104819743Y-92565923D01*
X104823505Y-92568681D01*
X104823508Y-92568684D01*
X105026750Y-92717707D01*
X105030524Y-92720474D01*
X105034667Y-92722654D01*
X105034669Y-92722655D01*
X105257684Y-92839989D01*
X105257689Y-92839991D01*
X105261834Y-92842172D01*
X105508590Y-92928344D01*
X105513183Y-92929216D01*
X105760785Y-92976224D01*
X105760788Y-92976224D01*
X105765374Y-92977095D01*
X105895959Y-92982226D01*
X106021875Y-92987174D01*
X106021881Y-92987174D01*
X106026543Y-92987357D01*
X106105977Y-92978657D01*
X106281707Y-92959412D01*
X106281712Y-92959411D01*
X106286360Y-92958902D01*
X106399116Y-92929216D01*
X106534594Y-92893548D01*
X106534596Y-92893547D01*
X106539117Y-92892357D01*
X106779262Y-92789182D01*
X107001519Y-92651646D01*
X107005082Y-92648629D01*
X107005087Y-92648626D01*
X107197439Y-92485787D01*
X107197440Y-92485786D01*
X107201005Y-92482768D01*
X107221736Y-92459128D01*
X107370257Y-92289774D01*
X107370261Y-92289769D01*
X107373339Y-92286259D01*
X107380615Y-92274948D01*
X107512205Y-92070367D01*
X107514733Y-92066437D01*
X107622083Y-91828129D01*
X107666130Y-91671953D01*
X107691760Y-91581076D01*
X107691761Y-91581073D01*
X107693030Y-91576572D01*
X107709832Y-91444496D01*
X107725616Y-91320421D01*
X107725616Y-91320417D01*
X107726014Y-91317291D01*
X107726747Y-91289326D01*
X107728348Y-91228160D01*
X107728431Y-91225000D01*
X107718255Y-91088067D01*
X107709407Y-90969000D01*
X107709406Y-90968996D01*
X107709061Y-90964348D01*
X107698056Y-90915710D01*
X107652408Y-90713980D01*
X107651377Y-90709423D01*
X107611127Y-90605918D01*
X107565555Y-90488730D01*
X107559508Y-90417991D01*
X107592665Y-90355213D01*
X107654498Y-90320326D01*
X107725378Y-90324408D01*
X107741641Y-90331548D01*
X107761834Y-90342172D01*
X107878732Y-90382995D01*
X107997351Y-90424419D01*
X108008590Y-90428344D01*
X108013183Y-90429216D01*
X108260785Y-90476224D01*
X108260788Y-90476224D01*
X108265374Y-90477095D01*
X108395958Y-90482226D01*
X108521875Y-90487174D01*
X108521881Y-90487174D01*
X108526543Y-90487357D01*
X108605977Y-90478657D01*
X108781707Y-90459412D01*
X108781712Y-90459411D01*
X108786360Y-90458902D01*
X108900951Y-90428733D01*
X109034594Y-90393548D01*
X109034596Y-90393547D01*
X109039117Y-90392357D01*
X109044015Y-90390253D01*
X109221383Y-90314049D01*
X109279262Y-90289182D01*
X109348448Y-90246369D01*
X109497547Y-90154104D01*
X109497548Y-90154104D01*
X109501519Y-90151646D01*
X109505082Y-90148629D01*
X109505087Y-90148626D01*
X109697439Y-89985787D01*
X109697440Y-89985786D01*
X109701005Y-89982768D01*
X109810632Y-89857763D01*
X109870257Y-89789774D01*
X109870261Y-89789769D01*
X109873339Y-89786259D01*
X109889752Y-89760743D01*
X110010355Y-89573243D01*
X110014733Y-89566437D01*
X110122083Y-89328129D01*
X110150918Y-89225890D01*
X110191760Y-89081076D01*
X110191761Y-89081073D01*
X110193030Y-89076572D01*
X110209840Y-88944435D01*
X110225616Y-88820421D01*
X110225616Y-88820417D01*
X110226014Y-88817291D01*
X110226098Y-88814108D01*
X110228348Y-88728160D01*
X110228431Y-88725000D01*
X110225001Y-88678839D01*
X115832173Y-88678839D01*
X115832397Y-88683505D01*
X115832397Y-88683511D01*
X115838443Y-88809374D01*
X115844713Y-88939908D01*
X115895704Y-89196256D01*
X115984026Y-89442252D01*
X115986242Y-89446376D01*
X116083720Y-89627792D01*
X116107737Y-89672491D01*
X116110532Y-89676234D01*
X116110534Y-89676237D01*
X116261330Y-89878177D01*
X116261335Y-89878183D01*
X116264122Y-89881915D01*
X116267431Y-89885195D01*
X116267436Y-89885201D01*
X116446426Y-90062635D01*
X116449743Y-90065923D01*
X116453505Y-90068681D01*
X116453508Y-90068684D01*
X116633924Y-90200970D01*
X116660524Y-90220474D01*
X116664667Y-90222654D01*
X116664669Y-90222655D01*
X116887684Y-90339989D01*
X116887689Y-90339991D01*
X116891834Y-90342172D01*
X117008732Y-90382995D01*
X117127351Y-90424419D01*
X117138590Y-90428344D01*
X117143183Y-90429216D01*
X117390785Y-90476224D01*
X117390788Y-90476224D01*
X117395374Y-90477095D01*
X117525958Y-90482226D01*
X117651875Y-90487174D01*
X117651881Y-90487174D01*
X117656543Y-90487357D01*
X117735977Y-90478657D01*
X117911707Y-90459412D01*
X117911712Y-90459411D01*
X117916360Y-90458902D01*
X118030951Y-90428733D01*
X118164594Y-90393548D01*
X118164596Y-90393547D01*
X118169117Y-90392357D01*
X118174015Y-90390253D01*
X118331571Y-90322561D01*
X118402056Y-90314049D01*
X118465953Y-90344994D01*
X118502977Y-90405573D01*
X118501372Y-90476551D01*
X118497506Y-90487054D01*
X118422697Y-90665455D01*
X118358359Y-90918783D01*
X118357891Y-90923434D01*
X118357890Y-90923438D01*
X118351277Y-90989116D01*
X118332173Y-91178839D01*
X118344713Y-91439908D01*
X118395704Y-91696256D01*
X118484026Y-91942252D01*
X118486242Y-91946376D01*
X118593449Y-92145899D01*
X118607737Y-92172491D01*
X118610532Y-92176234D01*
X118610534Y-92176237D01*
X118761330Y-92378177D01*
X118761335Y-92378183D01*
X118764122Y-92381915D01*
X118767431Y-92385195D01*
X118767436Y-92385201D01*
X118894401Y-92511062D01*
X118949743Y-92565923D01*
X118953505Y-92568681D01*
X118953508Y-92568684D01*
X119156750Y-92717707D01*
X119160524Y-92720474D01*
X119164667Y-92722654D01*
X119164669Y-92722655D01*
X119387684Y-92839989D01*
X119387689Y-92839991D01*
X119391834Y-92842172D01*
X119638590Y-92928344D01*
X119643183Y-92929216D01*
X119890785Y-92976224D01*
X119890788Y-92976224D01*
X119895374Y-92977095D01*
X120025959Y-92982226D01*
X120151875Y-92987174D01*
X120151881Y-92987174D01*
X120156543Y-92987357D01*
X120235977Y-92978657D01*
X120411707Y-92959412D01*
X120411712Y-92959411D01*
X120416360Y-92958902D01*
X120529116Y-92929216D01*
X120664594Y-92893548D01*
X120664596Y-92893547D01*
X120669117Y-92892357D01*
X120909262Y-92789182D01*
X121131519Y-92651646D01*
X121135082Y-92648629D01*
X121135087Y-92648626D01*
X121327439Y-92485787D01*
X121327440Y-92485786D01*
X121331005Y-92482768D01*
X121351736Y-92459128D01*
X121500257Y-92289774D01*
X121500261Y-92289769D01*
X121503339Y-92286259D01*
X121510615Y-92274948D01*
X121642205Y-92070367D01*
X121644733Y-92066437D01*
X121752083Y-91828129D01*
X121796130Y-91671953D01*
X121821760Y-91581076D01*
X121821761Y-91581073D01*
X121823030Y-91576572D01*
X121839832Y-91444496D01*
X121855616Y-91320421D01*
X121855616Y-91320417D01*
X121856014Y-91317291D01*
X121856747Y-91289326D01*
X121858348Y-91228160D01*
X121858431Y-91225000D01*
X121855001Y-91178839D01*
X128332173Y-91178839D01*
X128344713Y-91439908D01*
X128395704Y-91696256D01*
X128484026Y-91942252D01*
X128486242Y-91946376D01*
X128593449Y-92145899D01*
X128607737Y-92172491D01*
X128610532Y-92176234D01*
X128610534Y-92176237D01*
X128761330Y-92378177D01*
X128761335Y-92378183D01*
X128764122Y-92381915D01*
X128767431Y-92385195D01*
X128767436Y-92385201D01*
X128894401Y-92511062D01*
X128949743Y-92565923D01*
X128953505Y-92568681D01*
X128953508Y-92568684D01*
X129156750Y-92717707D01*
X129160524Y-92720474D01*
X129164667Y-92722654D01*
X129164669Y-92722655D01*
X129387684Y-92839989D01*
X129387689Y-92839991D01*
X129391834Y-92842172D01*
X129638590Y-92928344D01*
X129643183Y-92929216D01*
X129890785Y-92976224D01*
X129890788Y-92976224D01*
X129895374Y-92977095D01*
X130025959Y-92982226D01*
X130151875Y-92987174D01*
X130151881Y-92987174D01*
X130156543Y-92987357D01*
X130235977Y-92978657D01*
X130411707Y-92959412D01*
X130411712Y-92959411D01*
X130416360Y-92958902D01*
X130529116Y-92929216D01*
X130664594Y-92893548D01*
X130664596Y-92893547D01*
X130669117Y-92892357D01*
X130909262Y-92789182D01*
X131131519Y-92651646D01*
X131135082Y-92648629D01*
X131135087Y-92648626D01*
X131327439Y-92485787D01*
X131327440Y-92485786D01*
X131331005Y-92482768D01*
X131351736Y-92459128D01*
X131500257Y-92289774D01*
X131500261Y-92289769D01*
X131503339Y-92286259D01*
X131510615Y-92274948D01*
X131642205Y-92070367D01*
X131644733Y-92066437D01*
X131752083Y-91828129D01*
X131796130Y-91671953D01*
X131821760Y-91581076D01*
X131821761Y-91581073D01*
X131823030Y-91576572D01*
X131839832Y-91444496D01*
X131855616Y-91320421D01*
X131855616Y-91320417D01*
X131856014Y-91317291D01*
X131856747Y-91289326D01*
X131858348Y-91228160D01*
X131858431Y-91225000D01*
X131848255Y-91088067D01*
X131839407Y-90969000D01*
X131839406Y-90968996D01*
X131839061Y-90964348D01*
X131828056Y-90915710D01*
X131782408Y-90713980D01*
X131781377Y-90709423D01*
X131741127Y-90605918D01*
X131695555Y-90488730D01*
X131689508Y-90417991D01*
X131722665Y-90355213D01*
X131784498Y-90320326D01*
X131855378Y-90324408D01*
X131871641Y-90331548D01*
X131891834Y-90342172D01*
X132008732Y-90382995D01*
X132127351Y-90424419D01*
X132138590Y-90428344D01*
X132143183Y-90429216D01*
X132390785Y-90476224D01*
X132390788Y-90476224D01*
X132395374Y-90477095D01*
X132525958Y-90482226D01*
X132651875Y-90487174D01*
X132651881Y-90487174D01*
X132656543Y-90487357D01*
X132735977Y-90478657D01*
X132911707Y-90459412D01*
X132911712Y-90459411D01*
X132916360Y-90458902D01*
X133030951Y-90428733D01*
X133164594Y-90393548D01*
X133164596Y-90393547D01*
X133169117Y-90392357D01*
X133174015Y-90390253D01*
X133351383Y-90314049D01*
X133409262Y-90289182D01*
X133478448Y-90246369D01*
X133627547Y-90154104D01*
X133627548Y-90154104D01*
X133631519Y-90151646D01*
X133635082Y-90148629D01*
X133635087Y-90148626D01*
X133827439Y-89985787D01*
X133827440Y-89985786D01*
X133831005Y-89982768D01*
X133940632Y-89857763D01*
X134000257Y-89789774D01*
X134000261Y-89789769D01*
X134003339Y-89786259D01*
X134019752Y-89760743D01*
X134140355Y-89573243D01*
X134144733Y-89566437D01*
X134252083Y-89328129D01*
X134280918Y-89225890D01*
X134321760Y-89081076D01*
X134321761Y-89081073D01*
X134323030Y-89076572D01*
X134339840Y-88944435D01*
X134355616Y-88820421D01*
X134355616Y-88820417D01*
X134356014Y-88817291D01*
X134356098Y-88814108D01*
X134358348Y-88728160D01*
X134358431Y-88725000D01*
X134355001Y-88678839D01*
X139962173Y-88678839D01*
X139962397Y-88683505D01*
X139962397Y-88683511D01*
X139968443Y-88809373D01*
X139974713Y-88939908D01*
X140025704Y-89196256D01*
X140114026Y-89442252D01*
X140116242Y-89446376D01*
X140213720Y-89627792D01*
X140237737Y-89672491D01*
X140240532Y-89676234D01*
X140240534Y-89676237D01*
X140391330Y-89878177D01*
X140391335Y-89878183D01*
X140394122Y-89881915D01*
X140397431Y-89885195D01*
X140397436Y-89885201D01*
X140576426Y-90062635D01*
X140579743Y-90065923D01*
X140583505Y-90068681D01*
X140583508Y-90068684D01*
X140763924Y-90200970D01*
X140790524Y-90220474D01*
X140794667Y-90222654D01*
X140794669Y-90222655D01*
X141017684Y-90339989D01*
X141017689Y-90339991D01*
X141021834Y-90342172D01*
X141138732Y-90382995D01*
X141257351Y-90424419D01*
X141268590Y-90428344D01*
X141273183Y-90429216D01*
X141520785Y-90476224D01*
X141520788Y-90476224D01*
X141525374Y-90477095D01*
X141655958Y-90482226D01*
X141781875Y-90487174D01*
X141781881Y-90487174D01*
X141786543Y-90487357D01*
X141865977Y-90478657D01*
X142041707Y-90459412D01*
X142041712Y-90459411D01*
X142046360Y-90458902D01*
X142160951Y-90428733D01*
X142294594Y-90393548D01*
X142294596Y-90393547D01*
X142299117Y-90392357D01*
X142304015Y-90390253D01*
X142461571Y-90322561D01*
X142532056Y-90314049D01*
X142595953Y-90344994D01*
X142632977Y-90405573D01*
X142631372Y-90476551D01*
X142627506Y-90487054D01*
X142552697Y-90665455D01*
X142488359Y-90918783D01*
X142487891Y-90923434D01*
X142487890Y-90923438D01*
X142481277Y-90989116D01*
X142462173Y-91178839D01*
X142474713Y-91439908D01*
X142525704Y-91696256D01*
X142614026Y-91942252D01*
X142616242Y-91946376D01*
X142723449Y-92145899D01*
X142737737Y-92172491D01*
X142740532Y-92176234D01*
X142740534Y-92176237D01*
X142891330Y-92378177D01*
X142891335Y-92378183D01*
X142894122Y-92381915D01*
X142897431Y-92385195D01*
X142897436Y-92385201D01*
X143024401Y-92511062D01*
X143079743Y-92565923D01*
X143083505Y-92568681D01*
X143083508Y-92568684D01*
X143286750Y-92717707D01*
X143290524Y-92720474D01*
X143294667Y-92722654D01*
X143294669Y-92722655D01*
X143517684Y-92839989D01*
X143517689Y-92839991D01*
X143521834Y-92842172D01*
X143768590Y-92928344D01*
X143773183Y-92929216D01*
X144020785Y-92976224D01*
X144020788Y-92976224D01*
X144025374Y-92977095D01*
X144155959Y-92982226D01*
X144281875Y-92987174D01*
X144281881Y-92987174D01*
X144286543Y-92987357D01*
X144365977Y-92978657D01*
X144541707Y-92959412D01*
X144541712Y-92959411D01*
X144546360Y-92958902D01*
X144659116Y-92929216D01*
X144794594Y-92893548D01*
X144794596Y-92893547D01*
X144799117Y-92892357D01*
X145039262Y-92789182D01*
X145261519Y-92651646D01*
X145265082Y-92648629D01*
X145265087Y-92648626D01*
X145457439Y-92485787D01*
X145457440Y-92485786D01*
X145461005Y-92482768D01*
X145481736Y-92459128D01*
X145630257Y-92289774D01*
X145630261Y-92289769D01*
X145633339Y-92286259D01*
X145640615Y-92274948D01*
X145772205Y-92070367D01*
X145774733Y-92066437D01*
X145882083Y-91828129D01*
X145926130Y-91671953D01*
X145951760Y-91581076D01*
X145951761Y-91581073D01*
X145953030Y-91576572D01*
X145969832Y-91444496D01*
X145985616Y-91320421D01*
X145985616Y-91320417D01*
X145986014Y-91317291D01*
X145986747Y-91289326D01*
X145988348Y-91228160D01*
X145988431Y-91225000D01*
X145985001Y-91178839D01*
X152462173Y-91178839D01*
X152474713Y-91439908D01*
X152525704Y-91696256D01*
X152614026Y-91942252D01*
X152616242Y-91946376D01*
X152723449Y-92145899D01*
X152737737Y-92172491D01*
X152740532Y-92176234D01*
X152740534Y-92176237D01*
X152891330Y-92378177D01*
X152891335Y-92378183D01*
X152894122Y-92381915D01*
X152897431Y-92385195D01*
X152897436Y-92385201D01*
X153024401Y-92511062D01*
X153079743Y-92565923D01*
X153083505Y-92568681D01*
X153083508Y-92568684D01*
X153286750Y-92717707D01*
X153290524Y-92720474D01*
X153294667Y-92722654D01*
X153294669Y-92722655D01*
X153517684Y-92839989D01*
X153517689Y-92839991D01*
X153521834Y-92842172D01*
X153768590Y-92928344D01*
X153773183Y-92929216D01*
X154020785Y-92976224D01*
X154020788Y-92976224D01*
X154025374Y-92977095D01*
X154155959Y-92982226D01*
X154281875Y-92987174D01*
X154281881Y-92987174D01*
X154286543Y-92987357D01*
X154365977Y-92978657D01*
X154541707Y-92959412D01*
X154541712Y-92959411D01*
X154546360Y-92958902D01*
X154659116Y-92929216D01*
X154794594Y-92893548D01*
X154794596Y-92893547D01*
X154799117Y-92892357D01*
X155039262Y-92789182D01*
X155261519Y-92651646D01*
X155265082Y-92648629D01*
X155265087Y-92648626D01*
X155457439Y-92485787D01*
X155457440Y-92485786D01*
X155461005Y-92482768D01*
X155481736Y-92459128D01*
X155630257Y-92289774D01*
X155630261Y-92289769D01*
X155633339Y-92286259D01*
X155640615Y-92274948D01*
X155772205Y-92070367D01*
X155774733Y-92066437D01*
X155882083Y-91828129D01*
X155926130Y-91671953D01*
X155951760Y-91581076D01*
X155951761Y-91581073D01*
X155953030Y-91576572D01*
X155969832Y-91444496D01*
X155985616Y-91320421D01*
X155985616Y-91320417D01*
X155986014Y-91317291D01*
X155986747Y-91289326D01*
X155988348Y-91228160D01*
X155988431Y-91225000D01*
X155978255Y-91088067D01*
X155969407Y-90969000D01*
X155969406Y-90968996D01*
X155969061Y-90964348D01*
X155958056Y-90915710D01*
X155912408Y-90713980D01*
X155911377Y-90709423D01*
X155871127Y-90605918D01*
X155825555Y-90488730D01*
X155819508Y-90417991D01*
X155852665Y-90355213D01*
X155914498Y-90320326D01*
X155985378Y-90324408D01*
X156001641Y-90331548D01*
X156021834Y-90342172D01*
X156138732Y-90382995D01*
X156257351Y-90424419D01*
X156268590Y-90428344D01*
X156273183Y-90429216D01*
X156520785Y-90476224D01*
X156520788Y-90476224D01*
X156525374Y-90477095D01*
X156655958Y-90482226D01*
X156781875Y-90487174D01*
X156781881Y-90487174D01*
X156786543Y-90487357D01*
X156865977Y-90478657D01*
X157041707Y-90459412D01*
X157041712Y-90459411D01*
X157046360Y-90458902D01*
X157160951Y-90428733D01*
X157294594Y-90393548D01*
X157294596Y-90393547D01*
X157299117Y-90392357D01*
X157304015Y-90390253D01*
X157481383Y-90314049D01*
X157539262Y-90289182D01*
X157608448Y-90246369D01*
X157757547Y-90154104D01*
X157757548Y-90154104D01*
X157761519Y-90151646D01*
X157765082Y-90148629D01*
X157765087Y-90148626D01*
X157957439Y-89985787D01*
X157957440Y-89985786D01*
X157961005Y-89982768D01*
X158070632Y-89857763D01*
X158130257Y-89789774D01*
X158130261Y-89789769D01*
X158133339Y-89786259D01*
X158149752Y-89760743D01*
X158270355Y-89573243D01*
X158274733Y-89566437D01*
X158382083Y-89328129D01*
X158410918Y-89225890D01*
X158451760Y-89081076D01*
X158451761Y-89081073D01*
X158453030Y-89076572D01*
X158469840Y-88944435D01*
X158485616Y-88820421D01*
X158485616Y-88820417D01*
X158486014Y-88817291D01*
X158486098Y-88814108D01*
X158488348Y-88728160D01*
X158488431Y-88725000D01*
X158484655Y-88674185D01*
X158469407Y-88469000D01*
X158469406Y-88468996D01*
X158469061Y-88464348D01*
X158459825Y-88423528D01*
X158412408Y-88213980D01*
X158411377Y-88209423D01*
X158328506Y-87996319D01*
X158318340Y-87970176D01*
X158318339Y-87970173D01*
X158316647Y-87965823D01*
X158186951Y-87738902D01*
X158025138Y-87533643D01*
X157834763Y-87354557D01*
X157620009Y-87205576D01*
X157579644Y-87185670D01*
X157389781Y-87092040D01*
X157389778Y-87092039D01*
X157385593Y-87089975D01*
X157339449Y-87075204D01*
X157141123Y-87011720D01*
X157136665Y-87010293D01*
X156878693Y-86968279D01*
X156764942Y-86966790D01*
X156622022Y-86964919D01*
X156622019Y-86964919D01*
X156617345Y-86964858D01*
X156358362Y-87000104D01*
X156107433Y-87073243D01*
X156103180Y-87075203D01*
X156103179Y-87075204D01*
X156052888Y-87098389D01*
X155870072Y-87182668D01*
X155831067Y-87208241D01*
X155655404Y-87323410D01*
X155655399Y-87323414D01*
X155651491Y-87325976D01*
X155456494Y-87500018D01*
X155289363Y-87700970D01*
X155153771Y-87924419D01*
X155052697Y-88165455D01*
X154988359Y-88418783D01*
X154962173Y-88678839D01*
X154962397Y-88683505D01*
X154962397Y-88683511D01*
X154968443Y-88809373D01*
X154974713Y-88939908D01*
X155025704Y-89196256D01*
X155114026Y-89442252D01*
X155118056Y-89449753D01*
X155132680Y-89519225D01*
X155107422Y-89585576D01*
X155050301Y-89627739D01*
X154979452Y-89632327D01*
X154951340Y-89622398D01*
X154885593Y-89589975D01*
X154880186Y-89588244D01*
X154641123Y-89511720D01*
X154636665Y-89510293D01*
X154378693Y-89468279D01*
X154264942Y-89466790D01*
X154122022Y-89464919D01*
X154122019Y-89464919D01*
X154117345Y-89464858D01*
X153858362Y-89500104D01*
X153607433Y-89573243D01*
X153603180Y-89575203D01*
X153603179Y-89575204D01*
X153566659Y-89592040D01*
X153370072Y-89682668D01*
X153331067Y-89708241D01*
X153155404Y-89823410D01*
X153155399Y-89823414D01*
X153151491Y-89825976D01*
X152956494Y-90000018D01*
X152908029Y-90058290D01*
X152813499Y-90171950D01*
X152789363Y-90200970D01*
X152786934Y-90204973D01*
X152657672Y-90417991D01*
X152653771Y-90424419D01*
X152552697Y-90665455D01*
X152488359Y-90918783D01*
X152487891Y-90923434D01*
X152487890Y-90923438D01*
X152481277Y-90989116D01*
X152462173Y-91178839D01*
X145985001Y-91178839D01*
X145978255Y-91088067D01*
X145969407Y-90969000D01*
X145969406Y-90968996D01*
X145969061Y-90964348D01*
X145958056Y-90915710D01*
X145912408Y-90713980D01*
X145911377Y-90709423D01*
X145872325Y-90609000D01*
X145818340Y-90470176D01*
X145818339Y-90470173D01*
X145816647Y-90465823D01*
X145812692Y-90458902D01*
X145763288Y-90372464D01*
X145686951Y-90238902D01*
X145604358Y-90134133D01*
X148180612Y-90134133D01*
X148189325Y-90145653D01*
X148287018Y-90217284D01*
X148294928Y-90222227D01*
X148517890Y-90339533D01*
X148526453Y-90343256D01*
X148764304Y-90426318D01*
X148773313Y-90428732D01*
X149020842Y-90475727D01*
X149030098Y-90476781D01*
X149281857Y-90486673D01*
X149291171Y-90486347D01*
X149541615Y-90458920D01*
X149550792Y-90457219D01*
X149794431Y-90393074D01*
X149803251Y-90390037D01*
X150034736Y-90290583D01*
X150043008Y-90286276D01*
X150257249Y-90153700D01*
X150264188Y-90148658D01*
X150272518Y-90136019D01*
X150266456Y-90125666D01*
X149237812Y-89097022D01*
X149223868Y-89089408D01*
X149222035Y-89089539D01*
X149215420Y-89093790D01*
X148187270Y-90121940D01*
X148180612Y-90134133D01*
X145604358Y-90134133D01*
X145525138Y-90033643D01*
X145334763Y-89854557D01*
X145120009Y-89705576D01*
X145115816Y-89703508D01*
X144889781Y-89592040D01*
X144889776Y-89592038D01*
X144885593Y-89589975D01*
X144880186Y-89588244D01*
X144641123Y-89511720D01*
X144636665Y-89510293D01*
X144378693Y-89468279D01*
X144264942Y-89466790D01*
X144122022Y-89464919D01*
X144122019Y-89464919D01*
X144117345Y-89464858D01*
X143858362Y-89500104D01*
X143607433Y-89573243D01*
X143603180Y-89575203D01*
X143603179Y-89575204D01*
X143489710Y-89627514D01*
X143419473Y-89637869D01*
X143354787Y-89608606D01*
X143316190Y-89549018D01*
X143315937Y-89478021D01*
X143322077Y-89461337D01*
X143327296Y-89449751D01*
X143382083Y-89328129D01*
X143410918Y-89225890D01*
X143451760Y-89081076D01*
X143451761Y-89081073D01*
X143453030Y-89076572D01*
X143469840Y-88944435D01*
X143485616Y-88820421D01*
X143485616Y-88820417D01*
X143486014Y-88817291D01*
X143486098Y-88814108D01*
X143488348Y-88728160D01*
X143488431Y-88725000D01*
X143485349Y-88683523D01*
X147462898Y-88683523D01*
X147474987Y-88935175D01*
X147476124Y-88944435D01*
X147525274Y-89191535D01*
X147527768Y-89200528D01*
X147612900Y-89437639D01*
X147616700Y-89446174D01*
X147735946Y-89668101D01*
X147740957Y-89675968D01*
X147804446Y-89760990D01*
X147815704Y-89769439D01*
X147828123Y-89762667D01*
X148852978Y-88737812D01*
X148859356Y-88726132D01*
X149589408Y-88726132D01*
X149589539Y-88727965D01*
X149593790Y-88734580D01*
X150624913Y-89765703D01*
X150637293Y-89772463D01*
X150645634Y-89766219D01*
X150771765Y-89570127D01*
X150776212Y-89561936D01*
X150879691Y-89332222D01*
X150882882Y-89323455D01*
X150951269Y-89080976D01*
X150953129Y-89071834D01*
X150985116Y-88820396D01*
X150985597Y-88814108D01*
X150987847Y-88728160D01*
X150987696Y-88721851D01*
X150968912Y-88469074D01*
X150967536Y-88459868D01*
X150911929Y-88214126D01*
X150909205Y-88205215D01*
X150817888Y-87970392D01*
X150813877Y-87961983D01*
X150688854Y-87743240D01*
X150683643Y-87735514D01*
X150646391Y-87688261D01*
X150634466Y-87679790D01*
X150622934Y-87686276D01*
X149597022Y-88712188D01*
X149589408Y-88726132D01*
X148859356Y-88726132D01*
X148860592Y-88723868D01*
X148860461Y-88722035D01*
X148856210Y-88715420D01*
X147826321Y-87685531D01*
X147813013Y-87678264D01*
X147802974Y-87685386D01*
X147792761Y-87697666D01*
X147787346Y-87705258D01*
X147656646Y-87920646D01*
X147652408Y-87928963D01*
X147554981Y-88161299D01*
X147552020Y-88170149D01*
X147490006Y-88414331D01*
X147488384Y-88423528D01*
X147463143Y-88674198D01*
X147462898Y-88683523D01*
X143485349Y-88683523D01*
X143484655Y-88674185D01*
X143469407Y-88469000D01*
X143469406Y-88468996D01*
X143469061Y-88464348D01*
X143459825Y-88423528D01*
X143412408Y-88213980D01*
X143411377Y-88209423D01*
X143328506Y-87996319D01*
X143318340Y-87970176D01*
X143318339Y-87970173D01*
X143316647Y-87965823D01*
X143186951Y-87738902D01*
X143025138Y-87533643D01*
X142834763Y-87354557D01*
X142776017Y-87313803D01*
X148178216Y-87313803D01*
X148182789Y-87323579D01*
X149212188Y-88352978D01*
X149226132Y-88360592D01*
X149227965Y-88360461D01*
X149234580Y-88356210D01*
X150263419Y-87327371D01*
X150269803Y-87315681D01*
X150260391Y-87303570D01*
X150123593Y-87208670D01*
X150115565Y-87203942D01*
X149889593Y-87092505D01*
X149880960Y-87089017D01*
X149640998Y-87012205D01*
X149631938Y-87010029D01*
X149383260Y-86969529D01*
X149373973Y-86968717D01*
X149122053Y-86965419D01*
X149112742Y-86965989D01*
X148863097Y-86999964D01*
X148853978Y-87001902D01*
X148612098Y-87072404D01*
X148603367Y-87075667D01*
X148374558Y-87181151D01*
X148366406Y-87185670D01*
X148187353Y-87303062D01*
X148178216Y-87313803D01*
X142776017Y-87313803D01*
X142620009Y-87205576D01*
X142579644Y-87185670D01*
X142389781Y-87092040D01*
X142389778Y-87092039D01*
X142385593Y-87089975D01*
X142339449Y-87075204D01*
X142141123Y-87011720D01*
X142136665Y-87010293D01*
X141878693Y-86968279D01*
X141764942Y-86966790D01*
X141622022Y-86964919D01*
X141622019Y-86964919D01*
X141617345Y-86964858D01*
X141358362Y-87000104D01*
X141107433Y-87073243D01*
X141103180Y-87075203D01*
X141103179Y-87075204D01*
X141052888Y-87098389D01*
X140870072Y-87182668D01*
X140831067Y-87208241D01*
X140655404Y-87323410D01*
X140655399Y-87323414D01*
X140651491Y-87325976D01*
X140456494Y-87500018D01*
X140289363Y-87700970D01*
X140153771Y-87924419D01*
X140052697Y-88165455D01*
X139988359Y-88418783D01*
X139962173Y-88678839D01*
X134355001Y-88678839D01*
X134354655Y-88674185D01*
X134339407Y-88469000D01*
X134339406Y-88468996D01*
X134339061Y-88464348D01*
X134329825Y-88423528D01*
X134282408Y-88213980D01*
X134281377Y-88209423D01*
X134198506Y-87996319D01*
X134188340Y-87970176D01*
X134188339Y-87970173D01*
X134186647Y-87965823D01*
X134056951Y-87738902D01*
X133895138Y-87533643D01*
X133704763Y-87354557D01*
X133490009Y-87205576D01*
X133449644Y-87185670D01*
X133259781Y-87092040D01*
X133259778Y-87092039D01*
X133255593Y-87089975D01*
X133209449Y-87075204D01*
X133011123Y-87011720D01*
X133006665Y-87010293D01*
X132748693Y-86968279D01*
X132634942Y-86966790D01*
X132492022Y-86964919D01*
X132492019Y-86964919D01*
X132487345Y-86964858D01*
X132228362Y-87000104D01*
X131977433Y-87073243D01*
X131973180Y-87075203D01*
X131973179Y-87075204D01*
X131922888Y-87098389D01*
X131740072Y-87182668D01*
X131701067Y-87208241D01*
X131525404Y-87323410D01*
X131525399Y-87323414D01*
X131521491Y-87325976D01*
X131326494Y-87500018D01*
X131159363Y-87700970D01*
X131023771Y-87924419D01*
X130922697Y-88165455D01*
X130858359Y-88418783D01*
X130832173Y-88678839D01*
X130832397Y-88683505D01*
X130832397Y-88683511D01*
X130838443Y-88809374D01*
X130844713Y-88939908D01*
X130895704Y-89196256D01*
X130984026Y-89442252D01*
X130988056Y-89449753D01*
X131002680Y-89519225D01*
X130977422Y-89585576D01*
X130920301Y-89627739D01*
X130849452Y-89632327D01*
X130821340Y-89622398D01*
X130755593Y-89589975D01*
X130750186Y-89588244D01*
X130511123Y-89511720D01*
X130506665Y-89510293D01*
X130248693Y-89468279D01*
X130134942Y-89466790D01*
X129992022Y-89464919D01*
X129992019Y-89464919D01*
X129987345Y-89464858D01*
X129728362Y-89500104D01*
X129477433Y-89573243D01*
X129473180Y-89575203D01*
X129473179Y-89575204D01*
X129436659Y-89592040D01*
X129240072Y-89682668D01*
X129201067Y-89708241D01*
X129025404Y-89823410D01*
X129025399Y-89823414D01*
X129021491Y-89825976D01*
X128826494Y-90000018D01*
X128778029Y-90058290D01*
X128683499Y-90171950D01*
X128659363Y-90200970D01*
X128656934Y-90204973D01*
X128527672Y-90417991D01*
X128523771Y-90424419D01*
X128422697Y-90665455D01*
X128358359Y-90918783D01*
X128357891Y-90923434D01*
X128357890Y-90923438D01*
X128351277Y-90989116D01*
X128332173Y-91178839D01*
X121855001Y-91178839D01*
X121848255Y-91088067D01*
X121839407Y-90969000D01*
X121839406Y-90968996D01*
X121839061Y-90964348D01*
X121828056Y-90915710D01*
X121782408Y-90713980D01*
X121781377Y-90709423D01*
X121742325Y-90609000D01*
X121688340Y-90470176D01*
X121688339Y-90470173D01*
X121686647Y-90465823D01*
X121682692Y-90458902D01*
X121633288Y-90372464D01*
X121556951Y-90238902D01*
X121474358Y-90134133D01*
X124050612Y-90134133D01*
X124059325Y-90145653D01*
X124157018Y-90217284D01*
X124164928Y-90222227D01*
X124387890Y-90339533D01*
X124396453Y-90343256D01*
X124634304Y-90426318D01*
X124643313Y-90428732D01*
X124890842Y-90475727D01*
X124900098Y-90476781D01*
X125151857Y-90486673D01*
X125161171Y-90486347D01*
X125411615Y-90458920D01*
X125420792Y-90457219D01*
X125664431Y-90393074D01*
X125673251Y-90390037D01*
X125904736Y-90290583D01*
X125913008Y-90286276D01*
X126127249Y-90153700D01*
X126134188Y-90148658D01*
X126142518Y-90136019D01*
X126136456Y-90125666D01*
X125107812Y-89097022D01*
X125093868Y-89089408D01*
X125092035Y-89089539D01*
X125085420Y-89093790D01*
X124057270Y-90121940D01*
X124050612Y-90134133D01*
X121474358Y-90134133D01*
X121395138Y-90033643D01*
X121204763Y-89854557D01*
X120990009Y-89705576D01*
X120985816Y-89703508D01*
X120759781Y-89592040D01*
X120759776Y-89592038D01*
X120755593Y-89589975D01*
X120750186Y-89588244D01*
X120511123Y-89511720D01*
X120506665Y-89510293D01*
X120248693Y-89468279D01*
X120134942Y-89466790D01*
X119992022Y-89464919D01*
X119992019Y-89464919D01*
X119987345Y-89464858D01*
X119728362Y-89500104D01*
X119477433Y-89573243D01*
X119473180Y-89575203D01*
X119473179Y-89575204D01*
X119359710Y-89627514D01*
X119289473Y-89637869D01*
X119224787Y-89608606D01*
X119186190Y-89549018D01*
X119185937Y-89478021D01*
X119192077Y-89461337D01*
X119197296Y-89449751D01*
X119252083Y-89328129D01*
X119280918Y-89225890D01*
X119321760Y-89081076D01*
X119321761Y-89081073D01*
X119323030Y-89076572D01*
X119339840Y-88944435D01*
X119355616Y-88820421D01*
X119355616Y-88820417D01*
X119356014Y-88817291D01*
X119356098Y-88814108D01*
X119358348Y-88728160D01*
X119358431Y-88725000D01*
X119355349Y-88683523D01*
X123332898Y-88683523D01*
X123344987Y-88935175D01*
X123346124Y-88944435D01*
X123395274Y-89191535D01*
X123397768Y-89200528D01*
X123482900Y-89437639D01*
X123486700Y-89446174D01*
X123605946Y-89668101D01*
X123610957Y-89675968D01*
X123674446Y-89760990D01*
X123685704Y-89769439D01*
X123698123Y-89762667D01*
X124722978Y-88737812D01*
X124729356Y-88726132D01*
X125459408Y-88726132D01*
X125459539Y-88727965D01*
X125463790Y-88734580D01*
X126494913Y-89765703D01*
X126507293Y-89772463D01*
X126515634Y-89766219D01*
X126641765Y-89570127D01*
X126646212Y-89561936D01*
X126749691Y-89332222D01*
X126752882Y-89323455D01*
X126821269Y-89080976D01*
X126823129Y-89071834D01*
X126855116Y-88820396D01*
X126855597Y-88814108D01*
X126857847Y-88728160D01*
X126857696Y-88721851D01*
X126838912Y-88469074D01*
X126837536Y-88459868D01*
X126781929Y-88214126D01*
X126779205Y-88205215D01*
X126687888Y-87970392D01*
X126683877Y-87961983D01*
X126558854Y-87743240D01*
X126553643Y-87735514D01*
X126516391Y-87688261D01*
X126504466Y-87679790D01*
X126492934Y-87686276D01*
X125467022Y-88712188D01*
X125459408Y-88726132D01*
X124729356Y-88726132D01*
X124730592Y-88723868D01*
X124730461Y-88722035D01*
X124726210Y-88715420D01*
X123696321Y-87685531D01*
X123683013Y-87678264D01*
X123672974Y-87685386D01*
X123662761Y-87697666D01*
X123657346Y-87705258D01*
X123526646Y-87920646D01*
X123522408Y-87928963D01*
X123424981Y-88161299D01*
X123422020Y-88170149D01*
X123360006Y-88414331D01*
X123358384Y-88423528D01*
X123333143Y-88674198D01*
X123332898Y-88683523D01*
X119355349Y-88683523D01*
X119354655Y-88674185D01*
X119339407Y-88469000D01*
X119339406Y-88468996D01*
X119339061Y-88464348D01*
X119329825Y-88423528D01*
X119282408Y-88213980D01*
X119281377Y-88209423D01*
X119198506Y-87996319D01*
X119188340Y-87970176D01*
X119188339Y-87970173D01*
X119186647Y-87965823D01*
X119056951Y-87738902D01*
X118895138Y-87533643D01*
X118704763Y-87354557D01*
X118646017Y-87313803D01*
X124048216Y-87313803D01*
X124052789Y-87323579D01*
X125082188Y-88352978D01*
X125096132Y-88360592D01*
X125097965Y-88360461D01*
X125104580Y-88356210D01*
X126133419Y-87327371D01*
X126139803Y-87315681D01*
X126130391Y-87303570D01*
X125993593Y-87208670D01*
X125985565Y-87203942D01*
X125759593Y-87092505D01*
X125750960Y-87089017D01*
X125510998Y-87012205D01*
X125501938Y-87010029D01*
X125253260Y-86969529D01*
X125243973Y-86968717D01*
X124992053Y-86965419D01*
X124982742Y-86965989D01*
X124733097Y-86999964D01*
X124723978Y-87001902D01*
X124482098Y-87072404D01*
X124473367Y-87075667D01*
X124244558Y-87181151D01*
X124236406Y-87185670D01*
X124057353Y-87303062D01*
X124048216Y-87313803D01*
X118646017Y-87313803D01*
X118490009Y-87205576D01*
X118449644Y-87185670D01*
X118259781Y-87092040D01*
X118259778Y-87092039D01*
X118255593Y-87089975D01*
X118209449Y-87075204D01*
X118011123Y-87011720D01*
X118006665Y-87010293D01*
X117748693Y-86968279D01*
X117634942Y-86966790D01*
X117492022Y-86964919D01*
X117492019Y-86964919D01*
X117487345Y-86964858D01*
X117228362Y-87000104D01*
X116977433Y-87073243D01*
X116973180Y-87075203D01*
X116973179Y-87075204D01*
X116922888Y-87098389D01*
X116740072Y-87182668D01*
X116701067Y-87208241D01*
X116525404Y-87323410D01*
X116525399Y-87323414D01*
X116521491Y-87325976D01*
X116326494Y-87500018D01*
X116159363Y-87700970D01*
X116023771Y-87924419D01*
X115922697Y-88165455D01*
X115858359Y-88418783D01*
X115832173Y-88678839D01*
X110225001Y-88678839D01*
X110224655Y-88674185D01*
X110209407Y-88469000D01*
X110209406Y-88468996D01*
X110209061Y-88464348D01*
X110199825Y-88423528D01*
X110152408Y-88213980D01*
X110151377Y-88209423D01*
X110068506Y-87996319D01*
X110058340Y-87970176D01*
X110058339Y-87970173D01*
X110056647Y-87965823D01*
X109926951Y-87738902D01*
X109765138Y-87533643D01*
X109574763Y-87354557D01*
X109360009Y-87205576D01*
X109319644Y-87185670D01*
X109129781Y-87092040D01*
X109129778Y-87092039D01*
X109125593Y-87089975D01*
X109079449Y-87075204D01*
X108881123Y-87011720D01*
X108876665Y-87010293D01*
X108618693Y-86968279D01*
X108504942Y-86966790D01*
X108362022Y-86964919D01*
X108362019Y-86964919D01*
X108357345Y-86964858D01*
X108098362Y-87000104D01*
X107847433Y-87073243D01*
X107843180Y-87075203D01*
X107843179Y-87075204D01*
X107792888Y-87098389D01*
X107610072Y-87182668D01*
X107571067Y-87208241D01*
X107395404Y-87323410D01*
X107395399Y-87323414D01*
X107391491Y-87325976D01*
X107196494Y-87500018D01*
X107029363Y-87700970D01*
X106893771Y-87924419D01*
X106792697Y-88165455D01*
X106728359Y-88418783D01*
X106702173Y-88678839D01*
X106702397Y-88683505D01*
X106702397Y-88683511D01*
X106708443Y-88809374D01*
X106714713Y-88939908D01*
X106765704Y-89196256D01*
X106854026Y-89442252D01*
X106858056Y-89449753D01*
X106872680Y-89519225D01*
X106847422Y-89585576D01*
X106790301Y-89627739D01*
X106719452Y-89632327D01*
X106691340Y-89622398D01*
X106625593Y-89589975D01*
X106620186Y-89588244D01*
X106381123Y-89511720D01*
X106376665Y-89510293D01*
X106118693Y-89468279D01*
X106004942Y-89466790D01*
X105862022Y-89464919D01*
X105862019Y-89464919D01*
X105857345Y-89464858D01*
X105598362Y-89500104D01*
X105347433Y-89573243D01*
X105343180Y-89575203D01*
X105343179Y-89575204D01*
X105306659Y-89592040D01*
X105110072Y-89682668D01*
X105071067Y-89708241D01*
X104895404Y-89823410D01*
X104895399Y-89823414D01*
X104891491Y-89825976D01*
X104696494Y-90000018D01*
X104648029Y-90058290D01*
X104553499Y-90171950D01*
X104529363Y-90200970D01*
X104526934Y-90204973D01*
X104397672Y-90417991D01*
X104393771Y-90424419D01*
X104292697Y-90665455D01*
X104228359Y-90918783D01*
X104227891Y-90923434D01*
X104227890Y-90923438D01*
X104221277Y-90989116D01*
X104202173Y-91178839D01*
X97725001Y-91178839D01*
X97718255Y-91088067D01*
X97709407Y-90969000D01*
X97709406Y-90968996D01*
X97709061Y-90964348D01*
X97698056Y-90915710D01*
X97652408Y-90713980D01*
X97651377Y-90709423D01*
X97612325Y-90609000D01*
X97558340Y-90470176D01*
X97558339Y-90470173D01*
X97556647Y-90465823D01*
X97552692Y-90458902D01*
X97503288Y-90372464D01*
X97426951Y-90238902D01*
X97265138Y-90033643D01*
X97074763Y-89854557D01*
X96860009Y-89705576D01*
X96855816Y-89703508D01*
X96629781Y-89592040D01*
X96629776Y-89592038D01*
X96625593Y-89589975D01*
X96620186Y-89588244D01*
X96381123Y-89511720D01*
X96376665Y-89510293D01*
X96118693Y-89468279D01*
X96004942Y-89466790D01*
X95862022Y-89464919D01*
X95862019Y-89464919D01*
X95857345Y-89464858D01*
X95598362Y-89500104D01*
X95347433Y-89573243D01*
X95343180Y-89575203D01*
X95343179Y-89575204D01*
X95229710Y-89627514D01*
X95159473Y-89637869D01*
X95094787Y-89608606D01*
X95056190Y-89549018D01*
X95055937Y-89478021D01*
X95062077Y-89461337D01*
X95067296Y-89449751D01*
X95122083Y-89328129D01*
X95150918Y-89225890D01*
X95191760Y-89081076D01*
X95191761Y-89081073D01*
X95193030Y-89076572D01*
X95209840Y-88944435D01*
X95225616Y-88820421D01*
X95225616Y-88820417D01*
X95226014Y-88817291D01*
X95226098Y-88814108D01*
X95228348Y-88728160D01*
X95228431Y-88725000D01*
X95225001Y-88678839D01*
X99202173Y-88678839D01*
X99202397Y-88683505D01*
X99202397Y-88683511D01*
X99208443Y-88809374D01*
X99214713Y-88939908D01*
X99265704Y-89196256D01*
X99354026Y-89442252D01*
X99356242Y-89446376D01*
X99453720Y-89627792D01*
X99477737Y-89672491D01*
X99480532Y-89676234D01*
X99480534Y-89676237D01*
X99631330Y-89878177D01*
X99631335Y-89878183D01*
X99634122Y-89881915D01*
X99637431Y-89885195D01*
X99637436Y-89885201D01*
X99816426Y-90062635D01*
X99819743Y-90065923D01*
X99823505Y-90068681D01*
X99823508Y-90068684D01*
X100003924Y-90200970D01*
X100030524Y-90220474D01*
X100034667Y-90222654D01*
X100034669Y-90222655D01*
X100257684Y-90339989D01*
X100257689Y-90339991D01*
X100261834Y-90342172D01*
X100378732Y-90382995D01*
X100497351Y-90424419D01*
X100508590Y-90428344D01*
X100513183Y-90429216D01*
X100760785Y-90476224D01*
X100760788Y-90476224D01*
X100765374Y-90477095D01*
X100895958Y-90482226D01*
X101021875Y-90487174D01*
X101021881Y-90487174D01*
X101026543Y-90487357D01*
X101105977Y-90478657D01*
X101281707Y-90459412D01*
X101281712Y-90459411D01*
X101286360Y-90458902D01*
X101400951Y-90428733D01*
X101534594Y-90393548D01*
X101534596Y-90393547D01*
X101539117Y-90392357D01*
X101544015Y-90390253D01*
X101721383Y-90314049D01*
X101779262Y-90289182D01*
X101848448Y-90246369D01*
X101997547Y-90154104D01*
X101997548Y-90154104D01*
X102001519Y-90151646D01*
X102005082Y-90148629D01*
X102005087Y-90148626D01*
X102197439Y-89985787D01*
X102197440Y-89985786D01*
X102201005Y-89982768D01*
X102310632Y-89857763D01*
X102370257Y-89789774D01*
X102370261Y-89789769D01*
X102373339Y-89786259D01*
X102389752Y-89760743D01*
X102510355Y-89573243D01*
X102514733Y-89566437D01*
X102622083Y-89328129D01*
X102650918Y-89225890D01*
X102691760Y-89081076D01*
X102691761Y-89081073D01*
X102693030Y-89076572D01*
X102709840Y-88944435D01*
X102725616Y-88820421D01*
X102725616Y-88820417D01*
X102726014Y-88817291D01*
X102726098Y-88814108D01*
X102728348Y-88728160D01*
X102728431Y-88725000D01*
X102724655Y-88674185D01*
X102709407Y-88469000D01*
X102709406Y-88468996D01*
X102709061Y-88464348D01*
X102699825Y-88423528D01*
X102652408Y-88213980D01*
X102651377Y-88209423D01*
X102568506Y-87996319D01*
X102558340Y-87970176D01*
X102558339Y-87970173D01*
X102556647Y-87965823D01*
X102426951Y-87738902D01*
X102265138Y-87533643D01*
X102074763Y-87354557D01*
X101860009Y-87205576D01*
X101819644Y-87185670D01*
X101629781Y-87092040D01*
X101629778Y-87092039D01*
X101625593Y-87089975D01*
X101579449Y-87075204D01*
X101381123Y-87011720D01*
X101376665Y-87010293D01*
X101118693Y-86968279D01*
X101004942Y-86966790D01*
X100862022Y-86964919D01*
X100862019Y-86964919D01*
X100857345Y-86964858D01*
X100598362Y-87000104D01*
X100347433Y-87073243D01*
X100343180Y-87075203D01*
X100343179Y-87075204D01*
X100292888Y-87098389D01*
X100110072Y-87182668D01*
X100071067Y-87208241D01*
X99895404Y-87323410D01*
X99895399Y-87323414D01*
X99891491Y-87325976D01*
X99696494Y-87500018D01*
X99529363Y-87700970D01*
X99393771Y-87924419D01*
X99292697Y-88165455D01*
X99228359Y-88418783D01*
X99202173Y-88678839D01*
X95225001Y-88678839D01*
X95224655Y-88674185D01*
X95209407Y-88469000D01*
X95209406Y-88468996D01*
X95209061Y-88464348D01*
X95199825Y-88423528D01*
X95152408Y-88213980D01*
X95151377Y-88209423D01*
X95068506Y-87996319D01*
X95058340Y-87970176D01*
X95058339Y-87970173D01*
X95056647Y-87965823D01*
X94926951Y-87738902D01*
X94765138Y-87533643D01*
X94574763Y-87354557D01*
X94360009Y-87205576D01*
X94319644Y-87185670D01*
X94129781Y-87092040D01*
X94129778Y-87092039D01*
X94125593Y-87089975D01*
X94079449Y-87075204D01*
X93881123Y-87011720D01*
X93876665Y-87010293D01*
X93618693Y-86968279D01*
X93504942Y-86966790D01*
X93362022Y-86964919D01*
X93362019Y-86964919D01*
X93357345Y-86964858D01*
X93098362Y-87000104D01*
X92847433Y-87073243D01*
X92843180Y-87075203D01*
X92843179Y-87075204D01*
X92792888Y-87098389D01*
X92610072Y-87182668D01*
X92571067Y-87208241D01*
X92395404Y-87323410D01*
X92395399Y-87323414D01*
X92391491Y-87325976D01*
X92196494Y-87500018D01*
X92029363Y-87700970D01*
X91893771Y-87924419D01*
X91792697Y-88165455D01*
X91728359Y-88418783D01*
X91702173Y-88678839D01*
X82944992Y-88678839D01*
X82980097Y-88575423D01*
X82980098Y-88575419D01*
X82981424Y-88571513D01*
X83001801Y-88469074D01*
X83037739Y-88288399D01*
X83037739Y-88288396D01*
X83038543Y-88284356D01*
X83043455Y-88209423D01*
X83057422Y-87996319D01*
X83057692Y-87992200D01*
X83040868Y-87735514D01*
X83038813Y-87704159D01*
X83038812Y-87704155D01*
X83038543Y-87700044D01*
X83036199Y-87688261D01*
X82982230Y-87416937D01*
X82982228Y-87416931D01*
X82981424Y-87412887D01*
X82947790Y-87313803D01*
X82888636Y-87139543D01*
X82888635Y-87139541D01*
X82887312Y-87135643D01*
X82866039Y-87092505D01*
X82759645Y-86876758D01*
X82759642Y-86876753D01*
X82757818Y-86873054D01*
X82595156Y-86629614D01*
X82592442Y-86626520D01*
X82592438Y-86626514D01*
X82404820Y-86412578D01*
X82402111Y-86409489D01*
X82399022Y-86406780D01*
X82185086Y-86219162D01*
X82185080Y-86219158D01*
X82181986Y-86216444D01*
X82178560Y-86214155D01*
X82178555Y-86214151D01*
X81941979Y-86056076D01*
X81938546Y-86053782D01*
X81934847Y-86051958D01*
X81934842Y-86051955D01*
X81679652Y-85926110D01*
X81679650Y-85926109D01*
X81675957Y-85924288D01*
X81672057Y-85922964D01*
X81402623Y-85831503D01*
X81402619Y-85831502D01*
X81398713Y-85830176D01*
X81394669Y-85829372D01*
X81394663Y-85829370D01*
X81115599Y-85773861D01*
X81115596Y-85773861D01*
X81111556Y-85773057D01*
X81107445Y-85772788D01*
X81107441Y-85772787D01*
X80823519Y-85754178D01*
X80819400Y-85753908D01*
X80815281Y-85754178D01*
X80531359Y-85772787D01*
X80531355Y-85772788D01*
X80527244Y-85773057D01*
X80523204Y-85773861D01*
X80523201Y-85773861D01*
X80244137Y-85829370D01*
X80244131Y-85829372D01*
X80240087Y-85830176D01*
X80236181Y-85831502D01*
X80236177Y-85831503D01*
X79966743Y-85922964D01*
X79962843Y-85924288D01*
X79959150Y-85926109D01*
X79959148Y-85926110D01*
X79703958Y-86051955D01*
X79703953Y-86051958D01*
X79700254Y-86053782D01*
X79696821Y-86056076D01*
X79460245Y-86214151D01*
X79460240Y-86214155D01*
X79456814Y-86216444D01*
X79453720Y-86219158D01*
X79453714Y-86219162D01*
X79239778Y-86406780D01*
X79236689Y-86409489D01*
X79233980Y-86412578D01*
X79046362Y-86626514D01*
X79046358Y-86626520D01*
X79043644Y-86629614D01*
X78880982Y-86873054D01*
X78861072Y-86913428D01*
X78813004Y-86965677D01*
X78748066Y-86983700D01*
X69750734Y-86983700D01*
X69682613Y-86963698D01*
X69637728Y-86913428D01*
X69617818Y-86873054D01*
X69455156Y-86629614D01*
X69452442Y-86626520D01*
X69452438Y-86626514D01*
X69264820Y-86412578D01*
X69262111Y-86409489D01*
X69259022Y-86406780D01*
X69045086Y-86219162D01*
X69045080Y-86219158D01*
X69041986Y-86216444D01*
X69038560Y-86214155D01*
X69038555Y-86214151D01*
X68801979Y-86056076D01*
X68798546Y-86053782D01*
X68794847Y-86051958D01*
X68794842Y-86051955D01*
X68539652Y-85926110D01*
X68539650Y-85926109D01*
X68535957Y-85924288D01*
X68532057Y-85922964D01*
X68262623Y-85831503D01*
X68262619Y-85831502D01*
X68258713Y-85830176D01*
X68254669Y-85829372D01*
X68254663Y-85829370D01*
X67975599Y-85773861D01*
X67975596Y-85773861D01*
X67971556Y-85773057D01*
X67967445Y-85772788D01*
X67967441Y-85772787D01*
X67683519Y-85754178D01*
X67679400Y-85753908D01*
X67675281Y-85754178D01*
X67391359Y-85772787D01*
X67391355Y-85772788D01*
X67387244Y-85773057D01*
X67383204Y-85773861D01*
X67383201Y-85773861D01*
X67104137Y-85829370D01*
X67104131Y-85829372D01*
X67100087Y-85830176D01*
X67096181Y-85831502D01*
X67096177Y-85831503D01*
X66826743Y-85922964D01*
X66822843Y-85924288D01*
X66819150Y-85926109D01*
X66819148Y-85926110D01*
X66563958Y-86051955D01*
X66563953Y-86051958D01*
X66560254Y-86053782D01*
X66556821Y-86056076D01*
X66320245Y-86214151D01*
X66320240Y-86214155D01*
X66316814Y-86216444D01*
X66313720Y-86219158D01*
X66313714Y-86219162D01*
X66099778Y-86406780D01*
X66096689Y-86409489D01*
X66093980Y-86412578D01*
X65906362Y-86626514D01*
X65906358Y-86626520D01*
X65903644Y-86629614D01*
X65740982Y-86873054D01*
X65739158Y-86876753D01*
X65739155Y-86876758D01*
X65632761Y-87092505D01*
X65611488Y-87135643D01*
X65610165Y-87139541D01*
X65610164Y-87139543D01*
X65551011Y-87313803D01*
X65517376Y-87412887D01*
X65516572Y-87416931D01*
X65516570Y-87416937D01*
X65462601Y-87688261D01*
X65460257Y-87700044D01*
X65459988Y-87704155D01*
X65459987Y-87704159D01*
X65457932Y-87735514D01*
X65441108Y-87992200D01*
X61468500Y-87992200D01*
X61468500Y-79507703D01*
X62025743Y-79507703D01*
X62063268Y-79792734D01*
X62139129Y-80070036D01*
X62140813Y-80073984D01*
X62231556Y-80286726D01*
X62251923Y-80334476D01*
X62399561Y-80581161D01*
X62579313Y-80805528D01*
X62787851Y-81003423D01*
X63021317Y-81171186D01*
X63025112Y-81173195D01*
X63025113Y-81173196D01*
X63046869Y-81184715D01*
X63275392Y-81305712D01*
X63545373Y-81404511D01*
X63826264Y-81465755D01*
X63854841Y-81468004D01*
X64049282Y-81483307D01*
X64049291Y-81483307D01*
X64051739Y-81483500D01*
X64207271Y-81483500D01*
X64209407Y-81483354D01*
X64209418Y-81483354D01*
X64417548Y-81469165D01*
X64417554Y-81469164D01*
X64421825Y-81468873D01*
X64426020Y-81468004D01*
X64426022Y-81468004D01*
X64562583Y-81439724D01*
X64703342Y-81410574D01*
X64974343Y-81314607D01*
X65229812Y-81182750D01*
X65233313Y-81180289D01*
X65233317Y-81180287D01*
X65347418Y-81100095D01*
X65465023Y-81017441D01*
X65675622Y-80821740D01*
X65857713Y-80599268D01*
X66007927Y-80354142D01*
X66013182Y-80342172D01*
X66121757Y-80094830D01*
X66123483Y-80090898D01*
X66202244Y-79814406D01*
X66242751Y-79529784D01*
X66242845Y-79511951D01*
X66244235Y-79246583D01*
X66244235Y-79246576D01*
X66244257Y-79242297D01*
X66206732Y-78957266D01*
X66201984Y-78939908D01*
X66184585Y-78876311D01*
X66130871Y-78679964D01*
X66130391Y-78678839D01*
X94202173Y-78678839D01*
X94202397Y-78683505D01*
X94202397Y-78683511D01*
X94204239Y-78721851D01*
X94214713Y-78939908D01*
X94265704Y-79196256D01*
X94354026Y-79442252D01*
X94356242Y-79446376D01*
X94420753Y-79566437D01*
X94477737Y-79672491D01*
X94480532Y-79676234D01*
X94480534Y-79676237D01*
X94631330Y-79878177D01*
X94631335Y-79878183D01*
X94634122Y-79881915D01*
X94637431Y-79885195D01*
X94637436Y-79885201D01*
X94816426Y-80062635D01*
X94819743Y-80065923D01*
X94823505Y-80068681D01*
X94823508Y-80068684D01*
X95026750Y-80217707D01*
X95030524Y-80220474D01*
X95034667Y-80222654D01*
X95034669Y-80222655D01*
X95257684Y-80339989D01*
X95257689Y-80339991D01*
X95261834Y-80342172D01*
X95508590Y-80428344D01*
X95513183Y-80429216D01*
X95760785Y-80476224D01*
X95760788Y-80476224D01*
X95765374Y-80477095D01*
X95895959Y-80482226D01*
X96021875Y-80487174D01*
X96021881Y-80487174D01*
X96026543Y-80487357D01*
X96105977Y-80478657D01*
X96281707Y-80459412D01*
X96281712Y-80459411D01*
X96286360Y-80458902D01*
X96399116Y-80429216D01*
X96534594Y-80393548D01*
X96534596Y-80393547D01*
X96539117Y-80392357D01*
X96619553Y-80357799D01*
X96774972Y-80291025D01*
X96779262Y-80289182D01*
X97001519Y-80151646D01*
X97005082Y-80148629D01*
X97005087Y-80148626D01*
X97197439Y-79985787D01*
X97197440Y-79985786D01*
X97201005Y-79982768D01*
X97348655Y-79814406D01*
X97370257Y-79789774D01*
X97370261Y-79789769D01*
X97373339Y-79786259D01*
X97514733Y-79566437D01*
X97622083Y-79328129D01*
X97646290Y-79242297D01*
X97691760Y-79081076D01*
X97691761Y-79081073D01*
X97693030Y-79076572D01*
X97709832Y-78944496D01*
X97725616Y-78820421D01*
X97725616Y-78820417D01*
X97726014Y-78817291D01*
X97728431Y-78725000D01*
X97725001Y-78678839D01*
X104202173Y-78678839D01*
X104202397Y-78683505D01*
X104202397Y-78683511D01*
X104204239Y-78721851D01*
X104214713Y-78939908D01*
X104265704Y-79196256D01*
X104354026Y-79442252D01*
X104356242Y-79446376D01*
X104420753Y-79566437D01*
X104477737Y-79672491D01*
X104480532Y-79676234D01*
X104480534Y-79676237D01*
X104631330Y-79878177D01*
X104631335Y-79878183D01*
X104634122Y-79881915D01*
X104637431Y-79885195D01*
X104637436Y-79885201D01*
X104816426Y-80062635D01*
X104819743Y-80065923D01*
X104823505Y-80068681D01*
X104823508Y-80068684D01*
X105026750Y-80217707D01*
X105030524Y-80220474D01*
X105034667Y-80222654D01*
X105034669Y-80222655D01*
X105257684Y-80339989D01*
X105257689Y-80339991D01*
X105261834Y-80342172D01*
X105508590Y-80428344D01*
X105513183Y-80429216D01*
X105760785Y-80476224D01*
X105760788Y-80476224D01*
X105765374Y-80477095D01*
X105895959Y-80482226D01*
X106021875Y-80487174D01*
X106021881Y-80487174D01*
X106026543Y-80487357D01*
X106105977Y-80478657D01*
X106281707Y-80459412D01*
X106281712Y-80459411D01*
X106286360Y-80458902D01*
X106399116Y-80429216D01*
X106534594Y-80393548D01*
X106534596Y-80393547D01*
X106539117Y-80392357D01*
X106619553Y-80357799D01*
X106774972Y-80291025D01*
X106779262Y-80289182D01*
X107001519Y-80151646D01*
X107005082Y-80148629D01*
X107005087Y-80148626D01*
X107197439Y-79985787D01*
X107197440Y-79985786D01*
X107201005Y-79982768D01*
X107348655Y-79814406D01*
X107370257Y-79789774D01*
X107370261Y-79789769D01*
X107373339Y-79786259D01*
X107514733Y-79566437D01*
X107622083Y-79328129D01*
X107646290Y-79242297D01*
X107691760Y-79081076D01*
X107691761Y-79081073D01*
X107693030Y-79076572D01*
X107709832Y-78944496D01*
X107725616Y-78820421D01*
X107725616Y-78820417D01*
X107726014Y-78817291D01*
X107728431Y-78725000D01*
X107725001Y-78678839D01*
X118332173Y-78678839D01*
X118332397Y-78683505D01*
X118332397Y-78683511D01*
X118334239Y-78721851D01*
X118344713Y-78939908D01*
X118395704Y-79196256D01*
X118484026Y-79442252D01*
X118486242Y-79446376D01*
X118550753Y-79566437D01*
X118607737Y-79672491D01*
X118610532Y-79676234D01*
X118610534Y-79676237D01*
X118761330Y-79878177D01*
X118761335Y-79878183D01*
X118764122Y-79881915D01*
X118767431Y-79885195D01*
X118767436Y-79885201D01*
X118946426Y-80062635D01*
X118949743Y-80065923D01*
X118953505Y-80068681D01*
X118953508Y-80068684D01*
X119156750Y-80217707D01*
X119160524Y-80220474D01*
X119164667Y-80222654D01*
X119164669Y-80222655D01*
X119387684Y-80339989D01*
X119387689Y-80339991D01*
X119391834Y-80342172D01*
X119638590Y-80428344D01*
X119643183Y-80429216D01*
X119890785Y-80476224D01*
X119890788Y-80476224D01*
X119895374Y-80477095D01*
X120025959Y-80482226D01*
X120151875Y-80487174D01*
X120151881Y-80487174D01*
X120156543Y-80487357D01*
X120235977Y-80478657D01*
X120411707Y-80459412D01*
X120411712Y-80459411D01*
X120416360Y-80458902D01*
X120529116Y-80429216D01*
X120664594Y-80393548D01*
X120664596Y-80393547D01*
X120669117Y-80392357D01*
X120749553Y-80357799D01*
X120904972Y-80291025D01*
X120909262Y-80289182D01*
X121131519Y-80151646D01*
X121135082Y-80148629D01*
X121135087Y-80148626D01*
X121327439Y-79985787D01*
X121327440Y-79985786D01*
X121331005Y-79982768D01*
X121478655Y-79814406D01*
X121500257Y-79789774D01*
X121500261Y-79789769D01*
X121503339Y-79786259D01*
X121644733Y-79566437D01*
X121752083Y-79328129D01*
X121776290Y-79242297D01*
X121821760Y-79081076D01*
X121821761Y-79081073D01*
X121823030Y-79076572D01*
X121839832Y-78944496D01*
X121855616Y-78820421D01*
X121855616Y-78820417D01*
X121856014Y-78817291D01*
X121858431Y-78725000D01*
X121855001Y-78678839D01*
X128332173Y-78678839D01*
X128332397Y-78683505D01*
X128332397Y-78683511D01*
X128334239Y-78721851D01*
X128344713Y-78939908D01*
X128395704Y-79196256D01*
X128484026Y-79442252D01*
X128486242Y-79446376D01*
X128550753Y-79566437D01*
X128607737Y-79672491D01*
X128610532Y-79676234D01*
X128610534Y-79676237D01*
X128761330Y-79878177D01*
X128761335Y-79878183D01*
X128764122Y-79881915D01*
X128767431Y-79885195D01*
X128767436Y-79885201D01*
X128946426Y-80062635D01*
X128949743Y-80065923D01*
X128953505Y-80068681D01*
X128953508Y-80068684D01*
X129156750Y-80217707D01*
X129160524Y-80220474D01*
X129164667Y-80222654D01*
X129164669Y-80222655D01*
X129387684Y-80339989D01*
X129387689Y-80339991D01*
X129391834Y-80342172D01*
X129638590Y-80428344D01*
X129643183Y-80429216D01*
X129890785Y-80476224D01*
X129890788Y-80476224D01*
X129895374Y-80477095D01*
X130025959Y-80482226D01*
X130151875Y-80487174D01*
X130151881Y-80487174D01*
X130156543Y-80487357D01*
X130235977Y-80478657D01*
X130411707Y-80459412D01*
X130411712Y-80459411D01*
X130416360Y-80458902D01*
X130529116Y-80429216D01*
X130664594Y-80393548D01*
X130664596Y-80393547D01*
X130669117Y-80392357D01*
X130749553Y-80357799D01*
X130904972Y-80291025D01*
X130909262Y-80289182D01*
X131131519Y-80151646D01*
X131135082Y-80148629D01*
X131135087Y-80148626D01*
X131327439Y-79985787D01*
X131327440Y-79985786D01*
X131331005Y-79982768D01*
X131478655Y-79814406D01*
X131500257Y-79789774D01*
X131500261Y-79789769D01*
X131503339Y-79786259D01*
X131644733Y-79566437D01*
X131752083Y-79328129D01*
X131776290Y-79242297D01*
X131821760Y-79081076D01*
X131821761Y-79081073D01*
X131823030Y-79076572D01*
X131839832Y-78944496D01*
X131855616Y-78820421D01*
X131855616Y-78820417D01*
X131856014Y-78817291D01*
X131858431Y-78725000D01*
X131855001Y-78678839D01*
X142462173Y-78678839D01*
X142462397Y-78683505D01*
X142462397Y-78683511D01*
X142464239Y-78721851D01*
X142474713Y-78939908D01*
X142525704Y-79196256D01*
X142614026Y-79442252D01*
X142616242Y-79446376D01*
X142680753Y-79566437D01*
X142737737Y-79672491D01*
X142740532Y-79676234D01*
X142740534Y-79676237D01*
X142891330Y-79878177D01*
X142891335Y-79878183D01*
X142894122Y-79881915D01*
X142897431Y-79885195D01*
X142897436Y-79885201D01*
X143076426Y-80062635D01*
X143079743Y-80065923D01*
X143083505Y-80068681D01*
X143083508Y-80068684D01*
X143286750Y-80217707D01*
X143290524Y-80220474D01*
X143294667Y-80222654D01*
X143294669Y-80222655D01*
X143517684Y-80339989D01*
X143517689Y-80339991D01*
X143521834Y-80342172D01*
X143768590Y-80428344D01*
X143773183Y-80429216D01*
X144020785Y-80476224D01*
X144020788Y-80476224D01*
X144025374Y-80477095D01*
X144155959Y-80482226D01*
X144281875Y-80487174D01*
X144281881Y-80487174D01*
X144286543Y-80487357D01*
X144365977Y-80478657D01*
X144541707Y-80459412D01*
X144541712Y-80459411D01*
X144546360Y-80458902D01*
X144659116Y-80429216D01*
X144794594Y-80393548D01*
X144794596Y-80393547D01*
X144799117Y-80392357D01*
X144879553Y-80357799D01*
X145034972Y-80291025D01*
X145039262Y-80289182D01*
X145261519Y-80151646D01*
X145265082Y-80148629D01*
X145265087Y-80148626D01*
X145457439Y-79985787D01*
X145457440Y-79985786D01*
X145461005Y-79982768D01*
X145608655Y-79814406D01*
X145630257Y-79789774D01*
X145630261Y-79789769D01*
X145633339Y-79786259D01*
X145774733Y-79566437D01*
X145882083Y-79328129D01*
X145906290Y-79242297D01*
X145951760Y-79081076D01*
X145951761Y-79081073D01*
X145953030Y-79076572D01*
X145969832Y-78944496D01*
X145985616Y-78820421D01*
X145985616Y-78820417D01*
X145986014Y-78817291D01*
X145988431Y-78725000D01*
X145985001Y-78678839D01*
X152462173Y-78678839D01*
X152462397Y-78683505D01*
X152462397Y-78683511D01*
X152464239Y-78721851D01*
X152474713Y-78939908D01*
X152525704Y-79196256D01*
X152614026Y-79442252D01*
X152616242Y-79446376D01*
X152680753Y-79566437D01*
X152737737Y-79672491D01*
X152740532Y-79676234D01*
X152740534Y-79676237D01*
X152891330Y-79878177D01*
X152891335Y-79878183D01*
X152894122Y-79881915D01*
X152897431Y-79885195D01*
X152897436Y-79885201D01*
X153076426Y-80062635D01*
X153079743Y-80065923D01*
X153083505Y-80068681D01*
X153083508Y-80068684D01*
X153286750Y-80217707D01*
X153290524Y-80220474D01*
X153294667Y-80222654D01*
X153294669Y-80222655D01*
X153517684Y-80339989D01*
X153517689Y-80339991D01*
X153521834Y-80342172D01*
X153768590Y-80428344D01*
X153773183Y-80429216D01*
X154020785Y-80476224D01*
X154020788Y-80476224D01*
X154025374Y-80477095D01*
X154155959Y-80482226D01*
X154281875Y-80487174D01*
X154281881Y-80487174D01*
X154286543Y-80487357D01*
X154365977Y-80478657D01*
X154541707Y-80459412D01*
X154541712Y-80459411D01*
X154546360Y-80458902D01*
X154659116Y-80429216D01*
X154794594Y-80393548D01*
X154794596Y-80393547D01*
X154799117Y-80392357D01*
X154879553Y-80357799D01*
X155034972Y-80291025D01*
X155039262Y-80289182D01*
X155261519Y-80151646D01*
X155265082Y-80148629D01*
X155265087Y-80148626D01*
X155457439Y-79985787D01*
X155457440Y-79985786D01*
X155461005Y-79982768D01*
X155608655Y-79814406D01*
X155630257Y-79789774D01*
X155630261Y-79789769D01*
X155633339Y-79786259D01*
X155774733Y-79566437D01*
X155801191Y-79507703D01*
X162609743Y-79507703D01*
X162647268Y-79792734D01*
X162723129Y-80070036D01*
X162724813Y-80073984D01*
X162815556Y-80286726D01*
X162835923Y-80334476D01*
X162983561Y-80581161D01*
X163163313Y-80805528D01*
X163371851Y-81003423D01*
X163605317Y-81171186D01*
X163609112Y-81173195D01*
X163609113Y-81173196D01*
X163630869Y-81184715D01*
X163859392Y-81305712D01*
X164129373Y-81404511D01*
X164410264Y-81465755D01*
X164438841Y-81468004D01*
X164633282Y-81483307D01*
X164633291Y-81483307D01*
X164635739Y-81483500D01*
X164791271Y-81483500D01*
X164793407Y-81483354D01*
X164793418Y-81483354D01*
X165001548Y-81469165D01*
X165001554Y-81469164D01*
X165005825Y-81468873D01*
X165010020Y-81468004D01*
X165010022Y-81468004D01*
X165146583Y-81439724D01*
X165287342Y-81410574D01*
X165558343Y-81314607D01*
X165813812Y-81182750D01*
X165817313Y-81180289D01*
X165817317Y-81180287D01*
X165931418Y-81100095D01*
X166049023Y-81017441D01*
X166259622Y-80821740D01*
X166441713Y-80599268D01*
X166591927Y-80354142D01*
X166597182Y-80342172D01*
X166705757Y-80094830D01*
X166707483Y-80090898D01*
X166786244Y-79814406D01*
X166826751Y-79529784D01*
X166826845Y-79511951D01*
X166828235Y-79246583D01*
X166828235Y-79246576D01*
X166828257Y-79242297D01*
X166790732Y-78957266D01*
X166785984Y-78939908D01*
X166768585Y-78876311D01*
X166714871Y-78679964D01*
X166624887Y-78469000D01*
X166603763Y-78419476D01*
X166603761Y-78419472D01*
X166602077Y-78415524D01*
X166527527Y-78290960D01*
X166456643Y-78172521D01*
X166456640Y-78172517D01*
X166454439Y-78168839D01*
X166274687Y-77944472D01*
X166066149Y-77746577D01*
X165832683Y-77578814D01*
X165810843Y-77567250D01*
X165787654Y-77554972D01*
X165578608Y-77444288D01*
X165443618Y-77394889D01*
X165312658Y-77346964D01*
X165312656Y-77346963D01*
X165308627Y-77345489D01*
X165027736Y-77284245D01*
X164996685Y-77281801D01*
X164804718Y-77266693D01*
X164804709Y-77266693D01*
X164802261Y-77266500D01*
X164646729Y-77266500D01*
X164644593Y-77266646D01*
X164644582Y-77266646D01*
X164436452Y-77280835D01*
X164436446Y-77280836D01*
X164432175Y-77281127D01*
X164427980Y-77281996D01*
X164427978Y-77281996D01*
X164291416Y-77310277D01*
X164150658Y-77339426D01*
X163879657Y-77435393D01*
X163875848Y-77437359D01*
X163689301Y-77533643D01*
X163624188Y-77567250D01*
X163620687Y-77569711D01*
X163620683Y-77569713D01*
X163610594Y-77576804D01*
X163388977Y-77732559D01*
X163373892Y-77746577D01*
X163186813Y-77920422D01*
X163178378Y-77928260D01*
X162996287Y-78150732D01*
X162846073Y-78395858D01*
X162730517Y-78659102D01*
X162651756Y-78935594D01*
X162611249Y-79220216D01*
X162611227Y-79224505D01*
X162611226Y-79224512D01*
X162610064Y-79446376D01*
X162609743Y-79507703D01*
X155801191Y-79507703D01*
X155882083Y-79328129D01*
X155906290Y-79242297D01*
X155951760Y-79081076D01*
X155951761Y-79081073D01*
X155953030Y-79076572D01*
X155969832Y-78944496D01*
X155985616Y-78820421D01*
X155985616Y-78820417D01*
X155986014Y-78817291D01*
X155988431Y-78725000D01*
X155969061Y-78464348D01*
X155958908Y-78419476D01*
X155912408Y-78213980D01*
X155911377Y-78209423D01*
X155892603Y-78161146D01*
X155818340Y-77970176D01*
X155818339Y-77970173D01*
X155816647Y-77965823D01*
X155793509Y-77925339D01*
X155768626Y-77881804D01*
X155686951Y-77738902D01*
X155525138Y-77533643D01*
X155334763Y-77354557D01*
X155120009Y-77205576D01*
X155115816Y-77203508D01*
X154889781Y-77092040D01*
X154889778Y-77092039D01*
X154885593Y-77089975D01*
X154839449Y-77075204D01*
X154641123Y-77011720D01*
X154636665Y-77010293D01*
X154378693Y-76968279D01*
X154264942Y-76966790D01*
X154122022Y-76964919D01*
X154122019Y-76964919D01*
X154117345Y-76964858D01*
X153858362Y-77000104D01*
X153607433Y-77073243D01*
X153603180Y-77075203D01*
X153603179Y-77075204D01*
X153566659Y-77092040D01*
X153370072Y-77182668D01*
X153331067Y-77208241D01*
X153155404Y-77323410D01*
X153155399Y-77323414D01*
X153151491Y-77325976D01*
X152956494Y-77500018D01*
X152789363Y-77700970D01*
X152653771Y-77924419D01*
X152552697Y-78165455D01*
X152488359Y-78418783D01*
X152462173Y-78678839D01*
X145985001Y-78678839D01*
X145969061Y-78464348D01*
X145958908Y-78419476D01*
X145912408Y-78213980D01*
X145911377Y-78209423D01*
X145892603Y-78161146D01*
X145818340Y-77970176D01*
X145818339Y-77970173D01*
X145816647Y-77965823D01*
X145793509Y-77925339D01*
X145768626Y-77881804D01*
X145686951Y-77738902D01*
X145525138Y-77533643D01*
X145334763Y-77354557D01*
X145120009Y-77205576D01*
X145115816Y-77203508D01*
X144889781Y-77092040D01*
X144889778Y-77092039D01*
X144885593Y-77089975D01*
X144839449Y-77075204D01*
X144641123Y-77011720D01*
X144636665Y-77010293D01*
X144378693Y-76968279D01*
X144264942Y-76966790D01*
X144122022Y-76964919D01*
X144122019Y-76964919D01*
X144117345Y-76964858D01*
X143858362Y-77000104D01*
X143607433Y-77073243D01*
X143603180Y-77075203D01*
X143603179Y-77075204D01*
X143566659Y-77092040D01*
X143370072Y-77182668D01*
X143331067Y-77208241D01*
X143155404Y-77323410D01*
X143155399Y-77323414D01*
X143151491Y-77325976D01*
X142956494Y-77500018D01*
X142789363Y-77700970D01*
X142653771Y-77924419D01*
X142552697Y-78165455D01*
X142488359Y-78418783D01*
X142462173Y-78678839D01*
X131855001Y-78678839D01*
X131839061Y-78464348D01*
X131828908Y-78419476D01*
X131782408Y-78213980D01*
X131781377Y-78209423D01*
X131762603Y-78161146D01*
X131688340Y-77970176D01*
X131688339Y-77970173D01*
X131686647Y-77965823D01*
X131663509Y-77925339D01*
X131638626Y-77881804D01*
X131556951Y-77738902D01*
X131395138Y-77533643D01*
X131204763Y-77354557D01*
X130990009Y-77205576D01*
X130985816Y-77203508D01*
X130759781Y-77092040D01*
X130759778Y-77092039D01*
X130755593Y-77089975D01*
X130709449Y-77075204D01*
X130511123Y-77011720D01*
X130506665Y-77010293D01*
X130248693Y-76968279D01*
X130134942Y-76966790D01*
X129992022Y-76964919D01*
X129992019Y-76964919D01*
X129987345Y-76964858D01*
X129728362Y-77000104D01*
X129477433Y-77073243D01*
X129473180Y-77075203D01*
X129473179Y-77075204D01*
X129436659Y-77092040D01*
X129240072Y-77182668D01*
X129201067Y-77208241D01*
X129025404Y-77323410D01*
X129025399Y-77323414D01*
X129021491Y-77325976D01*
X128826494Y-77500018D01*
X128659363Y-77700970D01*
X128523771Y-77924419D01*
X128422697Y-78165455D01*
X128358359Y-78418783D01*
X128332173Y-78678839D01*
X121855001Y-78678839D01*
X121839061Y-78464348D01*
X121828908Y-78419476D01*
X121782408Y-78213980D01*
X121781377Y-78209423D01*
X121762603Y-78161146D01*
X121688340Y-77970176D01*
X121688339Y-77970173D01*
X121686647Y-77965823D01*
X121663509Y-77925339D01*
X121638626Y-77881804D01*
X121556951Y-77738902D01*
X121395138Y-77533643D01*
X121204763Y-77354557D01*
X120990009Y-77205576D01*
X120985816Y-77203508D01*
X120759781Y-77092040D01*
X120759778Y-77092039D01*
X120755593Y-77089975D01*
X120709449Y-77075204D01*
X120511123Y-77011720D01*
X120506665Y-77010293D01*
X120248693Y-76968279D01*
X120134942Y-76966790D01*
X119992022Y-76964919D01*
X119992019Y-76964919D01*
X119987345Y-76964858D01*
X119728362Y-77000104D01*
X119477433Y-77073243D01*
X119473180Y-77075203D01*
X119473179Y-77075204D01*
X119436659Y-77092040D01*
X119240072Y-77182668D01*
X119201067Y-77208241D01*
X119025404Y-77323410D01*
X119025399Y-77323414D01*
X119021491Y-77325976D01*
X118826494Y-77500018D01*
X118659363Y-77700970D01*
X118523771Y-77924419D01*
X118422697Y-78165455D01*
X118358359Y-78418783D01*
X118332173Y-78678839D01*
X107725001Y-78678839D01*
X107709061Y-78464348D01*
X107698908Y-78419476D01*
X107652408Y-78213980D01*
X107651377Y-78209423D01*
X107632603Y-78161146D01*
X107558340Y-77970176D01*
X107558339Y-77970173D01*
X107556647Y-77965823D01*
X107533509Y-77925339D01*
X107508626Y-77881804D01*
X107426951Y-77738902D01*
X107265138Y-77533643D01*
X107074763Y-77354557D01*
X106860009Y-77205576D01*
X106855816Y-77203508D01*
X106629781Y-77092040D01*
X106629778Y-77092039D01*
X106625593Y-77089975D01*
X106579449Y-77075204D01*
X106381123Y-77011720D01*
X106376665Y-77010293D01*
X106118693Y-76968279D01*
X106004942Y-76966790D01*
X105862022Y-76964919D01*
X105862019Y-76964919D01*
X105857345Y-76964858D01*
X105598362Y-77000104D01*
X105347433Y-77073243D01*
X105343180Y-77075203D01*
X105343179Y-77075204D01*
X105306659Y-77092040D01*
X105110072Y-77182668D01*
X105071067Y-77208241D01*
X104895404Y-77323410D01*
X104895399Y-77323414D01*
X104891491Y-77325976D01*
X104696494Y-77500018D01*
X104529363Y-77700970D01*
X104393771Y-77924419D01*
X104292697Y-78165455D01*
X104228359Y-78418783D01*
X104202173Y-78678839D01*
X97725001Y-78678839D01*
X97709061Y-78464348D01*
X97698908Y-78419476D01*
X97652408Y-78213980D01*
X97651377Y-78209423D01*
X97632603Y-78161146D01*
X97558340Y-77970176D01*
X97558339Y-77970173D01*
X97556647Y-77965823D01*
X97533509Y-77925339D01*
X97508626Y-77881804D01*
X97426951Y-77738902D01*
X97265138Y-77533643D01*
X97074763Y-77354557D01*
X96860009Y-77205576D01*
X96855816Y-77203508D01*
X96629781Y-77092040D01*
X96629778Y-77092039D01*
X96625593Y-77089975D01*
X96579449Y-77075204D01*
X96381123Y-77011720D01*
X96376665Y-77010293D01*
X96118693Y-76968279D01*
X96004942Y-76966790D01*
X95862022Y-76964919D01*
X95862019Y-76964919D01*
X95857345Y-76964858D01*
X95598362Y-77000104D01*
X95347433Y-77073243D01*
X95343180Y-77075203D01*
X95343179Y-77075204D01*
X95306659Y-77092040D01*
X95110072Y-77182668D01*
X95071067Y-77208241D01*
X94895404Y-77323410D01*
X94895399Y-77323414D01*
X94891491Y-77325976D01*
X94696494Y-77500018D01*
X94529363Y-77700970D01*
X94393771Y-77924419D01*
X94292697Y-78165455D01*
X94228359Y-78418783D01*
X94202173Y-78678839D01*
X66130391Y-78678839D01*
X66040887Y-78469000D01*
X66019763Y-78419476D01*
X66019761Y-78419472D01*
X66018077Y-78415524D01*
X65943527Y-78290960D01*
X65872643Y-78172521D01*
X65872640Y-78172517D01*
X65870439Y-78168839D01*
X65690687Y-77944472D01*
X65482149Y-77746577D01*
X65248683Y-77578814D01*
X65226843Y-77567250D01*
X65203654Y-77554972D01*
X64994608Y-77444288D01*
X64859618Y-77394889D01*
X64728658Y-77346964D01*
X64728656Y-77346963D01*
X64724627Y-77345489D01*
X64443736Y-77284245D01*
X64412685Y-77281801D01*
X64220718Y-77266693D01*
X64220709Y-77266693D01*
X64218261Y-77266500D01*
X64062729Y-77266500D01*
X64060593Y-77266646D01*
X64060582Y-77266646D01*
X63852452Y-77280835D01*
X63852446Y-77280836D01*
X63848175Y-77281127D01*
X63843980Y-77281996D01*
X63843978Y-77281996D01*
X63707416Y-77310277D01*
X63566658Y-77339426D01*
X63295657Y-77435393D01*
X63291848Y-77437359D01*
X63105301Y-77533643D01*
X63040188Y-77567250D01*
X63036687Y-77569711D01*
X63036683Y-77569713D01*
X63026594Y-77576804D01*
X62804977Y-77732559D01*
X62789892Y-77746577D01*
X62602813Y-77920422D01*
X62594378Y-77928260D01*
X62412287Y-78150732D01*
X62262073Y-78395858D01*
X62146517Y-78659102D01*
X62067756Y-78935594D01*
X62027249Y-79220216D01*
X62027227Y-79224505D01*
X62027226Y-79224512D01*
X62026064Y-79446376D01*
X62025743Y-79507703D01*
X61468500Y-79507703D01*
X61468500Y-76834500D01*
X61488502Y-76766379D01*
X61542158Y-76719886D01*
X61594500Y-76708500D01*
X167259500Y-76708500D01*
X167327621Y-76728502D01*
G37*
%TD.AperFunction*%
%TD*%
M02*
