%TF.GenerationSoftware,KiCad,Pcbnew,(5.1.10)-1*%
%TF.CreationDate,2021-06-24T17:39:56+02:00*%
%TF.ProjectId,mister-midi-pcb,6d697374-6572-42d6-9d69-64692d706362,rev?*%
%TF.SameCoordinates,Original*%
%TF.FileFunction,Copper,L2,Bot*%
%TF.FilePolarity,Positive*%
%FSLAX46Y46*%
G04 Gerber Fmt 4.6, Leading zero omitted, Abs format (unit mm)*
G04 Created by KiCad (PCBNEW (5.1.10)-1) date 2021-06-24 17:39:56*
%MOMM*%
%LPD*%
G01*
G04 APERTURE LIST*
%TA.AperFunction,ComponentPad*%
%ADD10C,1.200000*%
%TD*%
%TA.AperFunction,ComponentPad*%
%ADD11O,1.200000X2.400000*%
%TD*%
%TA.AperFunction,ComponentPad*%
%ADD12O,1.200000X2.100000*%
%TD*%
%TA.AperFunction,ComponentPad*%
%ADD13C,4.700000*%
%TD*%
%TA.AperFunction,ComponentPad*%
%ADD14C,2.500000*%
%TD*%
%TA.AperFunction,ViaPad*%
%ADD15C,0.800000*%
%TD*%
%TA.AperFunction,Conductor*%
%ADD16C,0.250000*%
%TD*%
%TA.AperFunction,Conductor*%
%ADD17C,1.000000*%
%TD*%
%TA.AperFunction,Conductor*%
%ADD18C,0.254000*%
%TD*%
%TA.AperFunction,Conductor*%
%ADD19C,0.100000*%
%TD*%
G04 APERTURE END LIST*
D10*
%TO.P,J2,1*%
%TO.N,+5V*%
X78105000Y-88011000D03*
%TO.P,J2,2*%
%TO.N,Midi_Out_TX*%
X75605000Y-88011000D03*
%TO.P,J2,3*%
%TO.N,Midi_In_RX*%
X73605000Y-88011000D03*
%TO.P,J2,4*%
%TO.N,GND*%
X71105000Y-88011000D03*
%TO.P,J2,5*%
%TO.N,Net-(J2-Pad5)*%
X70605000Y-89511000D03*
%TO.P,J2,6*%
%TO.N,Net-(J2-Pad6)*%
X72605000Y-89511000D03*
%TO.P,J2,7*%
%TO.N,Net-(J2-Pad7)*%
X74605000Y-89511000D03*
%TO.P,J2,8*%
%TO.N,Net-(J2-Pad8)*%
X76605000Y-89511000D03*
%TO.P,J2,9*%
%TO.N,Net-(J2-Pad9)*%
X78605000Y-89511000D03*
D11*
%TO.P,J2,10*%
%TO.N,Net-(J2-Pad10)*%
X68205000Y-88761000D03*
X81005000Y-88761000D03*
D12*
X68205000Y-80261000D03*
X81005000Y-80261000D03*
%TD*%
D13*
%TO.P,REF\u002A\u002A,1*%
%TO.N,N/C*%
X164719000Y-141605000D03*
%TD*%
%TO.P,REF\u002A\u002A,1*%
%TO.N,N/C*%
X64135000Y-141605000D03*
%TD*%
%TO.P,REF\u002A\u002A,1*%
%TO.N,N/C*%
X164719000Y-79375000D03*
%TD*%
%TO.P,REF\u002A\u002A,1*%
%TO.N,N/C*%
X64135000Y-79375000D03*
%TD*%
D14*
%TO.P,J1,3*%
%TO.N,Net-(J1-Pad3)*%
X108465000Y-88725000D03*
%TO.P,J1,4*%
%TO.N,Net-(FB1-Pad2)*%
X95965000Y-91225000D03*
%TO.P,J1,2*%
%TO.N,Net-(J1-Pad2)*%
X100965000Y-88725000D03*
%TO.P,J1,1*%
%TO.N,Net-(J1-Pad1)*%
X93465000Y-88725000D03*
%TO.P,J1,5*%
%TO.N,Net-(FB2-Pad2)*%
X105965000Y-91225000D03*
%TO.P,J1,6*%
%TO.N,N/C*%
X95965000Y-78725000D03*
X105965000Y-78725000D03*
%TD*%
%TO.P,J3,6*%
%TO.N,N/C*%
X130095000Y-78725000D03*
X120095000Y-78725000D03*
%TO.P,J3,5*%
%TO.N,Net-(FB3-Pad1)*%
X130095000Y-91225000D03*
%TO.P,J3,1*%
%TO.N,Net-(J3-Pad1)*%
X117595000Y-88725000D03*
%TO.P,J3,2*%
%TO.N,GND*%
X125095000Y-88725000D03*
%TO.P,J3,4*%
%TO.N,Net-(FB5-Pad2)*%
X120095000Y-91225000D03*
%TO.P,J3,3*%
%TO.N,Net-(J3-Pad3)*%
X132595000Y-88725000D03*
%TD*%
%TO.P,J4,3*%
%TO.N,Net-(J4-Pad3)*%
X156725000Y-88725000D03*
%TO.P,J4,4*%
%TO.N,Net-(FB6-Pad2)*%
X144225000Y-91225000D03*
%TO.P,J4,2*%
%TO.N,GND*%
X149225000Y-88725000D03*
%TO.P,J4,1*%
%TO.N,Net-(J4-Pad1)*%
X141725000Y-88725000D03*
%TO.P,J4,5*%
%TO.N,Net-(FB4-Pad1)*%
X154225000Y-91225000D03*
%TO.P,J4,6*%
%TO.N,N/C*%
X144225000Y-78725000D03*
X154225000Y-78725000D03*
%TD*%
D15*
%TO.N,Midi_Out_TX*%
X83566000Y-97282000D03*
X78740000Y-97282000D03*
%TO.N,Midi_In_RX*%
X93726000Y-111252000D03*
X84328000Y-112522000D03*
X92202000Y-105664000D03*
X77978000Y-102362000D03*
X87122000Y-112522000D03*
%TO.N,Net-(J2-Pad10)*%
X69342000Y-91186000D03*
X78994000Y-91186000D03*
%TO.N,+3V3*%
X73660000Y-106934000D03*
X150622000Y-104902000D03*
X90678000Y-104140000D03*
X82550000Y-108458000D03*
X92202000Y-109474000D03*
X126238000Y-105156000D03*
X70104000Y-115062000D03*
X74930000Y-116586000D03*
%TO.N,Midi_In_RX_Inv*%
X84582000Y-118364000D03*
X88646000Y-122936000D03*
%TO.N,Midi_Out_TX_INV*%
X86614000Y-117602000D03*
X99568000Y-127254000D03*
%TO.N,Net-(U2-Pad10)*%
X86459990Y-108712000D03*
X84328000Y-109220000D03*
%TO.N,Net-(R6-Pad1)*%
X91440000Y-113538000D03*
X126746000Y-117094000D03*
%TO.N,Net-(R7-Pad2)*%
X92202000Y-118618000D03*
X152146000Y-118618000D03*
%TD*%
D16*
%TO.N,Midi_Out_TX*%
X83566000Y-97282000D02*
X78740000Y-97282000D01*
%TO.N,Midi_In_RX*%
X93726000Y-111252000D02*
X92456000Y-112522000D01*
X90066740Y-102362000D02*
X77978000Y-102362000D01*
X92202000Y-104497260D02*
X90066740Y-102362000D01*
X92202000Y-105664000D02*
X92202000Y-104497260D01*
X87630000Y-112522000D02*
X87122000Y-112522000D01*
X92456000Y-112522000D02*
X87630000Y-112522000D01*
X87630000Y-112522000D02*
X84328000Y-112522000D01*
%TO.N,Net-(J2-Pad10)*%
X69342000Y-91186000D02*
X78994000Y-91186000D01*
D17*
%TO.N,+3V3*%
X150622000Y-106680000D02*
X150876000Y-106934000D01*
X150622000Y-104902000D02*
X150622000Y-106680000D01*
X150876000Y-106934000D02*
X164084000Y-106934000D01*
X128016000Y-106934000D02*
X150876000Y-106934000D01*
X90678000Y-104140000D02*
X90678000Y-106934000D01*
X82550000Y-107188000D02*
X82296000Y-106934000D01*
X82296000Y-106934000D02*
X90678000Y-106934000D01*
X82550000Y-108458000D02*
X82550000Y-107188000D01*
X73660000Y-106934000D02*
X82296000Y-106934000D01*
X90678000Y-107950000D02*
X92202000Y-109474000D01*
X90678000Y-106934000D02*
X90678000Y-107950000D01*
X126238000Y-106680000D02*
X125984000Y-106934000D01*
X126238000Y-105156000D02*
X126238000Y-106680000D01*
X125984000Y-106934000D02*
X128016000Y-106934000D01*
X90678000Y-106934000D02*
X125984000Y-106934000D01*
X70104000Y-115062000D02*
X71628000Y-116586000D01*
X71628000Y-116586000D02*
X74930000Y-116586000D01*
D16*
%TO.N,Midi_In_RX_Inv*%
X88646000Y-122428000D02*
X88646000Y-122936000D01*
X84582000Y-118364000D02*
X88646000Y-122428000D01*
%TO.N,Midi_Out_TX_INV*%
X89916000Y-117602000D02*
X99568000Y-127254000D01*
X86614000Y-117602000D02*
X89916000Y-117602000D01*
%TO.N,Net-(U2-Pad10)*%
X84836000Y-108712000D02*
X86459990Y-108712000D01*
X84836000Y-108712000D02*
X84328000Y-109220000D01*
%TO.N,Net-(R6-Pad1)*%
X91440000Y-113538000D02*
X94996000Y-117094000D01*
X94996000Y-117094000D02*
X126746000Y-117094000D01*
%TO.N,Net-(R7-Pad2)*%
X92202000Y-118618000D02*
X152146000Y-118618000D01*
%TD*%
D18*
%TO.N,GND*%
X95415166Y-76912439D02*
X95072118Y-77054534D01*
X94763382Y-77260825D01*
X94500825Y-77523382D01*
X94294534Y-77832118D01*
X94152439Y-78175166D01*
X94080000Y-78539344D01*
X94080000Y-78910656D01*
X94152439Y-79274834D01*
X94294534Y-79617882D01*
X94500825Y-79926618D01*
X94763382Y-80189175D01*
X95072118Y-80395466D01*
X95415166Y-80537561D01*
X95779344Y-80610000D01*
X96150656Y-80610000D01*
X96514834Y-80537561D01*
X96857882Y-80395466D01*
X97166618Y-80189175D01*
X97429175Y-79926618D01*
X97635466Y-79617882D01*
X97777561Y-79274834D01*
X97850000Y-78910656D01*
X97850000Y-78539344D01*
X97777561Y-78175166D01*
X97635466Y-77832118D01*
X97429175Y-77523382D01*
X97166618Y-77260825D01*
X96857882Y-77054534D01*
X96514834Y-76912439D01*
X96251203Y-76860000D01*
X105678797Y-76860000D01*
X105415166Y-76912439D01*
X105072118Y-77054534D01*
X104763382Y-77260825D01*
X104500825Y-77523382D01*
X104294534Y-77832118D01*
X104152439Y-78175166D01*
X104080000Y-78539344D01*
X104080000Y-78910656D01*
X104152439Y-79274834D01*
X104294534Y-79617882D01*
X104500825Y-79926618D01*
X104763382Y-80189175D01*
X105072118Y-80395466D01*
X105415166Y-80537561D01*
X105779344Y-80610000D01*
X106150656Y-80610000D01*
X106514834Y-80537561D01*
X106857882Y-80395466D01*
X107166618Y-80189175D01*
X107429175Y-79926618D01*
X107635466Y-79617882D01*
X107777561Y-79274834D01*
X107850000Y-78910656D01*
X107850000Y-78539344D01*
X107777561Y-78175166D01*
X107635466Y-77832118D01*
X107429175Y-77523382D01*
X107166618Y-77260825D01*
X106857882Y-77054534D01*
X106514834Y-76912439D01*
X106251203Y-76860000D01*
X119808797Y-76860000D01*
X119545166Y-76912439D01*
X119202118Y-77054534D01*
X118893382Y-77260825D01*
X118630825Y-77523382D01*
X118424534Y-77832118D01*
X118282439Y-78175166D01*
X118210000Y-78539344D01*
X118210000Y-78910656D01*
X118282439Y-79274834D01*
X118424534Y-79617882D01*
X118630825Y-79926618D01*
X118893382Y-80189175D01*
X119202118Y-80395466D01*
X119545166Y-80537561D01*
X119909344Y-80610000D01*
X120280656Y-80610000D01*
X120644834Y-80537561D01*
X120987882Y-80395466D01*
X121296618Y-80189175D01*
X121559175Y-79926618D01*
X121765466Y-79617882D01*
X121907561Y-79274834D01*
X121980000Y-78910656D01*
X121980000Y-78539344D01*
X121907561Y-78175166D01*
X121765466Y-77832118D01*
X121559175Y-77523382D01*
X121296618Y-77260825D01*
X120987882Y-77054534D01*
X120644834Y-76912439D01*
X120381203Y-76860000D01*
X129808797Y-76860000D01*
X129545166Y-76912439D01*
X129202118Y-77054534D01*
X128893382Y-77260825D01*
X128630825Y-77523382D01*
X128424534Y-77832118D01*
X128282439Y-78175166D01*
X128210000Y-78539344D01*
X128210000Y-78910656D01*
X128282439Y-79274834D01*
X128424534Y-79617882D01*
X128630825Y-79926618D01*
X128893382Y-80189175D01*
X129202118Y-80395466D01*
X129545166Y-80537561D01*
X129909344Y-80610000D01*
X130280656Y-80610000D01*
X130644834Y-80537561D01*
X130987882Y-80395466D01*
X131296618Y-80189175D01*
X131559175Y-79926618D01*
X131765466Y-79617882D01*
X131907561Y-79274834D01*
X131980000Y-78910656D01*
X131980000Y-78539344D01*
X131907561Y-78175166D01*
X131765466Y-77832118D01*
X131559175Y-77523382D01*
X131296618Y-77260825D01*
X130987882Y-77054534D01*
X130644834Y-76912439D01*
X130381203Y-76860000D01*
X143938797Y-76860000D01*
X143675166Y-76912439D01*
X143332118Y-77054534D01*
X143023382Y-77260825D01*
X142760825Y-77523382D01*
X142554534Y-77832118D01*
X142412439Y-78175166D01*
X142340000Y-78539344D01*
X142340000Y-78910656D01*
X142412439Y-79274834D01*
X142554534Y-79617882D01*
X142760825Y-79926618D01*
X143023382Y-80189175D01*
X143332118Y-80395466D01*
X143675166Y-80537561D01*
X144039344Y-80610000D01*
X144410656Y-80610000D01*
X144774834Y-80537561D01*
X145117882Y-80395466D01*
X145426618Y-80189175D01*
X145689175Y-79926618D01*
X145895466Y-79617882D01*
X146037561Y-79274834D01*
X146110000Y-78910656D01*
X146110000Y-78539344D01*
X146037561Y-78175166D01*
X145895466Y-77832118D01*
X145689175Y-77523382D01*
X145426618Y-77260825D01*
X145117882Y-77054534D01*
X144774834Y-76912439D01*
X144511203Y-76860000D01*
X153938797Y-76860000D01*
X153675166Y-76912439D01*
X153332118Y-77054534D01*
X153023382Y-77260825D01*
X152760825Y-77523382D01*
X152554534Y-77832118D01*
X152412439Y-78175166D01*
X152340000Y-78539344D01*
X152340000Y-78910656D01*
X152412439Y-79274834D01*
X152554534Y-79617882D01*
X152760825Y-79926618D01*
X153023382Y-80189175D01*
X153332118Y-80395466D01*
X153675166Y-80537561D01*
X154039344Y-80610000D01*
X154410656Y-80610000D01*
X154774834Y-80537561D01*
X155117882Y-80395466D01*
X155426618Y-80189175D01*
X155689175Y-79926618D01*
X155895466Y-79617882D01*
X156037561Y-79274834D01*
X156110000Y-78910656D01*
X156110000Y-78539344D01*
X156037561Y-78175166D01*
X155895466Y-77832118D01*
X155689175Y-77523382D01*
X155426618Y-77260825D01*
X155117882Y-77054534D01*
X154774834Y-76912439D01*
X154511203Y-76860000D01*
X163110105Y-76860000D01*
X162816174Y-77056399D01*
X162400399Y-77472174D01*
X162073727Y-77961072D01*
X161848712Y-78504308D01*
X161734000Y-79081003D01*
X161734000Y-79668997D01*
X161848712Y-80245692D01*
X162073727Y-80788928D01*
X162400399Y-81277826D01*
X162816174Y-81693601D01*
X163305072Y-82020273D01*
X163848308Y-82245288D01*
X164425003Y-82360000D01*
X165012997Y-82360000D01*
X165589692Y-82245288D01*
X166132928Y-82020273D01*
X166621826Y-81693601D01*
X167037601Y-81277826D01*
X167234001Y-80983893D01*
X167234000Y-139996105D01*
X167037601Y-139702174D01*
X166621826Y-139286399D01*
X166132928Y-138959727D01*
X165589692Y-138734712D01*
X165012997Y-138620000D01*
X164425003Y-138620000D01*
X163848308Y-138734712D01*
X163305072Y-138959727D01*
X162816174Y-139286399D01*
X162400399Y-139702174D01*
X162073727Y-140191072D01*
X161848712Y-140734308D01*
X161734000Y-141311003D01*
X161734000Y-141898997D01*
X161848712Y-142475692D01*
X162073727Y-143018928D01*
X162400399Y-143507826D01*
X162816174Y-143923601D01*
X163110105Y-144120000D01*
X65743895Y-144120000D01*
X66037826Y-143923601D01*
X66453601Y-143507826D01*
X66780273Y-143018928D01*
X67005288Y-142475692D01*
X67120000Y-141898997D01*
X67120000Y-141311003D01*
X67005288Y-140734308D01*
X66780273Y-140191072D01*
X66453601Y-139702174D01*
X66037826Y-139286399D01*
X65548928Y-138959727D01*
X65005692Y-138734712D01*
X64428997Y-138620000D01*
X63841003Y-138620000D01*
X63264308Y-138734712D01*
X62721072Y-138959727D01*
X62232174Y-139286399D01*
X61816399Y-139702174D01*
X61620000Y-139996105D01*
X61620000Y-118262061D01*
X83547000Y-118262061D01*
X83547000Y-118465939D01*
X83586774Y-118665898D01*
X83664795Y-118854256D01*
X83778063Y-119023774D01*
X83922226Y-119167937D01*
X84091744Y-119281205D01*
X84280102Y-119359226D01*
X84480061Y-119399000D01*
X84542199Y-119399000D01*
X87687833Y-122544635D01*
X87650774Y-122634102D01*
X87611000Y-122834061D01*
X87611000Y-123037939D01*
X87650774Y-123237898D01*
X87728795Y-123426256D01*
X87842063Y-123595774D01*
X87986226Y-123739937D01*
X88155744Y-123853205D01*
X88344102Y-123931226D01*
X88544061Y-123971000D01*
X88747939Y-123971000D01*
X88947898Y-123931226D01*
X89136256Y-123853205D01*
X89305774Y-123739937D01*
X89449937Y-123595774D01*
X89563205Y-123426256D01*
X89641226Y-123237898D01*
X89681000Y-123037939D01*
X89681000Y-122834061D01*
X89641226Y-122634102D01*
X89563205Y-122445744D01*
X89449937Y-122276226D01*
X89369869Y-122196158D01*
X89351546Y-122135753D01*
X89280975Y-122003725D01*
X89280974Y-122003723D01*
X89209799Y-121916997D01*
X89186001Y-121887999D01*
X89157004Y-121864202D01*
X85617000Y-118324199D01*
X85617000Y-118262061D01*
X85577226Y-118062102D01*
X85499205Y-117873744D01*
X85385937Y-117704226D01*
X85241774Y-117560063D01*
X85072256Y-117446795D01*
X84883898Y-117368774D01*
X84683939Y-117329000D01*
X84480061Y-117329000D01*
X84280102Y-117368774D01*
X84091744Y-117446795D01*
X83922226Y-117560063D01*
X83778063Y-117704226D01*
X83664795Y-117873744D01*
X83586774Y-118062102D01*
X83547000Y-118262061D01*
X61620000Y-118262061D01*
X61620000Y-115062000D01*
X68963509Y-115062000D01*
X68985423Y-115284498D01*
X69050324Y-115498446D01*
X69155717Y-115695622D01*
X69262012Y-115825143D01*
X70786009Y-117349140D01*
X70821551Y-117392449D01*
X70994377Y-117534284D01*
X71191553Y-117639676D01*
X71405501Y-117704577D01*
X71572248Y-117721000D01*
X71572257Y-117721000D01*
X71627999Y-117726490D01*
X71683741Y-117721000D01*
X74985752Y-117721000D01*
X75152499Y-117704577D01*
X75366447Y-117639676D01*
X75563623Y-117534284D01*
X75736449Y-117392449D01*
X75878284Y-117219623D01*
X75983676Y-117022447D01*
X76048577Y-116808499D01*
X76070491Y-116586000D01*
X76048577Y-116363501D01*
X75983676Y-116149553D01*
X75878284Y-115952377D01*
X75736449Y-115779551D01*
X75563623Y-115637716D01*
X75366447Y-115532324D01*
X75152499Y-115467423D01*
X74985752Y-115451000D01*
X72098132Y-115451000D01*
X70867143Y-114220012D01*
X70737622Y-114113717D01*
X70540446Y-114008324D01*
X70326498Y-113943423D01*
X70104000Y-113921509D01*
X69881502Y-113943423D01*
X69667554Y-114008324D01*
X69470378Y-114113717D01*
X69297552Y-114255552D01*
X69155717Y-114428378D01*
X69050324Y-114625554D01*
X68985423Y-114839502D01*
X68963509Y-115062000D01*
X61620000Y-115062000D01*
X61620000Y-112420061D01*
X83293000Y-112420061D01*
X83293000Y-112623939D01*
X83332774Y-112823898D01*
X83410795Y-113012256D01*
X83524063Y-113181774D01*
X83668226Y-113325937D01*
X83837744Y-113439205D01*
X84026102Y-113517226D01*
X84226061Y-113557000D01*
X84429939Y-113557000D01*
X84629898Y-113517226D01*
X84818256Y-113439205D01*
X84987774Y-113325937D01*
X85031711Y-113282000D01*
X86418289Y-113282000D01*
X86462226Y-113325937D01*
X86631744Y-113439205D01*
X86820102Y-113517226D01*
X87020061Y-113557000D01*
X87223939Y-113557000D01*
X87423898Y-113517226D01*
X87612256Y-113439205D01*
X87781774Y-113325937D01*
X87825711Y-113282000D01*
X90435644Y-113282000D01*
X90405000Y-113436061D01*
X90405000Y-113639939D01*
X90444774Y-113839898D01*
X90522795Y-114028256D01*
X90636063Y-114197774D01*
X90780226Y-114341937D01*
X90949744Y-114455205D01*
X91138102Y-114533226D01*
X91338061Y-114573000D01*
X91400199Y-114573000D01*
X94432205Y-117605008D01*
X94455999Y-117634001D01*
X94484992Y-117657795D01*
X94484996Y-117657799D01*
X94537388Y-117700795D01*
X94571724Y-117728974D01*
X94703753Y-117799546D01*
X94847014Y-117843003D01*
X94958667Y-117854000D01*
X94958676Y-117854000D01*
X94995999Y-117857676D01*
X95033322Y-117854000D01*
X126042289Y-117854000D01*
X126046289Y-117858000D01*
X92905711Y-117858000D01*
X92861774Y-117814063D01*
X92692256Y-117700795D01*
X92503898Y-117622774D01*
X92303939Y-117583000D01*
X92100061Y-117583000D01*
X91900102Y-117622774D01*
X91711744Y-117700795D01*
X91542226Y-117814063D01*
X91398063Y-117958226D01*
X91377621Y-117988820D01*
X90479804Y-117091003D01*
X90456001Y-117061999D01*
X90340276Y-116967026D01*
X90208247Y-116896454D01*
X90064986Y-116852997D01*
X89953333Y-116842000D01*
X89953322Y-116842000D01*
X89916000Y-116838324D01*
X89878678Y-116842000D01*
X87317711Y-116842000D01*
X87273774Y-116798063D01*
X87104256Y-116684795D01*
X86915898Y-116606774D01*
X86715939Y-116567000D01*
X86512061Y-116567000D01*
X86312102Y-116606774D01*
X86123744Y-116684795D01*
X85954226Y-116798063D01*
X85810063Y-116942226D01*
X85696795Y-117111744D01*
X85618774Y-117300102D01*
X85579000Y-117500061D01*
X85579000Y-117703939D01*
X85618774Y-117903898D01*
X85696795Y-118092256D01*
X85810063Y-118261774D01*
X85954226Y-118405937D01*
X86123744Y-118519205D01*
X86312102Y-118597226D01*
X86512061Y-118637000D01*
X86715939Y-118637000D01*
X86915898Y-118597226D01*
X87104256Y-118519205D01*
X87273774Y-118405937D01*
X87317711Y-118362000D01*
X89601199Y-118362000D01*
X98533000Y-127293802D01*
X98533000Y-127355939D01*
X98572774Y-127555898D01*
X98650795Y-127744256D01*
X98764063Y-127913774D01*
X98908226Y-128057937D01*
X99077744Y-128171205D01*
X99266102Y-128249226D01*
X99466061Y-128289000D01*
X99669939Y-128289000D01*
X99869898Y-128249226D01*
X100058256Y-128171205D01*
X100227774Y-128057937D01*
X100371937Y-127913774D01*
X100485205Y-127744256D01*
X100563226Y-127555898D01*
X100603000Y-127355939D01*
X100603000Y-127152061D01*
X100563226Y-126952102D01*
X100485205Y-126763744D01*
X100371937Y-126594226D01*
X100227774Y-126450063D01*
X100058256Y-126336795D01*
X99869898Y-126258774D01*
X99669939Y-126219000D01*
X99607802Y-126219000D01*
X92831180Y-119442379D01*
X92861774Y-119421937D01*
X92905711Y-119378000D01*
X151442289Y-119378000D01*
X151486226Y-119421937D01*
X151655744Y-119535205D01*
X151844102Y-119613226D01*
X152044061Y-119653000D01*
X152247939Y-119653000D01*
X152447898Y-119613226D01*
X152636256Y-119535205D01*
X152805774Y-119421937D01*
X152949937Y-119277774D01*
X153063205Y-119108256D01*
X153141226Y-118919898D01*
X153181000Y-118719939D01*
X153181000Y-118516061D01*
X153141226Y-118316102D01*
X153063205Y-118127744D01*
X152949937Y-117958226D01*
X152805774Y-117814063D01*
X152636256Y-117700795D01*
X152447898Y-117622774D01*
X152247939Y-117583000D01*
X152044061Y-117583000D01*
X151844102Y-117622774D01*
X151655744Y-117700795D01*
X151486226Y-117814063D01*
X151442289Y-117858000D01*
X127445711Y-117858000D01*
X127549937Y-117753774D01*
X127663205Y-117584256D01*
X127741226Y-117395898D01*
X127781000Y-117195939D01*
X127781000Y-116992061D01*
X127741226Y-116792102D01*
X127663205Y-116603744D01*
X127549937Y-116434226D01*
X127405774Y-116290063D01*
X127236256Y-116176795D01*
X127047898Y-116098774D01*
X126847939Y-116059000D01*
X126644061Y-116059000D01*
X126444102Y-116098774D01*
X126255744Y-116176795D01*
X126086226Y-116290063D01*
X126042289Y-116334000D01*
X95310803Y-116334000D01*
X92475000Y-113498199D01*
X92475000Y-113436061D01*
X92444869Y-113284580D01*
X92456000Y-113285676D01*
X92493322Y-113282000D01*
X92493333Y-113282000D01*
X92604986Y-113271003D01*
X92748247Y-113227546D01*
X92880276Y-113156974D01*
X92996001Y-113062001D01*
X93019804Y-113032997D01*
X93765802Y-112287000D01*
X93827939Y-112287000D01*
X94027898Y-112247226D01*
X94216256Y-112169205D01*
X94385774Y-112055937D01*
X94529937Y-111911774D01*
X94643205Y-111742256D01*
X94721226Y-111553898D01*
X94761000Y-111353939D01*
X94761000Y-111150061D01*
X94721226Y-110950102D01*
X94643205Y-110761744D01*
X94529937Y-110592226D01*
X94385774Y-110448063D01*
X94216256Y-110334795D01*
X94027898Y-110256774D01*
X93827939Y-110217000D01*
X93624061Y-110217000D01*
X93424102Y-110256774D01*
X93235744Y-110334795D01*
X93066226Y-110448063D01*
X92922063Y-110592226D01*
X92808795Y-110761744D01*
X92730774Y-110950102D01*
X92691000Y-111150061D01*
X92691000Y-111212198D01*
X92141199Y-111762000D01*
X87825711Y-111762000D01*
X87781774Y-111718063D01*
X87612256Y-111604795D01*
X87423898Y-111526774D01*
X87223939Y-111487000D01*
X87020061Y-111487000D01*
X86820102Y-111526774D01*
X86631744Y-111604795D01*
X86462226Y-111718063D01*
X86418289Y-111762000D01*
X85031711Y-111762000D01*
X84987774Y-111718063D01*
X84818256Y-111604795D01*
X84629898Y-111526774D01*
X84429939Y-111487000D01*
X84226061Y-111487000D01*
X84026102Y-111526774D01*
X83837744Y-111604795D01*
X83668226Y-111718063D01*
X83524063Y-111862226D01*
X83410795Y-112031744D01*
X83332774Y-112220102D01*
X83293000Y-112420061D01*
X61620000Y-112420061D01*
X61620000Y-106934000D01*
X72519509Y-106934000D01*
X72541423Y-107156499D01*
X72606324Y-107370447D01*
X72711716Y-107567623D01*
X72853551Y-107740449D01*
X73026377Y-107882284D01*
X73223553Y-107987676D01*
X73437501Y-108052577D01*
X73604248Y-108069000D01*
X81415000Y-108069000D01*
X81415000Y-108513751D01*
X81431423Y-108680498D01*
X81496324Y-108894446D01*
X81601716Y-109091623D01*
X81743551Y-109264449D01*
X81916377Y-109406284D01*
X82113553Y-109511676D01*
X82327501Y-109576577D01*
X82550000Y-109598491D01*
X82772498Y-109576577D01*
X82986446Y-109511676D01*
X83183623Y-109406284D01*
X83293000Y-109316520D01*
X83293000Y-109321939D01*
X83332774Y-109521898D01*
X83410795Y-109710256D01*
X83524063Y-109879774D01*
X83668226Y-110023937D01*
X83837744Y-110137205D01*
X84026102Y-110215226D01*
X84226061Y-110255000D01*
X84429939Y-110255000D01*
X84629898Y-110215226D01*
X84818256Y-110137205D01*
X84987774Y-110023937D01*
X85131937Y-109879774D01*
X85245205Y-109710256D01*
X85323226Y-109521898D01*
X85333151Y-109472000D01*
X85756279Y-109472000D01*
X85800216Y-109515937D01*
X85969734Y-109629205D01*
X86158092Y-109707226D01*
X86358051Y-109747000D01*
X86561929Y-109747000D01*
X86761888Y-109707226D01*
X86950246Y-109629205D01*
X87119764Y-109515937D01*
X87263927Y-109371774D01*
X87377195Y-109202256D01*
X87455216Y-109013898D01*
X87494990Y-108813939D01*
X87494990Y-108610061D01*
X87455216Y-108410102D01*
X87377195Y-108221744D01*
X87275135Y-108069000D01*
X89549229Y-108069000D01*
X89559423Y-108172499D01*
X89624324Y-108386447D01*
X89729717Y-108583623D01*
X89871552Y-108756449D01*
X89914860Y-108791991D01*
X91438856Y-110315988D01*
X91568376Y-110422283D01*
X91765552Y-110527675D01*
X91979500Y-110592576D01*
X92201999Y-110614490D01*
X92424498Y-110592576D01*
X92638446Y-110527675D01*
X92835622Y-110422283D01*
X93008448Y-110280448D01*
X93150283Y-110107622D01*
X93255675Y-109910446D01*
X93320576Y-109696498D01*
X93342490Y-109473999D01*
X93320576Y-109251500D01*
X93255675Y-109037552D01*
X93150283Y-108840376D01*
X93043988Y-108710856D01*
X92402132Y-108069000D01*
X125928249Y-108069000D01*
X125984000Y-108074491D01*
X126039751Y-108069000D01*
X150820257Y-108069000D01*
X150875999Y-108074490D01*
X150931741Y-108069000D01*
X164139752Y-108069000D01*
X164306499Y-108052577D01*
X164520447Y-107987676D01*
X164717623Y-107882284D01*
X164890449Y-107740449D01*
X165032284Y-107567623D01*
X165137676Y-107370447D01*
X165202577Y-107156499D01*
X165224491Y-106934000D01*
X165202577Y-106711501D01*
X165137676Y-106497553D01*
X165032284Y-106300377D01*
X164890449Y-106127551D01*
X164717623Y-105985716D01*
X164520447Y-105880324D01*
X164306499Y-105815423D01*
X164139752Y-105799000D01*
X151757000Y-105799000D01*
X151757000Y-104846248D01*
X151740577Y-104679501D01*
X151675676Y-104465553D01*
X151570284Y-104268377D01*
X151428449Y-104095551D01*
X151255623Y-103953716D01*
X151058446Y-103848324D01*
X150844498Y-103783423D01*
X150622000Y-103761509D01*
X150399501Y-103783423D01*
X150185553Y-103848324D01*
X149988377Y-103953716D01*
X149815551Y-104095551D01*
X149673716Y-104268377D01*
X149568324Y-104465554D01*
X149503423Y-104679502D01*
X149487000Y-104846249D01*
X149487000Y-105799000D01*
X127373000Y-105799000D01*
X127373000Y-105100248D01*
X127356577Y-104933501D01*
X127291676Y-104719553D01*
X127186284Y-104522377D01*
X127044449Y-104349551D01*
X126871623Y-104207716D01*
X126674446Y-104102324D01*
X126460498Y-104037423D01*
X126238000Y-104015509D01*
X126015501Y-104037423D01*
X125801553Y-104102324D01*
X125604377Y-104207716D01*
X125431551Y-104349551D01*
X125289716Y-104522377D01*
X125184324Y-104719554D01*
X125119423Y-104933502D01*
X125103000Y-105100249D01*
X125103000Y-105799000D01*
X93230424Y-105799000D01*
X93237000Y-105765939D01*
X93237000Y-105562061D01*
X93197226Y-105362102D01*
X93119205Y-105173744D01*
X93005937Y-105004226D01*
X92962000Y-104960289D01*
X92962000Y-104534585D01*
X92965676Y-104497260D01*
X92962000Y-104459935D01*
X92962000Y-104459927D01*
X92951003Y-104348274D01*
X92907546Y-104205013D01*
X92836974Y-104072984D01*
X92742001Y-103957259D01*
X92713003Y-103933461D01*
X90630544Y-101851003D01*
X90606741Y-101821999D01*
X90491016Y-101727026D01*
X90358987Y-101656454D01*
X90215726Y-101612997D01*
X90104073Y-101602000D01*
X90104062Y-101602000D01*
X90066740Y-101598324D01*
X90029418Y-101602000D01*
X78681711Y-101602000D01*
X78637774Y-101558063D01*
X78468256Y-101444795D01*
X78279898Y-101366774D01*
X78079939Y-101327000D01*
X77876061Y-101327000D01*
X77676102Y-101366774D01*
X77487744Y-101444795D01*
X77318226Y-101558063D01*
X77174063Y-101702226D01*
X77060795Y-101871744D01*
X76982774Y-102060102D01*
X76943000Y-102260061D01*
X76943000Y-102463939D01*
X76982774Y-102663898D01*
X77060795Y-102852256D01*
X77174063Y-103021774D01*
X77318226Y-103165937D01*
X77487744Y-103279205D01*
X77676102Y-103357226D01*
X77876061Y-103397000D01*
X78079939Y-103397000D01*
X78279898Y-103357226D01*
X78468256Y-103279205D01*
X78637774Y-103165937D01*
X78681711Y-103122000D01*
X89751939Y-103122000D01*
X89922048Y-103292109D01*
X89871551Y-103333551D01*
X89729716Y-103506377D01*
X89624324Y-103703554D01*
X89559423Y-103917502D01*
X89543000Y-104084249D01*
X89543001Y-105799000D01*
X82351751Y-105799000D01*
X82296000Y-105793509D01*
X82240249Y-105799000D01*
X73604248Y-105799000D01*
X73437501Y-105815423D01*
X73223553Y-105880324D01*
X73026377Y-105985716D01*
X72853551Y-106127551D01*
X72711716Y-106300377D01*
X72606324Y-106497553D01*
X72541423Y-106711501D01*
X72519509Y-106934000D01*
X61620000Y-106934000D01*
X61620000Y-97180061D01*
X77705000Y-97180061D01*
X77705000Y-97383939D01*
X77744774Y-97583898D01*
X77822795Y-97772256D01*
X77936063Y-97941774D01*
X78080226Y-98085937D01*
X78249744Y-98199205D01*
X78438102Y-98277226D01*
X78638061Y-98317000D01*
X78841939Y-98317000D01*
X79041898Y-98277226D01*
X79230256Y-98199205D01*
X79399774Y-98085937D01*
X79443711Y-98042000D01*
X82862289Y-98042000D01*
X82906226Y-98085937D01*
X83075744Y-98199205D01*
X83264102Y-98277226D01*
X83464061Y-98317000D01*
X83667939Y-98317000D01*
X83867898Y-98277226D01*
X84056256Y-98199205D01*
X84225774Y-98085937D01*
X84369937Y-97941774D01*
X84483205Y-97772256D01*
X84561226Y-97583898D01*
X84601000Y-97383939D01*
X84601000Y-97180061D01*
X84561226Y-96980102D01*
X84483205Y-96791744D01*
X84369937Y-96622226D01*
X84225774Y-96478063D01*
X84056256Y-96364795D01*
X83867898Y-96286774D01*
X83667939Y-96247000D01*
X83464061Y-96247000D01*
X83264102Y-96286774D01*
X83075744Y-96364795D01*
X82906226Y-96478063D01*
X82862289Y-96522000D01*
X79443711Y-96522000D01*
X79399774Y-96478063D01*
X79230256Y-96364795D01*
X79041898Y-96286774D01*
X78841939Y-96247000D01*
X78638061Y-96247000D01*
X78438102Y-96286774D01*
X78249744Y-96364795D01*
X78080226Y-96478063D01*
X77936063Y-96622226D01*
X77822795Y-96791744D01*
X77744774Y-96980102D01*
X77705000Y-97180061D01*
X61620000Y-97180061D01*
X61620000Y-88100335D01*
X66970000Y-88100335D01*
X66970000Y-89421664D01*
X66987870Y-89603101D01*
X67058489Y-89835900D01*
X67173167Y-90050448D01*
X67327498Y-90238502D01*
X67515551Y-90392833D01*
X67730099Y-90507511D01*
X67962898Y-90578130D01*
X68205000Y-90601975D01*
X68447101Y-90578130D01*
X68517690Y-90556717D01*
X68424795Y-90695744D01*
X68346774Y-90884102D01*
X68307000Y-91084061D01*
X68307000Y-91287939D01*
X68346774Y-91487898D01*
X68424795Y-91676256D01*
X68538063Y-91845774D01*
X68682226Y-91989937D01*
X68851744Y-92103205D01*
X69040102Y-92181226D01*
X69240061Y-92221000D01*
X69443939Y-92221000D01*
X69643898Y-92181226D01*
X69832256Y-92103205D01*
X70001774Y-91989937D01*
X70045711Y-91946000D01*
X78290289Y-91946000D01*
X78334226Y-91989937D01*
X78503744Y-92103205D01*
X78692102Y-92181226D01*
X78892061Y-92221000D01*
X79095939Y-92221000D01*
X79295898Y-92181226D01*
X79484256Y-92103205D01*
X79653774Y-91989937D01*
X79797937Y-91845774D01*
X79911205Y-91676256D01*
X79989226Y-91487898D01*
X80029000Y-91287939D01*
X80029000Y-91084061D01*
X79989226Y-90884102D01*
X79911205Y-90695744D01*
X79797937Y-90526226D01*
X79653774Y-90382063D01*
X79549898Y-90312656D01*
X79564287Y-90298267D01*
X79699443Y-90095992D01*
X79792540Y-89871236D01*
X79822903Y-89718590D01*
X79858489Y-89835900D01*
X79973167Y-90050448D01*
X80127498Y-90238502D01*
X80315551Y-90392833D01*
X80530099Y-90507511D01*
X80762898Y-90578130D01*
X81005000Y-90601975D01*
X81247101Y-90578130D01*
X81479900Y-90507511D01*
X81694448Y-90392833D01*
X81882502Y-90238502D01*
X82036833Y-90050449D01*
X82151511Y-89835901D01*
X82222130Y-89603102D01*
X82240000Y-89421665D01*
X82240000Y-88539344D01*
X91580000Y-88539344D01*
X91580000Y-88910656D01*
X91652439Y-89274834D01*
X91794534Y-89617882D01*
X92000825Y-89926618D01*
X92263382Y-90189175D01*
X92572118Y-90395466D01*
X92915166Y-90537561D01*
X93279344Y-90610000D01*
X93650656Y-90610000D01*
X94014834Y-90537561D01*
X94249740Y-90440260D01*
X94152439Y-90675166D01*
X94080000Y-91039344D01*
X94080000Y-91410656D01*
X94152439Y-91774834D01*
X94294534Y-92117882D01*
X94500825Y-92426618D01*
X94763382Y-92689175D01*
X95072118Y-92895466D01*
X95415166Y-93037561D01*
X95779344Y-93110000D01*
X96150656Y-93110000D01*
X96514834Y-93037561D01*
X96857882Y-92895466D01*
X97166618Y-92689175D01*
X97429175Y-92426618D01*
X97635466Y-92117882D01*
X97777561Y-91774834D01*
X97850000Y-91410656D01*
X97850000Y-91039344D01*
X104080000Y-91039344D01*
X104080000Y-91410656D01*
X104152439Y-91774834D01*
X104294534Y-92117882D01*
X104500825Y-92426618D01*
X104763382Y-92689175D01*
X105072118Y-92895466D01*
X105415166Y-93037561D01*
X105779344Y-93110000D01*
X106150656Y-93110000D01*
X106514834Y-93037561D01*
X106857882Y-92895466D01*
X107166618Y-92689175D01*
X107429175Y-92426618D01*
X107635466Y-92117882D01*
X107777561Y-91774834D01*
X107850000Y-91410656D01*
X107850000Y-91039344D01*
X107777561Y-90675166D01*
X107680260Y-90440260D01*
X107915166Y-90537561D01*
X108279344Y-90610000D01*
X108650656Y-90610000D01*
X109014834Y-90537561D01*
X109357882Y-90395466D01*
X109666618Y-90189175D01*
X109929175Y-89926618D01*
X110135466Y-89617882D01*
X110277561Y-89274834D01*
X110350000Y-88910656D01*
X110350000Y-88539344D01*
X115710000Y-88539344D01*
X115710000Y-88910656D01*
X115782439Y-89274834D01*
X115924534Y-89617882D01*
X116130825Y-89926618D01*
X116393382Y-90189175D01*
X116702118Y-90395466D01*
X117045166Y-90537561D01*
X117409344Y-90610000D01*
X117780656Y-90610000D01*
X118144834Y-90537561D01*
X118379740Y-90440260D01*
X118282439Y-90675166D01*
X118210000Y-91039344D01*
X118210000Y-91410656D01*
X118282439Y-91774834D01*
X118424534Y-92117882D01*
X118630825Y-92426618D01*
X118893382Y-92689175D01*
X119202118Y-92895466D01*
X119545166Y-93037561D01*
X119909344Y-93110000D01*
X120280656Y-93110000D01*
X120644834Y-93037561D01*
X120987882Y-92895466D01*
X121296618Y-92689175D01*
X121559175Y-92426618D01*
X121765466Y-92117882D01*
X121907561Y-91774834D01*
X121980000Y-91410656D01*
X121980000Y-91039344D01*
X128210000Y-91039344D01*
X128210000Y-91410656D01*
X128282439Y-91774834D01*
X128424534Y-92117882D01*
X128630825Y-92426618D01*
X128893382Y-92689175D01*
X129202118Y-92895466D01*
X129545166Y-93037561D01*
X129909344Y-93110000D01*
X130280656Y-93110000D01*
X130644834Y-93037561D01*
X130987882Y-92895466D01*
X131296618Y-92689175D01*
X131559175Y-92426618D01*
X131765466Y-92117882D01*
X131907561Y-91774834D01*
X131980000Y-91410656D01*
X131980000Y-91039344D01*
X131907561Y-90675166D01*
X131810260Y-90440260D01*
X132045166Y-90537561D01*
X132409344Y-90610000D01*
X132780656Y-90610000D01*
X133144834Y-90537561D01*
X133487882Y-90395466D01*
X133796618Y-90189175D01*
X134059175Y-89926618D01*
X134265466Y-89617882D01*
X134407561Y-89274834D01*
X134480000Y-88910656D01*
X134480000Y-88539344D01*
X139840000Y-88539344D01*
X139840000Y-88910656D01*
X139912439Y-89274834D01*
X140054534Y-89617882D01*
X140260825Y-89926618D01*
X140523382Y-90189175D01*
X140832118Y-90395466D01*
X141175166Y-90537561D01*
X141539344Y-90610000D01*
X141910656Y-90610000D01*
X142274834Y-90537561D01*
X142509740Y-90440260D01*
X142412439Y-90675166D01*
X142340000Y-91039344D01*
X142340000Y-91410656D01*
X142412439Y-91774834D01*
X142554534Y-92117882D01*
X142760825Y-92426618D01*
X143023382Y-92689175D01*
X143332118Y-92895466D01*
X143675166Y-93037561D01*
X144039344Y-93110000D01*
X144410656Y-93110000D01*
X144774834Y-93037561D01*
X145117882Y-92895466D01*
X145426618Y-92689175D01*
X145689175Y-92426618D01*
X145895466Y-92117882D01*
X146037561Y-91774834D01*
X146110000Y-91410656D01*
X146110000Y-91039344D01*
X152340000Y-91039344D01*
X152340000Y-91410656D01*
X152412439Y-91774834D01*
X152554534Y-92117882D01*
X152760825Y-92426618D01*
X153023382Y-92689175D01*
X153332118Y-92895466D01*
X153675166Y-93037561D01*
X154039344Y-93110000D01*
X154410656Y-93110000D01*
X154774834Y-93037561D01*
X155117882Y-92895466D01*
X155426618Y-92689175D01*
X155689175Y-92426618D01*
X155895466Y-92117882D01*
X156037561Y-91774834D01*
X156110000Y-91410656D01*
X156110000Y-91039344D01*
X156037561Y-90675166D01*
X155940260Y-90440260D01*
X156175166Y-90537561D01*
X156539344Y-90610000D01*
X156910656Y-90610000D01*
X157274834Y-90537561D01*
X157617882Y-90395466D01*
X157926618Y-90189175D01*
X158189175Y-89926618D01*
X158395466Y-89617882D01*
X158537561Y-89274834D01*
X158610000Y-88910656D01*
X158610000Y-88539344D01*
X158537561Y-88175166D01*
X158395466Y-87832118D01*
X158189175Y-87523382D01*
X157926618Y-87260825D01*
X157617882Y-87054534D01*
X157274834Y-86912439D01*
X156910656Y-86840000D01*
X156539344Y-86840000D01*
X156175166Y-86912439D01*
X155832118Y-87054534D01*
X155523382Y-87260825D01*
X155260825Y-87523382D01*
X155054534Y-87832118D01*
X154912439Y-88175166D01*
X154840000Y-88539344D01*
X154840000Y-88910656D01*
X154912439Y-89274834D01*
X155009740Y-89509740D01*
X154774834Y-89412439D01*
X154410656Y-89340000D01*
X154039344Y-89340000D01*
X153675166Y-89412439D01*
X153332118Y-89554534D01*
X153023382Y-89760825D01*
X152760825Y-90023382D01*
X152554534Y-90332118D01*
X152412439Y-90675166D01*
X152340000Y-91039344D01*
X146110000Y-91039344D01*
X146037561Y-90675166D01*
X145895466Y-90332118D01*
X145699347Y-90038605D01*
X148091000Y-90038605D01*
X148216914Y-90328577D01*
X148549126Y-90494433D01*
X148907312Y-90592290D01*
X149277706Y-90618389D01*
X149646075Y-90571725D01*
X149998262Y-90454094D01*
X150233086Y-90328577D01*
X150359000Y-90038605D01*
X149225000Y-88904605D01*
X148091000Y-90038605D01*
X145699347Y-90038605D01*
X145689175Y-90023382D01*
X145426618Y-89760825D01*
X145117882Y-89554534D01*
X144774834Y-89412439D01*
X144410656Y-89340000D01*
X144039344Y-89340000D01*
X143675166Y-89412439D01*
X143440260Y-89509740D01*
X143537561Y-89274834D01*
X143610000Y-88910656D01*
X143610000Y-88777706D01*
X147331611Y-88777706D01*
X147378275Y-89146075D01*
X147495906Y-89498262D01*
X147621423Y-89733086D01*
X147911395Y-89859000D01*
X149045395Y-88725000D01*
X149404605Y-88725000D01*
X150538605Y-89859000D01*
X150828577Y-89733086D01*
X150994433Y-89400874D01*
X151092290Y-89042688D01*
X151118389Y-88672294D01*
X151071725Y-88303925D01*
X150954094Y-87951738D01*
X150828577Y-87716914D01*
X150538605Y-87591000D01*
X149404605Y-88725000D01*
X149045395Y-88725000D01*
X147911395Y-87591000D01*
X147621423Y-87716914D01*
X147455567Y-88049126D01*
X147357710Y-88407312D01*
X147331611Y-88777706D01*
X143610000Y-88777706D01*
X143610000Y-88539344D01*
X143537561Y-88175166D01*
X143395466Y-87832118D01*
X143189175Y-87523382D01*
X143077188Y-87411395D01*
X148091000Y-87411395D01*
X149225000Y-88545395D01*
X150359000Y-87411395D01*
X150233086Y-87121423D01*
X149900874Y-86955567D01*
X149542688Y-86857710D01*
X149172294Y-86831611D01*
X148803925Y-86878275D01*
X148451738Y-86995906D01*
X148216914Y-87121423D01*
X148091000Y-87411395D01*
X143077188Y-87411395D01*
X142926618Y-87260825D01*
X142617882Y-87054534D01*
X142274834Y-86912439D01*
X141910656Y-86840000D01*
X141539344Y-86840000D01*
X141175166Y-86912439D01*
X140832118Y-87054534D01*
X140523382Y-87260825D01*
X140260825Y-87523382D01*
X140054534Y-87832118D01*
X139912439Y-88175166D01*
X139840000Y-88539344D01*
X134480000Y-88539344D01*
X134407561Y-88175166D01*
X134265466Y-87832118D01*
X134059175Y-87523382D01*
X133796618Y-87260825D01*
X133487882Y-87054534D01*
X133144834Y-86912439D01*
X132780656Y-86840000D01*
X132409344Y-86840000D01*
X132045166Y-86912439D01*
X131702118Y-87054534D01*
X131393382Y-87260825D01*
X131130825Y-87523382D01*
X130924534Y-87832118D01*
X130782439Y-88175166D01*
X130710000Y-88539344D01*
X130710000Y-88910656D01*
X130782439Y-89274834D01*
X130879740Y-89509740D01*
X130644834Y-89412439D01*
X130280656Y-89340000D01*
X129909344Y-89340000D01*
X129545166Y-89412439D01*
X129202118Y-89554534D01*
X128893382Y-89760825D01*
X128630825Y-90023382D01*
X128424534Y-90332118D01*
X128282439Y-90675166D01*
X128210000Y-91039344D01*
X121980000Y-91039344D01*
X121907561Y-90675166D01*
X121765466Y-90332118D01*
X121569347Y-90038605D01*
X123961000Y-90038605D01*
X124086914Y-90328577D01*
X124419126Y-90494433D01*
X124777312Y-90592290D01*
X125147706Y-90618389D01*
X125516075Y-90571725D01*
X125868262Y-90454094D01*
X126103086Y-90328577D01*
X126229000Y-90038605D01*
X125095000Y-88904605D01*
X123961000Y-90038605D01*
X121569347Y-90038605D01*
X121559175Y-90023382D01*
X121296618Y-89760825D01*
X120987882Y-89554534D01*
X120644834Y-89412439D01*
X120280656Y-89340000D01*
X119909344Y-89340000D01*
X119545166Y-89412439D01*
X119310260Y-89509740D01*
X119407561Y-89274834D01*
X119480000Y-88910656D01*
X119480000Y-88777706D01*
X123201611Y-88777706D01*
X123248275Y-89146075D01*
X123365906Y-89498262D01*
X123491423Y-89733086D01*
X123781395Y-89859000D01*
X124915395Y-88725000D01*
X125274605Y-88725000D01*
X126408605Y-89859000D01*
X126698577Y-89733086D01*
X126864433Y-89400874D01*
X126962290Y-89042688D01*
X126988389Y-88672294D01*
X126941725Y-88303925D01*
X126824094Y-87951738D01*
X126698577Y-87716914D01*
X126408605Y-87591000D01*
X125274605Y-88725000D01*
X124915395Y-88725000D01*
X123781395Y-87591000D01*
X123491423Y-87716914D01*
X123325567Y-88049126D01*
X123227710Y-88407312D01*
X123201611Y-88777706D01*
X119480000Y-88777706D01*
X119480000Y-88539344D01*
X119407561Y-88175166D01*
X119265466Y-87832118D01*
X119059175Y-87523382D01*
X118947188Y-87411395D01*
X123961000Y-87411395D01*
X125095000Y-88545395D01*
X126229000Y-87411395D01*
X126103086Y-87121423D01*
X125770874Y-86955567D01*
X125412688Y-86857710D01*
X125042294Y-86831611D01*
X124673925Y-86878275D01*
X124321738Y-86995906D01*
X124086914Y-87121423D01*
X123961000Y-87411395D01*
X118947188Y-87411395D01*
X118796618Y-87260825D01*
X118487882Y-87054534D01*
X118144834Y-86912439D01*
X117780656Y-86840000D01*
X117409344Y-86840000D01*
X117045166Y-86912439D01*
X116702118Y-87054534D01*
X116393382Y-87260825D01*
X116130825Y-87523382D01*
X115924534Y-87832118D01*
X115782439Y-88175166D01*
X115710000Y-88539344D01*
X110350000Y-88539344D01*
X110277561Y-88175166D01*
X110135466Y-87832118D01*
X109929175Y-87523382D01*
X109666618Y-87260825D01*
X109357882Y-87054534D01*
X109014834Y-86912439D01*
X108650656Y-86840000D01*
X108279344Y-86840000D01*
X107915166Y-86912439D01*
X107572118Y-87054534D01*
X107263382Y-87260825D01*
X107000825Y-87523382D01*
X106794534Y-87832118D01*
X106652439Y-88175166D01*
X106580000Y-88539344D01*
X106580000Y-88910656D01*
X106652439Y-89274834D01*
X106749740Y-89509740D01*
X106514834Y-89412439D01*
X106150656Y-89340000D01*
X105779344Y-89340000D01*
X105415166Y-89412439D01*
X105072118Y-89554534D01*
X104763382Y-89760825D01*
X104500825Y-90023382D01*
X104294534Y-90332118D01*
X104152439Y-90675166D01*
X104080000Y-91039344D01*
X97850000Y-91039344D01*
X97777561Y-90675166D01*
X97635466Y-90332118D01*
X97429175Y-90023382D01*
X97166618Y-89760825D01*
X96857882Y-89554534D01*
X96514834Y-89412439D01*
X96150656Y-89340000D01*
X95779344Y-89340000D01*
X95415166Y-89412439D01*
X95180260Y-89509740D01*
X95277561Y-89274834D01*
X95350000Y-88910656D01*
X95350000Y-88539344D01*
X99080000Y-88539344D01*
X99080000Y-88910656D01*
X99152439Y-89274834D01*
X99294534Y-89617882D01*
X99500825Y-89926618D01*
X99763382Y-90189175D01*
X100072118Y-90395466D01*
X100415166Y-90537561D01*
X100779344Y-90610000D01*
X101150656Y-90610000D01*
X101514834Y-90537561D01*
X101857882Y-90395466D01*
X102166618Y-90189175D01*
X102429175Y-89926618D01*
X102635466Y-89617882D01*
X102777561Y-89274834D01*
X102850000Y-88910656D01*
X102850000Y-88539344D01*
X102777561Y-88175166D01*
X102635466Y-87832118D01*
X102429175Y-87523382D01*
X102166618Y-87260825D01*
X101857882Y-87054534D01*
X101514834Y-86912439D01*
X101150656Y-86840000D01*
X100779344Y-86840000D01*
X100415166Y-86912439D01*
X100072118Y-87054534D01*
X99763382Y-87260825D01*
X99500825Y-87523382D01*
X99294534Y-87832118D01*
X99152439Y-88175166D01*
X99080000Y-88539344D01*
X95350000Y-88539344D01*
X95277561Y-88175166D01*
X95135466Y-87832118D01*
X94929175Y-87523382D01*
X94666618Y-87260825D01*
X94357882Y-87054534D01*
X94014834Y-86912439D01*
X93650656Y-86840000D01*
X93279344Y-86840000D01*
X92915166Y-86912439D01*
X92572118Y-87054534D01*
X92263382Y-87260825D01*
X92000825Y-87523382D01*
X91794534Y-87832118D01*
X91652439Y-88175166D01*
X91580000Y-88539344D01*
X82240000Y-88539344D01*
X82240000Y-88100335D01*
X82222130Y-87918898D01*
X82151511Y-87686099D01*
X82036833Y-87471551D01*
X81882502Y-87283498D01*
X81694449Y-87129167D01*
X81479901Y-87014489D01*
X81247102Y-86943870D01*
X81005000Y-86920025D01*
X80762899Y-86943870D01*
X80530100Y-87014489D01*
X80315552Y-87129167D01*
X80127499Y-87283498D01*
X79973168Y-87471551D01*
X79858489Y-87686099D01*
X79787870Y-87918898D01*
X79770000Y-88100335D01*
X79770000Y-89096348D01*
X79699443Y-88926008D01*
X79564287Y-88723733D01*
X79392267Y-88551713D01*
X79255607Y-88460400D01*
X79292540Y-88371236D01*
X79340000Y-88132637D01*
X79340000Y-87889363D01*
X79292540Y-87650764D01*
X79199443Y-87426008D01*
X79064287Y-87223733D01*
X78892267Y-87051713D01*
X78689992Y-86916557D01*
X78465236Y-86823460D01*
X78226637Y-86776000D01*
X77983363Y-86776000D01*
X77744764Y-86823460D01*
X77520008Y-86916557D01*
X77317733Y-87051713D01*
X77145713Y-87223733D01*
X77010557Y-87426008D01*
X76917460Y-87650764D01*
X76870000Y-87889363D01*
X76870000Y-88132637D01*
X76905597Y-88311597D01*
X76808254Y-88292235D01*
X76840000Y-88132637D01*
X76840000Y-87889363D01*
X76792540Y-87650764D01*
X76699443Y-87426008D01*
X76564287Y-87223733D01*
X76392267Y-87051713D01*
X76189992Y-86916557D01*
X75965236Y-86823460D01*
X75726637Y-86776000D01*
X75483363Y-86776000D01*
X75244764Y-86823460D01*
X75020008Y-86916557D01*
X74817733Y-87051713D01*
X74645713Y-87223733D01*
X74605000Y-87284664D01*
X74564287Y-87223733D01*
X74392267Y-87051713D01*
X74189992Y-86916557D01*
X73965236Y-86823460D01*
X73726637Y-86776000D01*
X73483363Y-86776000D01*
X73244764Y-86823460D01*
X73020008Y-86916557D01*
X72817733Y-87051713D01*
X72645713Y-87223733D01*
X72510557Y-87426008D01*
X72417460Y-87650764D01*
X72370000Y-87889363D01*
X72370000Y-88132637D01*
X72401746Y-88292235D01*
X72302926Y-88311891D01*
X72335000Y-88175687D01*
X72343495Y-87932562D01*
X72304395Y-87692451D01*
X72219202Y-87464582D01*
X72178348Y-87388148D01*
X71954764Y-87340841D01*
X71284605Y-88011000D01*
X71298748Y-88025143D01*
X71119143Y-88204748D01*
X71105000Y-88190605D01*
X71090858Y-88204748D01*
X70911253Y-88025143D01*
X70925395Y-88011000D01*
X70255236Y-87340841D01*
X70031652Y-87388148D01*
X69930763Y-87609516D01*
X69875000Y-87846313D01*
X69866505Y-88089438D01*
X69905605Y-88329549D01*
X69954499Y-88460329D01*
X69817733Y-88551713D01*
X69645713Y-88723733D01*
X69510557Y-88926008D01*
X69440000Y-89096348D01*
X69440000Y-88100335D01*
X69422130Y-87918898D01*
X69351511Y-87686099D01*
X69236833Y-87471551D01*
X69082502Y-87283498D01*
X68933526Y-87161236D01*
X70434841Y-87161236D01*
X71105000Y-87831395D01*
X71775159Y-87161236D01*
X71727852Y-86937652D01*
X71506484Y-86836763D01*
X71269687Y-86781000D01*
X71026562Y-86772505D01*
X70786451Y-86811605D01*
X70558582Y-86896798D01*
X70482148Y-86937652D01*
X70434841Y-87161236D01*
X68933526Y-87161236D01*
X68894449Y-87129167D01*
X68679901Y-87014489D01*
X68447102Y-86943870D01*
X68205000Y-86920025D01*
X67962899Y-86943870D01*
X67730100Y-87014489D01*
X67515552Y-87129167D01*
X67327499Y-87283498D01*
X67173168Y-87471551D01*
X67058489Y-87686099D01*
X66987870Y-87918898D01*
X66970000Y-88100335D01*
X61620000Y-88100335D01*
X61620000Y-80983895D01*
X61816399Y-81277826D01*
X62232174Y-81693601D01*
X62721072Y-82020273D01*
X63264308Y-82245288D01*
X63841003Y-82360000D01*
X64428997Y-82360000D01*
X65005692Y-82245288D01*
X65548928Y-82020273D01*
X66037826Y-81693601D01*
X66453601Y-81277826D01*
X66780273Y-80788928D01*
X66970000Y-80330885D01*
X66970000Y-80771664D01*
X66987870Y-80953101D01*
X67058489Y-81185900D01*
X67173167Y-81400448D01*
X67327498Y-81588502D01*
X67515551Y-81742833D01*
X67730099Y-81857511D01*
X67962898Y-81928130D01*
X68205000Y-81951975D01*
X68447101Y-81928130D01*
X68679900Y-81857511D01*
X68894448Y-81742833D01*
X69082502Y-81588502D01*
X69236833Y-81400449D01*
X69351511Y-81185901D01*
X69422130Y-80953102D01*
X69440000Y-80771665D01*
X69440000Y-79750336D01*
X69440000Y-79750335D01*
X79770000Y-79750335D01*
X79770000Y-80771664D01*
X79787870Y-80953101D01*
X79858489Y-81185900D01*
X79973167Y-81400448D01*
X80127498Y-81588502D01*
X80315551Y-81742833D01*
X80530099Y-81857511D01*
X80762898Y-81928130D01*
X81005000Y-81951975D01*
X81247101Y-81928130D01*
X81479900Y-81857511D01*
X81694448Y-81742833D01*
X81882502Y-81588502D01*
X82036833Y-81400449D01*
X82151511Y-81185901D01*
X82222130Y-80953102D01*
X82240000Y-80771665D01*
X82240000Y-79750336D01*
X82222130Y-79568898D01*
X82151511Y-79336099D01*
X82036833Y-79121551D01*
X81882502Y-78933498D01*
X81694449Y-78779167D01*
X81479901Y-78664489D01*
X81247102Y-78593870D01*
X81005000Y-78570025D01*
X80762899Y-78593870D01*
X80530100Y-78664489D01*
X80315552Y-78779167D01*
X80127499Y-78933498D01*
X79973168Y-79121551D01*
X79858489Y-79336099D01*
X79787870Y-79568898D01*
X79770000Y-79750335D01*
X69440000Y-79750335D01*
X69422130Y-79568898D01*
X69351511Y-79336099D01*
X69236833Y-79121551D01*
X69082502Y-78933498D01*
X68894449Y-78779167D01*
X68679901Y-78664489D01*
X68447102Y-78593870D01*
X68205000Y-78570025D01*
X67962899Y-78593870D01*
X67730100Y-78664489D01*
X67515552Y-78779167D01*
X67327499Y-78933498D01*
X67173168Y-79121551D01*
X67120000Y-79221021D01*
X67120000Y-79081003D01*
X67005288Y-78504308D01*
X66780273Y-77961072D01*
X66453601Y-77472174D01*
X66037826Y-77056399D01*
X65743895Y-76860000D01*
X95678797Y-76860000D01*
X95415166Y-76912439D01*
%TA.AperFunction,Conductor*%
D19*
G36*
X95415166Y-76912439D02*
G01*
X95072118Y-77054534D01*
X94763382Y-77260825D01*
X94500825Y-77523382D01*
X94294534Y-77832118D01*
X94152439Y-78175166D01*
X94080000Y-78539344D01*
X94080000Y-78910656D01*
X94152439Y-79274834D01*
X94294534Y-79617882D01*
X94500825Y-79926618D01*
X94763382Y-80189175D01*
X95072118Y-80395466D01*
X95415166Y-80537561D01*
X95779344Y-80610000D01*
X96150656Y-80610000D01*
X96514834Y-80537561D01*
X96857882Y-80395466D01*
X97166618Y-80189175D01*
X97429175Y-79926618D01*
X97635466Y-79617882D01*
X97777561Y-79274834D01*
X97850000Y-78910656D01*
X97850000Y-78539344D01*
X97777561Y-78175166D01*
X97635466Y-77832118D01*
X97429175Y-77523382D01*
X97166618Y-77260825D01*
X96857882Y-77054534D01*
X96514834Y-76912439D01*
X96251203Y-76860000D01*
X105678797Y-76860000D01*
X105415166Y-76912439D01*
X105072118Y-77054534D01*
X104763382Y-77260825D01*
X104500825Y-77523382D01*
X104294534Y-77832118D01*
X104152439Y-78175166D01*
X104080000Y-78539344D01*
X104080000Y-78910656D01*
X104152439Y-79274834D01*
X104294534Y-79617882D01*
X104500825Y-79926618D01*
X104763382Y-80189175D01*
X105072118Y-80395466D01*
X105415166Y-80537561D01*
X105779344Y-80610000D01*
X106150656Y-80610000D01*
X106514834Y-80537561D01*
X106857882Y-80395466D01*
X107166618Y-80189175D01*
X107429175Y-79926618D01*
X107635466Y-79617882D01*
X107777561Y-79274834D01*
X107850000Y-78910656D01*
X107850000Y-78539344D01*
X107777561Y-78175166D01*
X107635466Y-77832118D01*
X107429175Y-77523382D01*
X107166618Y-77260825D01*
X106857882Y-77054534D01*
X106514834Y-76912439D01*
X106251203Y-76860000D01*
X119808797Y-76860000D01*
X119545166Y-76912439D01*
X119202118Y-77054534D01*
X118893382Y-77260825D01*
X118630825Y-77523382D01*
X118424534Y-77832118D01*
X118282439Y-78175166D01*
X118210000Y-78539344D01*
X118210000Y-78910656D01*
X118282439Y-79274834D01*
X118424534Y-79617882D01*
X118630825Y-79926618D01*
X118893382Y-80189175D01*
X119202118Y-80395466D01*
X119545166Y-80537561D01*
X119909344Y-80610000D01*
X120280656Y-80610000D01*
X120644834Y-80537561D01*
X120987882Y-80395466D01*
X121296618Y-80189175D01*
X121559175Y-79926618D01*
X121765466Y-79617882D01*
X121907561Y-79274834D01*
X121980000Y-78910656D01*
X121980000Y-78539344D01*
X121907561Y-78175166D01*
X121765466Y-77832118D01*
X121559175Y-77523382D01*
X121296618Y-77260825D01*
X120987882Y-77054534D01*
X120644834Y-76912439D01*
X120381203Y-76860000D01*
X129808797Y-76860000D01*
X129545166Y-76912439D01*
X129202118Y-77054534D01*
X128893382Y-77260825D01*
X128630825Y-77523382D01*
X128424534Y-77832118D01*
X128282439Y-78175166D01*
X128210000Y-78539344D01*
X128210000Y-78910656D01*
X128282439Y-79274834D01*
X128424534Y-79617882D01*
X128630825Y-79926618D01*
X128893382Y-80189175D01*
X129202118Y-80395466D01*
X129545166Y-80537561D01*
X129909344Y-80610000D01*
X130280656Y-80610000D01*
X130644834Y-80537561D01*
X130987882Y-80395466D01*
X131296618Y-80189175D01*
X131559175Y-79926618D01*
X131765466Y-79617882D01*
X131907561Y-79274834D01*
X131980000Y-78910656D01*
X131980000Y-78539344D01*
X131907561Y-78175166D01*
X131765466Y-77832118D01*
X131559175Y-77523382D01*
X131296618Y-77260825D01*
X130987882Y-77054534D01*
X130644834Y-76912439D01*
X130381203Y-76860000D01*
X143938797Y-76860000D01*
X143675166Y-76912439D01*
X143332118Y-77054534D01*
X143023382Y-77260825D01*
X142760825Y-77523382D01*
X142554534Y-77832118D01*
X142412439Y-78175166D01*
X142340000Y-78539344D01*
X142340000Y-78910656D01*
X142412439Y-79274834D01*
X142554534Y-79617882D01*
X142760825Y-79926618D01*
X143023382Y-80189175D01*
X143332118Y-80395466D01*
X143675166Y-80537561D01*
X144039344Y-80610000D01*
X144410656Y-80610000D01*
X144774834Y-80537561D01*
X145117882Y-80395466D01*
X145426618Y-80189175D01*
X145689175Y-79926618D01*
X145895466Y-79617882D01*
X146037561Y-79274834D01*
X146110000Y-78910656D01*
X146110000Y-78539344D01*
X146037561Y-78175166D01*
X145895466Y-77832118D01*
X145689175Y-77523382D01*
X145426618Y-77260825D01*
X145117882Y-77054534D01*
X144774834Y-76912439D01*
X144511203Y-76860000D01*
X153938797Y-76860000D01*
X153675166Y-76912439D01*
X153332118Y-77054534D01*
X153023382Y-77260825D01*
X152760825Y-77523382D01*
X152554534Y-77832118D01*
X152412439Y-78175166D01*
X152340000Y-78539344D01*
X152340000Y-78910656D01*
X152412439Y-79274834D01*
X152554534Y-79617882D01*
X152760825Y-79926618D01*
X153023382Y-80189175D01*
X153332118Y-80395466D01*
X153675166Y-80537561D01*
X154039344Y-80610000D01*
X154410656Y-80610000D01*
X154774834Y-80537561D01*
X155117882Y-80395466D01*
X155426618Y-80189175D01*
X155689175Y-79926618D01*
X155895466Y-79617882D01*
X156037561Y-79274834D01*
X156110000Y-78910656D01*
X156110000Y-78539344D01*
X156037561Y-78175166D01*
X155895466Y-77832118D01*
X155689175Y-77523382D01*
X155426618Y-77260825D01*
X155117882Y-77054534D01*
X154774834Y-76912439D01*
X154511203Y-76860000D01*
X163110105Y-76860000D01*
X162816174Y-77056399D01*
X162400399Y-77472174D01*
X162073727Y-77961072D01*
X161848712Y-78504308D01*
X161734000Y-79081003D01*
X161734000Y-79668997D01*
X161848712Y-80245692D01*
X162073727Y-80788928D01*
X162400399Y-81277826D01*
X162816174Y-81693601D01*
X163305072Y-82020273D01*
X163848308Y-82245288D01*
X164425003Y-82360000D01*
X165012997Y-82360000D01*
X165589692Y-82245288D01*
X166132928Y-82020273D01*
X166621826Y-81693601D01*
X167037601Y-81277826D01*
X167234001Y-80983893D01*
X167234000Y-139996105D01*
X167037601Y-139702174D01*
X166621826Y-139286399D01*
X166132928Y-138959727D01*
X165589692Y-138734712D01*
X165012997Y-138620000D01*
X164425003Y-138620000D01*
X163848308Y-138734712D01*
X163305072Y-138959727D01*
X162816174Y-139286399D01*
X162400399Y-139702174D01*
X162073727Y-140191072D01*
X161848712Y-140734308D01*
X161734000Y-141311003D01*
X161734000Y-141898997D01*
X161848712Y-142475692D01*
X162073727Y-143018928D01*
X162400399Y-143507826D01*
X162816174Y-143923601D01*
X163110105Y-144120000D01*
X65743895Y-144120000D01*
X66037826Y-143923601D01*
X66453601Y-143507826D01*
X66780273Y-143018928D01*
X67005288Y-142475692D01*
X67120000Y-141898997D01*
X67120000Y-141311003D01*
X67005288Y-140734308D01*
X66780273Y-140191072D01*
X66453601Y-139702174D01*
X66037826Y-139286399D01*
X65548928Y-138959727D01*
X65005692Y-138734712D01*
X64428997Y-138620000D01*
X63841003Y-138620000D01*
X63264308Y-138734712D01*
X62721072Y-138959727D01*
X62232174Y-139286399D01*
X61816399Y-139702174D01*
X61620000Y-139996105D01*
X61620000Y-118262061D01*
X83547000Y-118262061D01*
X83547000Y-118465939D01*
X83586774Y-118665898D01*
X83664795Y-118854256D01*
X83778063Y-119023774D01*
X83922226Y-119167937D01*
X84091744Y-119281205D01*
X84280102Y-119359226D01*
X84480061Y-119399000D01*
X84542199Y-119399000D01*
X87687833Y-122544635D01*
X87650774Y-122634102D01*
X87611000Y-122834061D01*
X87611000Y-123037939D01*
X87650774Y-123237898D01*
X87728795Y-123426256D01*
X87842063Y-123595774D01*
X87986226Y-123739937D01*
X88155744Y-123853205D01*
X88344102Y-123931226D01*
X88544061Y-123971000D01*
X88747939Y-123971000D01*
X88947898Y-123931226D01*
X89136256Y-123853205D01*
X89305774Y-123739937D01*
X89449937Y-123595774D01*
X89563205Y-123426256D01*
X89641226Y-123237898D01*
X89681000Y-123037939D01*
X89681000Y-122834061D01*
X89641226Y-122634102D01*
X89563205Y-122445744D01*
X89449937Y-122276226D01*
X89369869Y-122196158D01*
X89351546Y-122135753D01*
X89280975Y-122003725D01*
X89280974Y-122003723D01*
X89209799Y-121916997D01*
X89186001Y-121887999D01*
X89157004Y-121864202D01*
X85617000Y-118324199D01*
X85617000Y-118262061D01*
X85577226Y-118062102D01*
X85499205Y-117873744D01*
X85385937Y-117704226D01*
X85241774Y-117560063D01*
X85072256Y-117446795D01*
X84883898Y-117368774D01*
X84683939Y-117329000D01*
X84480061Y-117329000D01*
X84280102Y-117368774D01*
X84091744Y-117446795D01*
X83922226Y-117560063D01*
X83778063Y-117704226D01*
X83664795Y-117873744D01*
X83586774Y-118062102D01*
X83547000Y-118262061D01*
X61620000Y-118262061D01*
X61620000Y-115062000D01*
X68963509Y-115062000D01*
X68985423Y-115284498D01*
X69050324Y-115498446D01*
X69155717Y-115695622D01*
X69262012Y-115825143D01*
X70786009Y-117349140D01*
X70821551Y-117392449D01*
X70994377Y-117534284D01*
X71191553Y-117639676D01*
X71405501Y-117704577D01*
X71572248Y-117721000D01*
X71572257Y-117721000D01*
X71627999Y-117726490D01*
X71683741Y-117721000D01*
X74985752Y-117721000D01*
X75152499Y-117704577D01*
X75366447Y-117639676D01*
X75563623Y-117534284D01*
X75736449Y-117392449D01*
X75878284Y-117219623D01*
X75983676Y-117022447D01*
X76048577Y-116808499D01*
X76070491Y-116586000D01*
X76048577Y-116363501D01*
X75983676Y-116149553D01*
X75878284Y-115952377D01*
X75736449Y-115779551D01*
X75563623Y-115637716D01*
X75366447Y-115532324D01*
X75152499Y-115467423D01*
X74985752Y-115451000D01*
X72098132Y-115451000D01*
X70867143Y-114220012D01*
X70737622Y-114113717D01*
X70540446Y-114008324D01*
X70326498Y-113943423D01*
X70104000Y-113921509D01*
X69881502Y-113943423D01*
X69667554Y-114008324D01*
X69470378Y-114113717D01*
X69297552Y-114255552D01*
X69155717Y-114428378D01*
X69050324Y-114625554D01*
X68985423Y-114839502D01*
X68963509Y-115062000D01*
X61620000Y-115062000D01*
X61620000Y-112420061D01*
X83293000Y-112420061D01*
X83293000Y-112623939D01*
X83332774Y-112823898D01*
X83410795Y-113012256D01*
X83524063Y-113181774D01*
X83668226Y-113325937D01*
X83837744Y-113439205D01*
X84026102Y-113517226D01*
X84226061Y-113557000D01*
X84429939Y-113557000D01*
X84629898Y-113517226D01*
X84818256Y-113439205D01*
X84987774Y-113325937D01*
X85031711Y-113282000D01*
X86418289Y-113282000D01*
X86462226Y-113325937D01*
X86631744Y-113439205D01*
X86820102Y-113517226D01*
X87020061Y-113557000D01*
X87223939Y-113557000D01*
X87423898Y-113517226D01*
X87612256Y-113439205D01*
X87781774Y-113325937D01*
X87825711Y-113282000D01*
X90435644Y-113282000D01*
X90405000Y-113436061D01*
X90405000Y-113639939D01*
X90444774Y-113839898D01*
X90522795Y-114028256D01*
X90636063Y-114197774D01*
X90780226Y-114341937D01*
X90949744Y-114455205D01*
X91138102Y-114533226D01*
X91338061Y-114573000D01*
X91400199Y-114573000D01*
X94432205Y-117605008D01*
X94455999Y-117634001D01*
X94484992Y-117657795D01*
X94484996Y-117657799D01*
X94537388Y-117700795D01*
X94571724Y-117728974D01*
X94703753Y-117799546D01*
X94847014Y-117843003D01*
X94958667Y-117854000D01*
X94958676Y-117854000D01*
X94995999Y-117857676D01*
X95033322Y-117854000D01*
X126042289Y-117854000D01*
X126046289Y-117858000D01*
X92905711Y-117858000D01*
X92861774Y-117814063D01*
X92692256Y-117700795D01*
X92503898Y-117622774D01*
X92303939Y-117583000D01*
X92100061Y-117583000D01*
X91900102Y-117622774D01*
X91711744Y-117700795D01*
X91542226Y-117814063D01*
X91398063Y-117958226D01*
X91377621Y-117988820D01*
X90479804Y-117091003D01*
X90456001Y-117061999D01*
X90340276Y-116967026D01*
X90208247Y-116896454D01*
X90064986Y-116852997D01*
X89953333Y-116842000D01*
X89953322Y-116842000D01*
X89916000Y-116838324D01*
X89878678Y-116842000D01*
X87317711Y-116842000D01*
X87273774Y-116798063D01*
X87104256Y-116684795D01*
X86915898Y-116606774D01*
X86715939Y-116567000D01*
X86512061Y-116567000D01*
X86312102Y-116606774D01*
X86123744Y-116684795D01*
X85954226Y-116798063D01*
X85810063Y-116942226D01*
X85696795Y-117111744D01*
X85618774Y-117300102D01*
X85579000Y-117500061D01*
X85579000Y-117703939D01*
X85618774Y-117903898D01*
X85696795Y-118092256D01*
X85810063Y-118261774D01*
X85954226Y-118405937D01*
X86123744Y-118519205D01*
X86312102Y-118597226D01*
X86512061Y-118637000D01*
X86715939Y-118637000D01*
X86915898Y-118597226D01*
X87104256Y-118519205D01*
X87273774Y-118405937D01*
X87317711Y-118362000D01*
X89601199Y-118362000D01*
X98533000Y-127293802D01*
X98533000Y-127355939D01*
X98572774Y-127555898D01*
X98650795Y-127744256D01*
X98764063Y-127913774D01*
X98908226Y-128057937D01*
X99077744Y-128171205D01*
X99266102Y-128249226D01*
X99466061Y-128289000D01*
X99669939Y-128289000D01*
X99869898Y-128249226D01*
X100058256Y-128171205D01*
X100227774Y-128057937D01*
X100371937Y-127913774D01*
X100485205Y-127744256D01*
X100563226Y-127555898D01*
X100603000Y-127355939D01*
X100603000Y-127152061D01*
X100563226Y-126952102D01*
X100485205Y-126763744D01*
X100371937Y-126594226D01*
X100227774Y-126450063D01*
X100058256Y-126336795D01*
X99869898Y-126258774D01*
X99669939Y-126219000D01*
X99607802Y-126219000D01*
X92831180Y-119442379D01*
X92861774Y-119421937D01*
X92905711Y-119378000D01*
X151442289Y-119378000D01*
X151486226Y-119421937D01*
X151655744Y-119535205D01*
X151844102Y-119613226D01*
X152044061Y-119653000D01*
X152247939Y-119653000D01*
X152447898Y-119613226D01*
X152636256Y-119535205D01*
X152805774Y-119421937D01*
X152949937Y-119277774D01*
X153063205Y-119108256D01*
X153141226Y-118919898D01*
X153181000Y-118719939D01*
X153181000Y-118516061D01*
X153141226Y-118316102D01*
X153063205Y-118127744D01*
X152949937Y-117958226D01*
X152805774Y-117814063D01*
X152636256Y-117700795D01*
X152447898Y-117622774D01*
X152247939Y-117583000D01*
X152044061Y-117583000D01*
X151844102Y-117622774D01*
X151655744Y-117700795D01*
X151486226Y-117814063D01*
X151442289Y-117858000D01*
X127445711Y-117858000D01*
X127549937Y-117753774D01*
X127663205Y-117584256D01*
X127741226Y-117395898D01*
X127781000Y-117195939D01*
X127781000Y-116992061D01*
X127741226Y-116792102D01*
X127663205Y-116603744D01*
X127549937Y-116434226D01*
X127405774Y-116290063D01*
X127236256Y-116176795D01*
X127047898Y-116098774D01*
X126847939Y-116059000D01*
X126644061Y-116059000D01*
X126444102Y-116098774D01*
X126255744Y-116176795D01*
X126086226Y-116290063D01*
X126042289Y-116334000D01*
X95310803Y-116334000D01*
X92475000Y-113498199D01*
X92475000Y-113436061D01*
X92444869Y-113284580D01*
X92456000Y-113285676D01*
X92493322Y-113282000D01*
X92493333Y-113282000D01*
X92604986Y-113271003D01*
X92748247Y-113227546D01*
X92880276Y-113156974D01*
X92996001Y-113062001D01*
X93019804Y-113032997D01*
X93765802Y-112287000D01*
X93827939Y-112287000D01*
X94027898Y-112247226D01*
X94216256Y-112169205D01*
X94385774Y-112055937D01*
X94529937Y-111911774D01*
X94643205Y-111742256D01*
X94721226Y-111553898D01*
X94761000Y-111353939D01*
X94761000Y-111150061D01*
X94721226Y-110950102D01*
X94643205Y-110761744D01*
X94529937Y-110592226D01*
X94385774Y-110448063D01*
X94216256Y-110334795D01*
X94027898Y-110256774D01*
X93827939Y-110217000D01*
X93624061Y-110217000D01*
X93424102Y-110256774D01*
X93235744Y-110334795D01*
X93066226Y-110448063D01*
X92922063Y-110592226D01*
X92808795Y-110761744D01*
X92730774Y-110950102D01*
X92691000Y-111150061D01*
X92691000Y-111212198D01*
X92141199Y-111762000D01*
X87825711Y-111762000D01*
X87781774Y-111718063D01*
X87612256Y-111604795D01*
X87423898Y-111526774D01*
X87223939Y-111487000D01*
X87020061Y-111487000D01*
X86820102Y-111526774D01*
X86631744Y-111604795D01*
X86462226Y-111718063D01*
X86418289Y-111762000D01*
X85031711Y-111762000D01*
X84987774Y-111718063D01*
X84818256Y-111604795D01*
X84629898Y-111526774D01*
X84429939Y-111487000D01*
X84226061Y-111487000D01*
X84026102Y-111526774D01*
X83837744Y-111604795D01*
X83668226Y-111718063D01*
X83524063Y-111862226D01*
X83410795Y-112031744D01*
X83332774Y-112220102D01*
X83293000Y-112420061D01*
X61620000Y-112420061D01*
X61620000Y-106934000D01*
X72519509Y-106934000D01*
X72541423Y-107156499D01*
X72606324Y-107370447D01*
X72711716Y-107567623D01*
X72853551Y-107740449D01*
X73026377Y-107882284D01*
X73223553Y-107987676D01*
X73437501Y-108052577D01*
X73604248Y-108069000D01*
X81415000Y-108069000D01*
X81415000Y-108513751D01*
X81431423Y-108680498D01*
X81496324Y-108894446D01*
X81601716Y-109091623D01*
X81743551Y-109264449D01*
X81916377Y-109406284D01*
X82113553Y-109511676D01*
X82327501Y-109576577D01*
X82550000Y-109598491D01*
X82772498Y-109576577D01*
X82986446Y-109511676D01*
X83183623Y-109406284D01*
X83293000Y-109316520D01*
X83293000Y-109321939D01*
X83332774Y-109521898D01*
X83410795Y-109710256D01*
X83524063Y-109879774D01*
X83668226Y-110023937D01*
X83837744Y-110137205D01*
X84026102Y-110215226D01*
X84226061Y-110255000D01*
X84429939Y-110255000D01*
X84629898Y-110215226D01*
X84818256Y-110137205D01*
X84987774Y-110023937D01*
X85131937Y-109879774D01*
X85245205Y-109710256D01*
X85323226Y-109521898D01*
X85333151Y-109472000D01*
X85756279Y-109472000D01*
X85800216Y-109515937D01*
X85969734Y-109629205D01*
X86158092Y-109707226D01*
X86358051Y-109747000D01*
X86561929Y-109747000D01*
X86761888Y-109707226D01*
X86950246Y-109629205D01*
X87119764Y-109515937D01*
X87263927Y-109371774D01*
X87377195Y-109202256D01*
X87455216Y-109013898D01*
X87494990Y-108813939D01*
X87494990Y-108610061D01*
X87455216Y-108410102D01*
X87377195Y-108221744D01*
X87275135Y-108069000D01*
X89549229Y-108069000D01*
X89559423Y-108172499D01*
X89624324Y-108386447D01*
X89729717Y-108583623D01*
X89871552Y-108756449D01*
X89914860Y-108791991D01*
X91438856Y-110315988D01*
X91568376Y-110422283D01*
X91765552Y-110527675D01*
X91979500Y-110592576D01*
X92201999Y-110614490D01*
X92424498Y-110592576D01*
X92638446Y-110527675D01*
X92835622Y-110422283D01*
X93008448Y-110280448D01*
X93150283Y-110107622D01*
X93255675Y-109910446D01*
X93320576Y-109696498D01*
X93342490Y-109473999D01*
X93320576Y-109251500D01*
X93255675Y-109037552D01*
X93150283Y-108840376D01*
X93043988Y-108710856D01*
X92402132Y-108069000D01*
X125928249Y-108069000D01*
X125984000Y-108074491D01*
X126039751Y-108069000D01*
X150820257Y-108069000D01*
X150875999Y-108074490D01*
X150931741Y-108069000D01*
X164139752Y-108069000D01*
X164306499Y-108052577D01*
X164520447Y-107987676D01*
X164717623Y-107882284D01*
X164890449Y-107740449D01*
X165032284Y-107567623D01*
X165137676Y-107370447D01*
X165202577Y-107156499D01*
X165224491Y-106934000D01*
X165202577Y-106711501D01*
X165137676Y-106497553D01*
X165032284Y-106300377D01*
X164890449Y-106127551D01*
X164717623Y-105985716D01*
X164520447Y-105880324D01*
X164306499Y-105815423D01*
X164139752Y-105799000D01*
X151757000Y-105799000D01*
X151757000Y-104846248D01*
X151740577Y-104679501D01*
X151675676Y-104465553D01*
X151570284Y-104268377D01*
X151428449Y-104095551D01*
X151255623Y-103953716D01*
X151058446Y-103848324D01*
X150844498Y-103783423D01*
X150622000Y-103761509D01*
X150399501Y-103783423D01*
X150185553Y-103848324D01*
X149988377Y-103953716D01*
X149815551Y-104095551D01*
X149673716Y-104268377D01*
X149568324Y-104465554D01*
X149503423Y-104679502D01*
X149487000Y-104846249D01*
X149487000Y-105799000D01*
X127373000Y-105799000D01*
X127373000Y-105100248D01*
X127356577Y-104933501D01*
X127291676Y-104719553D01*
X127186284Y-104522377D01*
X127044449Y-104349551D01*
X126871623Y-104207716D01*
X126674446Y-104102324D01*
X126460498Y-104037423D01*
X126238000Y-104015509D01*
X126015501Y-104037423D01*
X125801553Y-104102324D01*
X125604377Y-104207716D01*
X125431551Y-104349551D01*
X125289716Y-104522377D01*
X125184324Y-104719554D01*
X125119423Y-104933502D01*
X125103000Y-105100249D01*
X125103000Y-105799000D01*
X93230424Y-105799000D01*
X93237000Y-105765939D01*
X93237000Y-105562061D01*
X93197226Y-105362102D01*
X93119205Y-105173744D01*
X93005937Y-105004226D01*
X92962000Y-104960289D01*
X92962000Y-104534585D01*
X92965676Y-104497260D01*
X92962000Y-104459935D01*
X92962000Y-104459927D01*
X92951003Y-104348274D01*
X92907546Y-104205013D01*
X92836974Y-104072984D01*
X92742001Y-103957259D01*
X92713003Y-103933461D01*
X90630544Y-101851003D01*
X90606741Y-101821999D01*
X90491016Y-101727026D01*
X90358987Y-101656454D01*
X90215726Y-101612997D01*
X90104073Y-101602000D01*
X90104062Y-101602000D01*
X90066740Y-101598324D01*
X90029418Y-101602000D01*
X78681711Y-101602000D01*
X78637774Y-101558063D01*
X78468256Y-101444795D01*
X78279898Y-101366774D01*
X78079939Y-101327000D01*
X77876061Y-101327000D01*
X77676102Y-101366774D01*
X77487744Y-101444795D01*
X77318226Y-101558063D01*
X77174063Y-101702226D01*
X77060795Y-101871744D01*
X76982774Y-102060102D01*
X76943000Y-102260061D01*
X76943000Y-102463939D01*
X76982774Y-102663898D01*
X77060795Y-102852256D01*
X77174063Y-103021774D01*
X77318226Y-103165937D01*
X77487744Y-103279205D01*
X77676102Y-103357226D01*
X77876061Y-103397000D01*
X78079939Y-103397000D01*
X78279898Y-103357226D01*
X78468256Y-103279205D01*
X78637774Y-103165937D01*
X78681711Y-103122000D01*
X89751939Y-103122000D01*
X89922048Y-103292109D01*
X89871551Y-103333551D01*
X89729716Y-103506377D01*
X89624324Y-103703554D01*
X89559423Y-103917502D01*
X89543000Y-104084249D01*
X89543001Y-105799000D01*
X82351751Y-105799000D01*
X82296000Y-105793509D01*
X82240249Y-105799000D01*
X73604248Y-105799000D01*
X73437501Y-105815423D01*
X73223553Y-105880324D01*
X73026377Y-105985716D01*
X72853551Y-106127551D01*
X72711716Y-106300377D01*
X72606324Y-106497553D01*
X72541423Y-106711501D01*
X72519509Y-106934000D01*
X61620000Y-106934000D01*
X61620000Y-97180061D01*
X77705000Y-97180061D01*
X77705000Y-97383939D01*
X77744774Y-97583898D01*
X77822795Y-97772256D01*
X77936063Y-97941774D01*
X78080226Y-98085937D01*
X78249744Y-98199205D01*
X78438102Y-98277226D01*
X78638061Y-98317000D01*
X78841939Y-98317000D01*
X79041898Y-98277226D01*
X79230256Y-98199205D01*
X79399774Y-98085937D01*
X79443711Y-98042000D01*
X82862289Y-98042000D01*
X82906226Y-98085937D01*
X83075744Y-98199205D01*
X83264102Y-98277226D01*
X83464061Y-98317000D01*
X83667939Y-98317000D01*
X83867898Y-98277226D01*
X84056256Y-98199205D01*
X84225774Y-98085937D01*
X84369937Y-97941774D01*
X84483205Y-97772256D01*
X84561226Y-97583898D01*
X84601000Y-97383939D01*
X84601000Y-97180061D01*
X84561226Y-96980102D01*
X84483205Y-96791744D01*
X84369937Y-96622226D01*
X84225774Y-96478063D01*
X84056256Y-96364795D01*
X83867898Y-96286774D01*
X83667939Y-96247000D01*
X83464061Y-96247000D01*
X83264102Y-96286774D01*
X83075744Y-96364795D01*
X82906226Y-96478063D01*
X82862289Y-96522000D01*
X79443711Y-96522000D01*
X79399774Y-96478063D01*
X79230256Y-96364795D01*
X79041898Y-96286774D01*
X78841939Y-96247000D01*
X78638061Y-96247000D01*
X78438102Y-96286774D01*
X78249744Y-96364795D01*
X78080226Y-96478063D01*
X77936063Y-96622226D01*
X77822795Y-96791744D01*
X77744774Y-96980102D01*
X77705000Y-97180061D01*
X61620000Y-97180061D01*
X61620000Y-88100335D01*
X66970000Y-88100335D01*
X66970000Y-89421664D01*
X66987870Y-89603101D01*
X67058489Y-89835900D01*
X67173167Y-90050448D01*
X67327498Y-90238502D01*
X67515551Y-90392833D01*
X67730099Y-90507511D01*
X67962898Y-90578130D01*
X68205000Y-90601975D01*
X68447101Y-90578130D01*
X68517690Y-90556717D01*
X68424795Y-90695744D01*
X68346774Y-90884102D01*
X68307000Y-91084061D01*
X68307000Y-91287939D01*
X68346774Y-91487898D01*
X68424795Y-91676256D01*
X68538063Y-91845774D01*
X68682226Y-91989937D01*
X68851744Y-92103205D01*
X69040102Y-92181226D01*
X69240061Y-92221000D01*
X69443939Y-92221000D01*
X69643898Y-92181226D01*
X69832256Y-92103205D01*
X70001774Y-91989937D01*
X70045711Y-91946000D01*
X78290289Y-91946000D01*
X78334226Y-91989937D01*
X78503744Y-92103205D01*
X78692102Y-92181226D01*
X78892061Y-92221000D01*
X79095939Y-92221000D01*
X79295898Y-92181226D01*
X79484256Y-92103205D01*
X79653774Y-91989937D01*
X79797937Y-91845774D01*
X79911205Y-91676256D01*
X79989226Y-91487898D01*
X80029000Y-91287939D01*
X80029000Y-91084061D01*
X79989226Y-90884102D01*
X79911205Y-90695744D01*
X79797937Y-90526226D01*
X79653774Y-90382063D01*
X79549898Y-90312656D01*
X79564287Y-90298267D01*
X79699443Y-90095992D01*
X79792540Y-89871236D01*
X79822903Y-89718590D01*
X79858489Y-89835900D01*
X79973167Y-90050448D01*
X80127498Y-90238502D01*
X80315551Y-90392833D01*
X80530099Y-90507511D01*
X80762898Y-90578130D01*
X81005000Y-90601975D01*
X81247101Y-90578130D01*
X81479900Y-90507511D01*
X81694448Y-90392833D01*
X81882502Y-90238502D01*
X82036833Y-90050449D01*
X82151511Y-89835901D01*
X82222130Y-89603102D01*
X82240000Y-89421665D01*
X82240000Y-88539344D01*
X91580000Y-88539344D01*
X91580000Y-88910656D01*
X91652439Y-89274834D01*
X91794534Y-89617882D01*
X92000825Y-89926618D01*
X92263382Y-90189175D01*
X92572118Y-90395466D01*
X92915166Y-90537561D01*
X93279344Y-90610000D01*
X93650656Y-90610000D01*
X94014834Y-90537561D01*
X94249740Y-90440260D01*
X94152439Y-90675166D01*
X94080000Y-91039344D01*
X94080000Y-91410656D01*
X94152439Y-91774834D01*
X94294534Y-92117882D01*
X94500825Y-92426618D01*
X94763382Y-92689175D01*
X95072118Y-92895466D01*
X95415166Y-93037561D01*
X95779344Y-93110000D01*
X96150656Y-93110000D01*
X96514834Y-93037561D01*
X96857882Y-92895466D01*
X97166618Y-92689175D01*
X97429175Y-92426618D01*
X97635466Y-92117882D01*
X97777561Y-91774834D01*
X97850000Y-91410656D01*
X97850000Y-91039344D01*
X104080000Y-91039344D01*
X104080000Y-91410656D01*
X104152439Y-91774834D01*
X104294534Y-92117882D01*
X104500825Y-92426618D01*
X104763382Y-92689175D01*
X105072118Y-92895466D01*
X105415166Y-93037561D01*
X105779344Y-93110000D01*
X106150656Y-93110000D01*
X106514834Y-93037561D01*
X106857882Y-92895466D01*
X107166618Y-92689175D01*
X107429175Y-92426618D01*
X107635466Y-92117882D01*
X107777561Y-91774834D01*
X107850000Y-91410656D01*
X107850000Y-91039344D01*
X107777561Y-90675166D01*
X107680260Y-90440260D01*
X107915166Y-90537561D01*
X108279344Y-90610000D01*
X108650656Y-90610000D01*
X109014834Y-90537561D01*
X109357882Y-90395466D01*
X109666618Y-90189175D01*
X109929175Y-89926618D01*
X110135466Y-89617882D01*
X110277561Y-89274834D01*
X110350000Y-88910656D01*
X110350000Y-88539344D01*
X115710000Y-88539344D01*
X115710000Y-88910656D01*
X115782439Y-89274834D01*
X115924534Y-89617882D01*
X116130825Y-89926618D01*
X116393382Y-90189175D01*
X116702118Y-90395466D01*
X117045166Y-90537561D01*
X117409344Y-90610000D01*
X117780656Y-90610000D01*
X118144834Y-90537561D01*
X118379740Y-90440260D01*
X118282439Y-90675166D01*
X118210000Y-91039344D01*
X118210000Y-91410656D01*
X118282439Y-91774834D01*
X118424534Y-92117882D01*
X118630825Y-92426618D01*
X118893382Y-92689175D01*
X119202118Y-92895466D01*
X119545166Y-93037561D01*
X119909344Y-93110000D01*
X120280656Y-93110000D01*
X120644834Y-93037561D01*
X120987882Y-92895466D01*
X121296618Y-92689175D01*
X121559175Y-92426618D01*
X121765466Y-92117882D01*
X121907561Y-91774834D01*
X121980000Y-91410656D01*
X121980000Y-91039344D01*
X128210000Y-91039344D01*
X128210000Y-91410656D01*
X128282439Y-91774834D01*
X128424534Y-92117882D01*
X128630825Y-92426618D01*
X128893382Y-92689175D01*
X129202118Y-92895466D01*
X129545166Y-93037561D01*
X129909344Y-93110000D01*
X130280656Y-93110000D01*
X130644834Y-93037561D01*
X130987882Y-92895466D01*
X131296618Y-92689175D01*
X131559175Y-92426618D01*
X131765466Y-92117882D01*
X131907561Y-91774834D01*
X131980000Y-91410656D01*
X131980000Y-91039344D01*
X131907561Y-90675166D01*
X131810260Y-90440260D01*
X132045166Y-90537561D01*
X132409344Y-90610000D01*
X132780656Y-90610000D01*
X133144834Y-90537561D01*
X133487882Y-90395466D01*
X133796618Y-90189175D01*
X134059175Y-89926618D01*
X134265466Y-89617882D01*
X134407561Y-89274834D01*
X134480000Y-88910656D01*
X134480000Y-88539344D01*
X139840000Y-88539344D01*
X139840000Y-88910656D01*
X139912439Y-89274834D01*
X140054534Y-89617882D01*
X140260825Y-89926618D01*
X140523382Y-90189175D01*
X140832118Y-90395466D01*
X141175166Y-90537561D01*
X141539344Y-90610000D01*
X141910656Y-90610000D01*
X142274834Y-90537561D01*
X142509740Y-90440260D01*
X142412439Y-90675166D01*
X142340000Y-91039344D01*
X142340000Y-91410656D01*
X142412439Y-91774834D01*
X142554534Y-92117882D01*
X142760825Y-92426618D01*
X143023382Y-92689175D01*
X143332118Y-92895466D01*
X143675166Y-93037561D01*
X144039344Y-93110000D01*
X144410656Y-93110000D01*
X144774834Y-93037561D01*
X145117882Y-92895466D01*
X145426618Y-92689175D01*
X145689175Y-92426618D01*
X145895466Y-92117882D01*
X146037561Y-91774834D01*
X146110000Y-91410656D01*
X146110000Y-91039344D01*
X152340000Y-91039344D01*
X152340000Y-91410656D01*
X152412439Y-91774834D01*
X152554534Y-92117882D01*
X152760825Y-92426618D01*
X153023382Y-92689175D01*
X153332118Y-92895466D01*
X153675166Y-93037561D01*
X154039344Y-93110000D01*
X154410656Y-93110000D01*
X154774834Y-93037561D01*
X155117882Y-92895466D01*
X155426618Y-92689175D01*
X155689175Y-92426618D01*
X155895466Y-92117882D01*
X156037561Y-91774834D01*
X156110000Y-91410656D01*
X156110000Y-91039344D01*
X156037561Y-90675166D01*
X155940260Y-90440260D01*
X156175166Y-90537561D01*
X156539344Y-90610000D01*
X156910656Y-90610000D01*
X157274834Y-90537561D01*
X157617882Y-90395466D01*
X157926618Y-90189175D01*
X158189175Y-89926618D01*
X158395466Y-89617882D01*
X158537561Y-89274834D01*
X158610000Y-88910656D01*
X158610000Y-88539344D01*
X158537561Y-88175166D01*
X158395466Y-87832118D01*
X158189175Y-87523382D01*
X157926618Y-87260825D01*
X157617882Y-87054534D01*
X157274834Y-86912439D01*
X156910656Y-86840000D01*
X156539344Y-86840000D01*
X156175166Y-86912439D01*
X155832118Y-87054534D01*
X155523382Y-87260825D01*
X155260825Y-87523382D01*
X155054534Y-87832118D01*
X154912439Y-88175166D01*
X154840000Y-88539344D01*
X154840000Y-88910656D01*
X154912439Y-89274834D01*
X155009740Y-89509740D01*
X154774834Y-89412439D01*
X154410656Y-89340000D01*
X154039344Y-89340000D01*
X153675166Y-89412439D01*
X153332118Y-89554534D01*
X153023382Y-89760825D01*
X152760825Y-90023382D01*
X152554534Y-90332118D01*
X152412439Y-90675166D01*
X152340000Y-91039344D01*
X146110000Y-91039344D01*
X146037561Y-90675166D01*
X145895466Y-90332118D01*
X145699347Y-90038605D01*
X148091000Y-90038605D01*
X148216914Y-90328577D01*
X148549126Y-90494433D01*
X148907312Y-90592290D01*
X149277706Y-90618389D01*
X149646075Y-90571725D01*
X149998262Y-90454094D01*
X150233086Y-90328577D01*
X150359000Y-90038605D01*
X149225000Y-88904605D01*
X148091000Y-90038605D01*
X145699347Y-90038605D01*
X145689175Y-90023382D01*
X145426618Y-89760825D01*
X145117882Y-89554534D01*
X144774834Y-89412439D01*
X144410656Y-89340000D01*
X144039344Y-89340000D01*
X143675166Y-89412439D01*
X143440260Y-89509740D01*
X143537561Y-89274834D01*
X143610000Y-88910656D01*
X143610000Y-88777706D01*
X147331611Y-88777706D01*
X147378275Y-89146075D01*
X147495906Y-89498262D01*
X147621423Y-89733086D01*
X147911395Y-89859000D01*
X149045395Y-88725000D01*
X149404605Y-88725000D01*
X150538605Y-89859000D01*
X150828577Y-89733086D01*
X150994433Y-89400874D01*
X151092290Y-89042688D01*
X151118389Y-88672294D01*
X151071725Y-88303925D01*
X150954094Y-87951738D01*
X150828577Y-87716914D01*
X150538605Y-87591000D01*
X149404605Y-88725000D01*
X149045395Y-88725000D01*
X147911395Y-87591000D01*
X147621423Y-87716914D01*
X147455567Y-88049126D01*
X147357710Y-88407312D01*
X147331611Y-88777706D01*
X143610000Y-88777706D01*
X143610000Y-88539344D01*
X143537561Y-88175166D01*
X143395466Y-87832118D01*
X143189175Y-87523382D01*
X143077188Y-87411395D01*
X148091000Y-87411395D01*
X149225000Y-88545395D01*
X150359000Y-87411395D01*
X150233086Y-87121423D01*
X149900874Y-86955567D01*
X149542688Y-86857710D01*
X149172294Y-86831611D01*
X148803925Y-86878275D01*
X148451738Y-86995906D01*
X148216914Y-87121423D01*
X148091000Y-87411395D01*
X143077188Y-87411395D01*
X142926618Y-87260825D01*
X142617882Y-87054534D01*
X142274834Y-86912439D01*
X141910656Y-86840000D01*
X141539344Y-86840000D01*
X141175166Y-86912439D01*
X140832118Y-87054534D01*
X140523382Y-87260825D01*
X140260825Y-87523382D01*
X140054534Y-87832118D01*
X139912439Y-88175166D01*
X139840000Y-88539344D01*
X134480000Y-88539344D01*
X134407561Y-88175166D01*
X134265466Y-87832118D01*
X134059175Y-87523382D01*
X133796618Y-87260825D01*
X133487882Y-87054534D01*
X133144834Y-86912439D01*
X132780656Y-86840000D01*
X132409344Y-86840000D01*
X132045166Y-86912439D01*
X131702118Y-87054534D01*
X131393382Y-87260825D01*
X131130825Y-87523382D01*
X130924534Y-87832118D01*
X130782439Y-88175166D01*
X130710000Y-88539344D01*
X130710000Y-88910656D01*
X130782439Y-89274834D01*
X130879740Y-89509740D01*
X130644834Y-89412439D01*
X130280656Y-89340000D01*
X129909344Y-89340000D01*
X129545166Y-89412439D01*
X129202118Y-89554534D01*
X128893382Y-89760825D01*
X128630825Y-90023382D01*
X128424534Y-90332118D01*
X128282439Y-90675166D01*
X128210000Y-91039344D01*
X121980000Y-91039344D01*
X121907561Y-90675166D01*
X121765466Y-90332118D01*
X121569347Y-90038605D01*
X123961000Y-90038605D01*
X124086914Y-90328577D01*
X124419126Y-90494433D01*
X124777312Y-90592290D01*
X125147706Y-90618389D01*
X125516075Y-90571725D01*
X125868262Y-90454094D01*
X126103086Y-90328577D01*
X126229000Y-90038605D01*
X125095000Y-88904605D01*
X123961000Y-90038605D01*
X121569347Y-90038605D01*
X121559175Y-90023382D01*
X121296618Y-89760825D01*
X120987882Y-89554534D01*
X120644834Y-89412439D01*
X120280656Y-89340000D01*
X119909344Y-89340000D01*
X119545166Y-89412439D01*
X119310260Y-89509740D01*
X119407561Y-89274834D01*
X119480000Y-88910656D01*
X119480000Y-88777706D01*
X123201611Y-88777706D01*
X123248275Y-89146075D01*
X123365906Y-89498262D01*
X123491423Y-89733086D01*
X123781395Y-89859000D01*
X124915395Y-88725000D01*
X125274605Y-88725000D01*
X126408605Y-89859000D01*
X126698577Y-89733086D01*
X126864433Y-89400874D01*
X126962290Y-89042688D01*
X126988389Y-88672294D01*
X126941725Y-88303925D01*
X126824094Y-87951738D01*
X126698577Y-87716914D01*
X126408605Y-87591000D01*
X125274605Y-88725000D01*
X124915395Y-88725000D01*
X123781395Y-87591000D01*
X123491423Y-87716914D01*
X123325567Y-88049126D01*
X123227710Y-88407312D01*
X123201611Y-88777706D01*
X119480000Y-88777706D01*
X119480000Y-88539344D01*
X119407561Y-88175166D01*
X119265466Y-87832118D01*
X119059175Y-87523382D01*
X118947188Y-87411395D01*
X123961000Y-87411395D01*
X125095000Y-88545395D01*
X126229000Y-87411395D01*
X126103086Y-87121423D01*
X125770874Y-86955567D01*
X125412688Y-86857710D01*
X125042294Y-86831611D01*
X124673925Y-86878275D01*
X124321738Y-86995906D01*
X124086914Y-87121423D01*
X123961000Y-87411395D01*
X118947188Y-87411395D01*
X118796618Y-87260825D01*
X118487882Y-87054534D01*
X118144834Y-86912439D01*
X117780656Y-86840000D01*
X117409344Y-86840000D01*
X117045166Y-86912439D01*
X116702118Y-87054534D01*
X116393382Y-87260825D01*
X116130825Y-87523382D01*
X115924534Y-87832118D01*
X115782439Y-88175166D01*
X115710000Y-88539344D01*
X110350000Y-88539344D01*
X110277561Y-88175166D01*
X110135466Y-87832118D01*
X109929175Y-87523382D01*
X109666618Y-87260825D01*
X109357882Y-87054534D01*
X109014834Y-86912439D01*
X108650656Y-86840000D01*
X108279344Y-86840000D01*
X107915166Y-86912439D01*
X107572118Y-87054534D01*
X107263382Y-87260825D01*
X107000825Y-87523382D01*
X106794534Y-87832118D01*
X106652439Y-88175166D01*
X106580000Y-88539344D01*
X106580000Y-88910656D01*
X106652439Y-89274834D01*
X106749740Y-89509740D01*
X106514834Y-89412439D01*
X106150656Y-89340000D01*
X105779344Y-89340000D01*
X105415166Y-89412439D01*
X105072118Y-89554534D01*
X104763382Y-89760825D01*
X104500825Y-90023382D01*
X104294534Y-90332118D01*
X104152439Y-90675166D01*
X104080000Y-91039344D01*
X97850000Y-91039344D01*
X97777561Y-90675166D01*
X97635466Y-90332118D01*
X97429175Y-90023382D01*
X97166618Y-89760825D01*
X96857882Y-89554534D01*
X96514834Y-89412439D01*
X96150656Y-89340000D01*
X95779344Y-89340000D01*
X95415166Y-89412439D01*
X95180260Y-89509740D01*
X95277561Y-89274834D01*
X95350000Y-88910656D01*
X95350000Y-88539344D01*
X99080000Y-88539344D01*
X99080000Y-88910656D01*
X99152439Y-89274834D01*
X99294534Y-89617882D01*
X99500825Y-89926618D01*
X99763382Y-90189175D01*
X100072118Y-90395466D01*
X100415166Y-90537561D01*
X100779344Y-90610000D01*
X101150656Y-90610000D01*
X101514834Y-90537561D01*
X101857882Y-90395466D01*
X102166618Y-90189175D01*
X102429175Y-89926618D01*
X102635466Y-89617882D01*
X102777561Y-89274834D01*
X102850000Y-88910656D01*
X102850000Y-88539344D01*
X102777561Y-88175166D01*
X102635466Y-87832118D01*
X102429175Y-87523382D01*
X102166618Y-87260825D01*
X101857882Y-87054534D01*
X101514834Y-86912439D01*
X101150656Y-86840000D01*
X100779344Y-86840000D01*
X100415166Y-86912439D01*
X100072118Y-87054534D01*
X99763382Y-87260825D01*
X99500825Y-87523382D01*
X99294534Y-87832118D01*
X99152439Y-88175166D01*
X99080000Y-88539344D01*
X95350000Y-88539344D01*
X95277561Y-88175166D01*
X95135466Y-87832118D01*
X94929175Y-87523382D01*
X94666618Y-87260825D01*
X94357882Y-87054534D01*
X94014834Y-86912439D01*
X93650656Y-86840000D01*
X93279344Y-86840000D01*
X92915166Y-86912439D01*
X92572118Y-87054534D01*
X92263382Y-87260825D01*
X92000825Y-87523382D01*
X91794534Y-87832118D01*
X91652439Y-88175166D01*
X91580000Y-88539344D01*
X82240000Y-88539344D01*
X82240000Y-88100335D01*
X82222130Y-87918898D01*
X82151511Y-87686099D01*
X82036833Y-87471551D01*
X81882502Y-87283498D01*
X81694449Y-87129167D01*
X81479901Y-87014489D01*
X81247102Y-86943870D01*
X81005000Y-86920025D01*
X80762899Y-86943870D01*
X80530100Y-87014489D01*
X80315552Y-87129167D01*
X80127499Y-87283498D01*
X79973168Y-87471551D01*
X79858489Y-87686099D01*
X79787870Y-87918898D01*
X79770000Y-88100335D01*
X79770000Y-89096348D01*
X79699443Y-88926008D01*
X79564287Y-88723733D01*
X79392267Y-88551713D01*
X79255607Y-88460400D01*
X79292540Y-88371236D01*
X79340000Y-88132637D01*
X79340000Y-87889363D01*
X79292540Y-87650764D01*
X79199443Y-87426008D01*
X79064287Y-87223733D01*
X78892267Y-87051713D01*
X78689992Y-86916557D01*
X78465236Y-86823460D01*
X78226637Y-86776000D01*
X77983363Y-86776000D01*
X77744764Y-86823460D01*
X77520008Y-86916557D01*
X77317733Y-87051713D01*
X77145713Y-87223733D01*
X77010557Y-87426008D01*
X76917460Y-87650764D01*
X76870000Y-87889363D01*
X76870000Y-88132637D01*
X76905597Y-88311597D01*
X76808254Y-88292235D01*
X76840000Y-88132637D01*
X76840000Y-87889363D01*
X76792540Y-87650764D01*
X76699443Y-87426008D01*
X76564287Y-87223733D01*
X76392267Y-87051713D01*
X76189992Y-86916557D01*
X75965236Y-86823460D01*
X75726637Y-86776000D01*
X75483363Y-86776000D01*
X75244764Y-86823460D01*
X75020008Y-86916557D01*
X74817733Y-87051713D01*
X74645713Y-87223733D01*
X74605000Y-87284664D01*
X74564287Y-87223733D01*
X74392267Y-87051713D01*
X74189992Y-86916557D01*
X73965236Y-86823460D01*
X73726637Y-86776000D01*
X73483363Y-86776000D01*
X73244764Y-86823460D01*
X73020008Y-86916557D01*
X72817733Y-87051713D01*
X72645713Y-87223733D01*
X72510557Y-87426008D01*
X72417460Y-87650764D01*
X72370000Y-87889363D01*
X72370000Y-88132637D01*
X72401746Y-88292235D01*
X72302926Y-88311891D01*
X72335000Y-88175687D01*
X72343495Y-87932562D01*
X72304395Y-87692451D01*
X72219202Y-87464582D01*
X72178348Y-87388148D01*
X71954764Y-87340841D01*
X71284605Y-88011000D01*
X71298748Y-88025143D01*
X71119143Y-88204748D01*
X71105000Y-88190605D01*
X71090858Y-88204748D01*
X70911253Y-88025143D01*
X70925395Y-88011000D01*
X70255236Y-87340841D01*
X70031652Y-87388148D01*
X69930763Y-87609516D01*
X69875000Y-87846313D01*
X69866505Y-88089438D01*
X69905605Y-88329549D01*
X69954499Y-88460329D01*
X69817733Y-88551713D01*
X69645713Y-88723733D01*
X69510557Y-88926008D01*
X69440000Y-89096348D01*
X69440000Y-88100335D01*
X69422130Y-87918898D01*
X69351511Y-87686099D01*
X69236833Y-87471551D01*
X69082502Y-87283498D01*
X68933526Y-87161236D01*
X70434841Y-87161236D01*
X71105000Y-87831395D01*
X71775159Y-87161236D01*
X71727852Y-86937652D01*
X71506484Y-86836763D01*
X71269687Y-86781000D01*
X71026562Y-86772505D01*
X70786451Y-86811605D01*
X70558582Y-86896798D01*
X70482148Y-86937652D01*
X70434841Y-87161236D01*
X68933526Y-87161236D01*
X68894449Y-87129167D01*
X68679901Y-87014489D01*
X68447102Y-86943870D01*
X68205000Y-86920025D01*
X67962899Y-86943870D01*
X67730100Y-87014489D01*
X67515552Y-87129167D01*
X67327499Y-87283498D01*
X67173168Y-87471551D01*
X67058489Y-87686099D01*
X66987870Y-87918898D01*
X66970000Y-88100335D01*
X61620000Y-88100335D01*
X61620000Y-80983895D01*
X61816399Y-81277826D01*
X62232174Y-81693601D01*
X62721072Y-82020273D01*
X63264308Y-82245288D01*
X63841003Y-82360000D01*
X64428997Y-82360000D01*
X65005692Y-82245288D01*
X65548928Y-82020273D01*
X66037826Y-81693601D01*
X66453601Y-81277826D01*
X66780273Y-80788928D01*
X66970000Y-80330885D01*
X66970000Y-80771664D01*
X66987870Y-80953101D01*
X67058489Y-81185900D01*
X67173167Y-81400448D01*
X67327498Y-81588502D01*
X67515551Y-81742833D01*
X67730099Y-81857511D01*
X67962898Y-81928130D01*
X68205000Y-81951975D01*
X68447101Y-81928130D01*
X68679900Y-81857511D01*
X68894448Y-81742833D01*
X69082502Y-81588502D01*
X69236833Y-81400449D01*
X69351511Y-81185901D01*
X69422130Y-80953102D01*
X69440000Y-80771665D01*
X69440000Y-79750336D01*
X69440000Y-79750335D01*
X79770000Y-79750335D01*
X79770000Y-80771664D01*
X79787870Y-80953101D01*
X79858489Y-81185900D01*
X79973167Y-81400448D01*
X80127498Y-81588502D01*
X80315551Y-81742833D01*
X80530099Y-81857511D01*
X80762898Y-81928130D01*
X81005000Y-81951975D01*
X81247101Y-81928130D01*
X81479900Y-81857511D01*
X81694448Y-81742833D01*
X81882502Y-81588502D01*
X82036833Y-81400449D01*
X82151511Y-81185901D01*
X82222130Y-80953102D01*
X82240000Y-80771665D01*
X82240000Y-79750336D01*
X82222130Y-79568898D01*
X82151511Y-79336099D01*
X82036833Y-79121551D01*
X81882502Y-78933498D01*
X81694449Y-78779167D01*
X81479901Y-78664489D01*
X81247102Y-78593870D01*
X81005000Y-78570025D01*
X80762899Y-78593870D01*
X80530100Y-78664489D01*
X80315552Y-78779167D01*
X80127499Y-78933498D01*
X79973168Y-79121551D01*
X79858489Y-79336099D01*
X79787870Y-79568898D01*
X79770000Y-79750335D01*
X69440000Y-79750335D01*
X69422130Y-79568898D01*
X69351511Y-79336099D01*
X69236833Y-79121551D01*
X69082502Y-78933498D01*
X68894449Y-78779167D01*
X68679901Y-78664489D01*
X68447102Y-78593870D01*
X68205000Y-78570025D01*
X67962899Y-78593870D01*
X67730100Y-78664489D01*
X67515552Y-78779167D01*
X67327499Y-78933498D01*
X67173168Y-79121551D01*
X67120000Y-79221021D01*
X67120000Y-79081003D01*
X67005288Y-78504308D01*
X66780273Y-77961072D01*
X66453601Y-77472174D01*
X66037826Y-77056399D01*
X65743895Y-76860000D01*
X95678797Y-76860000D01*
X95415166Y-76912439D01*
G37*
%TD.AperFunction*%
%TD*%
M02*
