%TF.GenerationSoftware,KiCad,Pcbnew,(5.1.10)-1*%
%TF.CreationDate,2021-06-22T22:03:27+02:00*%
%TF.ProjectId,mister-midi-pcb,6d697374-6572-42d6-9d69-64692d706362,rev?*%
%TF.SameCoordinates,Original*%
%TF.FileFunction,Copper,L1,Top*%
%TF.FilePolarity,Positive*%
%FSLAX46Y46*%
G04 Gerber Fmt 4.6, Leading zero omitted, Abs format (unit mm)*
G04 Created by KiCad (PCBNEW (5.1.10)-1) date 2021-06-22 22:03:27*
%MOMM*%
%LPD*%
G01*
G04 APERTURE LIST*
%TA.AperFunction,ComponentPad*%
%ADD10C,1.200000*%
%TD*%
%TA.AperFunction,ComponentPad*%
%ADD11O,1.200000X2.400000*%
%TD*%
%TA.AperFunction,ComponentPad*%
%ADD12O,1.200000X2.100000*%
%TD*%
%TA.AperFunction,ComponentPad*%
%ADD13C,4.700000*%
%TD*%
%TA.AperFunction,SMDPad,CuDef*%
%ADD14R,1.000000X1.000000*%
%TD*%
%TA.AperFunction,ComponentPad*%
%ADD15C,2.500000*%
%TD*%
%TA.AperFunction,SMDPad,CuDef*%
%ADD16R,1.500000X1.780000*%
%TD*%
%TA.AperFunction,SMDPad,CuDef*%
%ADD17R,3.800000X2.000000*%
%TD*%
%TA.AperFunction,SMDPad,CuDef*%
%ADD18R,1.500000X2.000000*%
%TD*%
%TA.AperFunction,ViaPad*%
%ADD19C,0.800000*%
%TD*%
%TA.AperFunction,Conductor*%
%ADD20C,0.250000*%
%TD*%
%TA.AperFunction,Conductor*%
%ADD21C,1.000000*%
%TD*%
%TA.AperFunction,Conductor*%
%ADD22C,0.254000*%
%TD*%
%TA.AperFunction,Conductor*%
%ADD23C,0.100000*%
%TD*%
G04 APERTURE END LIST*
D10*
%TO.P,J2,1*%
%TO.N,+5V*%
X78105000Y-88011000D03*
%TO.P,J2,2*%
%TO.N,Midi_Out_TX*%
X75605000Y-88011000D03*
%TO.P,J2,3*%
%TO.N,Midi_In_RX*%
X73605000Y-88011000D03*
%TO.P,J2,4*%
%TO.N,GND*%
X71105000Y-88011000D03*
%TO.P,J2,5*%
%TO.N,Net-(J2-Pad5)*%
X70605000Y-89511000D03*
%TO.P,J2,6*%
%TO.N,Net-(J2-Pad6)*%
X72605000Y-89511000D03*
%TO.P,J2,7*%
%TO.N,Net-(J2-Pad7)*%
X74605000Y-89511000D03*
%TO.P,J2,8*%
%TO.N,Net-(J2-Pad8)*%
X76605000Y-89511000D03*
%TO.P,J2,9*%
%TO.N,Net-(J2-Pad9)*%
X78605000Y-89511000D03*
D11*
%TO.P,J2,10*%
%TO.N,Net-(J2-Pad10)*%
X68205000Y-88761000D03*
X81005000Y-88761000D03*
D12*
X68205000Y-80261000D03*
X81005000Y-80261000D03*
%TD*%
D13*
%TO.P,REF\u002A\u002A,1*%
%TO.N,N/C*%
X164719000Y-141605000D03*
%TD*%
%TO.P,REF\u002A\u002A,1*%
%TO.N,N/C*%
X64135000Y-141605000D03*
%TD*%
%TO.P,REF\u002A\u002A,1*%
%TO.N,N/C*%
X164719000Y-79375000D03*
%TD*%
%TO.P,REF\u002A\u002A,1*%
%TO.N,N/C*%
X64135000Y-79375000D03*
%TD*%
%TO.P,C1,1*%
%TO.N,+5V*%
%TA.AperFunction,SMDPad,CuDef*%
G36*
G01*
X68225000Y-99281000D02*
X68225000Y-98331000D01*
G75*
G02*
X68475000Y-98081000I250000J0D01*
G01*
X69150000Y-98081000D01*
G75*
G02*
X69400000Y-98331000I0J-250000D01*
G01*
X69400000Y-99281000D01*
G75*
G02*
X69150000Y-99531000I-250000J0D01*
G01*
X68475000Y-99531000D01*
G75*
G02*
X68225000Y-99281000I0J250000D01*
G01*
G37*
%TD.AperFunction*%
%TO.P,C1,2*%
%TO.N,GND*%
%TA.AperFunction,SMDPad,CuDef*%
G36*
G01*
X70300000Y-99281000D02*
X70300000Y-98331000D01*
G75*
G02*
X70550000Y-98081000I250000J0D01*
G01*
X71225000Y-98081000D01*
G75*
G02*
X71475000Y-98331000I0J-250000D01*
G01*
X71475000Y-99281000D01*
G75*
G02*
X71225000Y-99531000I-250000J0D01*
G01*
X70550000Y-99531000D01*
G75*
G02*
X70300000Y-99281000I0J250000D01*
G01*
G37*
%TD.AperFunction*%
%TD*%
D14*
%TO.P,D1,1*%
%TO.N,Net-(D1-Pad1)*%
X109728000Y-114915000D03*
%TO.P,D1,2*%
%TO.N,Net-(D1-Pad2)*%
X109728000Y-112415000D03*
%TD*%
%TO.P,D2,1*%
%TO.N,GND*%
%TA.AperFunction,SMDPad,CuDef*%
G36*
G01*
X71044000Y-142182001D02*
X71044000Y-141281999D01*
G75*
G02*
X71293999Y-141032000I249999J0D01*
G01*
X71944001Y-141032000D01*
G75*
G02*
X72194000Y-141281999I0J-249999D01*
G01*
X72194000Y-142182001D01*
G75*
G02*
X71944001Y-142432000I-249999J0D01*
G01*
X71293999Y-142432000D01*
G75*
G02*
X71044000Y-142182001I0J249999D01*
G01*
G37*
%TD.AperFunction*%
%TO.P,D2,2*%
%TO.N,Net-(D2-Pad2)*%
%TA.AperFunction,SMDPad,CuDef*%
G36*
G01*
X73094000Y-142182001D02*
X73094000Y-141281999D01*
G75*
G02*
X73343999Y-141032000I249999J0D01*
G01*
X73994001Y-141032000D01*
G75*
G02*
X74244000Y-141281999I0J-249999D01*
G01*
X74244000Y-142182001D01*
G75*
G02*
X73994001Y-142432000I-249999J0D01*
G01*
X73343999Y-142432000D01*
G75*
G02*
X73094000Y-142182001I0J249999D01*
G01*
G37*
%TD.AperFunction*%
%TD*%
D15*
%TO.P,J1,3*%
%TO.N,Net-(J1-Pad3)*%
X108465000Y-88725000D03*
%TO.P,J1,4*%
%TO.N,Net-(FB1-Pad2)*%
X95965000Y-91225000D03*
%TO.P,J1,2*%
%TO.N,Net-(J1-Pad2)*%
X100965000Y-88725000D03*
%TO.P,J1,1*%
%TO.N,Net-(J1-Pad1)*%
X93465000Y-88725000D03*
%TO.P,J1,5*%
%TO.N,Net-(FB2-Pad2)*%
X105965000Y-91225000D03*
%TO.P,J1,6*%
%TO.N,N/C*%
X95965000Y-78725000D03*
X105965000Y-78725000D03*
%TD*%
%TO.P,J3,6*%
%TO.N,N/C*%
X130095000Y-78725000D03*
X120095000Y-78725000D03*
%TO.P,J3,5*%
%TO.N,Net-(FB3-Pad1)*%
X130095000Y-91225000D03*
%TO.P,J3,1*%
%TO.N,Net-(J3-Pad1)*%
X117595000Y-88725000D03*
%TO.P,J3,2*%
%TO.N,GND*%
X125095000Y-88725000D03*
%TO.P,J3,4*%
%TO.N,Net-(FB5-Pad2)*%
X120095000Y-91225000D03*
%TO.P,J3,3*%
%TO.N,Net-(J3-Pad3)*%
X132595000Y-88725000D03*
%TD*%
%TO.P,J4,3*%
%TO.N,Net-(J4-Pad3)*%
X156725000Y-88725000D03*
%TO.P,J4,4*%
%TO.N,Net-(FB6-Pad2)*%
X144225000Y-91225000D03*
%TO.P,J4,2*%
%TO.N,GND*%
X149225000Y-88725000D03*
%TO.P,J4,1*%
%TO.N,Net-(J4-Pad1)*%
X141725000Y-88725000D03*
%TO.P,J4,5*%
%TO.N,Net-(FB4-Pad1)*%
X154225000Y-91225000D03*
%TO.P,J4,6*%
%TO.N,N/C*%
X144225000Y-78725000D03*
X154225000Y-78725000D03*
%TD*%
%TO.P,R1,1*%
%TO.N,Net-(D1-Pad1)*%
%TA.AperFunction,SMDPad,CuDef*%
G36*
G01*
X98863999Y-99746000D02*
X99764001Y-99746000D01*
G75*
G02*
X100014000Y-99995999I0J-249999D01*
G01*
X100014000Y-100696001D01*
G75*
G02*
X99764001Y-100946000I-249999J0D01*
G01*
X98863999Y-100946000D01*
G75*
G02*
X98614000Y-100696001I0J249999D01*
G01*
X98614000Y-99995999D01*
G75*
G02*
X98863999Y-99746000I249999J0D01*
G01*
G37*
%TD.AperFunction*%
%TO.P,R1,2*%
%TO.N,Net-(FB1-Pad1)*%
%TA.AperFunction,SMDPad,CuDef*%
G36*
G01*
X98863999Y-101746000D02*
X99764001Y-101746000D01*
G75*
G02*
X100014000Y-101995999I0J-249999D01*
G01*
X100014000Y-102696001D01*
G75*
G02*
X99764001Y-102946000I-249999J0D01*
G01*
X98863999Y-102946000D01*
G75*
G02*
X98614000Y-102696001I0J249999D01*
G01*
X98614000Y-101995999D01*
G75*
G02*
X98863999Y-101746000I249999J0D01*
G01*
G37*
%TD.AperFunction*%
%TD*%
%TO.P,R2,2*%
%TO.N,Midi_In_RX*%
%TA.AperFunction,SMDPad,CuDef*%
G36*
G01*
X92259999Y-101746000D02*
X93160001Y-101746000D01*
G75*
G02*
X93410000Y-101995999I0J-249999D01*
G01*
X93410000Y-102696001D01*
G75*
G02*
X93160001Y-102946000I-249999J0D01*
G01*
X92259999Y-102946000D01*
G75*
G02*
X92010000Y-102696001I0J249999D01*
G01*
X92010000Y-101995999D01*
G75*
G02*
X92259999Y-101746000I249999J0D01*
G01*
G37*
%TD.AperFunction*%
%TO.P,R2,1*%
%TO.N,+3V3*%
%TA.AperFunction,SMDPad,CuDef*%
G36*
G01*
X92259999Y-99746000D02*
X93160001Y-99746000D01*
G75*
G02*
X93410000Y-99995999I0J-249999D01*
G01*
X93410000Y-100696001D01*
G75*
G02*
X93160001Y-100946000I-249999J0D01*
G01*
X92259999Y-100946000D01*
G75*
G02*
X92010000Y-100696001I0J249999D01*
G01*
X92010000Y-99995999D01*
G75*
G02*
X92259999Y-99746000I249999J0D01*
G01*
G37*
%TD.AperFunction*%
%TD*%
%TO.P,R3,2*%
%TO.N,+3V3*%
%TA.AperFunction,SMDPad,CuDef*%
G36*
G01*
X77616000Y-142182001D02*
X77616000Y-141281999D01*
G75*
G02*
X77865999Y-141032000I249999J0D01*
G01*
X78566001Y-141032000D01*
G75*
G02*
X78816000Y-141281999I0J-249999D01*
G01*
X78816000Y-142182001D01*
G75*
G02*
X78566001Y-142432000I-249999J0D01*
G01*
X77865999Y-142432000D01*
G75*
G02*
X77616000Y-142182001I0J249999D01*
G01*
G37*
%TD.AperFunction*%
%TO.P,R3,1*%
%TO.N,Net-(D2-Pad2)*%
%TA.AperFunction,SMDPad,CuDef*%
G36*
G01*
X75616000Y-142182001D02*
X75616000Y-141281999D01*
G75*
G02*
X75865999Y-141032000I249999J0D01*
G01*
X76566001Y-141032000D01*
G75*
G02*
X76816000Y-141281999I0J-249999D01*
G01*
X76816000Y-142182001D01*
G75*
G02*
X76566001Y-142432000I-249999J0D01*
G01*
X75865999Y-142432000D01*
G75*
G02*
X75616000Y-142182001I0J249999D01*
G01*
G37*
%TD.AperFunction*%
%TD*%
%TO.P,R4,1*%
%TO.N,Net-(FB5-Pad1)*%
%TA.AperFunction,SMDPad,CuDef*%
G36*
G01*
X123894001Y-102692000D02*
X122993999Y-102692000D01*
G75*
G02*
X122744000Y-102442001I0J249999D01*
G01*
X122744000Y-101741999D01*
G75*
G02*
X122993999Y-101492000I249999J0D01*
G01*
X123894001Y-101492000D01*
G75*
G02*
X124144000Y-101741999I0J-249999D01*
G01*
X124144000Y-102442001D01*
G75*
G02*
X123894001Y-102692000I-249999J0D01*
G01*
G37*
%TD.AperFunction*%
%TO.P,R4,2*%
%TO.N,+3V3*%
%TA.AperFunction,SMDPad,CuDef*%
G36*
G01*
X123894001Y-100692000D02*
X122993999Y-100692000D01*
G75*
G02*
X122744000Y-100442001I0J249999D01*
G01*
X122744000Y-99741999D01*
G75*
G02*
X122993999Y-99492000I249999J0D01*
G01*
X123894001Y-99492000D01*
G75*
G02*
X124144000Y-99741999I0J-249999D01*
G01*
X124144000Y-100442001D01*
G75*
G02*
X123894001Y-100692000I-249999J0D01*
G01*
G37*
%TD.AperFunction*%
%TD*%
%TO.P,R5,1*%
%TO.N,Net-(FB6-Pad1)*%
%TA.AperFunction,SMDPad,CuDef*%
G36*
G01*
X148024001Y-102692000D02*
X147123999Y-102692000D01*
G75*
G02*
X146874000Y-102442001I0J249999D01*
G01*
X146874000Y-101741999D01*
G75*
G02*
X147123999Y-101492000I249999J0D01*
G01*
X148024001Y-101492000D01*
G75*
G02*
X148274000Y-101741999I0J-249999D01*
G01*
X148274000Y-102442001D01*
G75*
G02*
X148024001Y-102692000I-249999J0D01*
G01*
G37*
%TD.AperFunction*%
%TO.P,R5,2*%
%TO.N,+3V3*%
%TA.AperFunction,SMDPad,CuDef*%
G36*
G01*
X148024001Y-100692000D02*
X147123999Y-100692000D01*
G75*
G02*
X146874000Y-100442001I0J249999D01*
G01*
X146874000Y-99741999D01*
G75*
G02*
X147123999Y-99492000I249999J0D01*
G01*
X148024001Y-99492000D01*
G75*
G02*
X148274000Y-99741999I0J-249999D01*
G01*
X148274000Y-100442001D01*
G75*
G02*
X148024001Y-100692000I-249999J0D01*
G01*
G37*
%TD.AperFunction*%
%TD*%
%TO.P,R6,2*%
%TO.N,Net-(FB3-Pad2)*%
%TA.AperFunction,SMDPad,CuDef*%
G36*
G01*
X132899999Y-101492000D02*
X133800001Y-101492000D01*
G75*
G02*
X134050000Y-101741999I0J-249999D01*
G01*
X134050000Y-102442001D01*
G75*
G02*
X133800001Y-102692000I-249999J0D01*
G01*
X132899999Y-102692000D01*
G75*
G02*
X132650000Y-102442001I0J249999D01*
G01*
X132650000Y-101741999D01*
G75*
G02*
X132899999Y-101492000I249999J0D01*
G01*
G37*
%TD.AperFunction*%
%TO.P,R6,1*%
%TO.N,Midi_Out_TX*%
%TA.AperFunction,SMDPad,CuDef*%
G36*
G01*
X132899999Y-99492000D02*
X133800001Y-99492000D01*
G75*
G02*
X134050000Y-99741999I0J-249999D01*
G01*
X134050000Y-100442001D01*
G75*
G02*
X133800001Y-100692000I-249999J0D01*
G01*
X132899999Y-100692000D01*
G75*
G02*
X132650000Y-100442001I0J249999D01*
G01*
X132650000Y-99741999D01*
G75*
G02*
X132899999Y-99492000I249999J0D01*
G01*
G37*
%TD.AperFunction*%
%TD*%
%TO.P,R7,1*%
%TO.N,Net-(FB4-Pad2)*%
%TA.AperFunction,SMDPad,CuDef*%
G36*
G01*
X157930001Y-102692000D02*
X157029999Y-102692000D01*
G75*
G02*
X156780000Y-102442001I0J249999D01*
G01*
X156780000Y-101741999D01*
G75*
G02*
X157029999Y-101492000I249999J0D01*
G01*
X157930001Y-101492000D01*
G75*
G02*
X158180000Y-101741999I0J-249999D01*
G01*
X158180000Y-102442001D01*
G75*
G02*
X157930001Y-102692000I-249999J0D01*
G01*
G37*
%TD.AperFunction*%
%TO.P,R7,2*%
%TO.N,Midi_In_RX*%
%TA.AperFunction,SMDPad,CuDef*%
G36*
G01*
X157930001Y-100692000D02*
X157029999Y-100692000D01*
G75*
G02*
X156780000Y-100442001I0J249999D01*
G01*
X156780000Y-99741999D01*
G75*
G02*
X157029999Y-99492000I249999J0D01*
G01*
X157930001Y-99492000D01*
G75*
G02*
X158180000Y-99741999I0J-249999D01*
G01*
X158180000Y-100442001D01*
G75*
G02*
X157930001Y-100692000I-249999J0D01*
G01*
G37*
%TD.AperFunction*%
%TD*%
D16*
%TO.P,U1,1*%
%TO.N,Net-(D1-Pad1)*%
X105603000Y-114935000D03*
%TO.P,U1,4*%
%TO.N,Midi_In_RX*%
X96073000Y-109855000D03*
%TO.P,U1,2*%
%TO.N,Net-(D1-Pad2)*%
X105603000Y-112395000D03*
%TO.P,U1,5*%
%TO.N,GND*%
X96073000Y-112395000D03*
%TO.P,U1,3*%
%TO.N,Net-(U1-Pad3)*%
X105603000Y-109855000D03*
%TO.P,U1,6*%
%TO.N,+3V3*%
X96073000Y-114935000D03*
%TD*%
%TO.P,D3,1*%
%TO.N,GND*%
%TA.AperFunction,SMDPad,CuDef*%
G36*
G01*
X81712000Y-142182001D02*
X81712000Y-141281999D01*
G75*
G02*
X81961999Y-141032000I249999J0D01*
G01*
X82612001Y-141032000D01*
G75*
G02*
X82862000Y-141281999I0J-249999D01*
G01*
X82862000Y-142182001D01*
G75*
G02*
X82612001Y-142432000I-249999J0D01*
G01*
X81961999Y-142432000D01*
G75*
G02*
X81712000Y-142182001I0J249999D01*
G01*
G37*
%TD.AperFunction*%
%TO.P,D3,2*%
%TO.N,Net-(D3-Pad2)*%
%TA.AperFunction,SMDPad,CuDef*%
G36*
G01*
X83762000Y-142182001D02*
X83762000Y-141281999D01*
G75*
G02*
X84011999Y-141032000I249999J0D01*
G01*
X84662001Y-141032000D01*
G75*
G02*
X84912000Y-141281999I0J-249999D01*
G01*
X84912000Y-142182001D01*
G75*
G02*
X84662001Y-142432000I-249999J0D01*
G01*
X84011999Y-142432000D01*
G75*
G02*
X83762000Y-142182001I0J249999D01*
G01*
G37*
%TD.AperFunction*%
%TD*%
%TO.P,D4,2*%
%TO.N,Net-(D4-Pad2)*%
%TA.AperFunction,SMDPad,CuDef*%
G36*
G01*
X94430000Y-142182001D02*
X94430000Y-141281999D01*
G75*
G02*
X94679999Y-141032000I249999J0D01*
G01*
X95330001Y-141032000D01*
G75*
G02*
X95580000Y-141281999I0J-249999D01*
G01*
X95580000Y-142182001D01*
G75*
G02*
X95330001Y-142432000I-249999J0D01*
G01*
X94679999Y-142432000D01*
G75*
G02*
X94430000Y-142182001I0J249999D01*
G01*
G37*
%TD.AperFunction*%
%TO.P,D4,1*%
%TO.N,GND*%
%TA.AperFunction,SMDPad,CuDef*%
G36*
G01*
X92380000Y-142182001D02*
X92380000Y-141281999D01*
G75*
G02*
X92629999Y-141032000I249999J0D01*
G01*
X93280001Y-141032000D01*
G75*
G02*
X93530000Y-141281999I0J-249999D01*
G01*
X93530000Y-142182001D01*
G75*
G02*
X93280001Y-142432000I-249999J0D01*
G01*
X92629999Y-142432000D01*
G75*
G02*
X92380000Y-142182001I0J249999D01*
G01*
G37*
%TD.AperFunction*%
%TD*%
%TO.P,FB1,1*%
%TO.N,Net-(FB1-Pad1)*%
%TA.AperFunction,SMDPad,CuDef*%
G36*
G01*
X96487000Y-102971000D02*
X95537000Y-102971000D01*
G75*
G02*
X95287000Y-102721000I0J250000D01*
G01*
X95287000Y-102046000D01*
G75*
G02*
X95537000Y-101796000I250000J0D01*
G01*
X96487000Y-101796000D01*
G75*
G02*
X96737000Y-102046000I0J-250000D01*
G01*
X96737000Y-102721000D01*
G75*
G02*
X96487000Y-102971000I-250000J0D01*
G01*
G37*
%TD.AperFunction*%
%TO.P,FB1,2*%
%TO.N,Net-(FB1-Pad2)*%
%TA.AperFunction,SMDPad,CuDef*%
G36*
G01*
X96487000Y-100896000D02*
X95537000Y-100896000D01*
G75*
G02*
X95287000Y-100646000I0J250000D01*
G01*
X95287000Y-99971000D01*
G75*
G02*
X95537000Y-99721000I250000J0D01*
G01*
X96487000Y-99721000D01*
G75*
G02*
X96737000Y-99971000I0J-250000D01*
G01*
X96737000Y-100646000D01*
G75*
G02*
X96487000Y-100896000I-250000J0D01*
G01*
G37*
%TD.AperFunction*%
%TD*%
%TO.P,FB2,2*%
%TO.N,Net-(FB2-Pad2)*%
%TA.AperFunction,SMDPad,CuDef*%
G36*
G01*
X106393000Y-100896000D02*
X105443000Y-100896000D01*
G75*
G02*
X105193000Y-100646000I0J250000D01*
G01*
X105193000Y-99971000D01*
G75*
G02*
X105443000Y-99721000I250000J0D01*
G01*
X106393000Y-99721000D01*
G75*
G02*
X106643000Y-99971000I0J-250000D01*
G01*
X106643000Y-100646000D01*
G75*
G02*
X106393000Y-100896000I-250000J0D01*
G01*
G37*
%TD.AperFunction*%
%TO.P,FB2,1*%
%TO.N,Net-(D1-Pad2)*%
%TA.AperFunction,SMDPad,CuDef*%
G36*
G01*
X106393000Y-102971000D02*
X105443000Y-102971000D01*
G75*
G02*
X105193000Y-102721000I0J250000D01*
G01*
X105193000Y-102046000D01*
G75*
G02*
X105443000Y-101796000I250000J0D01*
G01*
X106393000Y-101796000D01*
G75*
G02*
X106643000Y-102046000I0J-250000D01*
G01*
X106643000Y-102721000D01*
G75*
G02*
X106393000Y-102971000I-250000J0D01*
G01*
G37*
%TD.AperFunction*%
%TD*%
%TO.P,FB3,1*%
%TO.N,Net-(FB3-Pad1)*%
%TA.AperFunction,SMDPad,CuDef*%
G36*
G01*
X129573000Y-99467000D02*
X130523000Y-99467000D01*
G75*
G02*
X130773000Y-99717000I0J-250000D01*
G01*
X130773000Y-100392000D01*
G75*
G02*
X130523000Y-100642000I-250000J0D01*
G01*
X129573000Y-100642000D01*
G75*
G02*
X129323000Y-100392000I0J250000D01*
G01*
X129323000Y-99717000D01*
G75*
G02*
X129573000Y-99467000I250000J0D01*
G01*
G37*
%TD.AperFunction*%
%TO.P,FB3,2*%
%TO.N,Net-(FB3-Pad2)*%
%TA.AperFunction,SMDPad,CuDef*%
G36*
G01*
X129573000Y-101542000D02*
X130523000Y-101542000D01*
G75*
G02*
X130773000Y-101792000I0J-250000D01*
G01*
X130773000Y-102467000D01*
G75*
G02*
X130523000Y-102717000I-250000J0D01*
G01*
X129573000Y-102717000D01*
G75*
G02*
X129323000Y-102467000I0J250000D01*
G01*
X129323000Y-101792000D01*
G75*
G02*
X129573000Y-101542000I250000J0D01*
G01*
G37*
%TD.AperFunction*%
%TD*%
%TO.P,FB4,2*%
%TO.N,Net-(FB4-Pad2)*%
%TA.AperFunction,SMDPad,CuDef*%
G36*
G01*
X153703000Y-101542000D02*
X154653000Y-101542000D01*
G75*
G02*
X154903000Y-101792000I0J-250000D01*
G01*
X154903000Y-102467000D01*
G75*
G02*
X154653000Y-102717000I-250000J0D01*
G01*
X153703000Y-102717000D01*
G75*
G02*
X153453000Y-102467000I0J250000D01*
G01*
X153453000Y-101792000D01*
G75*
G02*
X153703000Y-101542000I250000J0D01*
G01*
G37*
%TD.AperFunction*%
%TO.P,FB4,1*%
%TO.N,Net-(FB4-Pad1)*%
%TA.AperFunction,SMDPad,CuDef*%
G36*
G01*
X153703000Y-99467000D02*
X154653000Y-99467000D01*
G75*
G02*
X154903000Y-99717000I0J-250000D01*
G01*
X154903000Y-100392000D01*
G75*
G02*
X154653000Y-100642000I-250000J0D01*
G01*
X153703000Y-100642000D01*
G75*
G02*
X153453000Y-100392000I0J250000D01*
G01*
X153453000Y-99717000D01*
G75*
G02*
X153703000Y-99467000I250000J0D01*
G01*
G37*
%TD.AperFunction*%
%TD*%
%TO.P,FB5,2*%
%TO.N,Net-(FB5-Pad2)*%
%TA.AperFunction,SMDPad,CuDef*%
G36*
G01*
X120617000Y-100642000D02*
X119667000Y-100642000D01*
G75*
G02*
X119417000Y-100392000I0J250000D01*
G01*
X119417000Y-99717000D01*
G75*
G02*
X119667000Y-99467000I250000J0D01*
G01*
X120617000Y-99467000D01*
G75*
G02*
X120867000Y-99717000I0J-250000D01*
G01*
X120867000Y-100392000D01*
G75*
G02*
X120617000Y-100642000I-250000J0D01*
G01*
G37*
%TD.AperFunction*%
%TO.P,FB5,1*%
%TO.N,Net-(FB5-Pad1)*%
%TA.AperFunction,SMDPad,CuDef*%
G36*
G01*
X120617000Y-102717000D02*
X119667000Y-102717000D01*
G75*
G02*
X119417000Y-102467000I0J250000D01*
G01*
X119417000Y-101792000D01*
G75*
G02*
X119667000Y-101542000I250000J0D01*
G01*
X120617000Y-101542000D01*
G75*
G02*
X120867000Y-101792000I0J-250000D01*
G01*
X120867000Y-102467000D01*
G75*
G02*
X120617000Y-102717000I-250000J0D01*
G01*
G37*
%TD.AperFunction*%
%TD*%
%TO.P,FB6,1*%
%TO.N,Net-(FB6-Pad1)*%
%TA.AperFunction,SMDPad,CuDef*%
G36*
G01*
X144747000Y-102717000D02*
X143797000Y-102717000D01*
G75*
G02*
X143547000Y-102467000I0J250000D01*
G01*
X143547000Y-101792000D01*
G75*
G02*
X143797000Y-101542000I250000J0D01*
G01*
X144747000Y-101542000D01*
G75*
G02*
X144997000Y-101792000I0J-250000D01*
G01*
X144997000Y-102467000D01*
G75*
G02*
X144747000Y-102717000I-250000J0D01*
G01*
G37*
%TD.AperFunction*%
%TO.P,FB6,2*%
%TO.N,Net-(FB6-Pad2)*%
%TA.AperFunction,SMDPad,CuDef*%
G36*
G01*
X144747000Y-100642000D02*
X143797000Y-100642000D01*
G75*
G02*
X143547000Y-100392000I0J250000D01*
G01*
X143547000Y-99717000D01*
G75*
G02*
X143797000Y-99467000I250000J0D01*
G01*
X144747000Y-99467000D01*
G75*
G02*
X144997000Y-99717000I0J-250000D01*
G01*
X144997000Y-100392000D01*
G75*
G02*
X144747000Y-100642000I-250000J0D01*
G01*
G37*
%TD.AperFunction*%
%TD*%
%TO.P,R8,2*%
%TO.N,Midi_In_RX_Inv*%
%TA.AperFunction,SMDPad,CuDef*%
G36*
G01*
X88284000Y-142182001D02*
X88284000Y-141281999D01*
G75*
G02*
X88533999Y-141032000I249999J0D01*
G01*
X89234001Y-141032000D01*
G75*
G02*
X89484000Y-141281999I0J-249999D01*
G01*
X89484000Y-142182001D01*
G75*
G02*
X89234001Y-142432000I-249999J0D01*
G01*
X88533999Y-142432000D01*
G75*
G02*
X88284000Y-142182001I0J249999D01*
G01*
G37*
%TD.AperFunction*%
%TO.P,R8,1*%
%TO.N,Net-(D3-Pad2)*%
%TA.AperFunction,SMDPad,CuDef*%
G36*
G01*
X86284000Y-142182001D02*
X86284000Y-141281999D01*
G75*
G02*
X86533999Y-141032000I249999J0D01*
G01*
X87234001Y-141032000D01*
G75*
G02*
X87484000Y-141281999I0J-249999D01*
G01*
X87484000Y-142182001D01*
G75*
G02*
X87234001Y-142432000I-249999J0D01*
G01*
X86533999Y-142432000D01*
G75*
G02*
X86284000Y-142182001I0J249999D01*
G01*
G37*
%TD.AperFunction*%
%TD*%
%TO.P,R9,1*%
%TO.N,Net-(D4-Pad2)*%
%TA.AperFunction,SMDPad,CuDef*%
G36*
G01*
X96952000Y-142182001D02*
X96952000Y-141281999D01*
G75*
G02*
X97201999Y-141032000I249999J0D01*
G01*
X97902001Y-141032000D01*
G75*
G02*
X98152000Y-141281999I0J-249999D01*
G01*
X98152000Y-142182001D01*
G75*
G02*
X97902001Y-142432000I-249999J0D01*
G01*
X97201999Y-142432000D01*
G75*
G02*
X96952000Y-142182001I0J249999D01*
G01*
G37*
%TD.AperFunction*%
%TO.P,R9,2*%
%TO.N,Midi_Out_TX_INV*%
%TA.AperFunction,SMDPad,CuDef*%
G36*
G01*
X98952000Y-142182001D02*
X98952000Y-141281999D01*
G75*
G02*
X99201999Y-141032000I249999J0D01*
G01*
X99902001Y-141032000D01*
G75*
G02*
X100152000Y-141281999I0J-249999D01*
G01*
X100152000Y-142182001D01*
G75*
G02*
X99902001Y-142432000I-249999J0D01*
G01*
X99201999Y-142432000D01*
G75*
G02*
X98952000Y-142182001I0J249999D01*
G01*
G37*
%TD.AperFunction*%
%TD*%
%TO.P,U2,1*%
%TO.N,Midi_In_RX*%
%TA.AperFunction,SMDPad,CuDef*%
G36*
G01*
X82700000Y-116480000D02*
X82400000Y-116480000D01*
G75*
G02*
X82250000Y-116330000I0J150000D01*
G01*
X82250000Y-114680000D01*
G75*
G02*
X82400000Y-114530000I150000J0D01*
G01*
X82700000Y-114530000D01*
G75*
G02*
X82850000Y-114680000I0J-150000D01*
G01*
X82850000Y-116330000D01*
G75*
G02*
X82700000Y-116480000I-150000J0D01*
G01*
G37*
%TD.AperFunction*%
%TO.P,U2,2*%
%TO.N,Midi_In_RX_Inv*%
%TA.AperFunction,SMDPad,CuDef*%
G36*
G01*
X83970000Y-116480000D02*
X83670000Y-116480000D01*
G75*
G02*
X83520000Y-116330000I0J150000D01*
G01*
X83520000Y-114680000D01*
G75*
G02*
X83670000Y-114530000I150000J0D01*
G01*
X83970000Y-114530000D01*
G75*
G02*
X84120000Y-114680000I0J-150000D01*
G01*
X84120000Y-116330000D01*
G75*
G02*
X83970000Y-116480000I-150000J0D01*
G01*
G37*
%TD.AperFunction*%
%TO.P,U2,3*%
%TO.N,Midi_Out_TX*%
%TA.AperFunction,SMDPad,CuDef*%
G36*
G01*
X85240000Y-116480000D02*
X84940000Y-116480000D01*
G75*
G02*
X84790000Y-116330000I0J150000D01*
G01*
X84790000Y-114680000D01*
G75*
G02*
X84940000Y-114530000I150000J0D01*
G01*
X85240000Y-114530000D01*
G75*
G02*
X85390000Y-114680000I0J-150000D01*
G01*
X85390000Y-116330000D01*
G75*
G02*
X85240000Y-116480000I-150000J0D01*
G01*
G37*
%TD.AperFunction*%
%TO.P,U2,4*%
%TO.N,Midi_Out_TX_INV*%
%TA.AperFunction,SMDPad,CuDef*%
G36*
G01*
X86510000Y-116480000D02*
X86210000Y-116480000D01*
G75*
G02*
X86060000Y-116330000I0J150000D01*
G01*
X86060000Y-114680000D01*
G75*
G02*
X86210000Y-114530000I150000J0D01*
G01*
X86510000Y-114530000D01*
G75*
G02*
X86660000Y-114680000I0J-150000D01*
G01*
X86660000Y-116330000D01*
G75*
G02*
X86510000Y-116480000I-150000J0D01*
G01*
G37*
%TD.AperFunction*%
%TO.P,U2,5*%
%TO.N,GND*%
%TA.AperFunction,SMDPad,CuDef*%
G36*
G01*
X87780000Y-116480000D02*
X87480000Y-116480000D01*
G75*
G02*
X87330000Y-116330000I0J150000D01*
G01*
X87330000Y-114680000D01*
G75*
G02*
X87480000Y-114530000I150000J0D01*
G01*
X87780000Y-114530000D01*
G75*
G02*
X87930000Y-114680000I0J-150000D01*
G01*
X87930000Y-116330000D01*
G75*
G02*
X87780000Y-116480000I-150000J0D01*
G01*
G37*
%TD.AperFunction*%
%TO.P,U2,6*%
%TO.N,Net-(U2-Pad6)*%
%TA.AperFunction,SMDPad,CuDef*%
G36*
G01*
X89050000Y-116480000D02*
X88750000Y-116480000D01*
G75*
G02*
X88600000Y-116330000I0J150000D01*
G01*
X88600000Y-114680000D01*
G75*
G02*
X88750000Y-114530000I150000J0D01*
G01*
X89050000Y-114530000D01*
G75*
G02*
X89200000Y-114680000I0J-150000D01*
G01*
X89200000Y-116330000D01*
G75*
G02*
X89050000Y-116480000I-150000J0D01*
G01*
G37*
%TD.AperFunction*%
%TO.P,U2,7*%
%TO.N,GND*%
%TA.AperFunction,SMDPad,CuDef*%
G36*
G01*
X90320000Y-116480000D02*
X90020000Y-116480000D01*
G75*
G02*
X89870000Y-116330000I0J150000D01*
G01*
X89870000Y-114680000D01*
G75*
G02*
X90020000Y-114530000I150000J0D01*
G01*
X90320000Y-114530000D01*
G75*
G02*
X90470000Y-114680000I0J-150000D01*
G01*
X90470000Y-116330000D01*
G75*
G02*
X90320000Y-116480000I-150000J0D01*
G01*
G37*
%TD.AperFunction*%
%TO.P,U2,8*%
%TO.N,Net-(U2-Pad8)*%
%TA.AperFunction,SMDPad,CuDef*%
G36*
G01*
X90320000Y-111530000D02*
X90020000Y-111530000D01*
G75*
G02*
X89870000Y-111380000I0J150000D01*
G01*
X89870000Y-109730000D01*
G75*
G02*
X90020000Y-109580000I150000J0D01*
G01*
X90320000Y-109580000D01*
G75*
G02*
X90470000Y-109730000I0J-150000D01*
G01*
X90470000Y-111380000D01*
G75*
G02*
X90320000Y-111530000I-150000J0D01*
G01*
G37*
%TD.AperFunction*%
%TO.P,U2,9*%
%TO.N,GND*%
%TA.AperFunction,SMDPad,CuDef*%
G36*
G01*
X89050000Y-111530000D02*
X88750000Y-111530000D01*
G75*
G02*
X88600000Y-111380000I0J150000D01*
G01*
X88600000Y-109730000D01*
G75*
G02*
X88750000Y-109580000I150000J0D01*
G01*
X89050000Y-109580000D01*
G75*
G02*
X89200000Y-109730000I0J-150000D01*
G01*
X89200000Y-111380000D01*
G75*
G02*
X89050000Y-111530000I-150000J0D01*
G01*
G37*
%TD.AperFunction*%
%TO.P,U2,10*%
%TO.N,Net-(U2-Pad10)*%
%TA.AperFunction,SMDPad,CuDef*%
G36*
G01*
X87780000Y-111530000D02*
X87480000Y-111530000D01*
G75*
G02*
X87330000Y-111380000I0J150000D01*
G01*
X87330000Y-109730000D01*
G75*
G02*
X87480000Y-109580000I150000J0D01*
G01*
X87780000Y-109580000D01*
G75*
G02*
X87930000Y-109730000I0J-150000D01*
G01*
X87930000Y-111380000D01*
G75*
G02*
X87780000Y-111530000I-150000J0D01*
G01*
G37*
%TD.AperFunction*%
%TO.P,U2,11*%
%TO.N,GND*%
%TA.AperFunction,SMDPad,CuDef*%
G36*
G01*
X86510000Y-111530000D02*
X86210000Y-111530000D01*
G75*
G02*
X86060000Y-111380000I0J150000D01*
G01*
X86060000Y-109730000D01*
G75*
G02*
X86210000Y-109580000I150000J0D01*
G01*
X86510000Y-109580000D01*
G75*
G02*
X86660000Y-109730000I0J-150000D01*
G01*
X86660000Y-111380000D01*
G75*
G02*
X86510000Y-111530000I-150000J0D01*
G01*
G37*
%TD.AperFunction*%
%TO.P,U2,12*%
%TO.N,Net-(U2-Pad12)*%
%TA.AperFunction,SMDPad,CuDef*%
G36*
G01*
X85240000Y-111530000D02*
X84940000Y-111530000D01*
G75*
G02*
X84790000Y-111380000I0J150000D01*
G01*
X84790000Y-109730000D01*
G75*
G02*
X84940000Y-109580000I150000J0D01*
G01*
X85240000Y-109580000D01*
G75*
G02*
X85390000Y-109730000I0J-150000D01*
G01*
X85390000Y-111380000D01*
G75*
G02*
X85240000Y-111530000I-150000J0D01*
G01*
G37*
%TD.AperFunction*%
%TO.P,U2,13*%
%TO.N,GND*%
%TA.AperFunction,SMDPad,CuDef*%
G36*
G01*
X83970000Y-111530000D02*
X83670000Y-111530000D01*
G75*
G02*
X83520000Y-111380000I0J150000D01*
G01*
X83520000Y-109730000D01*
G75*
G02*
X83670000Y-109580000I150000J0D01*
G01*
X83970000Y-109580000D01*
G75*
G02*
X84120000Y-109730000I0J-150000D01*
G01*
X84120000Y-111380000D01*
G75*
G02*
X83970000Y-111530000I-150000J0D01*
G01*
G37*
%TD.AperFunction*%
%TO.P,U2,14*%
%TO.N,+3V3*%
%TA.AperFunction,SMDPad,CuDef*%
G36*
G01*
X82700000Y-111530000D02*
X82400000Y-111530000D01*
G75*
G02*
X82250000Y-111380000I0J150000D01*
G01*
X82250000Y-109730000D01*
G75*
G02*
X82400000Y-109580000I150000J0D01*
G01*
X82700000Y-109580000D01*
G75*
G02*
X82850000Y-109730000I0J-150000D01*
G01*
X82850000Y-111380000D01*
G75*
G02*
X82700000Y-111530000I-150000J0D01*
G01*
G37*
%TD.AperFunction*%
%TD*%
D17*
%TO.P,U3,2*%
%TO.N,+3V3*%
X68580000Y-110338000D03*
D18*
X68580000Y-104038000D03*
%TO.P,U3,3*%
%TO.N,+5V*%
X66280000Y-104038000D03*
%TO.P,U3,1*%
%TO.N,GND*%
X70880000Y-104038000D03*
%TD*%
D19*
%TO.N,Midi_Out_TX*%
X132080000Y-117094000D03*
X83566000Y-97282000D03*
X78740000Y-97282000D03*
X86082000Y-113538000D03*
%TO.N,Midi_In_RX*%
X93726000Y-111252000D03*
X84328000Y-112522000D03*
X97028000Y-105664000D03*
X155956000Y-101404500D03*
X155956000Y-101404500D03*
X92202000Y-105664000D03*
X77978000Y-102362000D03*
%TO.N,Net-(J2-Pad10)*%
X69342000Y-91186000D03*
X78994000Y-91186000D03*
%TO.N,+3V3*%
X73660000Y-106934000D03*
X150622000Y-104902000D03*
X90678000Y-104140000D03*
X82550000Y-108458000D03*
X92202000Y-109474000D03*
X126238000Y-105156000D03*
X70104000Y-115062000D03*
X74930000Y-116586000D03*
%TO.N,Midi_In_RX_Inv*%
X84582000Y-118364000D03*
X88646000Y-122936000D03*
%TO.N,Midi_Out_TX_INV*%
X86614000Y-117602000D03*
X99568000Y-127254000D03*
%TD*%
D20*
%TO.N,GND*%
X88900000Y-111530000D02*
X88900000Y-110555000D01*
X88574990Y-111855010D02*
X88900000Y-111530000D01*
X86685010Y-111855010D02*
X88574990Y-111855010D01*
X86360000Y-111530000D02*
X86685010Y-111855010D01*
X86360000Y-110555000D02*
X86360000Y-111530000D01*
%TO.N,Net-(D1-Pad1)*%
X109708000Y-114935000D02*
X109728000Y-114915000D01*
X105603000Y-114935000D02*
X109708000Y-114935000D01*
X104077989Y-113409989D02*
X104077989Y-105109989D01*
X104077989Y-105109989D02*
X99314000Y-100346000D01*
X105603000Y-114935000D02*
X104077989Y-113409989D01*
%TO.N,Net-(D1-Pad2)*%
X105623000Y-112415000D02*
X105603000Y-112395000D01*
X109728000Y-112415000D02*
X105623000Y-112415000D01*
X104527999Y-103773501D02*
X105918000Y-102383500D01*
X104527999Y-111319999D02*
X104527999Y-103773501D01*
X105603000Y-112395000D02*
X104527999Y-111319999D01*
%TO.N,Net-(D2-Pad2)*%
X73669000Y-141732000D02*
X76216000Y-141732000D01*
%TO.N,Midi_Out_TX*%
X134375010Y-114798990D02*
X132080000Y-117094000D01*
X134375010Y-101117010D02*
X134375010Y-114798990D01*
X133350000Y-100092000D02*
X134375010Y-101117010D01*
X85090000Y-114530000D02*
X85090000Y-115505000D01*
X85332000Y-114288000D02*
X85090000Y-114530000D01*
X86082000Y-113538000D02*
X85332000Y-114288000D01*
X75530001Y-88085999D02*
X75605000Y-88011000D01*
X75530001Y-94072001D02*
X75530001Y-88085999D01*
X78740000Y-97282000D02*
X75530001Y-94072001D01*
X85734990Y-99450990D02*
X85734990Y-113190990D01*
X85734990Y-113190990D02*
X86082000Y-113538000D01*
X83566000Y-97282000D02*
X85734990Y-99450990D01*
%TO.N,Midi_In_RX*%
X95123000Y-109855000D02*
X93726000Y-111252000D01*
X96073000Y-109855000D02*
X95123000Y-109855000D01*
X82550000Y-114300000D02*
X82550000Y-115505000D01*
X84328000Y-112522000D02*
X82550000Y-114300000D01*
X96073000Y-106619000D02*
X97028000Y-105664000D01*
X96073000Y-109855000D02*
X96073000Y-106619000D01*
X92710000Y-103256000D02*
X96073000Y-106619000D01*
X92710000Y-102346000D02*
X92710000Y-103256000D01*
X156167500Y-101404500D02*
X157480000Y-100092000D01*
X155956000Y-101404500D02*
X156167500Y-101404500D01*
X92710000Y-105156000D02*
X92202000Y-105664000D01*
X92710000Y-102346000D02*
X92710000Y-105156000D01*
X73679999Y-88085999D02*
X73605000Y-88011000D01*
X73679999Y-98063999D02*
X73679999Y-88085999D01*
X77978000Y-102362000D02*
X73679999Y-98063999D01*
%TO.N,Net-(J2-Pad10)*%
X68205000Y-80261000D02*
X81005000Y-80261000D01*
X81005000Y-80261000D02*
X81005000Y-88761000D01*
X68205000Y-90049000D02*
X69342000Y-91186000D01*
X68205000Y-88761000D02*
X68205000Y-90049000D01*
X81005000Y-89175000D02*
X81005000Y-88761000D01*
X78994000Y-91186000D02*
X81005000Y-89175000D01*
D21*
%TO.N,+5V*%
X66280000Y-101338500D02*
X66280000Y-104038000D01*
X68812500Y-98806000D02*
X66280000Y-101338500D01*
X66904990Y-96898490D02*
X68812500Y-98806000D01*
X66904990Y-87622519D02*
X66904990Y-96898490D01*
X67816510Y-86710999D02*
X66904990Y-87622519D01*
X76804999Y-86710999D02*
X67816510Y-86710999D01*
X78105000Y-88011000D02*
X76804999Y-86710999D01*
D20*
%TO.N,Net-(D3-Pad2)*%
X84337000Y-141732000D02*
X86884000Y-141732000D01*
%TO.N,Net-(D4-Pad2)*%
X95005000Y-141732000D02*
X97552000Y-141732000D01*
%TO.N,Net-(FB1-Pad1)*%
X99276500Y-102383500D02*
X99314000Y-102346000D01*
X96012000Y-102383500D02*
X99276500Y-102383500D01*
%TO.N,Net-(FB1-Pad2)*%
X95965000Y-100261500D02*
X96012000Y-100308500D01*
X95965000Y-91225000D02*
X95965000Y-100261500D01*
%TO.N,Net-(FB2-Pad2)*%
X105918000Y-91272000D02*
X105965000Y-91225000D01*
X105918000Y-100308500D02*
X105918000Y-91272000D01*
%TO.N,Net-(FB3-Pad1)*%
X130095000Y-100007500D02*
X130048000Y-100054500D01*
X130095000Y-91225000D02*
X130095000Y-100007500D01*
%TO.N,Net-(FB3-Pad2)*%
X133312500Y-102129500D02*
X133350000Y-102092000D01*
X130048000Y-102129500D02*
X133312500Y-102129500D01*
%TO.N,Net-(FB4-Pad2)*%
X157442500Y-102129500D02*
X157480000Y-102092000D01*
X154178000Y-102129500D02*
X157442500Y-102129500D01*
%TO.N,Net-(FB4-Pad1)*%
X154225000Y-100007500D02*
X154178000Y-100054500D01*
X154225000Y-91225000D02*
X154225000Y-100007500D01*
%TO.N,Net-(FB5-Pad2)*%
X120095000Y-100007500D02*
X120142000Y-100054500D01*
X120095000Y-91225000D02*
X120095000Y-100007500D01*
%TO.N,Net-(FB5-Pad1)*%
X123406500Y-102129500D02*
X123444000Y-102092000D01*
X120142000Y-102129500D02*
X123406500Y-102129500D01*
%TO.N,Net-(FB6-Pad1)*%
X147536500Y-102129500D02*
X147574000Y-102092000D01*
X144272000Y-102129500D02*
X147536500Y-102129500D01*
%TO.N,Net-(FB6-Pad2)*%
X144225000Y-100007500D02*
X144272000Y-100054500D01*
X144225000Y-91225000D02*
X144225000Y-100007500D01*
D21*
%TO.N,+3V3*%
X68580000Y-104038000D02*
X68580000Y-110338000D01*
X82550000Y-109647902D02*
X82550000Y-110555000D01*
X96073000Y-114935000D02*
X95712998Y-114935000D01*
X78216000Y-141875520D02*
X78216000Y-141732000D01*
X69476000Y-106934000D02*
X73660000Y-106934000D01*
X68580000Y-106038000D02*
X69476000Y-106934000D01*
X68580000Y-104038000D02*
X68580000Y-106038000D01*
X150622000Y-102440000D02*
X150622000Y-104902000D01*
X148274000Y-100092000D02*
X150622000Y-102440000D01*
X147574000Y-100092000D02*
X148274000Y-100092000D01*
X90678000Y-101678000D02*
X90678000Y-104140000D01*
X92010000Y-100346000D02*
X90678000Y-101678000D01*
X92710000Y-100346000D02*
X92010000Y-100346000D01*
X82550000Y-110555000D02*
X82550000Y-108458000D01*
X95780998Y-114935000D02*
X96073000Y-114935000D01*
X92202000Y-111356002D02*
X95780998Y-114935000D01*
X92202000Y-109474000D02*
X92202000Y-111356002D01*
X126238000Y-102186000D02*
X126238000Y-105156000D01*
X124144000Y-100092000D02*
X126238000Y-102186000D01*
X123444000Y-100092000D02*
X124144000Y-100092000D01*
X68580000Y-113538000D02*
X70104000Y-115062000D01*
X68580000Y-110338000D02*
X68580000Y-113538000D01*
X77516010Y-141032010D02*
X78216000Y-141732000D01*
X77516010Y-119172010D02*
X77516010Y-141032010D01*
X74930000Y-116586000D02*
X77516010Y-119172010D01*
D20*
%TO.N,Midi_In_RX_Inv*%
X83820000Y-117602000D02*
X84582000Y-118364000D01*
X83820000Y-115505000D02*
X83820000Y-117602000D01*
X88646000Y-141494000D02*
X88884000Y-141732000D01*
X88646000Y-122936000D02*
X88646000Y-141494000D01*
%TO.N,Midi_Out_TX_INV*%
X86360000Y-117348000D02*
X86614000Y-117602000D01*
X86360000Y-115505000D02*
X86360000Y-117348000D01*
X99568000Y-141716000D02*
X99552000Y-141732000D01*
X99568000Y-127254000D02*
X99568000Y-141716000D01*
%TD*%
D22*
%TO.N,GND*%
X95415166Y-76912439D02*
X95072118Y-77054534D01*
X94763382Y-77260825D01*
X94500825Y-77523382D01*
X94294534Y-77832118D01*
X94152439Y-78175166D01*
X94080000Y-78539344D01*
X94080000Y-78910656D01*
X94152439Y-79274834D01*
X94294534Y-79617882D01*
X94500825Y-79926618D01*
X94763382Y-80189175D01*
X95072118Y-80395466D01*
X95415166Y-80537561D01*
X95779344Y-80610000D01*
X96150656Y-80610000D01*
X96514834Y-80537561D01*
X96857882Y-80395466D01*
X97166618Y-80189175D01*
X97429175Y-79926618D01*
X97635466Y-79617882D01*
X97777561Y-79274834D01*
X97850000Y-78910656D01*
X97850000Y-78539344D01*
X97777561Y-78175166D01*
X97635466Y-77832118D01*
X97429175Y-77523382D01*
X97166618Y-77260825D01*
X96857882Y-77054534D01*
X96514834Y-76912439D01*
X96251203Y-76860000D01*
X105678797Y-76860000D01*
X105415166Y-76912439D01*
X105072118Y-77054534D01*
X104763382Y-77260825D01*
X104500825Y-77523382D01*
X104294534Y-77832118D01*
X104152439Y-78175166D01*
X104080000Y-78539344D01*
X104080000Y-78910656D01*
X104152439Y-79274834D01*
X104294534Y-79617882D01*
X104500825Y-79926618D01*
X104763382Y-80189175D01*
X105072118Y-80395466D01*
X105415166Y-80537561D01*
X105779344Y-80610000D01*
X106150656Y-80610000D01*
X106514834Y-80537561D01*
X106857882Y-80395466D01*
X107166618Y-80189175D01*
X107429175Y-79926618D01*
X107635466Y-79617882D01*
X107777561Y-79274834D01*
X107850000Y-78910656D01*
X107850000Y-78539344D01*
X107777561Y-78175166D01*
X107635466Y-77832118D01*
X107429175Y-77523382D01*
X107166618Y-77260825D01*
X106857882Y-77054534D01*
X106514834Y-76912439D01*
X106251203Y-76860000D01*
X119808797Y-76860000D01*
X119545166Y-76912439D01*
X119202118Y-77054534D01*
X118893382Y-77260825D01*
X118630825Y-77523382D01*
X118424534Y-77832118D01*
X118282439Y-78175166D01*
X118210000Y-78539344D01*
X118210000Y-78910656D01*
X118282439Y-79274834D01*
X118424534Y-79617882D01*
X118630825Y-79926618D01*
X118893382Y-80189175D01*
X119202118Y-80395466D01*
X119545166Y-80537561D01*
X119909344Y-80610000D01*
X120280656Y-80610000D01*
X120644834Y-80537561D01*
X120987882Y-80395466D01*
X121296618Y-80189175D01*
X121559175Y-79926618D01*
X121765466Y-79617882D01*
X121907561Y-79274834D01*
X121980000Y-78910656D01*
X121980000Y-78539344D01*
X121907561Y-78175166D01*
X121765466Y-77832118D01*
X121559175Y-77523382D01*
X121296618Y-77260825D01*
X120987882Y-77054534D01*
X120644834Y-76912439D01*
X120381203Y-76860000D01*
X129808797Y-76860000D01*
X129545166Y-76912439D01*
X129202118Y-77054534D01*
X128893382Y-77260825D01*
X128630825Y-77523382D01*
X128424534Y-77832118D01*
X128282439Y-78175166D01*
X128210000Y-78539344D01*
X128210000Y-78910656D01*
X128282439Y-79274834D01*
X128424534Y-79617882D01*
X128630825Y-79926618D01*
X128893382Y-80189175D01*
X129202118Y-80395466D01*
X129545166Y-80537561D01*
X129909344Y-80610000D01*
X130280656Y-80610000D01*
X130644834Y-80537561D01*
X130987882Y-80395466D01*
X131296618Y-80189175D01*
X131559175Y-79926618D01*
X131765466Y-79617882D01*
X131907561Y-79274834D01*
X131980000Y-78910656D01*
X131980000Y-78539344D01*
X131907561Y-78175166D01*
X131765466Y-77832118D01*
X131559175Y-77523382D01*
X131296618Y-77260825D01*
X130987882Y-77054534D01*
X130644834Y-76912439D01*
X130381203Y-76860000D01*
X143938797Y-76860000D01*
X143675166Y-76912439D01*
X143332118Y-77054534D01*
X143023382Y-77260825D01*
X142760825Y-77523382D01*
X142554534Y-77832118D01*
X142412439Y-78175166D01*
X142340000Y-78539344D01*
X142340000Y-78910656D01*
X142412439Y-79274834D01*
X142554534Y-79617882D01*
X142760825Y-79926618D01*
X143023382Y-80189175D01*
X143332118Y-80395466D01*
X143675166Y-80537561D01*
X144039344Y-80610000D01*
X144410656Y-80610000D01*
X144774834Y-80537561D01*
X145117882Y-80395466D01*
X145426618Y-80189175D01*
X145689175Y-79926618D01*
X145895466Y-79617882D01*
X146037561Y-79274834D01*
X146110000Y-78910656D01*
X146110000Y-78539344D01*
X146037561Y-78175166D01*
X145895466Y-77832118D01*
X145689175Y-77523382D01*
X145426618Y-77260825D01*
X145117882Y-77054534D01*
X144774834Y-76912439D01*
X144511203Y-76860000D01*
X153938797Y-76860000D01*
X153675166Y-76912439D01*
X153332118Y-77054534D01*
X153023382Y-77260825D01*
X152760825Y-77523382D01*
X152554534Y-77832118D01*
X152412439Y-78175166D01*
X152340000Y-78539344D01*
X152340000Y-78910656D01*
X152412439Y-79274834D01*
X152554534Y-79617882D01*
X152760825Y-79926618D01*
X153023382Y-80189175D01*
X153332118Y-80395466D01*
X153675166Y-80537561D01*
X154039344Y-80610000D01*
X154410656Y-80610000D01*
X154774834Y-80537561D01*
X155117882Y-80395466D01*
X155426618Y-80189175D01*
X155689175Y-79926618D01*
X155895466Y-79617882D01*
X156037561Y-79274834D01*
X156110000Y-78910656D01*
X156110000Y-78539344D01*
X156037561Y-78175166D01*
X155895466Y-77832118D01*
X155689175Y-77523382D01*
X155426618Y-77260825D01*
X155117882Y-77054534D01*
X154774834Y-76912439D01*
X154511203Y-76860000D01*
X163110105Y-76860000D01*
X162816174Y-77056399D01*
X162400399Y-77472174D01*
X162073727Y-77961072D01*
X161848712Y-78504308D01*
X161734000Y-79081003D01*
X161734000Y-79668997D01*
X161848712Y-80245692D01*
X162073727Y-80788928D01*
X162400399Y-81277826D01*
X162816174Y-81693601D01*
X163305072Y-82020273D01*
X163848308Y-82245288D01*
X164425003Y-82360000D01*
X165012997Y-82360000D01*
X165589692Y-82245288D01*
X166132928Y-82020273D01*
X166621826Y-81693601D01*
X167037601Y-81277826D01*
X167234001Y-80983893D01*
X167234000Y-139996105D01*
X167037601Y-139702174D01*
X166621826Y-139286399D01*
X166132928Y-138959727D01*
X165589692Y-138734712D01*
X165012997Y-138620000D01*
X164425003Y-138620000D01*
X163848308Y-138734712D01*
X163305072Y-138959727D01*
X162816174Y-139286399D01*
X162400399Y-139702174D01*
X162073727Y-140191072D01*
X161848712Y-140734308D01*
X161734000Y-141311003D01*
X161734000Y-141898997D01*
X161848712Y-142475692D01*
X162073727Y-143018928D01*
X162400399Y-143507826D01*
X162816174Y-143923601D01*
X163110105Y-144120000D01*
X65743895Y-144120000D01*
X66037826Y-143923601D01*
X66453601Y-143507826D01*
X66780273Y-143018928D01*
X67005288Y-142475692D01*
X67013978Y-142432000D01*
X70405928Y-142432000D01*
X70418188Y-142556482D01*
X70454498Y-142676180D01*
X70513463Y-142786494D01*
X70592815Y-142883185D01*
X70689506Y-142962537D01*
X70799820Y-143021502D01*
X70919518Y-143057812D01*
X71044000Y-143070072D01*
X71333250Y-143067000D01*
X71492000Y-142908250D01*
X71492000Y-141859000D01*
X70567750Y-141859000D01*
X70409000Y-142017750D01*
X70405928Y-142432000D01*
X67013978Y-142432000D01*
X67120000Y-141898997D01*
X67120000Y-141311003D01*
X67064503Y-141032000D01*
X70405928Y-141032000D01*
X70409000Y-141446250D01*
X70567750Y-141605000D01*
X71492000Y-141605000D01*
X71492000Y-140555750D01*
X71746000Y-140555750D01*
X71746000Y-141605000D01*
X71766000Y-141605000D01*
X71766000Y-141859000D01*
X71746000Y-141859000D01*
X71746000Y-142908250D01*
X71904750Y-143067000D01*
X72194000Y-143070072D01*
X72318482Y-143057812D01*
X72438180Y-143021502D01*
X72548494Y-142962537D01*
X72645185Y-142883185D01*
X72710658Y-142803406D01*
X72716038Y-142809962D01*
X72850613Y-142920405D01*
X73004149Y-143002472D01*
X73170745Y-143053008D01*
X73343999Y-143070072D01*
X73994001Y-143070072D01*
X74167255Y-143053008D01*
X74333851Y-143002472D01*
X74487387Y-142920405D01*
X74621962Y-142809962D01*
X74732405Y-142675387D01*
X74814472Y-142521851D01*
X74823527Y-142492000D01*
X75036473Y-142492000D01*
X75045528Y-142521851D01*
X75127595Y-142675387D01*
X75238038Y-142809962D01*
X75372613Y-142920405D01*
X75526149Y-143002472D01*
X75692745Y-143053008D01*
X75865999Y-143070072D01*
X76566001Y-143070072D01*
X76739255Y-143053008D01*
X76905851Y-143002472D01*
X77059387Y-142920405D01*
X77193962Y-142809962D01*
X77216000Y-142783109D01*
X77238038Y-142809962D01*
X77372613Y-142920405D01*
X77526149Y-143002472D01*
X77692745Y-143053008D01*
X77865999Y-143070072D01*
X78566001Y-143070072D01*
X78739255Y-143053008D01*
X78905851Y-143002472D01*
X79059387Y-142920405D01*
X79193962Y-142809962D01*
X79304405Y-142675387D01*
X79386472Y-142521851D01*
X79413727Y-142432000D01*
X81073928Y-142432000D01*
X81086188Y-142556482D01*
X81122498Y-142676180D01*
X81181463Y-142786494D01*
X81260815Y-142883185D01*
X81357506Y-142962537D01*
X81467820Y-143021502D01*
X81587518Y-143057812D01*
X81712000Y-143070072D01*
X82001250Y-143067000D01*
X82160000Y-142908250D01*
X82160000Y-141859000D01*
X81235750Y-141859000D01*
X81077000Y-142017750D01*
X81073928Y-142432000D01*
X79413727Y-142432000D01*
X79437008Y-142355255D01*
X79454072Y-142182001D01*
X79454072Y-141281999D01*
X79437008Y-141108745D01*
X79413728Y-141032000D01*
X81073928Y-141032000D01*
X81077000Y-141446250D01*
X81235750Y-141605000D01*
X82160000Y-141605000D01*
X82160000Y-140555750D01*
X82414000Y-140555750D01*
X82414000Y-141605000D01*
X82434000Y-141605000D01*
X82434000Y-141859000D01*
X82414000Y-141859000D01*
X82414000Y-142908250D01*
X82572750Y-143067000D01*
X82862000Y-143070072D01*
X82986482Y-143057812D01*
X83106180Y-143021502D01*
X83216494Y-142962537D01*
X83313185Y-142883185D01*
X83378658Y-142803406D01*
X83384038Y-142809962D01*
X83518613Y-142920405D01*
X83672149Y-143002472D01*
X83838745Y-143053008D01*
X84011999Y-143070072D01*
X84662001Y-143070072D01*
X84835255Y-143053008D01*
X85001851Y-143002472D01*
X85155387Y-142920405D01*
X85289962Y-142809962D01*
X85400405Y-142675387D01*
X85482472Y-142521851D01*
X85491527Y-142492000D01*
X85704473Y-142492000D01*
X85713528Y-142521851D01*
X85795595Y-142675387D01*
X85906038Y-142809962D01*
X86040613Y-142920405D01*
X86194149Y-143002472D01*
X86360745Y-143053008D01*
X86533999Y-143070072D01*
X87234001Y-143070072D01*
X87407255Y-143053008D01*
X87573851Y-143002472D01*
X87727387Y-142920405D01*
X87861962Y-142809962D01*
X87884000Y-142783109D01*
X87906038Y-142809962D01*
X88040613Y-142920405D01*
X88194149Y-143002472D01*
X88360745Y-143053008D01*
X88533999Y-143070072D01*
X89234001Y-143070072D01*
X89407255Y-143053008D01*
X89573851Y-143002472D01*
X89727387Y-142920405D01*
X89861962Y-142809962D01*
X89972405Y-142675387D01*
X90054472Y-142521851D01*
X90081727Y-142432000D01*
X91741928Y-142432000D01*
X91754188Y-142556482D01*
X91790498Y-142676180D01*
X91849463Y-142786494D01*
X91928815Y-142883185D01*
X92025506Y-142962537D01*
X92135820Y-143021502D01*
X92255518Y-143057812D01*
X92380000Y-143070072D01*
X92669250Y-143067000D01*
X92828000Y-142908250D01*
X92828000Y-141859000D01*
X91903750Y-141859000D01*
X91745000Y-142017750D01*
X91741928Y-142432000D01*
X90081727Y-142432000D01*
X90105008Y-142355255D01*
X90122072Y-142182001D01*
X90122072Y-141281999D01*
X90105008Y-141108745D01*
X90081728Y-141032000D01*
X91741928Y-141032000D01*
X91745000Y-141446250D01*
X91903750Y-141605000D01*
X92828000Y-141605000D01*
X92828000Y-140555750D01*
X93082000Y-140555750D01*
X93082000Y-141605000D01*
X93102000Y-141605000D01*
X93102000Y-141859000D01*
X93082000Y-141859000D01*
X93082000Y-142908250D01*
X93240750Y-143067000D01*
X93530000Y-143070072D01*
X93654482Y-143057812D01*
X93774180Y-143021502D01*
X93884494Y-142962537D01*
X93981185Y-142883185D01*
X94046658Y-142803406D01*
X94052038Y-142809962D01*
X94186613Y-142920405D01*
X94340149Y-143002472D01*
X94506745Y-143053008D01*
X94679999Y-143070072D01*
X95330001Y-143070072D01*
X95503255Y-143053008D01*
X95669851Y-143002472D01*
X95823387Y-142920405D01*
X95957962Y-142809962D01*
X96068405Y-142675387D01*
X96150472Y-142521851D01*
X96159527Y-142492000D01*
X96372473Y-142492000D01*
X96381528Y-142521851D01*
X96463595Y-142675387D01*
X96574038Y-142809962D01*
X96708613Y-142920405D01*
X96862149Y-143002472D01*
X97028745Y-143053008D01*
X97201999Y-143070072D01*
X97902001Y-143070072D01*
X98075255Y-143053008D01*
X98241851Y-143002472D01*
X98395387Y-142920405D01*
X98529962Y-142809962D01*
X98552000Y-142783109D01*
X98574038Y-142809962D01*
X98708613Y-142920405D01*
X98862149Y-143002472D01*
X99028745Y-143053008D01*
X99201999Y-143070072D01*
X99902001Y-143070072D01*
X100075255Y-143053008D01*
X100241851Y-143002472D01*
X100395387Y-142920405D01*
X100529962Y-142809962D01*
X100640405Y-142675387D01*
X100722472Y-142521851D01*
X100773008Y-142355255D01*
X100790072Y-142182001D01*
X100790072Y-141281999D01*
X100773008Y-141108745D01*
X100722472Y-140942149D01*
X100640405Y-140788613D01*
X100529962Y-140654038D01*
X100395387Y-140543595D01*
X100328000Y-140507576D01*
X100328000Y-127957711D01*
X100371937Y-127913774D01*
X100485205Y-127744256D01*
X100563226Y-127555898D01*
X100603000Y-127355939D01*
X100603000Y-127152061D01*
X100563226Y-126952102D01*
X100485205Y-126763744D01*
X100371937Y-126594226D01*
X100227774Y-126450063D01*
X100058256Y-126336795D01*
X99869898Y-126258774D01*
X99669939Y-126219000D01*
X99466061Y-126219000D01*
X99266102Y-126258774D01*
X99077744Y-126336795D01*
X98908226Y-126450063D01*
X98764063Y-126594226D01*
X98650795Y-126763744D01*
X98572774Y-126952102D01*
X98533000Y-127152061D01*
X98533000Y-127355939D01*
X98572774Y-127555898D01*
X98650795Y-127744256D01*
X98764063Y-127913774D01*
X98808000Y-127957711D01*
X98808001Y-140490471D01*
X98708613Y-140543595D01*
X98574038Y-140654038D01*
X98552000Y-140680891D01*
X98529962Y-140654038D01*
X98395387Y-140543595D01*
X98241851Y-140461528D01*
X98075255Y-140410992D01*
X97902001Y-140393928D01*
X97201999Y-140393928D01*
X97028745Y-140410992D01*
X96862149Y-140461528D01*
X96708613Y-140543595D01*
X96574038Y-140654038D01*
X96463595Y-140788613D01*
X96381528Y-140942149D01*
X96372473Y-140972000D01*
X96159527Y-140972000D01*
X96150472Y-140942149D01*
X96068405Y-140788613D01*
X95957962Y-140654038D01*
X95823387Y-140543595D01*
X95669851Y-140461528D01*
X95503255Y-140410992D01*
X95330001Y-140393928D01*
X94679999Y-140393928D01*
X94506745Y-140410992D01*
X94340149Y-140461528D01*
X94186613Y-140543595D01*
X94052038Y-140654038D01*
X94046658Y-140660594D01*
X93981185Y-140580815D01*
X93884494Y-140501463D01*
X93774180Y-140442498D01*
X93654482Y-140406188D01*
X93530000Y-140393928D01*
X93240750Y-140397000D01*
X93082000Y-140555750D01*
X92828000Y-140555750D01*
X92669250Y-140397000D01*
X92380000Y-140393928D01*
X92255518Y-140406188D01*
X92135820Y-140442498D01*
X92025506Y-140501463D01*
X91928815Y-140580815D01*
X91849463Y-140677506D01*
X91790498Y-140787820D01*
X91754188Y-140907518D01*
X91741928Y-141032000D01*
X90081728Y-141032000D01*
X90054472Y-140942149D01*
X89972405Y-140788613D01*
X89861962Y-140654038D01*
X89727387Y-140543595D01*
X89573851Y-140461528D01*
X89407255Y-140410992D01*
X89406000Y-140410868D01*
X89406000Y-123639711D01*
X89449937Y-123595774D01*
X89563205Y-123426256D01*
X89641226Y-123237898D01*
X89681000Y-123037939D01*
X89681000Y-122834061D01*
X89641226Y-122634102D01*
X89563205Y-122445744D01*
X89449937Y-122276226D01*
X89305774Y-122132063D01*
X89136256Y-122018795D01*
X88947898Y-121940774D01*
X88747939Y-121901000D01*
X88544061Y-121901000D01*
X88344102Y-121940774D01*
X88155744Y-122018795D01*
X87986226Y-122132063D01*
X87842063Y-122276226D01*
X87728795Y-122445744D01*
X87650774Y-122634102D01*
X87611000Y-122834061D01*
X87611000Y-123037939D01*
X87650774Y-123237898D01*
X87728795Y-123426256D01*
X87842063Y-123595774D01*
X87886000Y-123639711D01*
X87886001Y-140678453D01*
X87884000Y-140680891D01*
X87861962Y-140654038D01*
X87727387Y-140543595D01*
X87573851Y-140461528D01*
X87407255Y-140410992D01*
X87234001Y-140393928D01*
X86533999Y-140393928D01*
X86360745Y-140410992D01*
X86194149Y-140461528D01*
X86040613Y-140543595D01*
X85906038Y-140654038D01*
X85795595Y-140788613D01*
X85713528Y-140942149D01*
X85704473Y-140972000D01*
X85491527Y-140972000D01*
X85482472Y-140942149D01*
X85400405Y-140788613D01*
X85289962Y-140654038D01*
X85155387Y-140543595D01*
X85001851Y-140461528D01*
X84835255Y-140410992D01*
X84662001Y-140393928D01*
X84011999Y-140393928D01*
X83838745Y-140410992D01*
X83672149Y-140461528D01*
X83518613Y-140543595D01*
X83384038Y-140654038D01*
X83378658Y-140660594D01*
X83313185Y-140580815D01*
X83216494Y-140501463D01*
X83106180Y-140442498D01*
X82986482Y-140406188D01*
X82862000Y-140393928D01*
X82572750Y-140397000D01*
X82414000Y-140555750D01*
X82160000Y-140555750D01*
X82001250Y-140397000D01*
X81712000Y-140393928D01*
X81587518Y-140406188D01*
X81467820Y-140442498D01*
X81357506Y-140501463D01*
X81260815Y-140580815D01*
X81181463Y-140677506D01*
X81122498Y-140787820D01*
X81086188Y-140907518D01*
X81073928Y-141032000D01*
X79413728Y-141032000D01*
X79386472Y-140942149D01*
X79304405Y-140788613D01*
X79193962Y-140654038D01*
X79059387Y-140543595D01*
X78905851Y-140461528D01*
X78739255Y-140410992D01*
X78651010Y-140402301D01*
X78651010Y-119227751D01*
X78656500Y-119172009D01*
X78651010Y-119116267D01*
X78651010Y-119116258D01*
X78634587Y-118949511D01*
X78569686Y-118735563D01*
X78464294Y-118538387D01*
X78322459Y-118365561D01*
X78279151Y-118330019D01*
X75693143Y-115744012D01*
X75563622Y-115637717D01*
X75366446Y-115532324D01*
X75152498Y-115467423D01*
X74930000Y-115445509D01*
X74707502Y-115467423D01*
X74493554Y-115532324D01*
X74296378Y-115637717D01*
X74123552Y-115779552D01*
X73981717Y-115952378D01*
X73876324Y-116149554D01*
X73811423Y-116363502D01*
X73789509Y-116586000D01*
X73811423Y-116808498D01*
X73876324Y-117022446D01*
X73981717Y-117219622D01*
X74088012Y-117349143D01*
X76381010Y-119642142D01*
X76381011Y-140393928D01*
X75865999Y-140393928D01*
X75692745Y-140410992D01*
X75526149Y-140461528D01*
X75372613Y-140543595D01*
X75238038Y-140654038D01*
X75127595Y-140788613D01*
X75045528Y-140942149D01*
X75036473Y-140972000D01*
X74823527Y-140972000D01*
X74814472Y-140942149D01*
X74732405Y-140788613D01*
X74621962Y-140654038D01*
X74487387Y-140543595D01*
X74333851Y-140461528D01*
X74167255Y-140410992D01*
X73994001Y-140393928D01*
X73343999Y-140393928D01*
X73170745Y-140410992D01*
X73004149Y-140461528D01*
X72850613Y-140543595D01*
X72716038Y-140654038D01*
X72710658Y-140660594D01*
X72645185Y-140580815D01*
X72548494Y-140501463D01*
X72438180Y-140442498D01*
X72318482Y-140406188D01*
X72194000Y-140393928D01*
X71904750Y-140397000D01*
X71746000Y-140555750D01*
X71492000Y-140555750D01*
X71333250Y-140397000D01*
X71044000Y-140393928D01*
X70919518Y-140406188D01*
X70799820Y-140442498D01*
X70689506Y-140501463D01*
X70592815Y-140580815D01*
X70513463Y-140677506D01*
X70454498Y-140787820D01*
X70418188Y-140907518D01*
X70405928Y-141032000D01*
X67064503Y-141032000D01*
X67005288Y-140734308D01*
X66780273Y-140191072D01*
X66453601Y-139702174D01*
X66037826Y-139286399D01*
X65548928Y-138959727D01*
X65005692Y-138734712D01*
X64428997Y-138620000D01*
X63841003Y-138620000D01*
X63264308Y-138734712D01*
X62721072Y-138959727D01*
X62232174Y-139286399D01*
X61816399Y-139702174D01*
X61620000Y-139996105D01*
X61620000Y-80983895D01*
X61816399Y-81277826D01*
X62232174Y-81693601D01*
X62721072Y-82020273D01*
X63264308Y-82245288D01*
X63841003Y-82360000D01*
X64428997Y-82360000D01*
X65005692Y-82245288D01*
X65548928Y-82020273D01*
X66037826Y-81693601D01*
X66453601Y-81277826D01*
X66780273Y-80788928D01*
X66970000Y-80330885D01*
X66970000Y-80771664D01*
X66987870Y-80953101D01*
X67058489Y-81185900D01*
X67173167Y-81400448D01*
X67327498Y-81588502D01*
X67515551Y-81742833D01*
X67730099Y-81857511D01*
X67962898Y-81928130D01*
X68205000Y-81951975D01*
X68447101Y-81928130D01*
X68679900Y-81857511D01*
X68894448Y-81742833D01*
X69082502Y-81588502D01*
X69236833Y-81400449D01*
X69351511Y-81185901D01*
X69401533Y-81021000D01*
X79808467Y-81021000D01*
X79858489Y-81185900D01*
X79973167Y-81400448D01*
X80127498Y-81588502D01*
X80245000Y-81684933D01*
X80245001Y-87187067D01*
X80127499Y-87283498D01*
X79973168Y-87471551D01*
X79858489Y-87686099D01*
X79787870Y-87918898D01*
X79770000Y-88100335D01*
X79770000Y-89096348D01*
X79699443Y-88926008D01*
X79564287Y-88723733D01*
X79392267Y-88551713D01*
X79255607Y-88460400D01*
X79292540Y-88371236D01*
X79340000Y-88132637D01*
X79340000Y-87889363D01*
X79292540Y-87650764D01*
X79199443Y-87426008D01*
X79064287Y-87223733D01*
X78892267Y-87051713D01*
X78689992Y-86916557D01*
X78563148Y-86864017D01*
X77646995Y-85947864D01*
X77611448Y-85904550D01*
X77438622Y-85762715D01*
X77241446Y-85657323D01*
X77027498Y-85592422D01*
X76860751Y-85575999D01*
X76860750Y-85575999D01*
X76804999Y-85570508D01*
X76749248Y-85575999D01*
X67872261Y-85575999D01*
X67816510Y-85570508D01*
X67760758Y-85575999D01*
X67594011Y-85592422D01*
X67380063Y-85657323D01*
X67182887Y-85762715D01*
X67010061Y-85904550D01*
X66974518Y-85947859D01*
X66141854Y-86780524D01*
X66098541Y-86816070D01*
X65956706Y-86988896D01*
X65851315Y-87186072D01*
X65851314Y-87186073D01*
X65786413Y-87400021D01*
X65764499Y-87622519D01*
X65769990Y-87678271D01*
X65769991Y-96842729D01*
X65764499Y-96898490D01*
X65786413Y-97120988D01*
X65851314Y-97334936D01*
X65851315Y-97334937D01*
X65956707Y-97532113D01*
X66098542Y-97704939D01*
X66141850Y-97740481D01*
X67207368Y-98806000D01*
X65516865Y-100496504D01*
X65473551Y-100532051D01*
X65331716Y-100704877D01*
X65243855Y-100869255D01*
X65226324Y-100902054D01*
X65161423Y-101116002D01*
X65139509Y-101338500D01*
X65145000Y-101394252D01*
X65145000Y-102532498D01*
X65078815Y-102586815D01*
X64999463Y-102683506D01*
X64940498Y-102793820D01*
X64904188Y-102913518D01*
X64891928Y-103038000D01*
X64891928Y-105038000D01*
X64904188Y-105162482D01*
X64940498Y-105282180D01*
X64999463Y-105392494D01*
X65078815Y-105489185D01*
X65175506Y-105568537D01*
X65285820Y-105627502D01*
X65405518Y-105663812D01*
X65530000Y-105676072D01*
X67030000Y-105676072D01*
X67154482Y-105663812D01*
X67274180Y-105627502D01*
X67384494Y-105568537D01*
X67430000Y-105531191D01*
X67445000Y-105543502D01*
X67445000Y-105982245D01*
X67439509Y-106038000D01*
X67445000Y-106093752D01*
X67445001Y-108699928D01*
X66680000Y-108699928D01*
X66555518Y-108712188D01*
X66435820Y-108748498D01*
X66325506Y-108807463D01*
X66228815Y-108886815D01*
X66149463Y-108983506D01*
X66090498Y-109093820D01*
X66054188Y-109213518D01*
X66041928Y-109338000D01*
X66041928Y-111338000D01*
X66054188Y-111462482D01*
X66090498Y-111582180D01*
X66149463Y-111692494D01*
X66228815Y-111789185D01*
X66325506Y-111868537D01*
X66435820Y-111927502D01*
X66555518Y-111963812D01*
X66680000Y-111976072D01*
X67445001Y-111976072D01*
X67445001Y-113482239D01*
X67439509Y-113538000D01*
X67461423Y-113760498D01*
X67526324Y-113974446D01*
X67539696Y-113999463D01*
X67631717Y-114171623D01*
X67773552Y-114344449D01*
X67816860Y-114379991D01*
X69340856Y-115903988D01*
X69470376Y-116010283D01*
X69667552Y-116115675D01*
X69881500Y-116180576D01*
X70103999Y-116202490D01*
X70326498Y-116180576D01*
X70540446Y-116115675D01*
X70737622Y-116010283D01*
X70910448Y-115868448D01*
X71052283Y-115695622D01*
X71157675Y-115498446D01*
X71222576Y-115284498D01*
X71244490Y-115061999D01*
X71222576Y-114839500D01*
X71157675Y-114625552D01*
X71052283Y-114428376D01*
X70945988Y-114298856D01*
X69715000Y-113067869D01*
X69715000Y-111976072D01*
X70480000Y-111976072D01*
X70604482Y-111963812D01*
X70724180Y-111927502D01*
X70834494Y-111868537D01*
X70931185Y-111789185D01*
X71010537Y-111692494D01*
X71069502Y-111582180D01*
X71105812Y-111462482D01*
X71118072Y-111338000D01*
X71118072Y-109592146D01*
X81415000Y-109592146D01*
X81415000Y-110610752D01*
X81431423Y-110777499D01*
X81496324Y-110991447D01*
X81533035Y-111060128D01*
X81601716Y-111188623D01*
X81611928Y-111201066D01*
X81611928Y-111380000D01*
X81627071Y-111533745D01*
X81671916Y-111681582D01*
X81744742Y-111817829D01*
X81842749Y-111937251D01*
X81962171Y-112035258D01*
X82098418Y-112108084D01*
X82246255Y-112152929D01*
X82400000Y-112168072D01*
X82700000Y-112168072D01*
X82853745Y-112152929D01*
X83001582Y-112108084D01*
X83135936Y-112036270D01*
X83165506Y-112060537D01*
X83275820Y-112119502D01*
X83363435Y-112146080D01*
X83332774Y-112220102D01*
X83293000Y-112420061D01*
X83293000Y-112482198D01*
X82039003Y-113736196D01*
X82009999Y-113759999D01*
X81957103Y-113824454D01*
X81915026Y-113875724D01*
X81875330Y-113949990D01*
X81844454Y-114007754D01*
X81800997Y-114151015D01*
X81798466Y-114176707D01*
X81744742Y-114242171D01*
X81671916Y-114378418D01*
X81627071Y-114526255D01*
X81611928Y-114680000D01*
X81611928Y-116330000D01*
X81627071Y-116483745D01*
X81671916Y-116631582D01*
X81744742Y-116767829D01*
X81842749Y-116887251D01*
X81962171Y-116985258D01*
X82098418Y-117058084D01*
X82246255Y-117102929D01*
X82400000Y-117118072D01*
X82700000Y-117118072D01*
X82853745Y-117102929D01*
X83001582Y-117058084D01*
X83060001Y-117026858D01*
X83060001Y-117564668D01*
X83056324Y-117602000D01*
X83060001Y-117639333D01*
X83066393Y-117704226D01*
X83070998Y-117750985D01*
X83114454Y-117894246D01*
X83185026Y-118026276D01*
X83239175Y-118092256D01*
X83280000Y-118142001D01*
X83308998Y-118165799D01*
X83547000Y-118403801D01*
X83547000Y-118465939D01*
X83586774Y-118665898D01*
X83664795Y-118854256D01*
X83778063Y-119023774D01*
X83922226Y-119167937D01*
X84091744Y-119281205D01*
X84280102Y-119359226D01*
X84480061Y-119399000D01*
X84683939Y-119399000D01*
X84883898Y-119359226D01*
X85072256Y-119281205D01*
X85241774Y-119167937D01*
X85385937Y-119023774D01*
X85499205Y-118854256D01*
X85577226Y-118665898D01*
X85617000Y-118465939D01*
X85617000Y-118262061D01*
X85577226Y-118062102D01*
X85499205Y-117873744D01*
X85385937Y-117704226D01*
X85241774Y-117560063D01*
X85072256Y-117446795D01*
X84883898Y-117368774D01*
X84683939Y-117329000D01*
X84621801Y-117329000D01*
X84580000Y-117287199D01*
X84580000Y-117026859D01*
X84638418Y-117058084D01*
X84786255Y-117102929D01*
X84940000Y-117118072D01*
X85240000Y-117118072D01*
X85393745Y-117102929D01*
X85541582Y-117058084D01*
X85600001Y-117026858D01*
X85600001Y-117310668D01*
X85596324Y-117348000D01*
X85600001Y-117385333D01*
X85600604Y-117391451D01*
X85579000Y-117500061D01*
X85579000Y-117703939D01*
X85618774Y-117903898D01*
X85696795Y-118092256D01*
X85810063Y-118261774D01*
X85954226Y-118405937D01*
X86123744Y-118519205D01*
X86312102Y-118597226D01*
X86512061Y-118637000D01*
X86715939Y-118637000D01*
X86915898Y-118597226D01*
X87104256Y-118519205D01*
X87273774Y-118405937D01*
X87417937Y-118261774D01*
X87531205Y-118092256D01*
X87609226Y-117903898D01*
X87649000Y-117703939D01*
X87649000Y-117500061D01*
X87609226Y-117300102D01*
X87531205Y-117111744D01*
X87457626Y-117001624D01*
X87503000Y-116956250D01*
X87503000Y-115632000D01*
X87483000Y-115632000D01*
X87483000Y-115378000D01*
X87503000Y-115378000D01*
X87503000Y-114053750D01*
X87757000Y-114053750D01*
X87757000Y-115378000D01*
X87777000Y-115378000D01*
X87777000Y-115632000D01*
X87757000Y-115632000D01*
X87757000Y-116956250D01*
X87915750Y-117115000D01*
X87930000Y-117118072D01*
X88054482Y-117105812D01*
X88174180Y-117069502D01*
X88284494Y-117010537D01*
X88314064Y-116986270D01*
X88448418Y-117058084D01*
X88596255Y-117102929D01*
X88750000Y-117118072D01*
X89050000Y-117118072D01*
X89203745Y-117102929D01*
X89351582Y-117058084D01*
X89485936Y-116986270D01*
X89515506Y-117010537D01*
X89625820Y-117069502D01*
X89745518Y-117105812D01*
X89870000Y-117118072D01*
X89884250Y-117115000D01*
X90043000Y-116956250D01*
X90043000Y-115632000D01*
X90297000Y-115632000D01*
X90297000Y-116956250D01*
X90455750Y-117115000D01*
X90470000Y-117118072D01*
X90594482Y-117105812D01*
X90714180Y-117069502D01*
X90824494Y-117010537D01*
X90921185Y-116931185D01*
X91000537Y-116834494D01*
X91059502Y-116724180D01*
X91095812Y-116604482D01*
X91108072Y-116480000D01*
X91105000Y-115790750D01*
X90946250Y-115632000D01*
X90297000Y-115632000D01*
X90043000Y-115632000D01*
X90023000Y-115632000D01*
X90023000Y-115378000D01*
X90043000Y-115378000D01*
X90043000Y-114053750D01*
X90297000Y-114053750D01*
X90297000Y-115378000D01*
X90946250Y-115378000D01*
X91105000Y-115219250D01*
X91108072Y-114530000D01*
X91095812Y-114405518D01*
X91059502Y-114285820D01*
X91000537Y-114175506D01*
X90921185Y-114078815D01*
X90824494Y-113999463D01*
X90714180Y-113940498D01*
X90594482Y-113904188D01*
X90470000Y-113891928D01*
X90455750Y-113895000D01*
X90297000Y-114053750D01*
X90043000Y-114053750D01*
X89884250Y-113895000D01*
X89870000Y-113891928D01*
X89745518Y-113904188D01*
X89625820Y-113940498D01*
X89515506Y-113999463D01*
X89485936Y-114023730D01*
X89351582Y-113951916D01*
X89203745Y-113907071D01*
X89050000Y-113891928D01*
X88750000Y-113891928D01*
X88596255Y-113907071D01*
X88448418Y-113951916D01*
X88314064Y-114023730D01*
X88284494Y-113999463D01*
X88174180Y-113940498D01*
X88054482Y-113904188D01*
X87930000Y-113891928D01*
X87915750Y-113895000D01*
X87757000Y-114053750D01*
X87503000Y-114053750D01*
X87344250Y-113895000D01*
X87330000Y-113891928D01*
X87205518Y-113904188D01*
X87085820Y-113940498D01*
X87021262Y-113975005D01*
X87077226Y-113839898D01*
X87117000Y-113639939D01*
X87117000Y-113436061D01*
X87077226Y-113236102D01*
X86999205Y-113047744D01*
X86885937Y-112878226D01*
X86741774Y-112734063D01*
X86572256Y-112620795D01*
X86494990Y-112588790D01*
X86494990Y-112014240D01*
X86645750Y-112165000D01*
X86660000Y-112168072D01*
X86784482Y-112155812D01*
X86904180Y-112119502D01*
X87014494Y-112060537D01*
X87044064Y-112036270D01*
X87178418Y-112108084D01*
X87326255Y-112152929D01*
X87480000Y-112168072D01*
X87780000Y-112168072D01*
X87933745Y-112152929D01*
X88081582Y-112108084D01*
X88215936Y-112036270D01*
X88245506Y-112060537D01*
X88355820Y-112119502D01*
X88475518Y-112155812D01*
X88600000Y-112168072D01*
X88614250Y-112165000D01*
X88773000Y-112006250D01*
X88773000Y-110682000D01*
X88753000Y-110682000D01*
X88753000Y-110428000D01*
X88773000Y-110428000D01*
X88773000Y-109103750D01*
X89027000Y-109103750D01*
X89027000Y-110428000D01*
X89047000Y-110428000D01*
X89047000Y-110682000D01*
X89027000Y-110682000D01*
X89027000Y-112006250D01*
X89185750Y-112165000D01*
X89200000Y-112168072D01*
X89324482Y-112155812D01*
X89444180Y-112119502D01*
X89554494Y-112060537D01*
X89584064Y-112036270D01*
X89718418Y-112108084D01*
X89866255Y-112152929D01*
X90020000Y-112168072D01*
X90320000Y-112168072D01*
X90473745Y-112152929D01*
X90621582Y-112108084D01*
X90757829Y-112035258D01*
X90877251Y-111937251D01*
X90975258Y-111817829D01*
X91048084Y-111681582D01*
X91082425Y-111568371D01*
X91083423Y-111578500D01*
X91148324Y-111792448D01*
X91168931Y-111831001D01*
X91253717Y-111989625D01*
X91395552Y-112162451D01*
X91438860Y-112197993D01*
X94684928Y-115444063D01*
X94684928Y-115825000D01*
X94697188Y-115949482D01*
X94733498Y-116069180D01*
X94792463Y-116179494D01*
X94871815Y-116276185D01*
X94968506Y-116355537D01*
X95078820Y-116414502D01*
X95198518Y-116450812D01*
X95323000Y-116463072D01*
X96823000Y-116463072D01*
X96947482Y-116450812D01*
X97067180Y-116414502D01*
X97177494Y-116355537D01*
X97274185Y-116276185D01*
X97353537Y-116179494D01*
X97412502Y-116069180D01*
X97448812Y-115949482D01*
X97461072Y-115825000D01*
X97461072Y-114045000D01*
X97448812Y-113920518D01*
X97412502Y-113800820D01*
X97353537Y-113690506D01*
X97332605Y-113665000D01*
X97353537Y-113639494D01*
X97412502Y-113529180D01*
X97448812Y-113409482D01*
X97461072Y-113285000D01*
X97458000Y-112680750D01*
X97299250Y-112522000D01*
X96200000Y-112522000D01*
X96200000Y-112542000D01*
X95946000Y-112542000D01*
X95946000Y-112522000D01*
X95926000Y-112522000D01*
X95926000Y-112268000D01*
X95946000Y-112268000D01*
X95946000Y-112248000D01*
X96200000Y-112248000D01*
X96200000Y-112268000D01*
X97299250Y-112268000D01*
X97458000Y-112109250D01*
X97461072Y-111505000D01*
X97448812Y-111380518D01*
X97412502Y-111260820D01*
X97353537Y-111150506D01*
X97332605Y-111125000D01*
X97353537Y-111099494D01*
X97412502Y-110989180D01*
X97448812Y-110869482D01*
X97461072Y-110745000D01*
X97461072Y-108965000D01*
X97448812Y-108840518D01*
X97412502Y-108720820D01*
X97353537Y-108610506D01*
X97274185Y-108513815D01*
X97177494Y-108434463D01*
X97067180Y-108375498D01*
X96947482Y-108339188D01*
X96833000Y-108327913D01*
X96833000Y-106933801D01*
X97067801Y-106699000D01*
X97129939Y-106699000D01*
X97329898Y-106659226D01*
X97518256Y-106581205D01*
X97687774Y-106467937D01*
X97831937Y-106323774D01*
X97945205Y-106154256D01*
X98023226Y-105965898D01*
X98063000Y-105765939D01*
X98063000Y-105562061D01*
X98023226Y-105362102D01*
X97945205Y-105173744D01*
X97831937Y-105004226D01*
X97687774Y-104860063D01*
X97518256Y-104746795D01*
X97329898Y-104668774D01*
X97129939Y-104629000D01*
X96926061Y-104629000D01*
X96726102Y-104668774D01*
X96537744Y-104746795D01*
X96368226Y-104860063D01*
X96224063Y-105004226D01*
X96110795Y-105173744D01*
X96032774Y-105362102D01*
X96009236Y-105480435D01*
X93817171Y-103288370D01*
X93898405Y-103189387D01*
X93980472Y-103035851D01*
X94031008Y-102869255D01*
X94048072Y-102696001D01*
X94048072Y-101995999D01*
X94031008Y-101822745D01*
X93980472Y-101656149D01*
X93898405Y-101502613D01*
X93787962Y-101368038D01*
X93761109Y-101346000D01*
X93787962Y-101323962D01*
X93898405Y-101189387D01*
X93980472Y-101035851D01*
X94031008Y-100869255D01*
X94048072Y-100696001D01*
X94048072Y-99995999D01*
X94031008Y-99822745D01*
X93980472Y-99656149D01*
X93898405Y-99502613D01*
X93787962Y-99368038D01*
X93653387Y-99257595D01*
X93499851Y-99175528D01*
X93333255Y-99124992D01*
X93160001Y-99107928D01*
X92259999Y-99107928D01*
X92086745Y-99124992D01*
X91920149Y-99175528D01*
X91831093Y-99223130D01*
X91787501Y-99227423D01*
X91573553Y-99292324D01*
X91376377Y-99397716D01*
X91203551Y-99539551D01*
X91168008Y-99582860D01*
X89914865Y-100836004D01*
X89871551Y-100871551D01*
X89729716Y-101044377D01*
X89632890Y-101225528D01*
X89624324Y-101241554D01*
X89559423Y-101455502D01*
X89537509Y-101678000D01*
X89543000Y-101733752D01*
X89543001Y-104195752D01*
X89559424Y-104362499D01*
X89624325Y-104576447D01*
X89729717Y-104773623D01*
X89871552Y-104946449D01*
X90044378Y-105088284D01*
X90241554Y-105193676D01*
X90455502Y-105258577D01*
X90678000Y-105280491D01*
X90900499Y-105258577D01*
X91114447Y-105193676D01*
X91311623Y-105088284D01*
X91378655Y-105033272D01*
X91284795Y-105173744D01*
X91206774Y-105362102D01*
X91167000Y-105562061D01*
X91167000Y-105765939D01*
X91206774Y-105965898D01*
X91284795Y-106154256D01*
X91398063Y-106323774D01*
X91542226Y-106467937D01*
X91711744Y-106581205D01*
X91900102Y-106659226D01*
X92100061Y-106699000D01*
X92303939Y-106699000D01*
X92503898Y-106659226D01*
X92692256Y-106581205D01*
X92861774Y-106467937D01*
X93005937Y-106323774D01*
X93119205Y-106154256D01*
X93197226Y-105965898D01*
X93237000Y-105765939D01*
X93237000Y-105706671D01*
X93250001Y-105696001D01*
X93344974Y-105580276D01*
X93415546Y-105448247D01*
X93459003Y-105304986D01*
X93470000Y-105193333D01*
X93470000Y-105193324D01*
X93473676Y-105156001D01*
X93470000Y-105118678D01*
X93470000Y-105090801D01*
X95313001Y-106933803D01*
X95313000Y-108327913D01*
X95198518Y-108339188D01*
X95078820Y-108375498D01*
X94968506Y-108434463D01*
X94871815Y-108513815D01*
X94792463Y-108610506D01*
X94733498Y-108720820D01*
X94697188Y-108840518D01*
X94684928Y-108965000D01*
X94684928Y-109231348D01*
X94582999Y-109314999D01*
X94559201Y-109343997D01*
X93686199Y-110217000D01*
X93624061Y-110217000D01*
X93424102Y-110256774D01*
X93337000Y-110292853D01*
X93337000Y-109418248D01*
X93320577Y-109251501D01*
X93255676Y-109037553D01*
X93150284Y-108840377D01*
X93008449Y-108667551D01*
X92835623Y-108525716D01*
X92638446Y-108420324D01*
X92424498Y-108355423D01*
X92202000Y-108333509D01*
X91979501Y-108355423D01*
X91765553Y-108420324D01*
X91568377Y-108525716D01*
X91395551Y-108667551D01*
X91253716Y-108840377D01*
X91148324Y-109037554D01*
X91083423Y-109251502D01*
X91067000Y-109418249D01*
X91067000Y-109490777D01*
X91048084Y-109428418D01*
X90975258Y-109292171D01*
X90877251Y-109172749D01*
X90757829Y-109074742D01*
X90621582Y-109001916D01*
X90473745Y-108957071D01*
X90320000Y-108941928D01*
X90020000Y-108941928D01*
X89866255Y-108957071D01*
X89718418Y-109001916D01*
X89584064Y-109073730D01*
X89554494Y-109049463D01*
X89444180Y-108990498D01*
X89324482Y-108954188D01*
X89200000Y-108941928D01*
X89185750Y-108945000D01*
X89027000Y-109103750D01*
X88773000Y-109103750D01*
X88614250Y-108945000D01*
X88600000Y-108941928D01*
X88475518Y-108954188D01*
X88355820Y-108990498D01*
X88245506Y-109049463D01*
X88215936Y-109073730D01*
X88081582Y-109001916D01*
X87933745Y-108957071D01*
X87780000Y-108941928D01*
X87480000Y-108941928D01*
X87326255Y-108957071D01*
X87178418Y-109001916D01*
X87044064Y-109073730D01*
X87014494Y-109049463D01*
X86904180Y-108990498D01*
X86784482Y-108954188D01*
X86660000Y-108941928D01*
X86645750Y-108945000D01*
X86494990Y-109095760D01*
X86494990Y-99488312D01*
X86498666Y-99450989D01*
X86494990Y-99413666D01*
X86494990Y-99413657D01*
X86483993Y-99302004D01*
X86440536Y-99158743D01*
X86432504Y-99143716D01*
X86369964Y-99026713D01*
X86298789Y-98939987D01*
X86274991Y-98910989D01*
X86245994Y-98887192D01*
X84601000Y-97242199D01*
X84601000Y-97180061D01*
X84561226Y-96980102D01*
X84483205Y-96791744D01*
X84369937Y-96622226D01*
X84225774Y-96478063D01*
X84056256Y-96364795D01*
X83867898Y-96286774D01*
X83667939Y-96247000D01*
X83464061Y-96247000D01*
X83264102Y-96286774D01*
X83075744Y-96364795D01*
X82906226Y-96478063D01*
X82762063Y-96622226D01*
X82648795Y-96791744D01*
X82570774Y-96980102D01*
X82531000Y-97180061D01*
X82531000Y-97383939D01*
X82570774Y-97583898D01*
X82648795Y-97772256D01*
X82762063Y-97941774D01*
X82906226Y-98085937D01*
X83075744Y-98199205D01*
X83264102Y-98277226D01*
X83464061Y-98317000D01*
X83526199Y-98317000D01*
X84974990Y-99765792D01*
X84974991Y-108941928D01*
X84940000Y-108941928D01*
X84786255Y-108957071D01*
X84638418Y-109001916D01*
X84504064Y-109073730D01*
X84474494Y-109049463D01*
X84364180Y-108990498D01*
X84244482Y-108954188D01*
X84120000Y-108941928D01*
X84105750Y-108945000D01*
X83947000Y-109103750D01*
X83947000Y-110428000D01*
X83967000Y-110428000D01*
X83967000Y-110682000D01*
X83947000Y-110682000D01*
X83947000Y-110702000D01*
X83693000Y-110702000D01*
X83693000Y-110682000D01*
X83677983Y-110682000D01*
X83685000Y-110610751D01*
X83685000Y-110428000D01*
X83693000Y-110428000D01*
X83693000Y-109103750D01*
X83685000Y-109095750D01*
X83685000Y-108402248D01*
X83668577Y-108235501D01*
X83603676Y-108021553D01*
X83498284Y-107824377D01*
X83356449Y-107651551D01*
X83183623Y-107509716D01*
X82986447Y-107404324D01*
X82772499Y-107339423D01*
X82550000Y-107317509D01*
X82327502Y-107339423D01*
X82113554Y-107404324D01*
X81916378Y-107509716D01*
X81743552Y-107651551D01*
X81601717Y-107824377D01*
X81496325Y-108021553D01*
X81431424Y-108235501D01*
X81415001Y-108402248D01*
X81415000Y-109592146D01*
X71118072Y-109592146D01*
X71118072Y-109338000D01*
X71105812Y-109213518D01*
X71069502Y-109093820D01*
X71010537Y-108983506D01*
X70931185Y-108886815D01*
X70834494Y-108807463D01*
X70724180Y-108748498D01*
X70604482Y-108712188D01*
X70480000Y-108699928D01*
X69715000Y-108699928D01*
X69715000Y-108069000D01*
X73715752Y-108069000D01*
X73882499Y-108052577D01*
X74096447Y-107987676D01*
X74293623Y-107882284D01*
X74466449Y-107740449D01*
X74608284Y-107567623D01*
X74713676Y-107370447D01*
X74778577Y-107156499D01*
X74800491Y-106934000D01*
X74778577Y-106711501D01*
X74713676Y-106497553D01*
X74608284Y-106300377D01*
X74466449Y-106127551D01*
X74293623Y-105985716D01*
X74096447Y-105880324D01*
X73882499Y-105815423D01*
X73715752Y-105799000D01*
X69946132Y-105799000D01*
X69715000Y-105567869D01*
X69715000Y-105543501D01*
X69730000Y-105531191D01*
X69775506Y-105568537D01*
X69885820Y-105627502D01*
X70005518Y-105663812D01*
X70130000Y-105676072D01*
X70594250Y-105673000D01*
X70753000Y-105514250D01*
X70753000Y-104165000D01*
X71007000Y-104165000D01*
X71007000Y-105514250D01*
X71165750Y-105673000D01*
X71630000Y-105676072D01*
X71754482Y-105663812D01*
X71874180Y-105627502D01*
X71984494Y-105568537D01*
X72081185Y-105489185D01*
X72160537Y-105392494D01*
X72219502Y-105282180D01*
X72255812Y-105162482D01*
X72268072Y-105038000D01*
X72265000Y-104323750D01*
X72106250Y-104165000D01*
X71007000Y-104165000D01*
X70753000Y-104165000D01*
X70733000Y-104165000D01*
X70733000Y-103911000D01*
X70753000Y-103911000D01*
X70753000Y-102561750D01*
X71007000Y-102561750D01*
X71007000Y-103911000D01*
X72106250Y-103911000D01*
X72265000Y-103752250D01*
X72268072Y-103038000D01*
X72255812Y-102913518D01*
X72219502Y-102793820D01*
X72160537Y-102683506D01*
X72081185Y-102586815D01*
X71984494Y-102507463D01*
X71874180Y-102448498D01*
X71754482Y-102412188D01*
X71630000Y-102399928D01*
X71165750Y-102403000D01*
X71007000Y-102561750D01*
X70753000Y-102561750D01*
X70594250Y-102403000D01*
X70130000Y-102399928D01*
X70005518Y-102412188D01*
X69885820Y-102448498D01*
X69775506Y-102507463D01*
X69730000Y-102544809D01*
X69684494Y-102507463D01*
X69574180Y-102448498D01*
X69454482Y-102412188D01*
X69330000Y-102399928D01*
X67830000Y-102399928D01*
X67705518Y-102412188D01*
X67585820Y-102448498D01*
X67475506Y-102507463D01*
X67430000Y-102544809D01*
X67415000Y-102532499D01*
X67415000Y-101808631D01*
X69054560Y-100169072D01*
X69150000Y-100169072D01*
X69323254Y-100152008D01*
X69489850Y-100101472D01*
X69643386Y-100019405D01*
X69777962Y-99908962D01*
X69783342Y-99902406D01*
X69848815Y-99982185D01*
X69945506Y-100061537D01*
X70055820Y-100120502D01*
X70175518Y-100156812D01*
X70300000Y-100169072D01*
X70601750Y-100166000D01*
X70760500Y-100007250D01*
X70760500Y-98933000D01*
X71014500Y-98933000D01*
X71014500Y-100007250D01*
X71173250Y-100166000D01*
X71475000Y-100169072D01*
X71599482Y-100156812D01*
X71719180Y-100120502D01*
X71829494Y-100061537D01*
X71926185Y-99982185D01*
X72005537Y-99885494D01*
X72064502Y-99775180D01*
X72100812Y-99655482D01*
X72113072Y-99531000D01*
X72110000Y-99091750D01*
X71951250Y-98933000D01*
X71014500Y-98933000D01*
X70760500Y-98933000D01*
X70740500Y-98933000D01*
X70740500Y-98679000D01*
X70760500Y-98679000D01*
X70760500Y-97604750D01*
X71014500Y-97604750D01*
X71014500Y-98679000D01*
X71951250Y-98679000D01*
X72110000Y-98520250D01*
X72113072Y-98081000D01*
X72100812Y-97956518D01*
X72064502Y-97836820D01*
X72005537Y-97726506D01*
X71926185Y-97629815D01*
X71829494Y-97550463D01*
X71719180Y-97491498D01*
X71599482Y-97455188D01*
X71475000Y-97442928D01*
X71173250Y-97446000D01*
X71014500Y-97604750D01*
X70760500Y-97604750D01*
X70601750Y-97446000D01*
X70300000Y-97442928D01*
X70175518Y-97455188D01*
X70055820Y-97491498D01*
X69945506Y-97550463D01*
X69848815Y-97629815D01*
X69783342Y-97709594D01*
X69777962Y-97703038D01*
X69643386Y-97592595D01*
X69489850Y-97510528D01*
X69323254Y-97459992D01*
X69150000Y-97442928D01*
X69054560Y-97442928D01*
X68039990Y-96428359D01*
X68039990Y-90958791D01*
X68307000Y-91225802D01*
X68307000Y-91287939D01*
X68346774Y-91487898D01*
X68424795Y-91676256D01*
X68538063Y-91845774D01*
X68682226Y-91989937D01*
X68851744Y-92103205D01*
X69040102Y-92181226D01*
X69240061Y-92221000D01*
X69443939Y-92221000D01*
X69643898Y-92181226D01*
X69832256Y-92103205D01*
X70001774Y-91989937D01*
X70145937Y-91845774D01*
X70259205Y-91676256D01*
X70337226Y-91487898D01*
X70377000Y-91287939D01*
X70377000Y-91084061D01*
X70337226Y-90884102D01*
X70261764Y-90701921D01*
X70483363Y-90746000D01*
X70726637Y-90746000D01*
X70965236Y-90698540D01*
X71189992Y-90605443D01*
X71392267Y-90470287D01*
X71564287Y-90298267D01*
X71605000Y-90237336D01*
X71645713Y-90298267D01*
X71817733Y-90470287D01*
X72020008Y-90605443D01*
X72244764Y-90698540D01*
X72483363Y-90746000D01*
X72726637Y-90746000D01*
X72920000Y-90707538D01*
X72919999Y-98026677D01*
X72916323Y-98063999D01*
X72919999Y-98101321D01*
X72919999Y-98101331D01*
X72930996Y-98212984D01*
X72966795Y-98331000D01*
X72974453Y-98356245D01*
X73045025Y-98488275D01*
X73071267Y-98520250D01*
X73139998Y-98604000D01*
X73169002Y-98627803D01*
X76943000Y-102401802D01*
X76943000Y-102463939D01*
X76982774Y-102663898D01*
X77060795Y-102852256D01*
X77174063Y-103021774D01*
X77318226Y-103165937D01*
X77487744Y-103279205D01*
X77676102Y-103357226D01*
X77876061Y-103397000D01*
X78079939Y-103397000D01*
X78279898Y-103357226D01*
X78468256Y-103279205D01*
X78637774Y-103165937D01*
X78781937Y-103021774D01*
X78895205Y-102852256D01*
X78973226Y-102663898D01*
X79013000Y-102463939D01*
X79013000Y-102260061D01*
X78973226Y-102060102D01*
X78895205Y-101871744D01*
X78781937Y-101702226D01*
X78637774Y-101558063D01*
X78468256Y-101444795D01*
X78279898Y-101366774D01*
X78079939Y-101327000D01*
X78017802Y-101327000D01*
X74439999Y-97749198D01*
X74439999Y-90737374D01*
X74483363Y-90746000D01*
X74726637Y-90746000D01*
X74770002Y-90737374D01*
X74770001Y-94034678D01*
X74766325Y-94072001D01*
X74770001Y-94109323D01*
X74770001Y-94109333D01*
X74780998Y-94220986D01*
X74824455Y-94364247D01*
X74895027Y-94496277D01*
X74934872Y-94544827D01*
X74990000Y-94612002D01*
X75019004Y-94635805D01*
X77705000Y-97321802D01*
X77705000Y-97383939D01*
X77744774Y-97583898D01*
X77822795Y-97772256D01*
X77936063Y-97941774D01*
X78080226Y-98085937D01*
X78249744Y-98199205D01*
X78438102Y-98277226D01*
X78638061Y-98317000D01*
X78841939Y-98317000D01*
X79041898Y-98277226D01*
X79230256Y-98199205D01*
X79399774Y-98085937D01*
X79543937Y-97941774D01*
X79657205Y-97772256D01*
X79735226Y-97583898D01*
X79775000Y-97383939D01*
X79775000Y-97180061D01*
X79735226Y-96980102D01*
X79657205Y-96791744D01*
X79543937Y-96622226D01*
X79399774Y-96478063D01*
X79230256Y-96364795D01*
X79041898Y-96286774D01*
X78841939Y-96247000D01*
X78779802Y-96247000D01*
X76290001Y-93757200D01*
X76290001Y-90707538D01*
X76483363Y-90746000D01*
X76726637Y-90746000D01*
X76965236Y-90698540D01*
X77189992Y-90605443D01*
X77392267Y-90470287D01*
X77564287Y-90298267D01*
X77605000Y-90237336D01*
X77645713Y-90298267D01*
X77817733Y-90470287D01*
X78020008Y-90605443D01*
X78111743Y-90643441D01*
X78076795Y-90695744D01*
X77998774Y-90884102D01*
X77959000Y-91084061D01*
X77959000Y-91287939D01*
X77998774Y-91487898D01*
X78076795Y-91676256D01*
X78190063Y-91845774D01*
X78334226Y-91989937D01*
X78503744Y-92103205D01*
X78692102Y-92181226D01*
X78892061Y-92221000D01*
X79095939Y-92221000D01*
X79295898Y-92181226D01*
X79484256Y-92103205D01*
X79653774Y-91989937D01*
X79797937Y-91845774D01*
X79911205Y-91676256D01*
X79989226Y-91487898D01*
X80029000Y-91287939D01*
X80029000Y-91225802D01*
X80696741Y-90558061D01*
X80762898Y-90578130D01*
X81005000Y-90601975D01*
X81247101Y-90578130D01*
X81479900Y-90507511D01*
X81694448Y-90392833D01*
X81882502Y-90238502D01*
X82036833Y-90050449D01*
X82151511Y-89835901D01*
X82222130Y-89603102D01*
X82240000Y-89421665D01*
X82240000Y-88539344D01*
X91580000Y-88539344D01*
X91580000Y-88910656D01*
X91652439Y-89274834D01*
X91794534Y-89617882D01*
X92000825Y-89926618D01*
X92263382Y-90189175D01*
X92572118Y-90395466D01*
X92915166Y-90537561D01*
X93279344Y-90610000D01*
X93650656Y-90610000D01*
X94014834Y-90537561D01*
X94249740Y-90440260D01*
X94152439Y-90675166D01*
X94080000Y-91039344D01*
X94080000Y-91410656D01*
X94152439Y-91774834D01*
X94294534Y-92117882D01*
X94500825Y-92426618D01*
X94763382Y-92689175D01*
X95072118Y-92895466D01*
X95205000Y-92950508D01*
X95205001Y-99148146D01*
X95197150Y-99150528D01*
X95043614Y-99232595D01*
X94909038Y-99343038D01*
X94798595Y-99477614D01*
X94716528Y-99631150D01*
X94665992Y-99797746D01*
X94648928Y-99971000D01*
X94648928Y-100646000D01*
X94665992Y-100819254D01*
X94716528Y-100985850D01*
X94798595Y-101139386D01*
X94909038Y-101273962D01*
X94996817Y-101346000D01*
X94909038Y-101418038D01*
X94798595Y-101552614D01*
X94716528Y-101706150D01*
X94665992Y-101872746D01*
X94648928Y-102046000D01*
X94648928Y-102721000D01*
X94665992Y-102894254D01*
X94716528Y-103060850D01*
X94798595Y-103214386D01*
X94909038Y-103348962D01*
X95043614Y-103459405D01*
X95197150Y-103541472D01*
X95363746Y-103592008D01*
X95537000Y-103609072D01*
X96487000Y-103609072D01*
X96660254Y-103592008D01*
X96826850Y-103541472D01*
X96980386Y-103459405D01*
X97114962Y-103348962D01*
X97225405Y-103214386D01*
X97263294Y-103143500D01*
X98101068Y-103143500D01*
X98125595Y-103189387D01*
X98236038Y-103323962D01*
X98370613Y-103434405D01*
X98524149Y-103516472D01*
X98690745Y-103567008D01*
X98863999Y-103584072D01*
X99764001Y-103584072D01*
X99937255Y-103567008D01*
X100103851Y-103516472D01*
X100257387Y-103434405D01*
X100391962Y-103323962D01*
X100502405Y-103189387D01*
X100584472Y-103035851D01*
X100635008Y-102869255D01*
X100646435Y-102753236D01*
X103317990Y-105424792D01*
X103317989Y-113372667D01*
X103314313Y-113409989D01*
X103317989Y-113447311D01*
X103317989Y-113447321D01*
X103328986Y-113558974D01*
X103339536Y-113593752D01*
X103372443Y-113702235D01*
X103443015Y-113834265D01*
X103467192Y-113863724D01*
X103537988Y-113949990D01*
X103566992Y-113973793D01*
X104214928Y-114621729D01*
X104214928Y-115825000D01*
X104227188Y-115949482D01*
X104263498Y-116069180D01*
X104322463Y-116179494D01*
X104401815Y-116276185D01*
X104498506Y-116355537D01*
X104608820Y-116414502D01*
X104728518Y-116450812D01*
X104853000Y-116463072D01*
X106353000Y-116463072D01*
X106477482Y-116450812D01*
X106597180Y-116414502D01*
X106707494Y-116355537D01*
X106804185Y-116276185D01*
X106883537Y-116179494D01*
X106942502Y-116069180D01*
X106978812Y-115949482D01*
X106991072Y-115825000D01*
X106991072Y-115695000D01*
X108657644Y-115695000D01*
X108697463Y-115769494D01*
X108776815Y-115866185D01*
X108873506Y-115945537D01*
X108983820Y-116004502D01*
X109103518Y-116040812D01*
X109228000Y-116053072D01*
X110228000Y-116053072D01*
X110352482Y-116040812D01*
X110472180Y-116004502D01*
X110582494Y-115945537D01*
X110679185Y-115866185D01*
X110758537Y-115769494D01*
X110817502Y-115659180D01*
X110853812Y-115539482D01*
X110866072Y-115415000D01*
X110866072Y-114415000D01*
X110853812Y-114290518D01*
X110817502Y-114170820D01*
X110758537Y-114060506D01*
X110679185Y-113963815D01*
X110582494Y-113884463D01*
X110472180Y-113825498D01*
X110352482Y-113789188D01*
X110228000Y-113776928D01*
X109228000Y-113776928D01*
X109103518Y-113789188D01*
X108983820Y-113825498D01*
X108873506Y-113884463D01*
X108776815Y-113963815D01*
X108697463Y-114060506D01*
X108638498Y-114170820D01*
X108637230Y-114175000D01*
X106991072Y-114175000D01*
X106991072Y-114045000D01*
X106978812Y-113920518D01*
X106942502Y-113800820D01*
X106883537Y-113690506D01*
X106862605Y-113665000D01*
X106883537Y-113639494D01*
X106942502Y-113529180D01*
X106978812Y-113409482D01*
X106991072Y-113285000D01*
X106991072Y-113175000D01*
X108646954Y-113175000D01*
X108697463Y-113269494D01*
X108776815Y-113366185D01*
X108873506Y-113445537D01*
X108983820Y-113504502D01*
X109103518Y-113540812D01*
X109228000Y-113553072D01*
X110228000Y-113553072D01*
X110352482Y-113540812D01*
X110472180Y-113504502D01*
X110582494Y-113445537D01*
X110679185Y-113366185D01*
X110758537Y-113269494D01*
X110817502Y-113159180D01*
X110853812Y-113039482D01*
X110866072Y-112915000D01*
X110866072Y-111915000D01*
X110853812Y-111790518D01*
X110817502Y-111670820D01*
X110758537Y-111560506D01*
X110679185Y-111463815D01*
X110582494Y-111384463D01*
X110472180Y-111325498D01*
X110352482Y-111289188D01*
X110228000Y-111276928D01*
X109228000Y-111276928D01*
X109103518Y-111289188D01*
X108983820Y-111325498D01*
X108873506Y-111384463D01*
X108776815Y-111463815D01*
X108697463Y-111560506D01*
X108646954Y-111655000D01*
X106991072Y-111655000D01*
X106991072Y-111505000D01*
X106978812Y-111380518D01*
X106942502Y-111260820D01*
X106883537Y-111150506D01*
X106862605Y-111125000D01*
X106883537Y-111099494D01*
X106942502Y-110989180D01*
X106978812Y-110869482D01*
X106991072Y-110745000D01*
X106991072Y-108965000D01*
X106978812Y-108840518D01*
X106942502Y-108720820D01*
X106883537Y-108610506D01*
X106804185Y-108513815D01*
X106707494Y-108434463D01*
X106597180Y-108375498D01*
X106477482Y-108339188D01*
X106353000Y-108326928D01*
X105287999Y-108326928D01*
X105287999Y-104088302D01*
X105767230Y-103609072D01*
X106393000Y-103609072D01*
X106566254Y-103592008D01*
X106732850Y-103541472D01*
X106886386Y-103459405D01*
X107020962Y-103348962D01*
X107131405Y-103214386D01*
X107213472Y-103060850D01*
X107264008Y-102894254D01*
X107281072Y-102721000D01*
X107281072Y-102046000D01*
X107264008Y-101872746D01*
X107213472Y-101706150D01*
X107131405Y-101552614D01*
X107020962Y-101418038D01*
X106933183Y-101346000D01*
X107020962Y-101273962D01*
X107131405Y-101139386D01*
X107213472Y-100985850D01*
X107264008Y-100819254D01*
X107281072Y-100646000D01*
X107281072Y-99971000D01*
X107264008Y-99797746D01*
X107213472Y-99631150D01*
X107131405Y-99477614D01*
X107020962Y-99343038D01*
X106886386Y-99232595D01*
X106732850Y-99150528D01*
X106678000Y-99133890D01*
X106678000Y-92969975D01*
X106857882Y-92895466D01*
X107166618Y-92689175D01*
X107429175Y-92426618D01*
X107635466Y-92117882D01*
X107777561Y-91774834D01*
X107850000Y-91410656D01*
X107850000Y-91039344D01*
X107777561Y-90675166D01*
X107680260Y-90440260D01*
X107915166Y-90537561D01*
X108279344Y-90610000D01*
X108650656Y-90610000D01*
X109014834Y-90537561D01*
X109357882Y-90395466D01*
X109666618Y-90189175D01*
X109929175Y-89926618D01*
X110135466Y-89617882D01*
X110277561Y-89274834D01*
X110350000Y-88910656D01*
X110350000Y-88539344D01*
X115710000Y-88539344D01*
X115710000Y-88910656D01*
X115782439Y-89274834D01*
X115924534Y-89617882D01*
X116130825Y-89926618D01*
X116393382Y-90189175D01*
X116702118Y-90395466D01*
X117045166Y-90537561D01*
X117409344Y-90610000D01*
X117780656Y-90610000D01*
X118144834Y-90537561D01*
X118379740Y-90440260D01*
X118282439Y-90675166D01*
X118210000Y-91039344D01*
X118210000Y-91410656D01*
X118282439Y-91774834D01*
X118424534Y-92117882D01*
X118630825Y-92426618D01*
X118893382Y-92689175D01*
X119202118Y-92895466D01*
X119335000Y-92950508D01*
X119335001Y-98894146D01*
X119327150Y-98896528D01*
X119173614Y-98978595D01*
X119039038Y-99089038D01*
X118928595Y-99223614D01*
X118846528Y-99377150D01*
X118795992Y-99543746D01*
X118778928Y-99717000D01*
X118778928Y-100392000D01*
X118795992Y-100565254D01*
X118846528Y-100731850D01*
X118928595Y-100885386D01*
X119039038Y-101019962D01*
X119126817Y-101092000D01*
X119039038Y-101164038D01*
X118928595Y-101298614D01*
X118846528Y-101452150D01*
X118795992Y-101618746D01*
X118778928Y-101792000D01*
X118778928Y-102467000D01*
X118795992Y-102640254D01*
X118846528Y-102806850D01*
X118928595Y-102960386D01*
X119039038Y-103094962D01*
X119173614Y-103205405D01*
X119327150Y-103287472D01*
X119493746Y-103338008D01*
X119667000Y-103355072D01*
X120617000Y-103355072D01*
X120790254Y-103338008D01*
X120956850Y-103287472D01*
X121110386Y-103205405D01*
X121244962Y-103094962D01*
X121355405Y-102960386D01*
X121393294Y-102889500D01*
X122231068Y-102889500D01*
X122255595Y-102935387D01*
X122366038Y-103069962D01*
X122500613Y-103180405D01*
X122654149Y-103262472D01*
X122820745Y-103313008D01*
X122993999Y-103330072D01*
X123894001Y-103330072D01*
X124067255Y-103313008D01*
X124233851Y-103262472D01*
X124387387Y-103180405D01*
X124521962Y-103069962D01*
X124632405Y-102935387D01*
X124714472Y-102781851D01*
X124765008Y-102615255D01*
X124782072Y-102442001D01*
X124782072Y-102335204D01*
X125103000Y-102656132D01*
X125103001Y-105211752D01*
X125119424Y-105378499D01*
X125184325Y-105592447D01*
X125289717Y-105789623D01*
X125431552Y-105962449D01*
X125604378Y-106104284D01*
X125801554Y-106209676D01*
X126015502Y-106274577D01*
X126238000Y-106296491D01*
X126460499Y-106274577D01*
X126674447Y-106209676D01*
X126871623Y-106104284D01*
X127044449Y-105962449D01*
X127186284Y-105789623D01*
X127291676Y-105592447D01*
X127356577Y-105378499D01*
X127373000Y-105211752D01*
X127373000Y-102241743D01*
X127378490Y-102185999D01*
X127373000Y-102130255D01*
X127373000Y-102130248D01*
X127356577Y-101963501D01*
X127350814Y-101944501D01*
X127331455Y-101880686D01*
X127291676Y-101749553D01*
X127186284Y-101552377D01*
X127044449Y-101379551D01*
X127001141Y-101344009D01*
X124985996Y-99328865D01*
X124950449Y-99285551D01*
X124777623Y-99143716D01*
X124580447Y-99038324D01*
X124366499Y-98973423D01*
X124322907Y-98969130D01*
X124233851Y-98921528D01*
X124067255Y-98870992D01*
X123894001Y-98853928D01*
X122993999Y-98853928D01*
X122820745Y-98870992D01*
X122654149Y-98921528D01*
X122500613Y-99003595D01*
X122366038Y-99114038D01*
X122255595Y-99248613D01*
X122173528Y-99402149D01*
X122122992Y-99568745D01*
X122105928Y-99741999D01*
X122105928Y-100442001D01*
X122122992Y-100615255D01*
X122173528Y-100781851D01*
X122255595Y-100935387D01*
X122366038Y-101069962D01*
X122392891Y-101092000D01*
X122366038Y-101114038D01*
X122255595Y-101248613D01*
X122190979Y-101369500D01*
X121393294Y-101369500D01*
X121355405Y-101298614D01*
X121244962Y-101164038D01*
X121157183Y-101092000D01*
X121244962Y-101019962D01*
X121355405Y-100885386D01*
X121437472Y-100731850D01*
X121488008Y-100565254D01*
X121505072Y-100392000D01*
X121505072Y-99717000D01*
X121488008Y-99543746D01*
X121437472Y-99377150D01*
X121355405Y-99223614D01*
X121244962Y-99089038D01*
X121110386Y-98978595D01*
X120956850Y-98896528D01*
X120855000Y-98865632D01*
X120855000Y-92950507D01*
X120987882Y-92895466D01*
X121296618Y-92689175D01*
X121559175Y-92426618D01*
X121765466Y-92117882D01*
X121907561Y-91774834D01*
X121980000Y-91410656D01*
X121980000Y-91039344D01*
X128210000Y-91039344D01*
X128210000Y-91410656D01*
X128282439Y-91774834D01*
X128424534Y-92117882D01*
X128630825Y-92426618D01*
X128893382Y-92689175D01*
X129202118Y-92895466D01*
X129335000Y-92950508D01*
X129335001Y-98865632D01*
X129233150Y-98896528D01*
X129079614Y-98978595D01*
X128945038Y-99089038D01*
X128834595Y-99223614D01*
X128752528Y-99377150D01*
X128701992Y-99543746D01*
X128684928Y-99717000D01*
X128684928Y-100392000D01*
X128701992Y-100565254D01*
X128752528Y-100731850D01*
X128834595Y-100885386D01*
X128945038Y-101019962D01*
X129032817Y-101092000D01*
X128945038Y-101164038D01*
X128834595Y-101298614D01*
X128752528Y-101452150D01*
X128701992Y-101618746D01*
X128684928Y-101792000D01*
X128684928Y-102467000D01*
X128701992Y-102640254D01*
X128752528Y-102806850D01*
X128834595Y-102960386D01*
X128945038Y-103094962D01*
X129079614Y-103205405D01*
X129233150Y-103287472D01*
X129399746Y-103338008D01*
X129573000Y-103355072D01*
X130523000Y-103355072D01*
X130696254Y-103338008D01*
X130862850Y-103287472D01*
X131016386Y-103205405D01*
X131150962Y-103094962D01*
X131261405Y-102960386D01*
X131299294Y-102889500D01*
X132137068Y-102889500D01*
X132161595Y-102935387D01*
X132272038Y-103069962D01*
X132406613Y-103180405D01*
X132560149Y-103262472D01*
X132726745Y-103313008D01*
X132899999Y-103330072D01*
X133615010Y-103330072D01*
X133615011Y-114484187D01*
X132040199Y-116059000D01*
X131978061Y-116059000D01*
X131778102Y-116098774D01*
X131589744Y-116176795D01*
X131420226Y-116290063D01*
X131276063Y-116434226D01*
X131162795Y-116603744D01*
X131084774Y-116792102D01*
X131045000Y-116992061D01*
X131045000Y-117195939D01*
X131084774Y-117395898D01*
X131162795Y-117584256D01*
X131276063Y-117753774D01*
X131420226Y-117897937D01*
X131589744Y-118011205D01*
X131778102Y-118089226D01*
X131978061Y-118129000D01*
X132181939Y-118129000D01*
X132381898Y-118089226D01*
X132570256Y-118011205D01*
X132739774Y-117897937D01*
X132883937Y-117753774D01*
X132997205Y-117584256D01*
X133075226Y-117395898D01*
X133115000Y-117195939D01*
X133115000Y-117133801D01*
X134886013Y-115362789D01*
X134915011Y-115338991D01*
X135009984Y-115223266D01*
X135080556Y-115091237D01*
X135124013Y-114947976D01*
X135135010Y-114836323D01*
X135135010Y-114836314D01*
X135138686Y-114798991D01*
X135135010Y-114761668D01*
X135135010Y-101154332D01*
X135138686Y-101117009D01*
X135135010Y-101079686D01*
X135135010Y-101079677D01*
X135124013Y-100968024D01*
X135080556Y-100824763D01*
X135037775Y-100744726D01*
X135009984Y-100692733D01*
X134938809Y-100606007D01*
X134915011Y-100577009D01*
X134886014Y-100553212D01*
X134688072Y-100355270D01*
X134688072Y-99741999D01*
X134671008Y-99568745D01*
X134620472Y-99402149D01*
X134538405Y-99248613D01*
X134427962Y-99114038D01*
X134293387Y-99003595D01*
X134139851Y-98921528D01*
X133973255Y-98870992D01*
X133800001Y-98853928D01*
X132899999Y-98853928D01*
X132726745Y-98870992D01*
X132560149Y-98921528D01*
X132406613Y-99003595D01*
X132272038Y-99114038D01*
X132161595Y-99248613D01*
X132079528Y-99402149D01*
X132028992Y-99568745D01*
X132011928Y-99741999D01*
X132011928Y-100442001D01*
X132028992Y-100615255D01*
X132079528Y-100781851D01*
X132161595Y-100935387D01*
X132272038Y-101069962D01*
X132298891Y-101092000D01*
X132272038Y-101114038D01*
X132161595Y-101248613D01*
X132096979Y-101369500D01*
X131299294Y-101369500D01*
X131261405Y-101298614D01*
X131150962Y-101164038D01*
X131063183Y-101092000D01*
X131150962Y-101019962D01*
X131261405Y-100885386D01*
X131343472Y-100731850D01*
X131394008Y-100565254D01*
X131411072Y-100392000D01*
X131411072Y-99717000D01*
X131394008Y-99543746D01*
X131343472Y-99377150D01*
X131261405Y-99223614D01*
X131150962Y-99089038D01*
X131016386Y-98978595D01*
X130862850Y-98896528D01*
X130855000Y-98894147D01*
X130855000Y-92950507D01*
X130987882Y-92895466D01*
X131296618Y-92689175D01*
X131559175Y-92426618D01*
X131765466Y-92117882D01*
X131907561Y-91774834D01*
X131980000Y-91410656D01*
X131980000Y-91039344D01*
X131907561Y-90675166D01*
X131810260Y-90440260D01*
X132045166Y-90537561D01*
X132409344Y-90610000D01*
X132780656Y-90610000D01*
X133144834Y-90537561D01*
X133487882Y-90395466D01*
X133796618Y-90189175D01*
X134059175Y-89926618D01*
X134265466Y-89617882D01*
X134407561Y-89274834D01*
X134480000Y-88910656D01*
X134480000Y-88539344D01*
X139840000Y-88539344D01*
X139840000Y-88910656D01*
X139912439Y-89274834D01*
X140054534Y-89617882D01*
X140260825Y-89926618D01*
X140523382Y-90189175D01*
X140832118Y-90395466D01*
X141175166Y-90537561D01*
X141539344Y-90610000D01*
X141910656Y-90610000D01*
X142274834Y-90537561D01*
X142509740Y-90440260D01*
X142412439Y-90675166D01*
X142340000Y-91039344D01*
X142340000Y-91410656D01*
X142412439Y-91774834D01*
X142554534Y-92117882D01*
X142760825Y-92426618D01*
X143023382Y-92689175D01*
X143332118Y-92895466D01*
X143465000Y-92950508D01*
X143465001Y-98894146D01*
X143457150Y-98896528D01*
X143303614Y-98978595D01*
X143169038Y-99089038D01*
X143058595Y-99223614D01*
X142976528Y-99377150D01*
X142925992Y-99543746D01*
X142908928Y-99717000D01*
X142908928Y-100392000D01*
X142925992Y-100565254D01*
X142976528Y-100731850D01*
X143058595Y-100885386D01*
X143169038Y-101019962D01*
X143256817Y-101092000D01*
X143169038Y-101164038D01*
X143058595Y-101298614D01*
X142976528Y-101452150D01*
X142925992Y-101618746D01*
X142908928Y-101792000D01*
X142908928Y-102467000D01*
X142925992Y-102640254D01*
X142976528Y-102806850D01*
X143058595Y-102960386D01*
X143169038Y-103094962D01*
X143303614Y-103205405D01*
X143457150Y-103287472D01*
X143623746Y-103338008D01*
X143797000Y-103355072D01*
X144747000Y-103355072D01*
X144920254Y-103338008D01*
X145086850Y-103287472D01*
X145240386Y-103205405D01*
X145374962Y-103094962D01*
X145485405Y-102960386D01*
X145523294Y-102889500D01*
X146361068Y-102889500D01*
X146385595Y-102935387D01*
X146496038Y-103069962D01*
X146630613Y-103180405D01*
X146784149Y-103262472D01*
X146950745Y-103313008D01*
X147123999Y-103330072D01*
X148024001Y-103330072D01*
X148197255Y-103313008D01*
X148363851Y-103262472D01*
X148517387Y-103180405D01*
X148651962Y-103069962D01*
X148762405Y-102935387D01*
X148844472Y-102781851D01*
X148895008Y-102615255D01*
X148912072Y-102442001D01*
X148912072Y-102335204D01*
X149487000Y-102910132D01*
X149487001Y-104957752D01*
X149503424Y-105124499D01*
X149568325Y-105338447D01*
X149673717Y-105535623D01*
X149815552Y-105708449D01*
X149988378Y-105850284D01*
X150185554Y-105955676D01*
X150399502Y-106020577D01*
X150622000Y-106042491D01*
X150844499Y-106020577D01*
X151058447Y-105955676D01*
X151255623Y-105850284D01*
X151428449Y-105708449D01*
X151570284Y-105535623D01*
X151675676Y-105338447D01*
X151740577Y-105124499D01*
X151757000Y-104957752D01*
X151757000Y-102495741D01*
X151762490Y-102439999D01*
X151757000Y-102384257D01*
X151757000Y-102384248D01*
X151740577Y-102217501D01*
X151675676Y-102003553D01*
X151570284Y-101806377D01*
X151428449Y-101633551D01*
X151385141Y-101598009D01*
X149115996Y-99328865D01*
X149080449Y-99285551D01*
X148907623Y-99143716D01*
X148710447Y-99038324D01*
X148496499Y-98973423D01*
X148452907Y-98969130D01*
X148363851Y-98921528D01*
X148197255Y-98870992D01*
X148024001Y-98853928D01*
X147123999Y-98853928D01*
X146950745Y-98870992D01*
X146784149Y-98921528D01*
X146630613Y-99003595D01*
X146496038Y-99114038D01*
X146385595Y-99248613D01*
X146303528Y-99402149D01*
X146252992Y-99568745D01*
X146235928Y-99741999D01*
X146235928Y-100442001D01*
X146252992Y-100615255D01*
X146303528Y-100781851D01*
X146385595Y-100935387D01*
X146496038Y-101069962D01*
X146522891Y-101092000D01*
X146496038Y-101114038D01*
X146385595Y-101248613D01*
X146320979Y-101369500D01*
X145523294Y-101369500D01*
X145485405Y-101298614D01*
X145374962Y-101164038D01*
X145287183Y-101092000D01*
X145374962Y-101019962D01*
X145485405Y-100885386D01*
X145567472Y-100731850D01*
X145618008Y-100565254D01*
X145635072Y-100392000D01*
X145635072Y-99717000D01*
X145618008Y-99543746D01*
X145567472Y-99377150D01*
X145485405Y-99223614D01*
X145374962Y-99089038D01*
X145240386Y-98978595D01*
X145086850Y-98896528D01*
X144985000Y-98865632D01*
X144985000Y-92950507D01*
X145117882Y-92895466D01*
X145426618Y-92689175D01*
X145689175Y-92426618D01*
X145895466Y-92117882D01*
X146037561Y-91774834D01*
X146110000Y-91410656D01*
X146110000Y-91039344D01*
X152340000Y-91039344D01*
X152340000Y-91410656D01*
X152412439Y-91774834D01*
X152554534Y-92117882D01*
X152760825Y-92426618D01*
X153023382Y-92689175D01*
X153332118Y-92895466D01*
X153465000Y-92950508D01*
X153465001Y-98865632D01*
X153363150Y-98896528D01*
X153209614Y-98978595D01*
X153075038Y-99089038D01*
X152964595Y-99223614D01*
X152882528Y-99377150D01*
X152831992Y-99543746D01*
X152814928Y-99717000D01*
X152814928Y-100392000D01*
X152831992Y-100565254D01*
X152882528Y-100731850D01*
X152964595Y-100885386D01*
X153075038Y-101019962D01*
X153162817Y-101092000D01*
X153075038Y-101164038D01*
X152964595Y-101298614D01*
X152882528Y-101452150D01*
X152831992Y-101618746D01*
X152814928Y-101792000D01*
X152814928Y-102467000D01*
X152831992Y-102640254D01*
X152882528Y-102806850D01*
X152964595Y-102960386D01*
X153075038Y-103094962D01*
X153209614Y-103205405D01*
X153363150Y-103287472D01*
X153529746Y-103338008D01*
X153703000Y-103355072D01*
X154653000Y-103355072D01*
X154826254Y-103338008D01*
X154992850Y-103287472D01*
X155146386Y-103205405D01*
X155280962Y-103094962D01*
X155391405Y-102960386D01*
X155429294Y-102889500D01*
X156267068Y-102889500D01*
X156291595Y-102935387D01*
X156402038Y-103069962D01*
X156536613Y-103180405D01*
X156690149Y-103262472D01*
X156856745Y-103313008D01*
X157029999Y-103330072D01*
X157930001Y-103330072D01*
X158103255Y-103313008D01*
X158269851Y-103262472D01*
X158423387Y-103180405D01*
X158557962Y-103069962D01*
X158668405Y-102935387D01*
X158750472Y-102781851D01*
X158801008Y-102615255D01*
X158818072Y-102442001D01*
X158818072Y-101741999D01*
X158801008Y-101568745D01*
X158750472Y-101402149D01*
X158668405Y-101248613D01*
X158557962Y-101114038D01*
X158531109Y-101092000D01*
X158557962Y-101069962D01*
X158668405Y-100935387D01*
X158750472Y-100781851D01*
X158801008Y-100615255D01*
X158818072Y-100442001D01*
X158818072Y-99741999D01*
X158801008Y-99568745D01*
X158750472Y-99402149D01*
X158668405Y-99248613D01*
X158557962Y-99114038D01*
X158423387Y-99003595D01*
X158269851Y-98921528D01*
X158103255Y-98870992D01*
X157930001Y-98853928D01*
X157029999Y-98853928D01*
X156856745Y-98870992D01*
X156690149Y-98921528D01*
X156536613Y-99003595D01*
X156402038Y-99114038D01*
X156291595Y-99248613D01*
X156209528Y-99402149D01*
X156158992Y-99568745D01*
X156141928Y-99741999D01*
X156141928Y-100355271D01*
X156116125Y-100381074D01*
X156057939Y-100369500D01*
X155854061Y-100369500D01*
X155654102Y-100409274D01*
X155534491Y-100458819D01*
X155541072Y-100392000D01*
X155541072Y-99717000D01*
X155524008Y-99543746D01*
X155473472Y-99377150D01*
X155391405Y-99223614D01*
X155280962Y-99089038D01*
X155146386Y-98978595D01*
X154992850Y-98896528D01*
X154985000Y-98894147D01*
X154985000Y-92950507D01*
X155117882Y-92895466D01*
X155426618Y-92689175D01*
X155689175Y-92426618D01*
X155895466Y-92117882D01*
X156037561Y-91774834D01*
X156110000Y-91410656D01*
X156110000Y-91039344D01*
X156037561Y-90675166D01*
X155940260Y-90440260D01*
X156175166Y-90537561D01*
X156539344Y-90610000D01*
X156910656Y-90610000D01*
X157274834Y-90537561D01*
X157617882Y-90395466D01*
X157926618Y-90189175D01*
X158189175Y-89926618D01*
X158395466Y-89617882D01*
X158537561Y-89274834D01*
X158610000Y-88910656D01*
X158610000Y-88539344D01*
X158537561Y-88175166D01*
X158395466Y-87832118D01*
X158189175Y-87523382D01*
X157926618Y-87260825D01*
X157617882Y-87054534D01*
X157274834Y-86912439D01*
X156910656Y-86840000D01*
X156539344Y-86840000D01*
X156175166Y-86912439D01*
X155832118Y-87054534D01*
X155523382Y-87260825D01*
X155260825Y-87523382D01*
X155054534Y-87832118D01*
X154912439Y-88175166D01*
X154840000Y-88539344D01*
X154840000Y-88910656D01*
X154912439Y-89274834D01*
X155009740Y-89509740D01*
X154774834Y-89412439D01*
X154410656Y-89340000D01*
X154039344Y-89340000D01*
X153675166Y-89412439D01*
X153332118Y-89554534D01*
X153023382Y-89760825D01*
X152760825Y-90023382D01*
X152554534Y-90332118D01*
X152412439Y-90675166D01*
X152340000Y-91039344D01*
X146110000Y-91039344D01*
X146037561Y-90675166D01*
X145895466Y-90332118D01*
X145699347Y-90038605D01*
X148091000Y-90038605D01*
X148216914Y-90328577D01*
X148549126Y-90494433D01*
X148907312Y-90592290D01*
X149277706Y-90618389D01*
X149646075Y-90571725D01*
X149998262Y-90454094D01*
X150233086Y-90328577D01*
X150359000Y-90038605D01*
X149225000Y-88904605D01*
X148091000Y-90038605D01*
X145699347Y-90038605D01*
X145689175Y-90023382D01*
X145426618Y-89760825D01*
X145117882Y-89554534D01*
X144774834Y-89412439D01*
X144410656Y-89340000D01*
X144039344Y-89340000D01*
X143675166Y-89412439D01*
X143440260Y-89509740D01*
X143537561Y-89274834D01*
X143610000Y-88910656D01*
X143610000Y-88777706D01*
X147331611Y-88777706D01*
X147378275Y-89146075D01*
X147495906Y-89498262D01*
X147621423Y-89733086D01*
X147911395Y-89859000D01*
X149045395Y-88725000D01*
X149404605Y-88725000D01*
X150538605Y-89859000D01*
X150828577Y-89733086D01*
X150994433Y-89400874D01*
X151092290Y-89042688D01*
X151118389Y-88672294D01*
X151071725Y-88303925D01*
X150954094Y-87951738D01*
X150828577Y-87716914D01*
X150538605Y-87591000D01*
X149404605Y-88725000D01*
X149045395Y-88725000D01*
X147911395Y-87591000D01*
X147621423Y-87716914D01*
X147455567Y-88049126D01*
X147357710Y-88407312D01*
X147331611Y-88777706D01*
X143610000Y-88777706D01*
X143610000Y-88539344D01*
X143537561Y-88175166D01*
X143395466Y-87832118D01*
X143189175Y-87523382D01*
X143077188Y-87411395D01*
X148091000Y-87411395D01*
X149225000Y-88545395D01*
X150359000Y-87411395D01*
X150233086Y-87121423D01*
X149900874Y-86955567D01*
X149542688Y-86857710D01*
X149172294Y-86831611D01*
X148803925Y-86878275D01*
X148451738Y-86995906D01*
X148216914Y-87121423D01*
X148091000Y-87411395D01*
X143077188Y-87411395D01*
X142926618Y-87260825D01*
X142617882Y-87054534D01*
X142274834Y-86912439D01*
X141910656Y-86840000D01*
X141539344Y-86840000D01*
X141175166Y-86912439D01*
X140832118Y-87054534D01*
X140523382Y-87260825D01*
X140260825Y-87523382D01*
X140054534Y-87832118D01*
X139912439Y-88175166D01*
X139840000Y-88539344D01*
X134480000Y-88539344D01*
X134407561Y-88175166D01*
X134265466Y-87832118D01*
X134059175Y-87523382D01*
X133796618Y-87260825D01*
X133487882Y-87054534D01*
X133144834Y-86912439D01*
X132780656Y-86840000D01*
X132409344Y-86840000D01*
X132045166Y-86912439D01*
X131702118Y-87054534D01*
X131393382Y-87260825D01*
X131130825Y-87523382D01*
X130924534Y-87832118D01*
X130782439Y-88175166D01*
X130710000Y-88539344D01*
X130710000Y-88910656D01*
X130782439Y-89274834D01*
X130879740Y-89509740D01*
X130644834Y-89412439D01*
X130280656Y-89340000D01*
X129909344Y-89340000D01*
X129545166Y-89412439D01*
X129202118Y-89554534D01*
X128893382Y-89760825D01*
X128630825Y-90023382D01*
X128424534Y-90332118D01*
X128282439Y-90675166D01*
X128210000Y-91039344D01*
X121980000Y-91039344D01*
X121907561Y-90675166D01*
X121765466Y-90332118D01*
X121569347Y-90038605D01*
X123961000Y-90038605D01*
X124086914Y-90328577D01*
X124419126Y-90494433D01*
X124777312Y-90592290D01*
X125147706Y-90618389D01*
X125516075Y-90571725D01*
X125868262Y-90454094D01*
X126103086Y-90328577D01*
X126229000Y-90038605D01*
X125095000Y-88904605D01*
X123961000Y-90038605D01*
X121569347Y-90038605D01*
X121559175Y-90023382D01*
X121296618Y-89760825D01*
X120987882Y-89554534D01*
X120644834Y-89412439D01*
X120280656Y-89340000D01*
X119909344Y-89340000D01*
X119545166Y-89412439D01*
X119310260Y-89509740D01*
X119407561Y-89274834D01*
X119480000Y-88910656D01*
X119480000Y-88777706D01*
X123201611Y-88777706D01*
X123248275Y-89146075D01*
X123365906Y-89498262D01*
X123491423Y-89733086D01*
X123781395Y-89859000D01*
X124915395Y-88725000D01*
X125274605Y-88725000D01*
X126408605Y-89859000D01*
X126698577Y-89733086D01*
X126864433Y-89400874D01*
X126962290Y-89042688D01*
X126988389Y-88672294D01*
X126941725Y-88303925D01*
X126824094Y-87951738D01*
X126698577Y-87716914D01*
X126408605Y-87591000D01*
X125274605Y-88725000D01*
X124915395Y-88725000D01*
X123781395Y-87591000D01*
X123491423Y-87716914D01*
X123325567Y-88049126D01*
X123227710Y-88407312D01*
X123201611Y-88777706D01*
X119480000Y-88777706D01*
X119480000Y-88539344D01*
X119407561Y-88175166D01*
X119265466Y-87832118D01*
X119059175Y-87523382D01*
X118947188Y-87411395D01*
X123961000Y-87411395D01*
X125095000Y-88545395D01*
X126229000Y-87411395D01*
X126103086Y-87121423D01*
X125770874Y-86955567D01*
X125412688Y-86857710D01*
X125042294Y-86831611D01*
X124673925Y-86878275D01*
X124321738Y-86995906D01*
X124086914Y-87121423D01*
X123961000Y-87411395D01*
X118947188Y-87411395D01*
X118796618Y-87260825D01*
X118487882Y-87054534D01*
X118144834Y-86912439D01*
X117780656Y-86840000D01*
X117409344Y-86840000D01*
X117045166Y-86912439D01*
X116702118Y-87054534D01*
X116393382Y-87260825D01*
X116130825Y-87523382D01*
X115924534Y-87832118D01*
X115782439Y-88175166D01*
X115710000Y-88539344D01*
X110350000Y-88539344D01*
X110277561Y-88175166D01*
X110135466Y-87832118D01*
X109929175Y-87523382D01*
X109666618Y-87260825D01*
X109357882Y-87054534D01*
X109014834Y-86912439D01*
X108650656Y-86840000D01*
X108279344Y-86840000D01*
X107915166Y-86912439D01*
X107572118Y-87054534D01*
X107263382Y-87260825D01*
X107000825Y-87523382D01*
X106794534Y-87832118D01*
X106652439Y-88175166D01*
X106580000Y-88539344D01*
X106580000Y-88910656D01*
X106652439Y-89274834D01*
X106749740Y-89509740D01*
X106514834Y-89412439D01*
X106150656Y-89340000D01*
X105779344Y-89340000D01*
X105415166Y-89412439D01*
X105072118Y-89554534D01*
X104763382Y-89760825D01*
X104500825Y-90023382D01*
X104294534Y-90332118D01*
X104152439Y-90675166D01*
X104080000Y-91039344D01*
X104080000Y-91410656D01*
X104152439Y-91774834D01*
X104294534Y-92117882D01*
X104500825Y-92426618D01*
X104763382Y-92689175D01*
X105072118Y-92895466D01*
X105158001Y-92931040D01*
X105158000Y-99133890D01*
X105103150Y-99150528D01*
X104949614Y-99232595D01*
X104815038Y-99343038D01*
X104704595Y-99477614D01*
X104622528Y-99631150D01*
X104571992Y-99797746D01*
X104554928Y-99971000D01*
X104554928Y-100646000D01*
X104571992Y-100819254D01*
X104622528Y-100985850D01*
X104704595Y-101139386D01*
X104815038Y-101273962D01*
X104902817Y-101346000D01*
X104815038Y-101418038D01*
X104704595Y-101552614D01*
X104622528Y-101706150D01*
X104571992Y-101872746D01*
X104554928Y-102046000D01*
X104554928Y-102671771D01*
X104016997Y-103209702D01*
X103987999Y-103233500D01*
X103964201Y-103262498D01*
X103964200Y-103262499D01*
X103893025Y-103349225D01*
X103822453Y-103481255D01*
X103778997Y-103624516D01*
X103768984Y-103726182D01*
X100652072Y-100609271D01*
X100652072Y-99995999D01*
X100635008Y-99822745D01*
X100584472Y-99656149D01*
X100502405Y-99502613D01*
X100391962Y-99368038D01*
X100257387Y-99257595D01*
X100103851Y-99175528D01*
X99937255Y-99124992D01*
X99764001Y-99107928D01*
X98863999Y-99107928D01*
X98690745Y-99124992D01*
X98524149Y-99175528D01*
X98370613Y-99257595D01*
X98236038Y-99368038D01*
X98125595Y-99502613D01*
X98043528Y-99656149D01*
X97992992Y-99822745D01*
X97975928Y-99995999D01*
X97975928Y-100696001D01*
X97992992Y-100869255D01*
X98043528Y-101035851D01*
X98125595Y-101189387D01*
X98236038Y-101323962D01*
X98262891Y-101346000D01*
X98236038Y-101368038D01*
X98125595Y-101502613D01*
X98060979Y-101623500D01*
X97263294Y-101623500D01*
X97225405Y-101552614D01*
X97114962Y-101418038D01*
X97027183Y-101346000D01*
X97114962Y-101273962D01*
X97225405Y-101139386D01*
X97307472Y-100985850D01*
X97358008Y-100819254D01*
X97375072Y-100646000D01*
X97375072Y-99971000D01*
X97358008Y-99797746D01*
X97307472Y-99631150D01*
X97225405Y-99477614D01*
X97114962Y-99343038D01*
X96980386Y-99232595D01*
X96826850Y-99150528D01*
X96725000Y-99119632D01*
X96725000Y-92950507D01*
X96857882Y-92895466D01*
X97166618Y-92689175D01*
X97429175Y-92426618D01*
X97635466Y-92117882D01*
X97777561Y-91774834D01*
X97850000Y-91410656D01*
X97850000Y-91039344D01*
X97777561Y-90675166D01*
X97635466Y-90332118D01*
X97429175Y-90023382D01*
X97166618Y-89760825D01*
X96857882Y-89554534D01*
X96514834Y-89412439D01*
X96150656Y-89340000D01*
X95779344Y-89340000D01*
X95415166Y-89412439D01*
X95180260Y-89509740D01*
X95277561Y-89274834D01*
X95350000Y-88910656D01*
X95350000Y-88539344D01*
X99080000Y-88539344D01*
X99080000Y-88910656D01*
X99152439Y-89274834D01*
X99294534Y-89617882D01*
X99500825Y-89926618D01*
X99763382Y-90189175D01*
X100072118Y-90395466D01*
X100415166Y-90537561D01*
X100779344Y-90610000D01*
X101150656Y-90610000D01*
X101514834Y-90537561D01*
X101857882Y-90395466D01*
X102166618Y-90189175D01*
X102429175Y-89926618D01*
X102635466Y-89617882D01*
X102777561Y-89274834D01*
X102850000Y-88910656D01*
X102850000Y-88539344D01*
X102777561Y-88175166D01*
X102635466Y-87832118D01*
X102429175Y-87523382D01*
X102166618Y-87260825D01*
X101857882Y-87054534D01*
X101514834Y-86912439D01*
X101150656Y-86840000D01*
X100779344Y-86840000D01*
X100415166Y-86912439D01*
X100072118Y-87054534D01*
X99763382Y-87260825D01*
X99500825Y-87523382D01*
X99294534Y-87832118D01*
X99152439Y-88175166D01*
X99080000Y-88539344D01*
X95350000Y-88539344D01*
X95277561Y-88175166D01*
X95135466Y-87832118D01*
X94929175Y-87523382D01*
X94666618Y-87260825D01*
X94357882Y-87054534D01*
X94014834Y-86912439D01*
X93650656Y-86840000D01*
X93279344Y-86840000D01*
X92915166Y-86912439D01*
X92572118Y-87054534D01*
X92263382Y-87260825D01*
X92000825Y-87523382D01*
X91794534Y-87832118D01*
X91652439Y-88175166D01*
X91580000Y-88539344D01*
X82240000Y-88539344D01*
X82240000Y-88100335D01*
X82222130Y-87918898D01*
X82151511Y-87686099D01*
X82036833Y-87471551D01*
X81882502Y-87283498D01*
X81765000Y-87187067D01*
X81765000Y-81684933D01*
X81882502Y-81588502D01*
X82036833Y-81400449D01*
X82151511Y-81185901D01*
X82222130Y-80953102D01*
X82240000Y-80771665D01*
X82240000Y-79750336D01*
X82222130Y-79568898D01*
X82151511Y-79336099D01*
X82036833Y-79121551D01*
X81882502Y-78933498D01*
X81694449Y-78779167D01*
X81479901Y-78664489D01*
X81247102Y-78593870D01*
X81005000Y-78570025D01*
X80762899Y-78593870D01*
X80530100Y-78664489D01*
X80315552Y-78779167D01*
X80127499Y-78933498D01*
X79973168Y-79121551D01*
X79858489Y-79336099D01*
X79808467Y-79501000D01*
X69401533Y-79501000D01*
X69351511Y-79336099D01*
X69236833Y-79121551D01*
X69082502Y-78933498D01*
X68894449Y-78779167D01*
X68679901Y-78664489D01*
X68447102Y-78593870D01*
X68205000Y-78570025D01*
X67962899Y-78593870D01*
X67730100Y-78664489D01*
X67515552Y-78779167D01*
X67327499Y-78933498D01*
X67173168Y-79121551D01*
X67120000Y-79221021D01*
X67120000Y-79081003D01*
X67005288Y-78504308D01*
X66780273Y-77961072D01*
X66453601Y-77472174D01*
X66037826Y-77056399D01*
X65743895Y-76860000D01*
X95678797Y-76860000D01*
X95415166Y-76912439D01*
%TA.AperFunction,Conductor*%
D23*
G36*
X95415166Y-76912439D02*
G01*
X95072118Y-77054534D01*
X94763382Y-77260825D01*
X94500825Y-77523382D01*
X94294534Y-77832118D01*
X94152439Y-78175166D01*
X94080000Y-78539344D01*
X94080000Y-78910656D01*
X94152439Y-79274834D01*
X94294534Y-79617882D01*
X94500825Y-79926618D01*
X94763382Y-80189175D01*
X95072118Y-80395466D01*
X95415166Y-80537561D01*
X95779344Y-80610000D01*
X96150656Y-80610000D01*
X96514834Y-80537561D01*
X96857882Y-80395466D01*
X97166618Y-80189175D01*
X97429175Y-79926618D01*
X97635466Y-79617882D01*
X97777561Y-79274834D01*
X97850000Y-78910656D01*
X97850000Y-78539344D01*
X97777561Y-78175166D01*
X97635466Y-77832118D01*
X97429175Y-77523382D01*
X97166618Y-77260825D01*
X96857882Y-77054534D01*
X96514834Y-76912439D01*
X96251203Y-76860000D01*
X105678797Y-76860000D01*
X105415166Y-76912439D01*
X105072118Y-77054534D01*
X104763382Y-77260825D01*
X104500825Y-77523382D01*
X104294534Y-77832118D01*
X104152439Y-78175166D01*
X104080000Y-78539344D01*
X104080000Y-78910656D01*
X104152439Y-79274834D01*
X104294534Y-79617882D01*
X104500825Y-79926618D01*
X104763382Y-80189175D01*
X105072118Y-80395466D01*
X105415166Y-80537561D01*
X105779344Y-80610000D01*
X106150656Y-80610000D01*
X106514834Y-80537561D01*
X106857882Y-80395466D01*
X107166618Y-80189175D01*
X107429175Y-79926618D01*
X107635466Y-79617882D01*
X107777561Y-79274834D01*
X107850000Y-78910656D01*
X107850000Y-78539344D01*
X107777561Y-78175166D01*
X107635466Y-77832118D01*
X107429175Y-77523382D01*
X107166618Y-77260825D01*
X106857882Y-77054534D01*
X106514834Y-76912439D01*
X106251203Y-76860000D01*
X119808797Y-76860000D01*
X119545166Y-76912439D01*
X119202118Y-77054534D01*
X118893382Y-77260825D01*
X118630825Y-77523382D01*
X118424534Y-77832118D01*
X118282439Y-78175166D01*
X118210000Y-78539344D01*
X118210000Y-78910656D01*
X118282439Y-79274834D01*
X118424534Y-79617882D01*
X118630825Y-79926618D01*
X118893382Y-80189175D01*
X119202118Y-80395466D01*
X119545166Y-80537561D01*
X119909344Y-80610000D01*
X120280656Y-80610000D01*
X120644834Y-80537561D01*
X120987882Y-80395466D01*
X121296618Y-80189175D01*
X121559175Y-79926618D01*
X121765466Y-79617882D01*
X121907561Y-79274834D01*
X121980000Y-78910656D01*
X121980000Y-78539344D01*
X121907561Y-78175166D01*
X121765466Y-77832118D01*
X121559175Y-77523382D01*
X121296618Y-77260825D01*
X120987882Y-77054534D01*
X120644834Y-76912439D01*
X120381203Y-76860000D01*
X129808797Y-76860000D01*
X129545166Y-76912439D01*
X129202118Y-77054534D01*
X128893382Y-77260825D01*
X128630825Y-77523382D01*
X128424534Y-77832118D01*
X128282439Y-78175166D01*
X128210000Y-78539344D01*
X128210000Y-78910656D01*
X128282439Y-79274834D01*
X128424534Y-79617882D01*
X128630825Y-79926618D01*
X128893382Y-80189175D01*
X129202118Y-80395466D01*
X129545166Y-80537561D01*
X129909344Y-80610000D01*
X130280656Y-80610000D01*
X130644834Y-80537561D01*
X130987882Y-80395466D01*
X131296618Y-80189175D01*
X131559175Y-79926618D01*
X131765466Y-79617882D01*
X131907561Y-79274834D01*
X131980000Y-78910656D01*
X131980000Y-78539344D01*
X131907561Y-78175166D01*
X131765466Y-77832118D01*
X131559175Y-77523382D01*
X131296618Y-77260825D01*
X130987882Y-77054534D01*
X130644834Y-76912439D01*
X130381203Y-76860000D01*
X143938797Y-76860000D01*
X143675166Y-76912439D01*
X143332118Y-77054534D01*
X143023382Y-77260825D01*
X142760825Y-77523382D01*
X142554534Y-77832118D01*
X142412439Y-78175166D01*
X142340000Y-78539344D01*
X142340000Y-78910656D01*
X142412439Y-79274834D01*
X142554534Y-79617882D01*
X142760825Y-79926618D01*
X143023382Y-80189175D01*
X143332118Y-80395466D01*
X143675166Y-80537561D01*
X144039344Y-80610000D01*
X144410656Y-80610000D01*
X144774834Y-80537561D01*
X145117882Y-80395466D01*
X145426618Y-80189175D01*
X145689175Y-79926618D01*
X145895466Y-79617882D01*
X146037561Y-79274834D01*
X146110000Y-78910656D01*
X146110000Y-78539344D01*
X146037561Y-78175166D01*
X145895466Y-77832118D01*
X145689175Y-77523382D01*
X145426618Y-77260825D01*
X145117882Y-77054534D01*
X144774834Y-76912439D01*
X144511203Y-76860000D01*
X153938797Y-76860000D01*
X153675166Y-76912439D01*
X153332118Y-77054534D01*
X153023382Y-77260825D01*
X152760825Y-77523382D01*
X152554534Y-77832118D01*
X152412439Y-78175166D01*
X152340000Y-78539344D01*
X152340000Y-78910656D01*
X152412439Y-79274834D01*
X152554534Y-79617882D01*
X152760825Y-79926618D01*
X153023382Y-80189175D01*
X153332118Y-80395466D01*
X153675166Y-80537561D01*
X154039344Y-80610000D01*
X154410656Y-80610000D01*
X154774834Y-80537561D01*
X155117882Y-80395466D01*
X155426618Y-80189175D01*
X155689175Y-79926618D01*
X155895466Y-79617882D01*
X156037561Y-79274834D01*
X156110000Y-78910656D01*
X156110000Y-78539344D01*
X156037561Y-78175166D01*
X155895466Y-77832118D01*
X155689175Y-77523382D01*
X155426618Y-77260825D01*
X155117882Y-77054534D01*
X154774834Y-76912439D01*
X154511203Y-76860000D01*
X163110105Y-76860000D01*
X162816174Y-77056399D01*
X162400399Y-77472174D01*
X162073727Y-77961072D01*
X161848712Y-78504308D01*
X161734000Y-79081003D01*
X161734000Y-79668997D01*
X161848712Y-80245692D01*
X162073727Y-80788928D01*
X162400399Y-81277826D01*
X162816174Y-81693601D01*
X163305072Y-82020273D01*
X163848308Y-82245288D01*
X164425003Y-82360000D01*
X165012997Y-82360000D01*
X165589692Y-82245288D01*
X166132928Y-82020273D01*
X166621826Y-81693601D01*
X167037601Y-81277826D01*
X167234001Y-80983893D01*
X167234000Y-139996105D01*
X167037601Y-139702174D01*
X166621826Y-139286399D01*
X166132928Y-138959727D01*
X165589692Y-138734712D01*
X165012997Y-138620000D01*
X164425003Y-138620000D01*
X163848308Y-138734712D01*
X163305072Y-138959727D01*
X162816174Y-139286399D01*
X162400399Y-139702174D01*
X162073727Y-140191072D01*
X161848712Y-140734308D01*
X161734000Y-141311003D01*
X161734000Y-141898997D01*
X161848712Y-142475692D01*
X162073727Y-143018928D01*
X162400399Y-143507826D01*
X162816174Y-143923601D01*
X163110105Y-144120000D01*
X65743895Y-144120000D01*
X66037826Y-143923601D01*
X66453601Y-143507826D01*
X66780273Y-143018928D01*
X67005288Y-142475692D01*
X67013978Y-142432000D01*
X70405928Y-142432000D01*
X70418188Y-142556482D01*
X70454498Y-142676180D01*
X70513463Y-142786494D01*
X70592815Y-142883185D01*
X70689506Y-142962537D01*
X70799820Y-143021502D01*
X70919518Y-143057812D01*
X71044000Y-143070072D01*
X71333250Y-143067000D01*
X71492000Y-142908250D01*
X71492000Y-141859000D01*
X70567750Y-141859000D01*
X70409000Y-142017750D01*
X70405928Y-142432000D01*
X67013978Y-142432000D01*
X67120000Y-141898997D01*
X67120000Y-141311003D01*
X67064503Y-141032000D01*
X70405928Y-141032000D01*
X70409000Y-141446250D01*
X70567750Y-141605000D01*
X71492000Y-141605000D01*
X71492000Y-140555750D01*
X71746000Y-140555750D01*
X71746000Y-141605000D01*
X71766000Y-141605000D01*
X71766000Y-141859000D01*
X71746000Y-141859000D01*
X71746000Y-142908250D01*
X71904750Y-143067000D01*
X72194000Y-143070072D01*
X72318482Y-143057812D01*
X72438180Y-143021502D01*
X72548494Y-142962537D01*
X72645185Y-142883185D01*
X72710658Y-142803406D01*
X72716038Y-142809962D01*
X72850613Y-142920405D01*
X73004149Y-143002472D01*
X73170745Y-143053008D01*
X73343999Y-143070072D01*
X73994001Y-143070072D01*
X74167255Y-143053008D01*
X74333851Y-143002472D01*
X74487387Y-142920405D01*
X74621962Y-142809962D01*
X74732405Y-142675387D01*
X74814472Y-142521851D01*
X74823527Y-142492000D01*
X75036473Y-142492000D01*
X75045528Y-142521851D01*
X75127595Y-142675387D01*
X75238038Y-142809962D01*
X75372613Y-142920405D01*
X75526149Y-143002472D01*
X75692745Y-143053008D01*
X75865999Y-143070072D01*
X76566001Y-143070072D01*
X76739255Y-143053008D01*
X76905851Y-143002472D01*
X77059387Y-142920405D01*
X77193962Y-142809962D01*
X77216000Y-142783109D01*
X77238038Y-142809962D01*
X77372613Y-142920405D01*
X77526149Y-143002472D01*
X77692745Y-143053008D01*
X77865999Y-143070072D01*
X78566001Y-143070072D01*
X78739255Y-143053008D01*
X78905851Y-143002472D01*
X79059387Y-142920405D01*
X79193962Y-142809962D01*
X79304405Y-142675387D01*
X79386472Y-142521851D01*
X79413727Y-142432000D01*
X81073928Y-142432000D01*
X81086188Y-142556482D01*
X81122498Y-142676180D01*
X81181463Y-142786494D01*
X81260815Y-142883185D01*
X81357506Y-142962537D01*
X81467820Y-143021502D01*
X81587518Y-143057812D01*
X81712000Y-143070072D01*
X82001250Y-143067000D01*
X82160000Y-142908250D01*
X82160000Y-141859000D01*
X81235750Y-141859000D01*
X81077000Y-142017750D01*
X81073928Y-142432000D01*
X79413727Y-142432000D01*
X79437008Y-142355255D01*
X79454072Y-142182001D01*
X79454072Y-141281999D01*
X79437008Y-141108745D01*
X79413728Y-141032000D01*
X81073928Y-141032000D01*
X81077000Y-141446250D01*
X81235750Y-141605000D01*
X82160000Y-141605000D01*
X82160000Y-140555750D01*
X82414000Y-140555750D01*
X82414000Y-141605000D01*
X82434000Y-141605000D01*
X82434000Y-141859000D01*
X82414000Y-141859000D01*
X82414000Y-142908250D01*
X82572750Y-143067000D01*
X82862000Y-143070072D01*
X82986482Y-143057812D01*
X83106180Y-143021502D01*
X83216494Y-142962537D01*
X83313185Y-142883185D01*
X83378658Y-142803406D01*
X83384038Y-142809962D01*
X83518613Y-142920405D01*
X83672149Y-143002472D01*
X83838745Y-143053008D01*
X84011999Y-143070072D01*
X84662001Y-143070072D01*
X84835255Y-143053008D01*
X85001851Y-143002472D01*
X85155387Y-142920405D01*
X85289962Y-142809962D01*
X85400405Y-142675387D01*
X85482472Y-142521851D01*
X85491527Y-142492000D01*
X85704473Y-142492000D01*
X85713528Y-142521851D01*
X85795595Y-142675387D01*
X85906038Y-142809962D01*
X86040613Y-142920405D01*
X86194149Y-143002472D01*
X86360745Y-143053008D01*
X86533999Y-143070072D01*
X87234001Y-143070072D01*
X87407255Y-143053008D01*
X87573851Y-143002472D01*
X87727387Y-142920405D01*
X87861962Y-142809962D01*
X87884000Y-142783109D01*
X87906038Y-142809962D01*
X88040613Y-142920405D01*
X88194149Y-143002472D01*
X88360745Y-143053008D01*
X88533999Y-143070072D01*
X89234001Y-143070072D01*
X89407255Y-143053008D01*
X89573851Y-143002472D01*
X89727387Y-142920405D01*
X89861962Y-142809962D01*
X89972405Y-142675387D01*
X90054472Y-142521851D01*
X90081727Y-142432000D01*
X91741928Y-142432000D01*
X91754188Y-142556482D01*
X91790498Y-142676180D01*
X91849463Y-142786494D01*
X91928815Y-142883185D01*
X92025506Y-142962537D01*
X92135820Y-143021502D01*
X92255518Y-143057812D01*
X92380000Y-143070072D01*
X92669250Y-143067000D01*
X92828000Y-142908250D01*
X92828000Y-141859000D01*
X91903750Y-141859000D01*
X91745000Y-142017750D01*
X91741928Y-142432000D01*
X90081727Y-142432000D01*
X90105008Y-142355255D01*
X90122072Y-142182001D01*
X90122072Y-141281999D01*
X90105008Y-141108745D01*
X90081728Y-141032000D01*
X91741928Y-141032000D01*
X91745000Y-141446250D01*
X91903750Y-141605000D01*
X92828000Y-141605000D01*
X92828000Y-140555750D01*
X93082000Y-140555750D01*
X93082000Y-141605000D01*
X93102000Y-141605000D01*
X93102000Y-141859000D01*
X93082000Y-141859000D01*
X93082000Y-142908250D01*
X93240750Y-143067000D01*
X93530000Y-143070072D01*
X93654482Y-143057812D01*
X93774180Y-143021502D01*
X93884494Y-142962537D01*
X93981185Y-142883185D01*
X94046658Y-142803406D01*
X94052038Y-142809962D01*
X94186613Y-142920405D01*
X94340149Y-143002472D01*
X94506745Y-143053008D01*
X94679999Y-143070072D01*
X95330001Y-143070072D01*
X95503255Y-143053008D01*
X95669851Y-143002472D01*
X95823387Y-142920405D01*
X95957962Y-142809962D01*
X96068405Y-142675387D01*
X96150472Y-142521851D01*
X96159527Y-142492000D01*
X96372473Y-142492000D01*
X96381528Y-142521851D01*
X96463595Y-142675387D01*
X96574038Y-142809962D01*
X96708613Y-142920405D01*
X96862149Y-143002472D01*
X97028745Y-143053008D01*
X97201999Y-143070072D01*
X97902001Y-143070072D01*
X98075255Y-143053008D01*
X98241851Y-143002472D01*
X98395387Y-142920405D01*
X98529962Y-142809962D01*
X98552000Y-142783109D01*
X98574038Y-142809962D01*
X98708613Y-142920405D01*
X98862149Y-143002472D01*
X99028745Y-143053008D01*
X99201999Y-143070072D01*
X99902001Y-143070072D01*
X100075255Y-143053008D01*
X100241851Y-143002472D01*
X100395387Y-142920405D01*
X100529962Y-142809962D01*
X100640405Y-142675387D01*
X100722472Y-142521851D01*
X100773008Y-142355255D01*
X100790072Y-142182001D01*
X100790072Y-141281999D01*
X100773008Y-141108745D01*
X100722472Y-140942149D01*
X100640405Y-140788613D01*
X100529962Y-140654038D01*
X100395387Y-140543595D01*
X100328000Y-140507576D01*
X100328000Y-127957711D01*
X100371937Y-127913774D01*
X100485205Y-127744256D01*
X100563226Y-127555898D01*
X100603000Y-127355939D01*
X100603000Y-127152061D01*
X100563226Y-126952102D01*
X100485205Y-126763744D01*
X100371937Y-126594226D01*
X100227774Y-126450063D01*
X100058256Y-126336795D01*
X99869898Y-126258774D01*
X99669939Y-126219000D01*
X99466061Y-126219000D01*
X99266102Y-126258774D01*
X99077744Y-126336795D01*
X98908226Y-126450063D01*
X98764063Y-126594226D01*
X98650795Y-126763744D01*
X98572774Y-126952102D01*
X98533000Y-127152061D01*
X98533000Y-127355939D01*
X98572774Y-127555898D01*
X98650795Y-127744256D01*
X98764063Y-127913774D01*
X98808000Y-127957711D01*
X98808001Y-140490471D01*
X98708613Y-140543595D01*
X98574038Y-140654038D01*
X98552000Y-140680891D01*
X98529962Y-140654038D01*
X98395387Y-140543595D01*
X98241851Y-140461528D01*
X98075255Y-140410992D01*
X97902001Y-140393928D01*
X97201999Y-140393928D01*
X97028745Y-140410992D01*
X96862149Y-140461528D01*
X96708613Y-140543595D01*
X96574038Y-140654038D01*
X96463595Y-140788613D01*
X96381528Y-140942149D01*
X96372473Y-140972000D01*
X96159527Y-140972000D01*
X96150472Y-140942149D01*
X96068405Y-140788613D01*
X95957962Y-140654038D01*
X95823387Y-140543595D01*
X95669851Y-140461528D01*
X95503255Y-140410992D01*
X95330001Y-140393928D01*
X94679999Y-140393928D01*
X94506745Y-140410992D01*
X94340149Y-140461528D01*
X94186613Y-140543595D01*
X94052038Y-140654038D01*
X94046658Y-140660594D01*
X93981185Y-140580815D01*
X93884494Y-140501463D01*
X93774180Y-140442498D01*
X93654482Y-140406188D01*
X93530000Y-140393928D01*
X93240750Y-140397000D01*
X93082000Y-140555750D01*
X92828000Y-140555750D01*
X92669250Y-140397000D01*
X92380000Y-140393928D01*
X92255518Y-140406188D01*
X92135820Y-140442498D01*
X92025506Y-140501463D01*
X91928815Y-140580815D01*
X91849463Y-140677506D01*
X91790498Y-140787820D01*
X91754188Y-140907518D01*
X91741928Y-141032000D01*
X90081728Y-141032000D01*
X90054472Y-140942149D01*
X89972405Y-140788613D01*
X89861962Y-140654038D01*
X89727387Y-140543595D01*
X89573851Y-140461528D01*
X89407255Y-140410992D01*
X89406000Y-140410868D01*
X89406000Y-123639711D01*
X89449937Y-123595774D01*
X89563205Y-123426256D01*
X89641226Y-123237898D01*
X89681000Y-123037939D01*
X89681000Y-122834061D01*
X89641226Y-122634102D01*
X89563205Y-122445744D01*
X89449937Y-122276226D01*
X89305774Y-122132063D01*
X89136256Y-122018795D01*
X88947898Y-121940774D01*
X88747939Y-121901000D01*
X88544061Y-121901000D01*
X88344102Y-121940774D01*
X88155744Y-122018795D01*
X87986226Y-122132063D01*
X87842063Y-122276226D01*
X87728795Y-122445744D01*
X87650774Y-122634102D01*
X87611000Y-122834061D01*
X87611000Y-123037939D01*
X87650774Y-123237898D01*
X87728795Y-123426256D01*
X87842063Y-123595774D01*
X87886000Y-123639711D01*
X87886001Y-140678453D01*
X87884000Y-140680891D01*
X87861962Y-140654038D01*
X87727387Y-140543595D01*
X87573851Y-140461528D01*
X87407255Y-140410992D01*
X87234001Y-140393928D01*
X86533999Y-140393928D01*
X86360745Y-140410992D01*
X86194149Y-140461528D01*
X86040613Y-140543595D01*
X85906038Y-140654038D01*
X85795595Y-140788613D01*
X85713528Y-140942149D01*
X85704473Y-140972000D01*
X85491527Y-140972000D01*
X85482472Y-140942149D01*
X85400405Y-140788613D01*
X85289962Y-140654038D01*
X85155387Y-140543595D01*
X85001851Y-140461528D01*
X84835255Y-140410992D01*
X84662001Y-140393928D01*
X84011999Y-140393928D01*
X83838745Y-140410992D01*
X83672149Y-140461528D01*
X83518613Y-140543595D01*
X83384038Y-140654038D01*
X83378658Y-140660594D01*
X83313185Y-140580815D01*
X83216494Y-140501463D01*
X83106180Y-140442498D01*
X82986482Y-140406188D01*
X82862000Y-140393928D01*
X82572750Y-140397000D01*
X82414000Y-140555750D01*
X82160000Y-140555750D01*
X82001250Y-140397000D01*
X81712000Y-140393928D01*
X81587518Y-140406188D01*
X81467820Y-140442498D01*
X81357506Y-140501463D01*
X81260815Y-140580815D01*
X81181463Y-140677506D01*
X81122498Y-140787820D01*
X81086188Y-140907518D01*
X81073928Y-141032000D01*
X79413728Y-141032000D01*
X79386472Y-140942149D01*
X79304405Y-140788613D01*
X79193962Y-140654038D01*
X79059387Y-140543595D01*
X78905851Y-140461528D01*
X78739255Y-140410992D01*
X78651010Y-140402301D01*
X78651010Y-119227751D01*
X78656500Y-119172009D01*
X78651010Y-119116267D01*
X78651010Y-119116258D01*
X78634587Y-118949511D01*
X78569686Y-118735563D01*
X78464294Y-118538387D01*
X78322459Y-118365561D01*
X78279151Y-118330019D01*
X75693143Y-115744012D01*
X75563622Y-115637717D01*
X75366446Y-115532324D01*
X75152498Y-115467423D01*
X74930000Y-115445509D01*
X74707502Y-115467423D01*
X74493554Y-115532324D01*
X74296378Y-115637717D01*
X74123552Y-115779552D01*
X73981717Y-115952378D01*
X73876324Y-116149554D01*
X73811423Y-116363502D01*
X73789509Y-116586000D01*
X73811423Y-116808498D01*
X73876324Y-117022446D01*
X73981717Y-117219622D01*
X74088012Y-117349143D01*
X76381010Y-119642142D01*
X76381011Y-140393928D01*
X75865999Y-140393928D01*
X75692745Y-140410992D01*
X75526149Y-140461528D01*
X75372613Y-140543595D01*
X75238038Y-140654038D01*
X75127595Y-140788613D01*
X75045528Y-140942149D01*
X75036473Y-140972000D01*
X74823527Y-140972000D01*
X74814472Y-140942149D01*
X74732405Y-140788613D01*
X74621962Y-140654038D01*
X74487387Y-140543595D01*
X74333851Y-140461528D01*
X74167255Y-140410992D01*
X73994001Y-140393928D01*
X73343999Y-140393928D01*
X73170745Y-140410992D01*
X73004149Y-140461528D01*
X72850613Y-140543595D01*
X72716038Y-140654038D01*
X72710658Y-140660594D01*
X72645185Y-140580815D01*
X72548494Y-140501463D01*
X72438180Y-140442498D01*
X72318482Y-140406188D01*
X72194000Y-140393928D01*
X71904750Y-140397000D01*
X71746000Y-140555750D01*
X71492000Y-140555750D01*
X71333250Y-140397000D01*
X71044000Y-140393928D01*
X70919518Y-140406188D01*
X70799820Y-140442498D01*
X70689506Y-140501463D01*
X70592815Y-140580815D01*
X70513463Y-140677506D01*
X70454498Y-140787820D01*
X70418188Y-140907518D01*
X70405928Y-141032000D01*
X67064503Y-141032000D01*
X67005288Y-140734308D01*
X66780273Y-140191072D01*
X66453601Y-139702174D01*
X66037826Y-139286399D01*
X65548928Y-138959727D01*
X65005692Y-138734712D01*
X64428997Y-138620000D01*
X63841003Y-138620000D01*
X63264308Y-138734712D01*
X62721072Y-138959727D01*
X62232174Y-139286399D01*
X61816399Y-139702174D01*
X61620000Y-139996105D01*
X61620000Y-80983895D01*
X61816399Y-81277826D01*
X62232174Y-81693601D01*
X62721072Y-82020273D01*
X63264308Y-82245288D01*
X63841003Y-82360000D01*
X64428997Y-82360000D01*
X65005692Y-82245288D01*
X65548928Y-82020273D01*
X66037826Y-81693601D01*
X66453601Y-81277826D01*
X66780273Y-80788928D01*
X66970000Y-80330885D01*
X66970000Y-80771664D01*
X66987870Y-80953101D01*
X67058489Y-81185900D01*
X67173167Y-81400448D01*
X67327498Y-81588502D01*
X67515551Y-81742833D01*
X67730099Y-81857511D01*
X67962898Y-81928130D01*
X68205000Y-81951975D01*
X68447101Y-81928130D01*
X68679900Y-81857511D01*
X68894448Y-81742833D01*
X69082502Y-81588502D01*
X69236833Y-81400449D01*
X69351511Y-81185901D01*
X69401533Y-81021000D01*
X79808467Y-81021000D01*
X79858489Y-81185900D01*
X79973167Y-81400448D01*
X80127498Y-81588502D01*
X80245000Y-81684933D01*
X80245001Y-87187067D01*
X80127499Y-87283498D01*
X79973168Y-87471551D01*
X79858489Y-87686099D01*
X79787870Y-87918898D01*
X79770000Y-88100335D01*
X79770000Y-89096348D01*
X79699443Y-88926008D01*
X79564287Y-88723733D01*
X79392267Y-88551713D01*
X79255607Y-88460400D01*
X79292540Y-88371236D01*
X79340000Y-88132637D01*
X79340000Y-87889363D01*
X79292540Y-87650764D01*
X79199443Y-87426008D01*
X79064287Y-87223733D01*
X78892267Y-87051713D01*
X78689992Y-86916557D01*
X78563148Y-86864017D01*
X77646995Y-85947864D01*
X77611448Y-85904550D01*
X77438622Y-85762715D01*
X77241446Y-85657323D01*
X77027498Y-85592422D01*
X76860751Y-85575999D01*
X76860750Y-85575999D01*
X76804999Y-85570508D01*
X76749248Y-85575999D01*
X67872261Y-85575999D01*
X67816510Y-85570508D01*
X67760758Y-85575999D01*
X67594011Y-85592422D01*
X67380063Y-85657323D01*
X67182887Y-85762715D01*
X67010061Y-85904550D01*
X66974518Y-85947859D01*
X66141854Y-86780524D01*
X66098541Y-86816070D01*
X65956706Y-86988896D01*
X65851315Y-87186072D01*
X65851314Y-87186073D01*
X65786413Y-87400021D01*
X65764499Y-87622519D01*
X65769990Y-87678271D01*
X65769991Y-96842729D01*
X65764499Y-96898490D01*
X65786413Y-97120988D01*
X65851314Y-97334936D01*
X65851315Y-97334937D01*
X65956707Y-97532113D01*
X66098542Y-97704939D01*
X66141850Y-97740481D01*
X67207368Y-98806000D01*
X65516865Y-100496504D01*
X65473551Y-100532051D01*
X65331716Y-100704877D01*
X65243855Y-100869255D01*
X65226324Y-100902054D01*
X65161423Y-101116002D01*
X65139509Y-101338500D01*
X65145000Y-101394252D01*
X65145000Y-102532498D01*
X65078815Y-102586815D01*
X64999463Y-102683506D01*
X64940498Y-102793820D01*
X64904188Y-102913518D01*
X64891928Y-103038000D01*
X64891928Y-105038000D01*
X64904188Y-105162482D01*
X64940498Y-105282180D01*
X64999463Y-105392494D01*
X65078815Y-105489185D01*
X65175506Y-105568537D01*
X65285820Y-105627502D01*
X65405518Y-105663812D01*
X65530000Y-105676072D01*
X67030000Y-105676072D01*
X67154482Y-105663812D01*
X67274180Y-105627502D01*
X67384494Y-105568537D01*
X67430000Y-105531191D01*
X67445000Y-105543502D01*
X67445000Y-105982245D01*
X67439509Y-106038000D01*
X67445000Y-106093752D01*
X67445001Y-108699928D01*
X66680000Y-108699928D01*
X66555518Y-108712188D01*
X66435820Y-108748498D01*
X66325506Y-108807463D01*
X66228815Y-108886815D01*
X66149463Y-108983506D01*
X66090498Y-109093820D01*
X66054188Y-109213518D01*
X66041928Y-109338000D01*
X66041928Y-111338000D01*
X66054188Y-111462482D01*
X66090498Y-111582180D01*
X66149463Y-111692494D01*
X66228815Y-111789185D01*
X66325506Y-111868537D01*
X66435820Y-111927502D01*
X66555518Y-111963812D01*
X66680000Y-111976072D01*
X67445001Y-111976072D01*
X67445001Y-113482239D01*
X67439509Y-113538000D01*
X67461423Y-113760498D01*
X67526324Y-113974446D01*
X67539696Y-113999463D01*
X67631717Y-114171623D01*
X67773552Y-114344449D01*
X67816860Y-114379991D01*
X69340856Y-115903988D01*
X69470376Y-116010283D01*
X69667552Y-116115675D01*
X69881500Y-116180576D01*
X70103999Y-116202490D01*
X70326498Y-116180576D01*
X70540446Y-116115675D01*
X70737622Y-116010283D01*
X70910448Y-115868448D01*
X71052283Y-115695622D01*
X71157675Y-115498446D01*
X71222576Y-115284498D01*
X71244490Y-115061999D01*
X71222576Y-114839500D01*
X71157675Y-114625552D01*
X71052283Y-114428376D01*
X70945988Y-114298856D01*
X69715000Y-113067869D01*
X69715000Y-111976072D01*
X70480000Y-111976072D01*
X70604482Y-111963812D01*
X70724180Y-111927502D01*
X70834494Y-111868537D01*
X70931185Y-111789185D01*
X71010537Y-111692494D01*
X71069502Y-111582180D01*
X71105812Y-111462482D01*
X71118072Y-111338000D01*
X71118072Y-109592146D01*
X81415000Y-109592146D01*
X81415000Y-110610752D01*
X81431423Y-110777499D01*
X81496324Y-110991447D01*
X81533035Y-111060128D01*
X81601716Y-111188623D01*
X81611928Y-111201066D01*
X81611928Y-111380000D01*
X81627071Y-111533745D01*
X81671916Y-111681582D01*
X81744742Y-111817829D01*
X81842749Y-111937251D01*
X81962171Y-112035258D01*
X82098418Y-112108084D01*
X82246255Y-112152929D01*
X82400000Y-112168072D01*
X82700000Y-112168072D01*
X82853745Y-112152929D01*
X83001582Y-112108084D01*
X83135936Y-112036270D01*
X83165506Y-112060537D01*
X83275820Y-112119502D01*
X83363435Y-112146080D01*
X83332774Y-112220102D01*
X83293000Y-112420061D01*
X83293000Y-112482198D01*
X82039003Y-113736196D01*
X82009999Y-113759999D01*
X81957103Y-113824454D01*
X81915026Y-113875724D01*
X81875330Y-113949990D01*
X81844454Y-114007754D01*
X81800997Y-114151015D01*
X81798466Y-114176707D01*
X81744742Y-114242171D01*
X81671916Y-114378418D01*
X81627071Y-114526255D01*
X81611928Y-114680000D01*
X81611928Y-116330000D01*
X81627071Y-116483745D01*
X81671916Y-116631582D01*
X81744742Y-116767829D01*
X81842749Y-116887251D01*
X81962171Y-116985258D01*
X82098418Y-117058084D01*
X82246255Y-117102929D01*
X82400000Y-117118072D01*
X82700000Y-117118072D01*
X82853745Y-117102929D01*
X83001582Y-117058084D01*
X83060001Y-117026858D01*
X83060001Y-117564668D01*
X83056324Y-117602000D01*
X83060001Y-117639333D01*
X83066393Y-117704226D01*
X83070998Y-117750985D01*
X83114454Y-117894246D01*
X83185026Y-118026276D01*
X83239175Y-118092256D01*
X83280000Y-118142001D01*
X83308998Y-118165799D01*
X83547000Y-118403801D01*
X83547000Y-118465939D01*
X83586774Y-118665898D01*
X83664795Y-118854256D01*
X83778063Y-119023774D01*
X83922226Y-119167937D01*
X84091744Y-119281205D01*
X84280102Y-119359226D01*
X84480061Y-119399000D01*
X84683939Y-119399000D01*
X84883898Y-119359226D01*
X85072256Y-119281205D01*
X85241774Y-119167937D01*
X85385937Y-119023774D01*
X85499205Y-118854256D01*
X85577226Y-118665898D01*
X85617000Y-118465939D01*
X85617000Y-118262061D01*
X85577226Y-118062102D01*
X85499205Y-117873744D01*
X85385937Y-117704226D01*
X85241774Y-117560063D01*
X85072256Y-117446795D01*
X84883898Y-117368774D01*
X84683939Y-117329000D01*
X84621801Y-117329000D01*
X84580000Y-117287199D01*
X84580000Y-117026859D01*
X84638418Y-117058084D01*
X84786255Y-117102929D01*
X84940000Y-117118072D01*
X85240000Y-117118072D01*
X85393745Y-117102929D01*
X85541582Y-117058084D01*
X85600001Y-117026858D01*
X85600001Y-117310668D01*
X85596324Y-117348000D01*
X85600001Y-117385333D01*
X85600604Y-117391451D01*
X85579000Y-117500061D01*
X85579000Y-117703939D01*
X85618774Y-117903898D01*
X85696795Y-118092256D01*
X85810063Y-118261774D01*
X85954226Y-118405937D01*
X86123744Y-118519205D01*
X86312102Y-118597226D01*
X86512061Y-118637000D01*
X86715939Y-118637000D01*
X86915898Y-118597226D01*
X87104256Y-118519205D01*
X87273774Y-118405937D01*
X87417937Y-118261774D01*
X87531205Y-118092256D01*
X87609226Y-117903898D01*
X87649000Y-117703939D01*
X87649000Y-117500061D01*
X87609226Y-117300102D01*
X87531205Y-117111744D01*
X87457626Y-117001624D01*
X87503000Y-116956250D01*
X87503000Y-115632000D01*
X87483000Y-115632000D01*
X87483000Y-115378000D01*
X87503000Y-115378000D01*
X87503000Y-114053750D01*
X87757000Y-114053750D01*
X87757000Y-115378000D01*
X87777000Y-115378000D01*
X87777000Y-115632000D01*
X87757000Y-115632000D01*
X87757000Y-116956250D01*
X87915750Y-117115000D01*
X87930000Y-117118072D01*
X88054482Y-117105812D01*
X88174180Y-117069502D01*
X88284494Y-117010537D01*
X88314064Y-116986270D01*
X88448418Y-117058084D01*
X88596255Y-117102929D01*
X88750000Y-117118072D01*
X89050000Y-117118072D01*
X89203745Y-117102929D01*
X89351582Y-117058084D01*
X89485936Y-116986270D01*
X89515506Y-117010537D01*
X89625820Y-117069502D01*
X89745518Y-117105812D01*
X89870000Y-117118072D01*
X89884250Y-117115000D01*
X90043000Y-116956250D01*
X90043000Y-115632000D01*
X90297000Y-115632000D01*
X90297000Y-116956250D01*
X90455750Y-117115000D01*
X90470000Y-117118072D01*
X90594482Y-117105812D01*
X90714180Y-117069502D01*
X90824494Y-117010537D01*
X90921185Y-116931185D01*
X91000537Y-116834494D01*
X91059502Y-116724180D01*
X91095812Y-116604482D01*
X91108072Y-116480000D01*
X91105000Y-115790750D01*
X90946250Y-115632000D01*
X90297000Y-115632000D01*
X90043000Y-115632000D01*
X90023000Y-115632000D01*
X90023000Y-115378000D01*
X90043000Y-115378000D01*
X90043000Y-114053750D01*
X90297000Y-114053750D01*
X90297000Y-115378000D01*
X90946250Y-115378000D01*
X91105000Y-115219250D01*
X91108072Y-114530000D01*
X91095812Y-114405518D01*
X91059502Y-114285820D01*
X91000537Y-114175506D01*
X90921185Y-114078815D01*
X90824494Y-113999463D01*
X90714180Y-113940498D01*
X90594482Y-113904188D01*
X90470000Y-113891928D01*
X90455750Y-113895000D01*
X90297000Y-114053750D01*
X90043000Y-114053750D01*
X89884250Y-113895000D01*
X89870000Y-113891928D01*
X89745518Y-113904188D01*
X89625820Y-113940498D01*
X89515506Y-113999463D01*
X89485936Y-114023730D01*
X89351582Y-113951916D01*
X89203745Y-113907071D01*
X89050000Y-113891928D01*
X88750000Y-113891928D01*
X88596255Y-113907071D01*
X88448418Y-113951916D01*
X88314064Y-114023730D01*
X88284494Y-113999463D01*
X88174180Y-113940498D01*
X88054482Y-113904188D01*
X87930000Y-113891928D01*
X87915750Y-113895000D01*
X87757000Y-114053750D01*
X87503000Y-114053750D01*
X87344250Y-113895000D01*
X87330000Y-113891928D01*
X87205518Y-113904188D01*
X87085820Y-113940498D01*
X87021262Y-113975005D01*
X87077226Y-113839898D01*
X87117000Y-113639939D01*
X87117000Y-113436061D01*
X87077226Y-113236102D01*
X86999205Y-113047744D01*
X86885937Y-112878226D01*
X86741774Y-112734063D01*
X86572256Y-112620795D01*
X86494990Y-112588790D01*
X86494990Y-112014240D01*
X86645750Y-112165000D01*
X86660000Y-112168072D01*
X86784482Y-112155812D01*
X86904180Y-112119502D01*
X87014494Y-112060537D01*
X87044064Y-112036270D01*
X87178418Y-112108084D01*
X87326255Y-112152929D01*
X87480000Y-112168072D01*
X87780000Y-112168072D01*
X87933745Y-112152929D01*
X88081582Y-112108084D01*
X88215936Y-112036270D01*
X88245506Y-112060537D01*
X88355820Y-112119502D01*
X88475518Y-112155812D01*
X88600000Y-112168072D01*
X88614250Y-112165000D01*
X88773000Y-112006250D01*
X88773000Y-110682000D01*
X88753000Y-110682000D01*
X88753000Y-110428000D01*
X88773000Y-110428000D01*
X88773000Y-109103750D01*
X89027000Y-109103750D01*
X89027000Y-110428000D01*
X89047000Y-110428000D01*
X89047000Y-110682000D01*
X89027000Y-110682000D01*
X89027000Y-112006250D01*
X89185750Y-112165000D01*
X89200000Y-112168072D01*
X89324482Y-112155812D01*
X89444180Y-112119502D01*
X89554494Y-112060537D01*
X89584064Y-112036270D01*
X89718418Y-112108084D01*
X89866255Y-112152929D01*
X90020000Y-112168072D01*
X90320000Y-112168072D01*
X90473745Y-112152929D01*
X90621582Y-112108084D01*
X90757829Y-112035258D01*
X90877251Y-111937251D01*
X90975258Y-111817829D01*
X91048084Y-111681582D01*
X91082425Y-111568371D01*
X91083423Y-111578500D01*
X91148324Y-111792448D01*
X91168931Y-111831001D01*
X91253717Y-111989625D01*
X91395552Y-112162451D01*
X91438860Y-112197993D01*
X94684928Y-115444063D01*
X94684928Y-115825000D01*
X94697188Y-115949482D01*
X94733498Y-116069180D01*
X94792463Y-116179494D01*
X94871815Y-116276185D01*
X94968506Y-116355537D01*
X95078820Y-116414502D01*
X95198518Y-116450812D01*
X95323000Y-116463072D01*
X96823000Y-116463072D01*
X96947482Y-116450812D01*
X97067180Y-116414502D01*
X97177494Y-116355537D01*
X97274185Y-116276185D01*
X97353537Y-116179494D01*
X97412502Y-116069180D01*
X97448812Y-115949482D01*
X97461072Y-115825000D01*
X97461072Y-114045000D01*
X97448812Y-113920518D01*
X97412502Y-113800820D01*
X97353537Y-113690506D01*
X97332605Y-113665000D01*
X97353537Y-113639494D01*
X97412502Y-113529180D01*
X97448812Y-113409482D01*
X97461072Y-113285000D01*
X97458000Y-112680750D01*
X97299250Y-112522000D01*
X96200000Y-112522000D01*
X96200000Y-112542000D01*
X95946000Y-112542000D01*
X95946000Y-112522000D01*
X95926000Y-112522000D01*
X95926000Y-112268000D01*
X95946000Y-112268000D01*
X95946000Y-112248000D01*
X96200000Y-112248000D01*
X96200000Y-112268000D01*
X97299250Y-112268000D01*
X97458000Y-112109250D01*
X97461072Y-111505000D01*
X97448812Y-111380518D01*
X97412502Y-111260820D01*
X97353537Y-111150506D01*
X97332605Y-111125000D01*
X97353537Y-111099494D01*
X97412502Y-110989180D01*
X97448812Y-110869482D01*
X97461072Y-110745000D01*
X97461072Y-108965000D01*
X97448812Y-108840518D01*
X97412502Y-108720820D01*
X97353537Y-108610506D01*
X97274185Y-108513815D01*
X97177494Y-108434463D01*
X97067180Y-108375498D01*
X96947482Y-108339188D01*
X96833000Y-108327913D01*
X96833000Y-106933801D01*
X97067801Y-106699000D01*
X97129939Y-106699000D01*
X97329898Y-106659226D01*
X97518256Y-106581205D01*
X97687774Y-106467937D01*
X97831937Y-106323774D01*
X97945205Y-106154256D01*
X98023226Y-105965898D01*
X98063000Y-105765939D01*
X98063000Y-105562061D01*
X98023226Y-105362102D01*
X97945205Y-105173744D01*
X97831937Y-105004226D01*
X97687774Y-104860063D01*
X97518256Y-104746795D01*
X97329898Y-104668774D01*
X97129939Y-104629000D01*
X96926061Y-104629000D01*
X96726102Y-104668774D01*
X96537744Y-104746795D01*
X96368226Y-104860063D01*
X96224063Y-105004226D01*
X96110795Y-105173744D01*
X96032774Y-105362102D01*
X96009236Y-105480435D01*
X93817171Y-103288370D01*
X93898405Y-103189387D01*
X93980472Y-103035851D01*
X94031008Y-102869255D01*
X94048072Y-102696001D01*
X94048072Y-101995999D01*
X94031008Y-101822745D01*
X93980472Y-101656149D01*
X93898405Y-101502613D01*
X93787962Y-101368038D01*
X93761109Y-101346000D01*
X93787962Y-101323962D01*
X93898405Y-101189387D01*
X93980472Y-101035851D01*
X94031008Y-100869255D01*
X94048072Y-100696001D01*
X94048072Y-99995999D01*
X94031008Y-99822745D01*
X93980472Y-99656149D01*
X93898405Y-99502613D01*
X93787962Y-99368038D01*
X93653387Y-99257595D01*
X93499851Y-99175528D01*
X93333255Y-99124992D01*
X93160001Y-99107928D01*
X92259999Y-99107928D01*
X92086745Y-99124992D01*
X91920149Y-99175528D01*
X91831093Y-99223130D01*
X91787501Y-99227423D01*
X91573553Y-99292324D01*
X91376377Y-99397716D01*
X91203551Y-99539551D01*
X91168008Y-99582860D01*
X89914865Y-100836004D01*
X89871551Y-100871551D01*
X89729716Y-101044377D01*
X89632890Y-101225528D01*
X89624324Y-101241554D01*
X89559423Y-101455502D01*
X89537509Y-101678000D01*
X89543000Y-101733752D01*
X89543001Y-104195752D01*
X89559424Y-104362499D01*
X89624325Y-104576447D01*
X89729717Y-104773623D01*
X89871552Y-104946449D01*
X90044378Y-105088284D01*
X90241554Y-105193676D01*
X90455502Y-105258577D01*
X90678000Y-105280491D01*
X90900499Y-105258577D01*
X91114447Y-105193676D01*
X91311623Y-105088284D01*
X91378655Y-105033272D01*
X91284795Y-105173744D01*
X91206774Y-105362102D01*
X91167000Y-105562061D01*
X91167000Y-105765939D01*
X91206774Y-105965898D01*
X91284795Y-106154256D01*
X91398063Y-106323774D01*
X91542226Y-106467937D01*
X91711744Y-106581205D01*
X91900102Y-106659226D01*
X92100061Y-106699000D01*
X92303939Y-106699000D01*
X92503898Y-106659226D01*
X92692256Y-106581205D01*
X92861774Y-106467937D01*
X93005937Y-106323774D01*
X93119205Y-106154256D01*
X93197226Y-105965898D01*
X93237000Y-105765939D01*
X93237000Y-105706671D01*
X93250001Y-105696001D01*
X93344974Y-105580276D01*
X93415546Y-105448247D01*
X93459003Y-105304986D01*
X93470000Y-105193333D01*
X93470000Y-105193324D01*
X93473676Y-105156001D01*
X93470000Y-105118678D01*
X93470000Y-105090801D01*
X95313001Y-106933803D01*
X95313000Y-108327913D01*
X95198518Y-108339188D01*
X95078820Y-108375498D01*
X94968506Y-108434463D01*
X94871815Y-108513815D01*
X94792463Y-108610506D01*
X94733498Y-108720820D01*
X94697188Y-108840518D01*
X94684928Y-108965000D01*
X94684928Y-109231348D01*
X94582999Y-109314999D01*
X94559201Y-109343997D01*
X93686199Y-110217000D01*
X93624061Y-110217000D01*
X93424102Y-110256774D01*
X93337000Y-110292853D01*
X93337000Y-109418248D01*
X93320577Y-109251501D01*
X93255676Y-109037553D01*
X93150284Y-108840377D01*
X93008449Y-108667551D01*
X92835623Y-108525716D01*
X92638446Y-108420324D01*
X92424498Y-108355423D01*
X92202000Y-108333509D01*
X91979501Y-108355423D01*
X91765553Y-108420324D01*
X91568377Y-108525716D01*
X91395551Y-108667551D01*
X91253716Y-108840377D01*
X91148324Y-109037554D01*
X91083423Y-109251502D01*
X91067000Y-109418249D01*
X91067000Y-109490777D01*
X91048084Y-109428418D01*
X90975258Y-109292171D01*
X90877251Y-109172749D01*
X90757829Y-109074742D01*
X90621582Y-109001916D01*
X90473745Y-108957071D01*
X90320000Y-108941928D01*
X90020000Y-108941928D01*
X89866255Y-108957071D01*
X89718418Y-109001916D01*
X89584064Y-109073730D01*
X89554494Y-109049463D01*
X89444180Y-108990498D01*
X89324482Y-108954188D01*
X89200000Y-108941928D01*
X89185750Y-108945000D01*
X89027000Y-109103750D01*
X88773000Y-109103750D01*
X88614250Y-108945000D01*
X88600000Y-108941928D01*
X88475518Y-108954188D01*
X88355820Y-108990498D01*
X88245506Y-109049463D01*
X88215936Y-109073730D01*
X88081582Y-109001916D01*
X87933745Y-108957071D01*
X87780000Y-108941928D01*
X87480000Y-108941928D01*
X87326255Y-108957071D01*
X87178418Y-109001916D01*
X87044064Y-109073730D01*
X87014494Y-109049463D01*
X86904180Y-108990498D01*
X86784482Y-108954188D01*
X86660000Y-108941928D01*
X86645750Y-108945000D01*
X86494990Y-109095760D01*
X86494990Y-99488312D01*
X86498666Y-99450989D01*
X86494990Y-99413666D01*
X86494990Y-99413657D01*
X86483993Y-99302004D01*
X86440536Y-99158743D01*
X86432504Y-99143716D01*
X86369964Y-99026713D01*
X86298789Y-98939987D01*
X86274991Y-98910989D01*
X86245994Y-98887192D01*
X84601000Y-97242199D01*
X84601000Y-97180061D01*
X84561226Y-96980102D01*
X84483205Y-96791744D01*
X84369937Y-96622226D01*
X84225774Y-96478063D01*
X84056256Y-96364795D01*
X83867898Y-96286774D01*
X83667939Y-96247000D01*
X83464061Y-96247000D01*
X83264102Y-96286774D01*
X83075744Y-96364795D01*
X82906226Y-96478063D01*
X82762063Y-96622226D01*
X82648795Y-96791744D01*
X82570774Y-96980102D01*
X82531000Y-97180061D01*
X82531000Y-97383939D01*
X82570774Y-97583898D01*
X82648795Y-97772256D01*
X82762063Y-97941774D01*
X82906226Y-98085937D01*
X83075744Y-98199205D01*
X83264102Y-98277226D01*
X83464061Y-98317000D01*
X83526199Y-98317000D01*
X84974990Y-99765792D01*
X84974991Y-108941928D01*
X84940000Y-108941928D01*
X84786255Y-108957071D01*
X84638418Y-109001916D01*
X84504064Y-109073730D01*
X84474494Y-109049463D01*
X84364180Y-108990498D01*
X84244482Y-108954188D01*
X84120000Y-108941928D01*
X84105750Y-108945000D01*
X83947000Y-109103750D01*
X83947000Y-110428000D01*
X83967000Y-110428000D01*
X83967000Y-110682000D01*
X83947000Y-110682000D01*
X83947000Y-110702000D01*
X83693000Y-110702000D01*
X83693000Y-110682000D01*
X83677983Y-110682000D01*
X83685000Y-110610751D01*
X83685000Y-110428000D01*
X83693000Y-110428000D01*
X83693000Y-109103750D01*
X83685000Y-109095750D01*
X83685000Y-108402248D01*
X83668577Y-108235501D01*
X83603676Y-108021553D01*
X83498284Y-107824377D01*
X83356449Y-107651551D01*
X83183623Y-107509716D01*
X82986447Y-107404324D01*
X82772499Y-107339423D01*
X82550000Y-107317509D01*
X82327502Y-107339423D01*
X82113554Y-107404324D01*
X81916378Y-107509716D01*
X81743552Y-107651551D01*
X81601717Y-107824377D01*
X81496325Y-108021553D01*
X81431424Y-108235501D01*
X81415001Y-108402248D01*
X81415000Y-109592146D01*
X71118072Y-109592146D01*
X71118072Y-109338000D01*
X71105812Y-109213518D01*
X71069502Y-109093820D01*
X71010537Y-108983506D01*
X70931185Y-108886815D01*
X70834494Y-108807463D01*
X70724180Y-108748498D01*
X70604482Y-108712188D01*
X70480000Y-108699928D01*
X69715000Y-108699928D01*
X69715000Y-108069000D01*
X73715752Y-108069000D01*
X73882499Y-108052577D01*
X74096447Y-107987676D01*
X74293623Y-107882284D01*
X74466449Y-107740449D01*
X74608284Y-107567623D01*
X74713676Y-107370447D01*
X74778577Y-107156499D01*
X74800491Y-106934000D01*
X74778577Y-106711501D01*
X74713676Y-106497553D01*
X74608284Y-106300377D01*
X74466449Y-106127551D01*
X74293623Y-105985716D01*
X74096447Y-105880324D01*
X73882499Y-105815423D01*
X73715752Y-105799000D01*
X69946132Y-105799000D01*
X69715000Y-105567869D01*
X69715000Y-105543501D01*
X69730000Y-105531191D01*
X69775506Y-105568537D01*
X69885820Y-105627502D01*
X70005518Y-105663812D01*
X70130000Y-105676072D01*
X70594250Y-105673000D01*
X70753000Y-105514250D01*
X70753000Y-104165000D01*
X71007000Y-104165000D01*
X71007000Y-105514250D01*
X71165750Y-105673000D01*
X71630000Y-105676072D01*
X71754482Y-105663812D01*
X71874180Y-105627502D01*
X71984494Y-105568537D01*
X72081185Y-105489185D01*
X72160537Y-105392494D01*
X72219502Y-105282180D01*
X72255812Y-105162482D01*
X72268072Y-105038000D01*
X72265000Y-104323750D01*
X72106250Y-104165000D01*
X71007000Y-104165000D01*
X70753000Y-104165000D01*
X70733000Y-104165000D01*
X70733000Y-103911000D01*
X70753000Y-103911000D01*
X70753000Y-102561750D01*
X71007000Y-102561750D01*
X71007000Y-103911000D01*
X72106250Y-103911000D01*
X72265000Y-103752250D01*
X72268072Y-103038000D01*
X72255812Y-102913518D01*
X72219502Y-102793820D01*
X72160537Y-102683506D01*
X72081185Y-102586815D01*
X71984494Y-102507463D01*
X71874180Y-102448498D01*
X71754482Y-102412188D01*
X71630000Y-102399928D01*
X71165750Y-102403000D01*
X71007000Y-102561750D01*
X70753000Y-102561750D01*
X70594250Y-102403000D01*
X70130000Y-102399928D01*
X70005518Y-102412188D01*
X69885820Y-102448498D01*
X69775506Y-102507463D01*
X69730000Y-102544809D01*
X69684494Y-102507463D01*
X69574180Y-102448498D01*
X69454482Y-102412188D01*
X69330000Y-102399928D01*
X67830000Y-102399928D01*
X67705518Y-102412188D01*
X67585820Y-102448498D01*
X67475506Y-102507463D01*
X67430000Y-102544809D01*
X67415000Y-102532499D01*
X67415000Y-101808631D01*
X69054560Y-100169072D01*
X69150000Y-100169072D01*
X69323254Y-100152008D01*
X69489850Y-100101472D01*
X69643386Y-100019405D01*
X69777962Y-99908962D01*
X69783342Y-99902406D01*
X69848815Y-99982185D01*
X69945506Y-100061537D01*
X70055820Y-100120502D01*
X70175518Y-100156812D01*
X70300000Y-100169072D01*
X70601750Y-100166000D01*
X70760500Y-100007250D01*
X70760500Y-98933000D01*
X71014500Y-98933000D01*
X71014500Y-100007250D01*
X71173250Y-100166000D01*
X71475000Y-100169072D01*
X71599482Y-100156812D01*
X71719180Y-100120502D01*
X71829494Y-100061537D01*
X71926185Y-99982185D01*
X72005537Y-99885494D01*
X72064502Y-99775180D01*
X72100812Y-99655482D01*
X72113072Y-99531000D01*
X72110000Y-99091750D01*
X71951250Y-98933000D01*
X71014500Y-98933000D01*
X70760500Y-98933000D01*
X70740500Y-98933000D01*
X70740500Y-98679000D01*
X70760500Y-98679000D01*
X70760500Y-97604750D01*
X71014500Y-97604750D01*
X71014500Y-98679000D01*
X71951250Y-98679000D01*
X72110000Y-98520250D01*
X72113072Y-98081000D01*
X72100812Y-97956518D01*
X72064502Y-97836820D01*
X72005537Y-97726506D01*
X71926185Y-97629815D01*
X71829494Y-97550463D01*
X71719180Y-97491498D01*
X71599482Y-97455188D01*
X71475000Y-97442928D01*
X71173250Y-97446000D01*
X71014500Y-97604750D01*
X70760500Y-97604750D01*
X70601750Y-97446000D01*
X70300000Y-97442928D01*
X70175518Y-97455188D01*
X70055820Y-97491498D01*
X69945506Y-97550463D01*
X69848815Y-97629815D01*
X69783342Y-97709594D01*
X69777962Y-97703038D01*
X69643386Y-97592595D01*
X69489850Y-97510528D01*
X69323254Y-97459992D01*
X69150000Y-97442928D01*
X69054560Y-97442928D01*
X68039990Y-96428359D01*
X68039990Y-90958791D01*
X68307000Y-91225802D01*
X68307000Y-91287939D01*
X68346774Y-91487898D01*
X68424795Y-91676256D01*
X68538063Y-91845774D01*
X68682226Y-91989937D01*
X68851744Y-92103205D01*
X69040102Y-92181226D01*
X69240061Y-92221000D01*
X69443939Y-92221000D01*
X69643898Y-92181226D01*
X69832256Y-92103205D01*
X70001774Y-91989937D01*
X70145937Y-91845774D01*
X70259205Y-91676256D01*
X70337226Y-91487898D01*
X70377000Y-91287939D01*
X70377000Y-91084061D01*
X70337226Y-90884102D01*
X70261764Y-90701921D01*
X70483363Y-90746000D01*
X70726637Y-90746000D01*
X70965236Y-90698540D01*
X71189992Y-90605443D01*
X71392267Y-90470287D01*
X71564287Y-90298267D01*
X71605000Y-90237336D01*
X71645713Y-90298267D01*
X71817733Y-90470287D01*
X72020008Y-90605443D01*
X72244764Y-90698540D01*
X72483363Y-90746000D01*
X72726637Y-90746000D01*
X72920000Y-90707538D01*
X72919999Y-98026677D01*
X72916323Y-98063999D01*
X72919999Y-98101321D01*
X72919999Y-98101331D01*
X72930996Y-98212984D01*
X72966795Y-98331000D01*
X72974453Y-98356245D01*
X73045025Y-98488275D01*
X73071267Y-98520250D01*
X73139998Y-98604000D01*
X73169002Y-98627803D01*
X76943000Y-102401802D01*
X76943000Y-102463939D01*
X76982774Y-102663898D01*
X77060795Y-102852256D01*
X77174063Y-103021774D01*
X77318226Y-103165937D01*
X77487744Y-103279205D01*
X77676102Y-103357226D01*
X77876061Y-103397000D01*
X78079939Y-103397000D01*
X78279898Y-103357226D01*
X78468256Y-103279205D01*
X78637774Y-103165937D01*
X78781937Y-103021774D01*
X78895205Y-102852256D01*
X78973226Y-102663898D01*
X79013000Y-102463939D01*
X79013000Y-102260061D01*
X78973226Y-102060102D01*
X78895205Y-101871744D01*
X78781937Y-101702226D01*
X78637774Y-101558063D01*
X78468256Y-101444795D01*
X78279898Y-101366774D01*
X78079939Y-101327000D01*
X78017802Y-101327000D01*
X74439999Y-97749198D01*
X74439999Y-90737374D01*
X74483363Y-90746000D01*
X74726637Y-90746000D01*
X74770002Y-90737374D01*
X74770001Y-94034678D01*
X74766325Y-94072001D01*
X74770001Y-94109323D01*
X74770001Y-94109333D01*
X74780998Y-94220986D01*
X74824455Y-94364247D01*
X74895027Y-94496277D01*
X74934872Y-94544827D01*
X74990000Y-94612002D01*
X75019004Y-94635805D01*
X77705000Y-97321802D01*
X77705000Y-97383939D01*
X77744774Y-97583898D01*
X77822795Y-97772256D01*
X77936063Y-97941774D01*
X78080226Y-98085937D01*
X78249744Y-98199205D01*
X78438102Y-98277226D01*
X78638061Y-98317000D01*
X78841939Y-98317000D01*
X79041898Y-98277226D01*
X79230256Y-98199205D01*
X79399774Y-98085937D01*
X79543937Y-97941774D01*
X79657205Y-97772256D01*
X79735226Y-97583898D01*
X79775000Y-97383939D01*
X79775000Y-97180061D01*
X79735226Y-96980102D01*
X79657205Y-96791744D01*
X79543937Y-96622226D01*
X79399774Y-96478063D01*
X79230256Y-96364795D01*
X79041898Y-96286774D01*
X78841939Y-96247000D01*
X78779802Y-96247000D01*
X76290001Y-93757200D01*
X76290001Y-90707538D01*
X76483363Y-90746000D01*
X76726637Y-90746000D01*
X76965236Y-90698540D01*
X77189992Y-90605443D01*
X77392267Y-90470287D01*
X77564287Y-90298267D01*
X77605000Y-90237336D01*
X77645713Y-90298267D01*
X77817733Y-90470287D01*
X78020008Y-90605443D01*
X78111743Y-90643441D01*
X78076795Y-90695744D01*
X77998774Y-90884102D01*
X77959000Y-91084061D01*
X77959000Y-91287939D01*
X77998774Y-91487898D01*
X78076795Y-91676256D01*
X78190063Y-91845774D01*
X78334226Y-91989937D01*
X78503744Y-92103205D01*
X78692102Y-92181226D01*
X78892061Y-92221000D01*
X79095939Y-92221000D01*
X79295898Y-92181226D01*
X79484256Y-92103205D01*
X79653774Y-91989937D01*
X79797937Y-91845774D01*
X79911205Y-91676256D01*
X79989226Y-91487898D01*
X80029000Y-91287939D01*
X80029000Y-91225802D01*
X80696741Y-90558061D01*
X80762898Y-90578130D01*
X81005000Y-90601975D01*
X81247101Y-90578130D01*
X81479900Y-90507511D01*
X81694448Y-90392833D01*
X81882502Y-90238502D01*
X82036833Y-90050449D01*
X82151511Y-89835901D01*
X82222130Y-89603102D01*
X82240000Y-89421665D01*
X82240000Y-88539344D01*
X91580000Y-88539344D01*
X91580000Y-88910656D01*
X91652439Y-89274834D01*
X91794534Y-89617882D01*
X92000825Y-89926618D01*
X92263382Y-90189175D01*
X92572118Y-90395466D01*
X92915166Y-90537561D01*
X93279344Y-90610000D01*
X93650656Y-90610000D01*
X94014834Y-90537561D01*
X94249740Y-90440260D01*
X94152439Y-90675166D01*
X94080000Y-91039344D01*
X94080000Y-91410656D01*
X94152439Y-91774834D01*
X94294534Y-92117882D01*
X94500825Y-92426618D01*
X94763382Y-92689175D01*
X95072118Y-92895466D01*
X95205000Y-92950508D01*
X95205001Y-99148146D01*
X95197150Y-99150528D01*
X95043614Y-99232595D01*
X94909038Y-99343038D01*
X94798595Y-99477614D01*
X94716528Y-99631150D01*
X94665992Y-99797746D01*
X94648928Y-99971000D01*
X94648928Y-100646000D01*
X94665992Y-100819254D01*
X94716528Y-100985850D01*
X94798595Y-101139386D01*
X94909038Y-101273962D01*
X94996817Y-101346000D01*
X94909038Y-101418038D01*
X94798595Y-101552614D01*
X94716528Y-101706150D01*
X94665992Y-101872746D01*
X94648928Y-102046000D01*
X94648928Y-102721000D01*
X94665992Y-102894254D01*
X94716528Y-103060850D01*
X94798595Y-103214386D01*
X94909038Y-103348962D01*
X95043614Y-103459405D01*
X95197150Y-103541472D01*
X95363746Y-103592008D01*
X95537000Y-103609072D01*
X96487000Y-103609072D01*
X96660254Y-103592008D01*
X96826850Y-103541472D01*
X96980386Y-103459405D01*
X97114962Y-103348962D01*
X97225405Y-103214386D01*
X97263294Y-103143500D01*
X98101068Y-103143500D01*
X98125595Y-103189387D01*
X98236038Y-103323962D01*
X98370613Y-103434405D01*
X98524149Y-103516472D01*
X98690745Y-103567008D01*
X98863999Y-103584072D01*
X99764001Y-103584072D01*
X99937255Y-103567008D01*
X100103851Y-103516472D01*
X100257387Y-103434405D01*
X100391962Y-103323962D01*
X100502405Y-103189387D01*
X100584472Y-103035851D01*
X100635008Y-102869255D01*
X100646435Y-102753236D01*
X103317990Y-105424792D01*
X103317989Y-113372667D01*
X103314313Y-113409989D01*
X103317989Y-113447311D01*
X103317989Y-113447321D01*
X103328986Y-113558974D01*
X103339536Y-113593752D01*
X103372443Y-113702235D01*
X103443015Y-113834265D01*
X103467192Y-113863724D01*
X103537988Y-113949990D01*
X103566992Y-113973793D01*
X104214928Y-114621729D01*
X104214928Y-115825000D01*
X104227188Y-115949482D01*
X104263498Y-116069180D01*
X104322463Y-116179494D01*
X104401815Y-116276185D01*
X104498506Y-116355537D01*
X104608820Y-116414502D01*
X104728518Y-116450812D01*
X104853000Y-116463072D01*
X106353000Y-116463072D01*
X106477482Y-116450812D01*
X106597180Y-116414502D01*
X106707494Y-116355537D01*
X106804185Y-116276185D01*
X106883537Y-116179494D01*
X106942502Y-116069180D01*
X106978812Y-115949482D01*
X106991072Y-115825000D01*
X106991072Y-115695000D01*
X108657644Y-115695000D01*
X108697463Y-115769494D01*
X108776815Y-115866185D01*
X108873506Y-115945537D01*
X108983820Y-116004502D01*
X109103518Y-116040812D01*
X109228000Y-116053072D01*
X110228000Y-116053072D01*
X110352482Y-116040812D01*
X110472180Y-116004502D01*
X110582494Y-115945537D01*
X110679185Y-115866185D01*
X110758537Y-115769494D01*
X110817502Y-115659180D01*
X110853812Y-115539482D01*
X110866072Y-115415000D01*
X110866072Y-114415000D01*
X110853812Y-114290518D01*
X110817502Y-114170820D01*
X110758537Y-114060506D01*
X110679185Y-113963815D01*
X110582494Y-113884463D01*
X110472180Y-113825498D01*
X110352482Y-113789188D01*
X110228000Y-113776928D01*
X109228000Y-113776928D01*
X109103518Y-113789188D01*
X108983820Y-113825498D01*
X108873506Y-113884463D01*
X108776815Y-113963815D01*
X108697463Y-114060506D01*
X108638498Y-114170820D01*
X108637230Y-114175000D01*
X106991072Y-114175000D01*
X106991072Y-114045000D01*
X106978812Y-113920518D01*
X106942502Y-113800820D01*
X106883537Y-113690506D01*
X106862605Y-113665000D01*
X106883537Y-113639494D01*
X106942502Y-113529180D01*
X106978812Y-113409482D01*
X106991072Y-113285000D01*
X106991072Y-113175000D01*
X108646954Y-113175000D01*
X108697463Y-113269494D01*
X108776815Y-113366185D01*
X108873506Y-113445537D01*
X108983820Y-113504502D01*
X109103518Y-113540812D01*
X109228000Y-113553072D01*
X110228000Y-113553072D01*
X110352482Y-113540812D01*
X110472180Y-113504502D01*
X110582494Y-113445537D01*
X110679185Y-113366185D01*
X110758537Y-113269494D01*
X110817502Y-113159180D01*
X110853812Y-113039482D01*
X110866072Y-112915000D01*
X110866072Y-111915000D01*
X110853812Y-111790518D01*
X110817502Y-111670820D01*
X110758537Y-111560506D01*
X110679185Y-111463815D01*
X110582494Y-111384463D01*
X110472180Y-111325498D01*
X110352482Y-111289188D01*
X110228000Y-111276928D01*
X109228000Y-111276928D01*
X109103518Y-111289188D01*
X108983820Y-111325498D01*
X108873506Y-111384463D01*
X108776815Y-111463815D01*
X108697463Y-111560506D01*
X108646954Y-111655000D01*
X106991072Y-111655000D01*
X106991072Y-111505000D01*
X106978812Y-111380518D01*
X106942502Y-111260820D01*
X106883537Y-111150506D01*
X106862605Y-111125000D01*
X106883537Y-111099494D01*
X106942502Y-110989180D01*
X106978812Y-110869482D01*
X106991072Y-110745000D01*
X106991072Y-108965000D01*
X106978812Y-108840518D01*
X106942502Y-108720820D01*
X106883537Y-108610506D01*
X106804185Y-108513815D01*
X106707494Y-108434463D01*
X106597180Y-108375498D01*
X106477482Y-108339188D01*
X106353000Y-108326928D01*
X105287999Y-108326928D01*
X105287999Y-104088302D01*
X105767230Y-103609072D01*
X106393000Y-103609072D01*
X106566254Y-103592008D01*
X106732850Y-103541472D01*
X106886386Y-103459405D01*
X107020962Y-103348962D01*
X107131405Y-103214386D01*
X107213472Y-103060850D01*
X107264008Y-102894254D01*
X107281072Y-102721000D01*
X107281072Y-102046000D01*
X107264008Y-101872746D01*
X107213472Y-101706150D01*
X107131405Y-101552614D01*
X107020962Y-101418038D01*
X106933183Y-101346000D01*
X107020962Y-101273962D01*
X107131405Y-101139386D01*
X107213472Y-100985850D01*
X107264008Y-100819254D01*
X107281072Y-100646000D01*
X107281072Y-99971000D01*
X107264008Y-99797746D01*
X107213472Y-99631150D01*
X107131405Y-99477614D01*
X107020962Y-99343038D01*
X106886386Y-99232595D01*
X106732850Y-99150528D01*
X106678000Y-99133890D01*
X106678000Y-92969975D01*
X106857882Y-92895466D01*
X107166618Y-92689175D01*
X107429175Y-92426618D01*
X107635466Y-92117882D01*
X107777561Y-91774834D01*
X107850000Y-91410656D01*
X107850000Y-91039344D01*
X107777561Y-90675166D01*
X107680260Y-90440260D01*
X107915166Y-90537561D01*
X108279344Y-90610000D01*
X108650656Y-90610000D01*
X109014834Y-90537561D01*
X109357882Y-90395466D01*
X109666618Y-90189175D01*
X109929175Y-89926618D01*
X110135466Y-89617882D01*
X110277561Y-89274834D01*
X110350000Y-88910656D01*
X110350000Y-88539344D01*
X115710000Y-88539344D01*
X115710000Y-88910656D01*
X115782439Y-89274834D01*
X115924534Y-89617882D01*
X116130825Y-89926618D01*
X116393382Y-90189175D01*
X116702118Y-90395466D01*
X117045166Y-90537561D01*
X117409344Y-90610000D01*
X117780656Y-90610000D01*
X118144834Y-90537561D01*
X118379740Y-90440260D01*
X118282439Y-90675166D01*
X118210000Y-91039344D01*
X118210000Y-91410656D01*
X118282439Y-91774834D01*
X118424534Y-92117882D01*
X118630825Y-92426618D01*
X118893382Y-92689175D01*
X119202118Y-92895466D01*
X119335000Y-92950508D01*
X119335001Y-98894146D01*
X119327150Y-98896528D01*
X119173614Y-98978595D01*
X119039038Y-99089038D01*
X118928595Y-99223614D01*
X118846528Y-99377150D01*
X118795992Y-99543746D01*
X118778928Y-99717000D01*
X118778928Y-100392000D01*
X118795992Y-100565254D01*
X118846528Y-100731850D01*
X118928595Y-100885386D01*
X119039038Y-101019962D01*
X119126817Y-101092000D01*
X119039038Y-101164038D01*
X118928595Y-101298614D01*
X118846528Y-101452150D01*
X118795992Y-101618746D01*
X118778928Y-101792000D01*
X118778928Y-102467000D01*
X118795992Y-102640254D01*
X118846528Y-102806850D01*
X118928595Y-102960386D01*
X119039038Y-103094962D01*
X119173614Y-103205405D01*
X119327150Y-103287472D01*
X119493746Y-103338008D01*
X119667000Y-103355072D01*
X120617000Y-103355072D01*
X120790254Y-103338008D01*
X120956850Y-103287472D01*
X121110386Y-103205405D01*
X121244962Y-103094962D01*
X121355405Y-102960386D01*
X121393294Y-102889500D01*
X122231068Y-102889500D01*
X122255595Y-102935387D01*
X122366038Y-103069962D01*
X122500613Y-103180405D01*
X122654149Y-103262472D01*
X122820745Y-103313008D01*
X122993999Y-103330072D01*
X123894001Y-103330072D01*
X124067255Y-103313008D01*
X124233851Y-103262472D01*
X124387387Y-103180405D01*
X124521962Y-103069962D01*
X124632405Y-102935387D01*
X124714472Y-102781851D01*
X124765008Y-102615255D01*
X124782072Y-102442001D01*
X124782072Y-102335204D01*
X125103000Y-102656132D01*
X125103001Y-105211752D01*
X125119424Y-105378499D01*
X125184325Y-105592447D01*
X125289717Y-105789623D01*
X125431552Y-105962449D01*
X125604378Y-106104284D01*
X125801554Y-106209676D01*
X126015502Y-106274577D01*
X126238000Y-106296491D01*
X126460499Y-106274577D01*
X126674447Y-106209676D01*
X126871623Y-106104284D01*
X127044449Y-105962449D01*
X127186284Y-105789623D01*
X127291676Y-105592447D01*
X127356577Y-105378499D01*
X127373000Y-105211752D01*
X127373000Y-102241743D01*
X127378490Y-102185999D01*
X127373000Y-102130255D01*
X127373000Y-102130248D01*
X127356577Y-101963501D01*
X127350814Y-101944501D01*
X127331455Y-101880686D01*
X127291676Y-101749553D01*
X127186284Y-101552377D01*
X127044449Y-101379551D01*
X127001141Y-101344009D01*
X124985996Y-99328865D01*
X124950449Y-99285551D01*
X124777623Y-99143716D01*
X124580447Y-99038324D01*
X124366499Y-98973423D01*
X124322907Y-98969130D01*
X124233851Y-98921528D01*
X124067255Y-98870992D01*
X123894001Y-98853928D01*
X122993999Y-98853928D01*
X122820745Y-98870992D01*
X122654149Y-98921528D01*
X122500613Y-99003595D01*
X122366038Y-99114038D01*
X122255595Y-99248613D01*
X122173528Y-99402149D01*
X122122992Y-99568745D01*
X122105928Y-99741999D01*
X122105928Y-100442001D01*
X122122992Y-100615255D01*
X122173528Y-100781851D01*
X122255595Y-100935387D01*
X122366038Y-101069962D01*
X122392891Y-101092000D01*
X122366038Y-101114038D01*
X122255595Y-101248613D01*
X122190979Y-101369500D01*
X121393294Y-101369500D01*
X121355405Y-101298614D01*
X121244962Y-101164038D01*
X121157183Y-101092000D01*
X121244962Y-101019962D01*
X121355405Y-100885386D01*
X121437472Y-100731850D01*
X121488008Y-100565254D01*
X121505072Y-100392000D01*
X121505072Y-99717000D01*
X121488008Y-99543746D01*
X121437472Y-99377150D01*
X121355405Y-99223614D01*
X121244962Y-99089038D01*
X121110386Y-98978595D01*
X120956850Y-98896528D01*
X120855000Y-98865632D01*
X120855000Y-92950507D01*
X120987882Y-92895466D01*
X121296618Y-92689175D01*
X121559175Y-92426618D01*
X121765466Y-92117882D01*
X121907561Y-91774834D01*
X121980000Y-91410656D01*
X121980000Y-91039344D01*
X128210000Y-91039344D01*
X128210000Y-91410656D01*
X128282439Y-91774834D01*
X128424534Y-92117882D01*
X128630825Y-92426618D01*
X128893382Y-92689175D01*
X129202118Y-92895466D01*
X129335000Y-92950508D01*
X129335001Y-98865632D01*
X129233150Y-98896528D01*
X129079614Y-98978595D01*
X128945038Y-99089038D01*
X128834595Y-99223614D01*
X128752528Y-99377150D01*
X128701992Y-99543746D01*
X128684928Y-99717000D01*
X128684928Y-100392000D01*
X128701992Y-100565254D01*
X128752528Y-100731850D01*
X128834595Y-100885386D01*
X128945038Y-101019962D01*
X129032817Y-101092000D01*
X128945038Y-101164038D01*
X128834595Y-101298614D01*
X128752528Y-101452150D01*
X128701992Y-101618746D01*
X128684928Y-101792000D01*
X128684928Y-102467000D01*
X128701992Y-102640254D01*
X128752528Y-102806850D01*
X128834595Y-102960386D01*
X128945038Y-103094962D01*
X129079614Y-103205405D01*
X129233150Y-103287472D01*
X129399746Y-103338008D01*
X129573000Y-103355072D01*
X130523000Y-103355072D01*
X130696254Y-103338008D01*
X130862850Y-103287472D01*
X131016386Y-103205405D01*
X131150962Y-103094962D01*
X131261405Y-102960386D01*
X131299294Y-102889500D01*
X132137068Y-102889500D01*
X132161595Y-102935387D01*
X132272038Y-103069962D01*
X132406613Y-103180405D01*
X132560149Y-103262472D01*
X132726745Y-103313008D01*
X132899999Y-103330072D01*
X133615010Y-103330072D01*
X133615011Y-114484187D01*
X132040199Y-116059000D01*
X131978061Y-116059000D01*
X131778102Y-116098774D01*
X131589744Y-116176795D01*
X131420226Y-116290063D01*
X131276063Y-116434226D01*
X131162795Y-116603744D01*
X131084774Y-116792102D01*
X131045000Y-116992061D01*
X131045000Y-117195939D01*
X131084774Y-117395898D01*
X131162795Y-117584256D01*
X131276063Y-117753774D01*
X131420226Y-117897937D01*
X131589744Y-118011205D01*
X131778102Y-118089226D01*
X131978061Y-118129000D01*
X132181939Y-118129000D01*
X132381898Y-118089226D01*
X132570256Y-118011205D01*
X132739774Y-117897937D01*
X132883937Y-117753774D01*
X132997205Y-117584256D01*
X133075226Y-117395898D01*
X133115000Y-117195939D01*
X133115000Y-117133801D01*
X134886013Y-115362789D01*
X134915011Y-115338991D01*
X135009984Y-115223266D01*
X135080556Y-115091237D01*
X135124013Y-114947976D01*
X135135010Y-114836323D01*
X135135010Y-114836314D01*
X135138686Y-114798991D01*
X135135010Y-114761668D01*
X135135010Y-101154332D01*
X135138686Y-101117009D01*
X135135010Y-101079686D01*
X135135010Y-101079677D01*
X135124013Y-100968024D01*
X135080556Y-100824763D01*
X135037775Y-100744726D01*
X135009984Y-100692733D01*
X134938809Y-100606007D01*
X134915011Y-100577009D01*
X134886014Y-100553212D01*
X134688072Y-100355270D01*
X134688072Y-99741999D01*
X134671008Y-99568745D01*
X134620472Y-99402149D01*
X134538405Y-99248613D01*
X134427962Y-99114038D01*
X134293387Y-99003595D01*
X134139851Y-98921528D01*
X133973255Y-98870992D01*
X133800001Y-98853928D01*
X132899999Y-98853928D01*
X132726745Y-98870992D01*
X132560149Y-98921528D01*
X132406613Y-99003595D01*
X132272038Y-99114038D01*
X132161595Y-99248613D01*
X132079528Y-99402149D01*
X132028992Y-99568745D01*
X132011928Y-99741999D01*
X132011928Y-100442001D01*
X132028992Y-100615255D01*
X132079528Y-100781851D01*
X132161595Y-100935387D01*
X132272038Y-101069962D01*
X132298891Y-101092000D01*
X132272038Y-101114038D01*
X132161595Y-101248613D01*
X132096979Y-101369500D01*
X131299294Y-101369500D01*
X131261405Y-101298614D01*
X131150962Y-101164038D01*
X131063183Y-101092000D01*
X131150962Y-101019962D01*
X131261405Y-100885386D01*
X131343472Y-100731850D01*
X131394008Y-100565254D01*
X131411072Y-100392000D01*
X131411072Y-99717000D01*
X131394008Y-99543746D01*
X131343472Y-99377150D01*
X131261405Y-99223614D01*
X131150962Y-99089038D01*
X131016386Y-98978595D01*
X130862850Y-98896528D01*
X130855000Y-98894147D01*
X130855000Y-92950507D01*
X130987882Y-92895466D01*
X131296618Y-92689175D01*
X131559175Y-92426618D01*
X131765466Y-92117882D01*
X131907561Y-91774834D01*
X131980000Y-91410656D01*
X131980000Y-91039344D01*
X131907561Y-90675166D01*
X131810260Y-90440260D01*
X132045166Y-90537561D01*
X132409344Y-90610000D01*
X132780656Y-90610000D01*
X133144834Y-90537561D01*
X133487882Y-90395466D01*
X133796618Y-90189175D01*
X134059175Y-89926618D01*
X134265466Y-89617882D01*
X134407561Y-89274834D01*
X134480000Y-88910656D01*
X134480000Y-88539344D01*
X139840000Y-88539344D01*
X139840000Y-88910656D01*
X139912439Y-89274834D01*
X140054534Y-89617882D01*
X140260825Y-89926618D01*
X140523382Y-90189175D01*
X140832118Y-90395466D01*
X141175166Y-90537561D01*
X141539344Y-90610000D01*
X141910656Y-90610000D01*
X142274834Y-90537561D01*
X142509740Y-90440260D01*
X142412439Y-90675166D01*
X142340000Y-91039344D01*
X142340000Y-91410656D01*
X142412439Y-91774834D01*
X142554534Y-92117882D01*
X142760825Y-92426618D01*
X143023382Y-92689175D01*
X143332118Y-92895466D01*
X143465000Y-92950508D01*
X143465001Y-98894146D01*
X143457150Y-98896528D01*
X143303614Y-98978595D01*
X143169038Y-99089038D01*
X143058595Y-99223614D01*
X142976528Y-99377150D01*
X142925992Y-99543746D01*
X142908928Y-99717000D01*
X142908928Y-100392000D01*
X142925992Y-100565254D01*
X142976528Y-100731850D01*
X143058595Y-100885386D01*
X143169038Y-101019962D01*
X143256817Y-101092000D01*
X143169038Y-101164038D01*
X143058595Y-101298614D01*
X142976528Y-101452150D01*
X142925992Y-101618746D01*
X142908928Y-101792000D01*
X142908928Y-102467000D01*
X142925992Y-102640254D01*
X142976528Y-102806850D01*
X143058595Y-102960386D01*
X143169038Y-103094962D01*
X143303614Y-103205405D01*
X143457150Y-103287472D01*
X143623746Y-103338008D01*
X143797000Y-103355072D01*
X144747000Y-103355072D01*
X144920254Y-103338008D01*
X145086850Y-103287472D01*
X145240386Y-103205405D01*
X145374962Y-103094962D01*
X145485405Y-102960386D01*
X145523294Y-102889500D01*
X146361068Y-102889500D01*
X146385595Y-102935387D01*
X146496038Y-103069962D01*
X146630613Y-103180405D01*
X146784149Y-103262472D01*
X146950745Y-103313008D01*
X147123999Y-103330072D01*
X148024001Y-103330072D01*
X148197255Y-103313008D01*
X148363851Y-103262472D01*
X148517387Y-103180405D01*
X148651962Y-103069962D01*
X148762405Y-102935387D01*
X148844472Y-102781851D01*
X148895008Y-102615255D01*
X148912072Y-102442001D01*
X148912072Y-102335204D01*
X149487000Y-102910132D01*
X149487001Y-104957752D01*
X149503424Y-105124499D01*
X149568325Y-105338447D01*
X149673717Y-105535623D01*
X149815552Y-105708449D01*
X149988378Y-105850284D01*
X150185554Y-105955676D01*
X150399502Y-106020577D01*
X150622000Y-106042491D01*
X150844499Y-106020577D01*
X151058447Y-105955676D01*
X151255623Y-105850284D01*
X151428449Y-105708449D01*
X151570284Y-105535623D01*
X151675676Y-105338447D01*
X151740577Y-105124499D01*
X151757000Y-104957752D01*
X151757000Y-102495741D01*
X151762490Y-102439999D01*
X151757000Y-102384257D01*
X151757000Y-102384248D01*
X151740577Y-102217501D01*
X151675676Y-102003553D01*
X151570284Y-101806377D01*
X151428449Y-101633551D01*
X151385141Y-101598009D01*
X149115996Y-99328865D01*
X149080449Y-99285551D01*
X148907623Y-99143716D01*
X148710447Y-99038324D01*
X148496499Y-98973423D01*
X148452907Y-98969130D01*
X148363851Y-98921528D01*
X148197255Y-98870992D01*
X148024001Y-98853928D01*
X147123999Y-98853928D01*
X146950745Y-98870992D01*
X146784149Y-98921528D01*
X146630613Y-99003595D01*
X146496038Y-99114038D01*
X146385595Y-99248613D01*
X146303528Y-99402149D01*
X146252992Y-99568745D01*
X146235928Y-99741999D01*
X146235928Y-100442001D01*
X146252992Y-100615255D01*
X146303528Y-100781851D01*
X146385595Y-100935387D01*
X146496038Y-101069962D01*
X146522891Y-101092000D01*
X146496038Y-101114038D01*
X146385595Y-101248613D01*
X146320979Y-101369500D01*
X145523294Y-101369500D01*
X145485405Y-101298614D01*
X145374962Y-101164038D01*
X145287183Y-101092000D01*
X145374962Y-101019962D01*
X145485405Y-100885386D01*
X145567472Y-100731850D01*
X145618008Y-100565254D01*
X145635072Y-100392000D01*
X145635072Y-99717000D01*
X145618008Y-99543746D01*
X145567472Y-99377150D01*
X145485405Y-99223614D01*
X145374962Y-99089038D01*
X145240386Y-98978595D01*
X145086850Y-98896528D01*
X144985000Y-98865632D01*
X144985000Y-92950507D01*
X145117882Y-92895466D01*
X145426618Y-92689175D01*
X145689175Y-92426618D01*
X145895466Y-92117882D01*
X146037561Y-91774834D01*
X146110000Y-91410656D01*
X146110000Y-91039344D01*
X152340000Y-91039344D01*
X152340000Y-91410656D01*
X152412439Y-91774834D01*
X152554534Y-92117882D01*
X152760825Y-92426618D01*
X153023382Y-92689175D01*
X153332118Y-92895466D01*
X153465000Y-92950508D01*
X153465001Y-98865632D01*
X153363150Y-98896528D01*
X153209614Y-98978595D01*
X153075038Y-99089038D01*
X152964595Y-99223614D01*
X152882528Y-99377150D01*
X152831992Y-99543746D01*
X152814928Y-99717000D01*
X152814928Y-100392000D01*
X152831992Y-100565254D01*
X152882528Y-100731850D01*
X152964595Y-100885386D01*
X153075038Y-101019962D01*
X153162817Y-101092000D01*
X153075038Y-101164038D01*
X152964595Y-101298614D01*
X152882528Y-101452150D01*
X152831992Y-101618746D01*
X152814928Y-101792000D01*
X152814928Y-102467000D01*
X152831992Y-102640254D01*
X152882528Y-102806850D01*
X152964595Y-102960386D01*
X153075038Y-103094962D01*
X153209614Y-103205405D01*
X153363150Y-103287472D01*
X153529746Y-103338008D01*
X153703000Y-103355072D01*
X154653000Y-103355072D01*
X154826254Y-103338008D01*
X154992850Y-103287472D01*
X155146386Y-103205405D01*
X155280962Y-103094962D01*
X155391405Y-102960386D01*
X155429294Y-102889500D01*
X156267068Y-102889500D01*
X156291595Y-102935387D01*
X156402038Y-103069962D01*
X156536613Y-103180405D01*
X156690149Y-103262472D01*
X156856745Y-103313008D01*
X157029999Y-103330072D01*
X157930001Y-103330072D01*
X158103255Y-103313008D01*
X158269851Y-103262472D01*
X158423387Y-103180405D01*
X158557962Y-103069962D01*
X158668405Y-102935387D01*
X158750472Y-102781851D01*
X158801008Y-102615255D01*
X158818072Y-102442001D01*
X158818072Y-101741999D01*
X158801008Y-101568745D01*
X158750472Y-101402149D01*
X158668405Y-101248613D01*
X158557962Y-101114038D01*
X158531109Y-101092000D01*
X158557962Y-101069962D01*
X158668405Y-100935387D01*
X158750472Y-100781851D01*
X158801008Y-100615255D01*
X158818072Y-100442001D01*
X158818072Y-99741999D01*
X158801008Y-99568745D01*
X158750472Y-99402149D01*
X158668405Y-99248613D01*
X158557962Y-99114038D01*
X158423387Y-99003595D01*
X158269851Y-98921528D01*
X158103255Y-98870992D01*
X157930001Y-98853928D01*
X157029999Y-98853928D01*
X156856745Y-98870992D01*
X156690149Y-98921528D01*
X156536613Y-99003595D01*
X156402038Y-99114038D01*
X156291595Y-99248613D01*
X156209528Y-99402149D01*
X156158992Y-99568745D01*
X156141928Y-99741999D01*
X156141928Y-100355271D01*
X156116125Y-100381074D01*
X156057939Y-100369500D01*
X155854061Y-100369500D01*
X155654102Y-100409274D01*
X155534491Y-100458819D01*
X155541072Y-100392000D01*
X155541072Y-99717000D01*
X155524008Y-99543746D01*
X155473472Y-99377150D01*
X155391405Y-99223614D01*
X155280962Y-99089038D01*
X155146386Y-98978595D01*
X154992850Y-98896528D01*
X154985000Y-98894147D01*
X154985000Y-92950507D01*
X155117882Y-92895466D01*
X155426618Y-92689175D01*
X155689175Y-92426618D01*
X155895466Y-92117882D01*
X156037561Y-91774834D01*
X156110000Y-91410656D01*
X156110000Y-91039344D01*
X156037561Y-90675166D01*
X155940260Y-90440260D01*
X156175166Y-90537561D01*
X156539344Y-90610000D01*
X156910656Y-90610000D01*
X157274834Y-90537561D01*
X157617882Y-90395466D01*
X157926618Y-90189175D01*
X158189175Y-89926618D01*
X158395466Y-89617882D01*
X158537561Y-89274834D01*
X158610000Y-88910656D01*
X158610000Y-88539344D01*
X158537561Y-88175166D01*
X158395466Y-87832118D01*
X158189175Y-87523382D01*
X157926618Y-87260825D01*
X157617882Y-87054534D01*
X157274834Y-86912439D01*
X156910656Y-86840000D01*
X156539344Y-86840000D01*
X156175166Y-86912439D01*
X155832118Y-87054534D01*
X155523382Y-87260825D01*
X155260825Y-87523382D01*
X155054534Y-87832118D01*
X154912439Y-88175166D01*
X154840000Y-88539344D01*
X154840000Y-88910656D01*
X154912439Y-89274834D01*
X155009740Y-89509740D01*
X154774834Y-89412439D01*
X154410656Y-89340000D01*
X154039344Y-89340000D01*
X153675166Y-89412439D01*
X153332118Y-89554534D01*
X153023382Y-89760825D01*
X152760825Y-90023382D01*
X152554534Y-90332118D01*
X152412439Y-90675166D01*
X152340000Y-91039344D01*
X146110000Y-91039344D01*
X146037561Y-90675166D01*
X145895466Y-90332118D01*
X145699347Y-90038605D01*
X148091000Y-90038605D01*
X148216914Y-90328577D01*
X148549126Y-90494433D01*
X148907312Y-90592290D01*
X149277706Y-90618389D01*
X149646075Y-90571725D01*
X149998262Y-90454094D01*
X150233086Y-90328577D01*
X150359000Y-90038605D01*
X149225000Y-88904605D01*
X148091000Y-90038605D01*
X145699347Y-90038605D01*
X145689175Y-90023382D01*
X145426618Y-89760825D01*
X145117882Y-89554534D01*
X144774834Y-89412439D01*
X144410656Y-89340000D01*
X144039344Y-89340000D01*
X143675166Y-89412439D01*
X143440260Y-89509740D01*
X143537561Y-89274834D01*
X143610000Y-88910656D01*
X143610000Y-88777706D01*
X147331611Y-88777706D01*
X147378275Y-89146075D01*
X147495906Y-89498262D01*
X147621423Y-89733086D01*
X147911395Y-89859000D01*
X149045395Y-88725000D01*
X149404605Y-88725000D01*
X150538605Y-89859000D01*
X150828577Y-89733086D01*
X150994433Y-89400874D01*
X151092290Y-89042688D01*
X151118389Y-88672294D01*
X151071725Y-88303925D01*
X150954094Y-87951738D01*
X150828577Y-87716914D01*
X150538605Y-87591000D01*
X149404605Y-88725000D01*
X149045395Y-88725000D01*
X147911395Y-87591000D01*
X147621423Y-87716914D01*
X147455567Y-88049126D01*
X147357710Y-88407312D01*
X147331611Y-88777706D01*
X143610000Y-88777706D01*
X143610000Y-88539344D01*
X143537561Y-88175166D01*
X143395466Y-87832118D01*
X143189175Y-87523382D01*
X143077188Y-87411395D01*
X148091000Y-87411395D01*
X149225000Y-88545395D01*
X150359000Y-87411395D01*
X150233086Y-87121423D01*
X149900874Y-86955567D01*
X149542688Y-86857710D01*
X149172294Y-86831611D01*
X148803925Y-86878275D01*
X148451738Y-86995906D01*
X148216914Y-87121423D01*
X148091000Y-87411395D01*
X143077188Y-87411395D01*
X142926618Y-87260825D01*
X142617882Y-87054534D01*
X142274834Y-86912439D01*
X141910656Y-86840000D01*
X141539344Y-86840000D01*
X141175166Y-86912439D01*
X140832118Y-87054534D01*
X140523382Y-87260825D01*
X140260825Y-87523382D01*
X140054534Y-87832118D01*
X139912439Y-88175166D01*
X139840000Y-88539344D01*
X134480000Y-88539344D01*
X134407561Y-88175166D01*
X134265466Y-87832118D01*
X134059175Y-87523382D01*
X133796618Y-87260825D01*
X133487882Y-87054534D01*
X133144834Y-86912439D01*
X132780656Y-86840000D01*
X132409344Y-86840000D01*
X132045166Y-86912439D01*
X131702118Y-87054534D01*
X131393382Y-87260825D01*
X131130825Y-87523382D01*
X130924534Y-87832118D01*
X130782439Y-88175166D01*
X130710000Y-88539344D01*
X130710000Y-88910656D01*
X130782439Y-89274834D01*
X130879740Y-89509740D01*
X130644834Y-89412439D01*
X130280656Y-89340000D01*
X129909344Y-89340000D01*
X129545166Y-89412439D01*
X129202118Y-89554534D01*
X128893382Y-89760825D01*
X128630825Y-90023382D01*
X128424534Y-90332118D01*
X128282439Y-90675166D01*
X128210000Y-91039344D01*
X121980000Y-91039344D01*
X121907561Y-90675166D01*
X121765466Y-90332118D01*
X121569347Y-90038605D01*
X123961000Y-90038605D01*
X124086914Y-90328577D01*
X124419126Y-90494433D01*
X124777312Y-90592290D01*
X125147706Y-90618389D01*
X125516075Y-90571725D01*
X125868262Y-90454094D01*
X126103086Y-90328577D01*
X126229000Y-90038605D01*
X125095000Y-88904605D01*
X123961000Y-90038605D01*
X121569347Y-90038605D01*
X121559175Y-90023382D01*
X121296618Y-89760825D01*
X120987882Y-89554534D01*
X120644834Y-89412439D01*
X120280656Y-89340000D01*
X119909344Y-89340000D01*
X119545166Y-89412439D01*
X119310260Y-89509740D01*
X119407561Y-89274834D01*
X119480000Y-88910656D01*
X119480000Y-88777706D01*
X123201611Y-88777706D01*
X123248275Y-89146075D01*
X123365906Y-89498262D01*
X123491423Y-89733086D01*
X123781395Y-89859000D01*
X124915395Y-88725000D01*
X125274605Y-88725000D01*
X126408605Y-89859000D01*
X126698577Y-89733086D01*
X126864433Y-89400874D01*
X126962290Y-89042688D01*
X126988389Y-88672294D01*
X126941725Y-88303925D01*
X126824094Y-87951738D01*
X126698577Y-87716914D01*
X126408605Y-87591000D01*
X125274605Y-88725000D01*
X124915395Y-88725000D01*
X123781395Y-87591000D01*
X123491423Y-87716914D01*
X123325567Y-88049126D01*
X123227710Y-88407312D01*
X123201611Y-88777706D01*
X119480000Y-88777706D01*
X119480000Y-88539344D01*
X119407561Y-88175166D01*
X119265466Y-87832118D01*
X119059175Y-87523382D01*
X118947188Y-87411395D01*
X123961000Y-87411395D01*
X125095000Y-88545395D01*
X126229000Y-87411395D01*
X126103086Y-87121423D01*
X125770874Y-86955567D01*
X125412688Y-86857710D01*
X125042294Y-86831611D01*
X124673925Y-86878275D01*
X124321738Y-86995906D01*
X124086914Y-87121423D01*
X123961000Y-87411395D01*
X118947188Y-87411395D01*
X118796618Y-87260825D01*
X118487882Y-87054534D01*
X118144834Y-86912439D01*
X117780656Y-86840000D01*
X117409344Y-86840000D01*
X117045166Y-86912439D01*
X116702118Y-87054534D01*
X116393382Y-87260825D01*
X116130825Y-87523382D01*
X115924534Y-87832118D01*
X115782439Y-88175166D01*
X115710000Y-88539344D01*
X110350000Y-88539344D01*
X110277561Y-88175166D01*
X110135466Y-87832118D01*
X109929175Y-87523382D01*
X109666618Y-87260825D01*
X109357882Y-87054534D01*
X109014834Y-86912439D01*
X108650656Y-86840000D01*
X108279344Y-86840000D01*
X107915166Y-86912439D01*
X107572118Y-87054534D01*
X107263382Y-87260825D01*
X107000825Y-87523382D01*
X106794534Y-87832118D01*
X106652439Y-88175166D01*
X106580000Y-88539344D01*
X106580000Y-88910656D01*
X106652439Y-89274834D01*
X106749740Y-89509740D01*
X106514834Y-89412439D01*
X106150656Y-89340000D01*
X105779344Y-89340000D01*
X105415166Y-89412439D01*
X105072118Y-89554534D01*
X104763382Y-89760825D01*
X104500825Y-90023382D01*
X104294534Y-90332118D01*
X104152439Y-90675166D01*
X104080000Y-91039344D01*
X104080000Y-91410656D01*
X104152439Y-91774834D01*
X104294534Y-92117882D01*
X104500825Y-92426618D01*
X104763382Y-92689175D01*
X105072118Y-92895466D01*
X105158001Y-92931040D01*
X105158000Y-99133890D01*
X105103150Y-99150528D01*
X104949614Y-99232595D01*
X104815038Y-99343038D01*
X104704595Y-99477614D01*
X104622528Y-99631150D01*
X104571992Y-99797746D01*
X104554928Y-99971000D01*
X104554928Y-100646000D01*
X104571992Y-100819254D01*
X104622528Y-100985850D01*
X104704595Y-101139386D01*
X104815038Y-101273962D01*
X104902817Y-101346000D01*
X104815038Y-101418038D01*
X104704595Y-101552614D01*
X104622528Y-101706150D01*
X104571992Y-101872746D01*
X104554928Y-102046000D01*
X104554928Y-102671771D01*
X104016997Y-103209702D01*
X103987999Y-103233500D01*
X103964201Y-103262498D01*
X103964200Y-103262499D01*
X103893025Y-103349225D01*
X103822453Y-103481255D01*
X103778997Y-103624516D01*
X103768984Y-103726182D01*
X100652072Y-100609271D01*
X100652072Y-99995999D01*
X100635008Y-99822745D01*
X100584472Y-99656149D01*
X100502405Y-99502613D01*
X100391962Y-99368038D01*
X100257387Y-99257595D01*
X100103851Y-99175528D01*
X99937255Y-99124992D01*
X99764001Y-99107928D01*
X98863999Y-99107928D01*
X98690745Y-99124992D01*
X98524149Y-99175528D01*
X98370613Y-99257595D01*
X98236038Y-99368038D01*
X98125595Y-99502613D01*
X98043528Y-99656149D01*
X97992992Y-99822745D01*
X97975928Y-99995999D01*
X97975928Y-100696001D01*
X97992992Y-100869255D01*
X98043528Y-101035851D01*
X98125595Y-101189387D01*
X98236038Y-101323962D01*
X98262891Y-101346000D01*
X98236038Y-101368038D01*
X98125595Y-101502613D01*
X98060979Y-101623500D01*
X97263294Y-101623500D01*
X97225405Y-101552614D01*
X97114962Y-101418038D01*
X97027183Y-101346000D01*
X97114962Y-101273962D01*
X97225405Y-101139386D01*
X97307472Y-100985850D01*
X97358008Y-100819254D01*
X97375072Y-100646000D01*
X97375072Y-99971000D01*
X97358008Y-99797746D01*
X97307472Y-99631150D01*
X97225405Y-99477614D01*
X97114962Y-99343038D01*
X96980386Y-99232595D01*
X96826850Y-99150528D01*
X96725000Y-99119632D01*
X96725000Y-92950507D01*
X96857882Y-92895466D01*
X97166618Y-92689175D01*
X97429175Y-92426618D01*
X97635466Y-92117882D01*
X97777561Y-91774834D01*
X97850000Y-91410656D01*
X97850000Y-91039344D01*
X97777561Y-90675166D01*
X97635466Y-90332118D01*
X97429175Y-90023382D01*
X97166618Y-89760825D01*
X96857882Y-89554534D01*
X96514834Y-89412439D01*
X96150656Y-89340000D01*
X95779344Y-89340000D01*
X95415166Y-89412439D01*
X95180260Y-89509740D01*
X95277561Y-89274834D01*
X95350000Y-88910656D01*
X95350000Y-88539344D01*
X99080000Y-88539344D01*
X99080000Y-88910656D01*
X99152439Y-89274834D01*
X99294534Y-89617882D01*
X99500825Y-89926618D01*
X99763382Y-90189175D01*
X100072118Y-90395466D01*
X100415166Y-90537561D01*
X100779344Y-90610000D01*
X101150656Y-90610000D01*
X101514834Y-90537561D01*
X101857882Y-90395466D01*
X102166618Y-90189175D01*
X102429175Y-89926618D01*
X102635466Y-89617882D01*
X102777561Y-89274834D01*
X102850000Y-88910656D01*
X102850000Y-88539344D01*
X102777561Y-88175166D01*
X102635466Y-87832118D01*
X102429175Y-87523382D01*
X102166618Y-87260825D01*
X101857882Y-87054534D01*
X101514834Y-86912439D01*
X101150656Y-86840000D01*
X100779344Y-86840000D01*
X100415166Y-86912439D01*
X100072118Y-87054534D01*
X99763382Y-87260825D01*
X99500825Y-87523382D01*
X99294534Y-87832118D01*
X99152439Y-88175166D01*
X99080000Y-88539344D01*
X95350000Y-88539344D01*
X95277561Y-88175166D01*
X95135466Y-87832118D01*
X94929175Y-87523382D01*
X94666618Y-87260825D01*
X94357882Y-87054534D01*
X94014834Y-86912439D01*
X93650656Y-86840000D01*
X93279344Y-86840000D01*
X92915166Y-86912439D01*
X92572118Y-87054534D01*
X92263382Y-87260825D01*
X92000825Y-87523382D01*
X91794534Y-87832118D01*
X91652439Y-88175166D01*
X91580000Y-88539344D01*
X82240000Y-88539344D01*
X82240000Y-88100335D01*
X82222130Y-87918898D01*
X82151511Y-87686099D01*
X82036833Y-87471551D01*
X81882502Y-87283498D01*
X81765000Y-87187067D01*
X81765000Y-81684933D01*
X81882502Y-81588502D01*
X82036833Y-81400449D01*
X82151511Y-81185901D01*
X82222130Y-80953102D01*
X82240000Y-80771665D01*
X82240000Y-79750336D01*
X82222130Y-79568898D01*
X82151511Y-79336099D01*
X82036833Y-79121551D01*
X81882502Y-78933498D01*
X81694449Y-78779167D01*
X81479901Y-78664489D01*
X81247102Y-78593870D01*
X81005000Y-78570025D01*
X80762899Y-78593870D01*
X80530100Y-78664489D01*
X80315552Y-78779167D01*
X80127499Y-78933498D01*
X79973168Y-79121551D01*
X79858489Y-79336099D01*
X79808467Y-79501000D01*
X69401533Y-79501000D01*
X69351511Y-79336099D01*
X69236833Y-79121551D01*
X69082502Y-78933498D01*
X68894449Y-78779167D01*
X68679901Y-78664489D01*
X68447102Y-78593870D01*
X68205000Y-78570025D01*
X67962899Y-78593870D01*
X67730100Y-78664489D01*
X67515552Y-78779167D01*
X67327499Y-78933498D01*
X67173168Y-79121551D01*
X67120000Y-79221021D01*
X67120000Y-79081003D01*
X67005288Y-78504308D01*
X66780273Y-77961072D01*
X66453601Y-77472174D01*
X66037826Y-77056399D01*
X65743895Y-76860000D01*
X95678797Y-76860000D01*
X95415166Y-76912439D01*
G37*
%TD.AperFunction*%
D22*
X71298748Y-87996858D02*
X71284605Y-88011000D01*
X71298748Y-88025143D01*
X71119143Y-88204748D01*
X71105000Y-88190605D01*
X71090858Y-88204748D01*
X70911253Y-88025143D01*
X70925395Y-88011000D01*
X70911253Y-87996858D01*
X71062111Y-87845999D01*
X71147889Y-87845999D01*
X71298748Y-87996858D01*
%TA.AperFunction,Conductor*%
D23*
G36*
X71298748Y-87996858D02*
G01*
X71284605Y-88011000D01*
X71298748Y-88025143D01*
X71119143Y-88204748D01*
X71105000Y-88190605D01*
X71090858Y-88204748D01*
X70911253Y-88025143D01*
X70925395Y-88011000D01*
X70911253Y-87996858D01*
X71062111Y-87845999D01*
X71147889Y-87845999D01*
X71298748Y-87996858D01*
G37*
%TD.AperFunction*%
%TD*%
M02*
