%TF.GenerationSoftware,KiCad,Pcbnew,(6.0.4)*%
%TF.CreationDate,2022-03-30T21:28:38+02:00*%
%TF.ProjectId,mister-midi-pcb,6d697374-6572-42d6-9d69-64692d706362,1.11*%
%TF.SameCoordinates,Original*%
%TF.FileFunction,Paste,Top*%
%TF.FilePolarity,Positive*%
%FSLAX46Y46*%
G04 Gerber Fmt 4.6, Leading zero omitted, Abs format (unit mm)*
G04 Created by KiCad (PCBNEW (6.0.4)) date 2022-03-30 21:28:38*
%MOMM*%
%LPD*%
G01*
G04 APERTURE LIST*
G04 Aperture macros list*
%AMRoundRect*
0 Rectangle with rounded corners*
0 $1 Rounding radius*
0 $2 $3 $4 $5 $6 $7 $8 $9 X,Y pos of 4 corners*
0 Add a 4 corners polygon primitive as box body*
4,1,4,$2,$3,$4,$5,$6,$7,$8,$9,$2,$3,0*
0 Add four circle primitives for the rounded corners*
1,1,$1+$1,$2,$3*
1,1,$1+$1,$4,$5*
1,1,$1+$1,$6,$7*
1,1,$1+$1,$8,$9*
0 Add four rect primitives between the rounded corners*
20,1,$1+$1,$2,$3,$4,$5,0*
20,1,$1+$1,$4,$5,$6,$7,0*
20,1,$1+$1,$6,$7,$8,$9,0*
20,1,$1+$1,$8,$9,$2,$3,0*%
G04 Aperture macros list end*
%ADD10R,1.000000X1.000000*%
%ADD11RoundRect,0.249999X-0.450001X0.350001X-0.450001X-0.350001X0.450001X-0.350001X0.450001X0.350001X0*%
%ADD12RoundRect,0.249999X0.450001X-0.350001X0.450001X0.350001X-0.450001X0.350001X-0.450001X-0.350001X0*%
%ADD13R,1.500000X1.780000*%
%ADD14RoundRect,0.249999X-0.350001X-0.450001X0.350001X-0.450001X0.350001X0.450001X-0.350001X0.450001X0*%
%ADD15RoundRect,0.249999X-0.325001X-0.450001X0.325001X-0.450001X0.325001X0.450001X-0.325001X0.450001X0*%
%ADD16RoundRect,0.250000X0.475000X-0.337500X0.475000X0.337500X-0.475000X0.337500X-0.475000X-0.337500X0*%
%ADD17RoundRect,0.250000X-0.475000X0.337500X-0.475000X-0.337500X0.475000X-0.337500X0.475000X0.337500X0*%
%ADD18RoundRect,0.150000X0.150000X-0.825000X0.150000X0.825000X-0.150000X0.825000X-0.150000X-0.825000X0*%
%ADD19R,1.500000X2.000000*%
%ADD20R,3.800000X2.000000*%
%ADD21RoundRect,0.249999X0.537501X0.425001X-0.537501X0.425001X-0.537501X-0.425001X0.537501X-0.425001X0*%
%ADD22RoundRect,0.249999X-0.537501X-0.425001X0.537501X-0.425001X0.537501X0.425001X-0.537501X0.425001X0*%
%ADD23RoundRect,0.250000X-0.337500X-0.475000X0.337500X-0.475000X0.337500X0.475000X-0.337500X0.475000X0*%
G04 APERTURE END LIST*
D10*
%TO.C,D1*%
X109728000Y-114915000D03*
X109728000Y-112415000D03*
%TD*%
D11*
%TO.C,R1*%
X99314000Y-100346000D03*
X99314000Y-102346000D03*
%TD*%
D12*
%TO.C,R5*%
X147574000Y-102092000D03*
X147574000Y-100092000D03*
%TD*%
D11*
%TO.C,R6*%
X133350000Y-100092000D03*
X133350000Y-102092000D03*
%TD*%
D12*
%TO.C,R7*%
X157480000Y-102092000D03*
X157480000Y-100092000D03*
%TD*%
D13*
%TO.C,U1*%
X105603000Y-114935000D03*
X105603000Y-112395000D03*
X105603000Y-109855000D03*
X96073000Y-109855000D03*
X96073000Y-112395000D03*
X96073000Y-114935000D03*
%TD*%
D14*
%TO.C,R3*%
X76216000Y-141732000D03*
X78216000Y-141732000D03*
%TD*%
D15*
%TO.C,D3*%
X82287000Y-141732000D03*
X84337000Y-141732000D03*
%TD*%
D16*
%TO.C,FB1*%
X96012000Y-102383500D03*
X96012000Y-100308500D03*
%TD*%
%TO.C,FB2*%
X105918000Y-102383500D03*
X105918000Y-100308500D03*
%TD*%
D17*
%TO.C,FB3*%
X130048000Y-100054500D03*
X130048000Y-102129500D03*
%TD*%
%TO.C,FB4*%
X154178000Y-100054500D03*
X154178000Y-102129500D03*
%TD*%
D16*
%TO.C,FB5*%
X120142000Y-102129500D03*
X120142000Y-100054500D03*
%TD*%
%TO.C,FB6*%
X144272000Y-102129500D03*
X144272000Y-100054500D03*
%TD*%
D14*
%TO.C,R8*%
X86884000Y-141732000D03*
X88884000Y-141732000D03*
%TD*%
%TO.C,R9*%
X97552000Y-141732000D03*
X99552000Y-141732000D03*
%TD*%
D18*
%TO.C,U2*%
X82550000Y-115505000D03*
X83820000Y-115505000D03*
X85090000Y-115505000D03*
X86360000Y-115505000D03*
X87630000Y-115505000D03*
X88900000Y-115505000D03*
X90170000Y-115505000D03*
X90170000Y-110555000D03*
X88900000Y-110555000D03*
X87630000Y-110555000D03*
X86360000Y-110555000D03*
X85090000Y-110555000D03*
X83820000Y-110555000D03*
X82550000Y-110555000D03*
%TD*%
D11*
%TO.C,R2*%
X92710000Y-100346000D03*
X92710000Y-102346000D03*
%TD*%
D12*
%TO.C,R4*%
X123444000Y-102092000D03*
X123444000Y-100092000D03*
%TD*%
D15*
%TO.C,D2*%
X71619000Y-141732000D03*
X73669000Y-141732000D03*
%TD*%
%TO.C,D4*%
X92955000Y-141732000D03*
X95005000Y-141732000D03*
%TD*%
D19*
%TO.C,U3*%
X70880000Y-104038000D03*
D20*
X68580000Y-110338000D03*
D19*
X68580000Y-104038000D03*
X66280000Y-104038000D03*
%TD*%
D21*
%TO.C,C3*%
X68493500Y-114046000D03*
X65618500Y-114046000D03*
%TD*%
D22*
%TO.C,C2*%
X66532900Y-100457000D03*
X69407900Y-100457000D03*
%TD*%
D23*
%TO.C,C1*%
X66932900Y-95758000D03*
X69007900Y-95758000D03*
%TD*%
M02*
