M48
; DRILL file {KiCad (5.1.10)-1} date 06/22/21 22:03:34
; FORMAT={-:-/ absolute / inch / decimal}
; #@! TF.CreationDate,2021-06-22T22:03:34+02:00
; #@! TF.GenerationSoftware,Kicad,Pcbnew,(5.1.10)-1
; #@! TF.FileFunction,Plated,1,2,PTH
FMAT,2
INCH
T1C0.0157
T2C0.0236
T3C0.0276
T4C0.0551
T5C0.1063
%
G90
G05
T1
X2.73Y-3.59
X2.76Y-4.53
X2.9Y-4.21
X2.95Y-4.59
X3.07Y-4.03
X3.1Y-3.83
X3.11Y-3.59
X3.25Y-4.27
X3.29Y-3.83
X3.32Y-4.43
X3.33Y-4.66
X3.3891Y-4.47
X3.41Y-4.63
X3.49Y-4.84
X3.57Y-4.1
X3.63Y-4.16
X3.63Y-4.31
X3.69Y-4.38
X3.82Y-4.16
X3.92Y-5.01
X4.97Y-4.14
X5.2Y-4.61
X5.93Y-4.13
X6.14Y-3.9923
X6.14Y-3.9923
T3
X2.7797Y-3.5241
X2.7994Y-3.465
X2.8585Y-3.5241
X2.8978Y-3.465
X2.9372Y-3.5241
X2.9766Y-3.465
X3.0159Y-3.5241
X3.075Y-3.465
X3.0947Y-3.5241
T4
X3.6797Y-3.4931
X3.7781Y-3.0994
X3.7781Y-3.5915
X3.975Y-3.4931
X4.1719Y-3.0994
X4.1719Y-3.5915
X4.2703Y-3.4931
X4.6297Y-3.4931
X4.7281Y-3.0994
X4.7281Y-3.5915
X4.925Y-3.4931
X5.1219Y-3.0994
X5.1219Y-3.5915
X5.2203Y-3.4931
X5.5797Y-3.4931
X5.6781Y-3.0994
X5.6781Y-3.5915
X5.875Y-3.4931
X6.0719Y-3.0994
X6.0719Y-3.5915
X6.1703Y-3.4931
T5
X2.525Y-3.125
X2.525Y-5.575
X6.485Y-3.125
X6.485Y-5.575
T2
G00X2.6852Y-3.1756
M15
G01X2.6852Y-3.1441
M16
G05
G00X2.6852Y-3.5162
M15
G01X2.6852Y-3.4729
M16
G05
G00X3.1892Y-3.1756
M15
G01X3.1892Y-3.1441
M16
G05
G00X3.1892Y-3.5162
M15
G01X3.1892Y-3.4729
M16
G05
T0
M30
