M48
; DRILL file {KiCad (5.1.10)-1} date 07/12/21 22:11:50
; FORMAT={-:-/ absolute / inch / decimal}
; #@! TF.CreationDate,2021-07-12T22:11:50+02:00
; #@! TF.GenerationSoftware,Kicad,Pcbnew,(5.1.10)-1
; #@! TF.FileFunction,Plated,1,2,PTH
FMAT,2
INCH
T1C0.0157
T2C0.0276
T3C0.0551
T4C0.0906
%
G90
G05
T1
X2.9Y-4.21
X3.07Y-4.03
X3.1Y-3.83
X3.25Y-4.27
X3.29Y-3.83
X3.32Y-4.3
X3.32Y-4.43
X3.33Y-4.66
X3.4039Y-4.28
X3.41Y-4.63
X3.43Y-4.43
X3.49Y-4.84
X3.57Y-4.1
X3.6Y-4.47
X3.63Y-4.16
X3.63Y-4.31
X3.63Y-4.67
X3.69Y-4.38
X3.92Y-5.01
X4.97Y-4.14
X4.99Y-4.61
X5.93Y-4.13
X5.99Y-4.67
T2
X2.7657Y-3.6021
X2.7854Y-3.543
X2.8445Y-3.6021
X2.8838Y-3.543
X2.9232Y-3.6021
X2.9626Y-3.543
X3.0019Y-3.6021
X3.061Y-3.543
X3.0807Y-3.6021
T3
X3.6797Y-3.4931
X3.7781Y-3.0994
X3.7781Y-3.5915
X3.975Y-3.4931
X4.1719Y-3.0994
X4.1719Y-3.5915
X4.2703Y-3.4931
X4.6297Y-3.4931
X4.7281Y-3.0994
X4.7281Y-3.5915
X4.925Y-3.4931
X5.1219Y-3.0994
X5.1219Y-3.5915
X5.2203Y-3.4931
X5.5797Y-3.4931
X5.6781Y-3.0994
X5.6781Y-3.5915
X5.875Y-3.4931
X6.0719Y-3.0994
X6.0719Y-3.5915
X6.1703Y-3.4931
T4
X2.6645Y-3.4643
X3.1819Y-3.4643
T0
M30
