%TF.GenerationSoftware,KiCad,Pcbnew,(6.0.4)*%
%TF.CreationDate,2022-03-30T21:28:38+02:00*%
%TF.ProjectId,mister-midi-pcb,6d697374-6572-42d6-9d69-64692d706362,1.11*%
%TF.SameCoordinates,Original*%
%TF.FileFunction,Legend,Top*%
%TF.FilePolarity,Positive*%
%FSLAX46Y46*%
G04 Gerber Fmt 4.6, Leading zero omitted, Abs format (unit mm)*
G04 Created by KiCad (PCBNEW (6.0.4)) date 2022-03-30 21:28:38*
%MOMM*%
%LPD*%
G01*
G04 APERTURE LIST*
%ADD10C,0.150000*%
%ADD11C,0.050000*%
%ADD12C,0.300000*%
%ADD13C,0.100000*%
%ADD14C,0.254000*%
%ADD15C,0.120000*%
%ADD16C,0.304800*%
G04 APERTURE END LIST*
D10*
X71013095Y-100952380D02*
X71013095Y-99952380D01*
X71584523Y-100952380D02*
X71155952Y-100380952D01*
X71584523Y-99952380D02*
X71013095Y-100523809D01*
X63638095Y-114402380D02*
X63638095Y-113402380D01*
X64209523Y-114402380D02*
X63780952Y-113830952D01*
X64209523Y-113402380D02*
X63638095Y-113973809D01*
X82760714Y-118027380D02*
X82189285Y-118027380D01*
X82475000Y-118027380D02*
X82475000Y-117027380D01*
X82379761Y-117170238D01*
X82284523Y-117265476D01*
X82189285Y-117313095D01*
X105685714Y-117427380D02*
X105114285Y-117427380D01*
X105400000Y-117427380D02*
X105400000Y-116427380D01*
X105304761Y-116570238D01*
X105209523Y-116665476D01*
X105114285Y-116713095D01*
X109488095Y-116852380D02*
X109488095Y-115852380D01*
X110059523Y-116852380D02*
X109630952Y-116280952D01*
X110059523Y-115852380D02*
X109488095Y-116423809D01*
X69988095Y-142177380D02*
X69988095Y-141177380D01*
X70559523Y-142177380D02*
X70130952Y-141605952D01*
X70559523Y-141177380D02*
X69988095Y-141748809D01*
X80588095Y-142202380D02*
X80588095Y-141202380D01*
X81159523Y-142202380D02*
X80730952Y-141630952D01*
X81159523Y-141202380D02*
X80588095Y-141773809D01*
X91288095Y-142177380D02*
X91288095Y-141177380D01*
X91859523Y-142177380D02*
X91430952Y-141605952D01*
X91859523Y-141177380D02*
X91288095Y-141748809D01*
D11*
X109725000Y-113975000D02*
X109725000Y-114175000D01*
X109725000Y-113200000D02*
X109725000Y-113425000D01*
X109375000Y-113450000D02*
X110050000Y-113450000D01*
X109725000Y-113975000D02*
X110050000Y-113475000D01*
X109375000Y-113450000D02*
X109725000Y-113975000D01*
X110100000Y-113975000D02*
X109725000Y-113975000D01*
X109350000Y-113975000D02*
X110100000Y-113975000D01*
D10*
X92345238Y-140406380D02*
X92345238Y-139406380D01*
X92678571Y-140120666D01*
X93011904Y-139406380D01*
X93011904Y-140406380D01*
X93488095Y-140406380D02*
X93488095Y-139739714D01*
X93488095Y-139406380D02*
X93440476Y-139454000D01*
X93488095Y-139501619D01*
X93535714Y-139454000D01*
X93488095Y-139406380D01*
X93488095Y-139501619D01*
X94392857Y-140406380D02*
X94392857Y-139406380D01*
X94392857Y-140358761D02*
X94297619Y-140406380D01*
X94107142Y-140406380D01*
X94011904Y-140358761D01*
X93964285Y-140311142D01*
X93916666Y-140215904D01*
X93916666Y-139930190D01*
X93964285Y-139834952D01*
X94011904Y-139787333D01*
X94107142Y-139739714D01*
X94297619Y-139739714D01*
X94392857Y-139787333D01*
X94869047Y-140406380D02*
X94869047Y-139739714D01*
X94869047Y-139406380D02*
X94821428Y-139454000D01*
X94869047Y-139501619D01*
X94916666Y-139454000D01*
X94869047Y-139406380D01*
X94869047Y-139501619D01*
X96297619Y-139406380D02*
X96488095Y-139406380D01*
X96583333Y-139454000D01*
X96678571Y-139549238D01*
X96726190Y-139739714D01*
X96726190Y-140073047D01*
X96678571Y-140263523D01*
X96583333Y-140358761D01*
X96488095Y-140406380D01*
X96297619Y-140406380D01*
X96202380Y-140358761D01*
X96107142Y-140263523D01*
X96059523Y-140073047D01*
X96059523Y-139739714D01*
X96107142Y-139549238D01*
X96202380Y-139454000D01*
X96297619Y-139406380D01*
X97583333Y-139739714D02*
X97583333Y-140406380D01*
X97154761Y-139739714D02*
X97154761Y-140263523D01*
X97202380Y-140358761D01*
X97297619Y-140406380D01*
X97440476Y-140406380D01*
X97535714Y-140358761D01*
X97583333Y-140311142D01*
X97916666Y-139739714D02*
X98297619Y-139739714D01*
X98059523Y-139406380D02*
X98059523Y-140263523D01*
X98107142Y-140358761D01*
X98202380Y-140406380D01*
X98297619Y-140406380D01*
X81740666Y-140406380D02*
X81740666Y-139406380D01*
X82074000Y-140120666D01*
X82407333Y-139406380D01*
X82407333Y-140406380D01*
X82883523Y-140406380D02*
X82883523Y-139739714D01*
X82883523Y-139406380D02*
X82835904Y-139454000D01*
X82883523Y-139501619D01*
X82931142Y-139454000D01*
X82883523Y-139406380D01*
X82883523Y-139501619D01*
X83788285Y-140406380D02*
X83788285Y-139406380D01*
X83788285Y-140358761D02*
X83693047Y-140406380D01*
X83502571Y-140406380D01*
X83407333Y-140358761D01*
X83359714Y-140311142D01*
X83312095Y-140215904D01*
X83312095Y-139930190D01*
X83359714Y-139834952D01*
X83407333Y-139787333D01*
X83502571Y-139739714D01*
X83693047Y-139739714D01*
X83788285Y-139787333D01*
X84264476Y-140406380D02*
X84264476Y-139739714D01*
X84264476Y-139406380D02*
X84216857Y-139454000D01*
X84264476Y-139501619D01*
X84312095Y-139454000D01*
X84264476Y-139406380D01*
X84264476Y-139501619D01*
X85502571Y-140406380D02*
X85502571Y-139406380D01*
X85978761Y-139739714D02*
X85978761Y-140406380D01*
X85978761Y-139834952D02*
X86026380Y-139787333D01*
X86121619Y-139739714D01*
X86264476Y-139739714D01*
X86359714Y-139787333D01*
X86407333Y-139882571D01*
X86407333Y-140406380D01*
X70921809Y-140152380D02*
X70921809Y-139152380D01*
X71302761Y-139152380D01*
X71398000Y-139200000D01*
X71445619Y-139247619D01*
X71493238Y-139342857D01*
X71493238Y-139485714D01*
X71445619Y-139580952D01*
X71398000Y-139628571D01*
X71302761Y-139676190D01*
X70921809Y-139676190D01*
X72064666Y-140152380D02*
X71969428Y-140104761D01*
X71921809Y-140057142D01*
X71874190Y-139961904D01*
X71874190Y-139676190D01*
X71921809Y-139580952D01*
X71969428Y-139533333D01*
X72064666Y-139485714D01*
X72207523Y-139485714D01*
X72302761Y-139533333D01*
X72350380Y-139580952D01*
X72398000Y-139676190D01*
X72398000Y-139961904D01*
X72350380Y-140057142D01*
X72302761Y-140104761D01*
X72207523Y-140152380D01*
X72064666Y-140152380D01*
X72731333Y-139485714D02*
X72921809Y-140152380D01*
X73112285Y-139676190D01*
X73302761Y-140152380D01*
X73493238Y-139485714D01*
X74255142Y-140104761D02*
X74159904Y-140152380D01*
X73969428Y-140152380D01*
X73874190Y-140104761D01*
X73826571Y-140009523D01*
X73826571Y-139628571D01*
X73874190Y-139533333D01*
X73969428Y-139485714D01*
X74159904Y-139485714D01*
X74255142Y-139533333D01*
X74302761Y-139628571D01*
X74302761Y-139723809D01*
X73826571Y-139819047D01*
X74731333Y-140152380D02*
X74731333Y-139485714D01*
X74731333Y-139676190D02*
X74778952Y-139580952D01*
X74826571Y-139533333D01*
X74921809Y-139485714D01*
X75017047Y-139485714D01*
D12*
X70072085Y-93703671D02*
X70072085Y-94917957D01*
X70143514Y-95060814D01*
X70214942Y-95132242D01*
X70357800Y-95203671D01*
X70643514Y-95203671D01*
X70786371Y-95132242D01*
X70857800Y-95060814D01*
X70929228Y-94917957D01*
X70929228Y-93703671D01*
X71572085Y-95132242D02*
X71714942Y-95203671D01*
X72000657Y-95203671D01*
X72143514Y-95132242D01*
X72214942Y-94989385D01*
X72214942Y-94917957D01*
X72143514Y-94775100D01*
X72000657Y-94703671D01*
X71786371Y-94703671D01*
X71643514Y-94632242D01*
X71572085Y-94489385D01*
X71572085Y-94417957D01*
X71643514Y-94275100D01*
X71786371Y-94203671D01*
X72000657Y-94203671D01*
X72143514Y-94275100D01*
X73429228Y-95132242D02*
X73286371Y-95203671D01*
X73000657Y-95203671D01*
X72857800Y-95132242D01*
X72786371Y-94989385D01*
X72786371Y-94417957D01*
X72857800Y-94275100D01*
X73000657Y-94203671D01*
X73286371Y-94203671D01*
X73429228Y-94275100D01*
X73500657Y-94417957D01*
X73500657Y-94560814D01*
X72786371Y-94703671D01*
X74143514Y-95203671D02*
X74143514Y-94203671D01*
X74143514Y-94489385D02*
X74214942Y-94346528D01*
X74286371Y-94275100D01*
X74429228Y-94203671D01*
X74572085Y-94203671D01*
X76214942Y-95203671D02*
X76214942Y-93703671D01*
X76786371Y-93703671D01*
X76929228Y-93775100D01*
X77000657Y-93846528D01*
X77072085Y-93989385D01*
X77072085Y-94203671D01*
X77000657Y-94346528D01*
X76929228Y-94417957D01*
X76786371Y-94489385D01*
X76214942Y-94489385D01*
X77929228Y-95203671D02*
X77786371Y-95132242D01*
X77714942Y-95060814D01*
X77643514Y-94917957D01*
X77643514Y-94489385D01*
X77714942Y-94346528D01*
X77786371Y-94275100D01*
X77929228Y-94203671D01*
X78143514Y-94203671D01*
X78286371Y-94275100D01*
X78357800Y-94346528D01*
X78429228Y-94489385D01*
X78429228Y-94917957D01*
X78357800Y-95060814D01*
X78286371Y-95132242D01*
X78143514Y-95203671D01*
X77929228Y-95203671D01*
X79072085Y-95203671D02*
X79072085Y-94203671D01*
X79072085Y-94489385D02*
X79143514Y-94346528D01*
X79214942Y-94275100D01*
X79357800Y-94203671D01*
X79500657Y-94203671D01*
X79786371Y-94203671D02*
X80357800Y-94203671D01*
X80000657Y-93703671D02*
X80000657Y-94989385D01*
X80072085Y-95132242D01*
X80214942Y-95203671D01*
X80357800Y-95203671D01*
X70393514Y-97618671D02*
X70393514Y-96118671D01*
X71250657Y-97618671D01*
X71250657Y-96118671D01*
X72179228Y-97618671D02*
X72036371Y-97547242D01*
X71964942Y-97475814D01*
X71893514Y-97332957D01*
X71893514Y-96904385D01*
X71964942Y-96761528D01*
X72036371Y-96690100D01*
X72179228Y-96618671D01*
X72393514Y-96618671D01*
X72536371Y-96690100D01*
X72607800Y-96761528D01*
X72679228Y-96904385D01*
X72679228Y-97332957D01*
X72607800Y-97475814D01*
X72536371Y-97547242D01*
X72393514Y-97618671D01*
X72179228Y-97618671D01*
X73107800Y-96618671D02*
X73679228Y-96618671D01*
X73322085Y-96118671D02*
X73322085Y-97404385D01*
X73393514Y-97547242D01*
X73536371Y-97618671D01*
X73679228Y-97618671D01*
X75322085Y-96118671D02*
X75322085Y-97332957D01*
X75393514Y-97475814D01*
X75464942Y-97547242D01*
X75607800Y-97618671D01*
X75893514Y-97618671D01*
X76036371Y-97547242D01*
X76107800Y-97475814D01*
X76179228Y-97332957D01*
X76179228Y-96118671D01*
X76822085Y-97547242D02*
X77036371Y-97618671D01*
X77393514Y-97618671D01*
X77536371Y-97547242D01*
X77607800Y-97475814D01*
X77679228Y-97332957D01*
X77679228Y-97190100D01*
X77607800Y-97047242D01*
X77536371Y-96975814D01*
X77393514Y-96904385D01*
X77107800Y-96832957D01*
X76964942Y-96761528D01*
X76893514Y-96690100D01*
X76822085Y-96547242D01*
X76822085Y-96404385D01*
X76893514Y-96261528D01*
X76964942Y-96190100D01*
X77107800Y-96118671D01*
X77464942Y-96118671D01*
X77679228Y-96190100D01*
X78822085Y-96832957D02*
X79036371Y-96904385D01*
X79107800Y-96975814D01*
X79179228Y-97118671D01*
X79179228Y-97332957D01*
X79107800Y-97475814D01*
X79036371Y-97547242D01*
X78893514Y-97618671D01*
X78322085Y-97618671D01*
X78322085Y-96118671D01*
X78822085Y-96118671D01*
X78964942Y-96190100D01*
X79036371Y-96261528D01*
X79107800Y-96404385D01*
X79107800Y-96547242D01*
X79036371Y-96690100D01*
X78964942Y-96761528D01*
X78822085Y-96832957D01*
X78322085Y-96832957D01*
X79822085Y-97475814D02*
X79893514Y-97547242D01*
X79822085Y-97618671D01*
X79750657Y-97547242D01*
X79822085Y-97475814D01*
X79822085Y-97618671D01*
X79822085Y-97047242D02*
X79750657Y-96190100D01*
X79822085Y-96118671D01*
X79893514Y-96190100D01*
X79822085Y-97047242D01*
X79822085Y-96118671D01*
D13*
X141510952Y-143581380D02*
X141510952Y-142581380D01*
X141844285Y-143295666D01*
X142177619Y-142581380D01*
X142177619Y-143581380D01*
X142653809Y-143581380D02*
X142653809Y-142914714D01*
X142653809Y-142581380D02*
X142606190Y-142629000D01*
X142653809Y-142676619D01*
X142701428Y-142629000D01*
X142653809Y-142581380D01*
X142653809Y-142676619D01*
X143558571Y-143581380D02*
X143558571Y-142581380D01*
X143558571Y-143533761D02*
X143463333Y-143581380D01*
X143272857Y-143581380D01*
X143177619Y-143533761D01*
X143130000Y-143486142D01*
X143082380Y-143390904D01*
X143082380Y-143105190D01*
X143130000Y-143009952D01*
X143177619Y-142962333D01*
X143272857Y-142914714D01*
X143463333Y-142914714D01*
X143558571Y-142962333D01*
X144034761Y-143581380D02*
X144034761Y-142914714D01*
X144034761Y-142581380D02*
X143987142Y-142629000D01*
X144034761Y-142676619D01*
X144082380Y-142629000D01*
X144034761Y-142581380D01*
X144034761Y-142676619D01*
X145272857Y-143581380D02*
X145272857Y-142581380D01*
X145653809Y-142581380D01*
X145749047Y-142629000D01*
X145796666Y-142676619D01*
X145844285Y-142771857D01*
X145844285Y-142914714D01*
X145796666Y-143009952D01*
X145749047Y-143057571D01*
X145653809Y-143105190D01*
X145272857Y-143105190D01*
X146844285Y-143486142D02*
X146796666Y-143533761D01*
X146653809Y-143581380D01*
X146558571Y-143581380D01*
X146415714Y-143533761D01*
X146320476Y-143438523D01*
X146272857Y-143343285D01*
X146225238Y-143152809D01*
X146225238Y-143009952D01*
X146272857Y-142819476D01*
X146320476Y-142724238D01*
X146415714Y-142629000D01*
X146558571Y-142581380D01*
X146653809Y-142581380D01*
X146796666Y-142629000D01*
X146844285Y-142676619D01*
X147606190Y-143057571D02*
X147749047Y-143105190D01*
X147796666Y-143152809D01*
X147844285Y-143248047D01*
X147844285Y-143390904D01*
X147796666Y-143486142D01*
X147749047Y-143533761D01*
X147653809Y-143581380D01*
X147272857Y-143581380D01*
X147272857Y-142581380D01*
X147606190Y-142581380D01*
X147701428Y-142629000D01*
X147749047Y-142676619D01*
X147796666Y-142771857D01*
X147796666Y-142867095D01*
X147749047Y-142962333D01*
X147701428Y-143009952D01*
X147606190Y-143057571D01*
X147272857Y-143057571D01*
X148891904Y-142914714D02*
X149272857Y-142914714D01*
X149034761Y-143581380D02*
X149034761Y-142724238D01*
X149082380Y-142629000D01*
X149177619Y-142581380D01*
X149272857Y-142581380D01*
X149749047Y-143581380D02*
X149653809Y-143533761D01*
X149606190Y-143486142D01*
X149558571Y-143390904D01*
X149558571Y-143105190D01*
X149606190Y-143009952D01*
X149653809Y-142962333D01*
X149749047Y-142914714D01*
X149891904Y-142914714D01*
X149987142Y-142962333D01*
X150034761Y-143009952D01*
X150082380Y-143105190D01*
X150082380Y-143390904D01*
X150034761Y-143486142D01*
X149987142Y-143533761D01*
X149891904Y-143581380D01*
X149749047Y-143581380D01*
X150510952Y-143581380D02*
X150510952Y-142914714D01*
X150510952Y-143105190D02*
X150558571Y-143009952D01*
X150606190Y-142962333D01*
X150701428Y-142914714D01*
X150796666Y-142914714D01*
X151891904Y-143581380D02*
X151891904Y-142581380D01*
X152225238Y-143295666D01*
X152558571Y-142581380D01*
X152558571Y-143581380D01*
X153034761Y-143581380D02*
X153034761Y-142914714D01*
X153034761Y-142581380D02*
X152987142Y-142629000D01*
X153034761Y-142676619D01*
X153082380Y-142629000D01*
X153034761Y-142581380D01*
X153034761Y-142676619D01*
X153463333Y-143533761D02*
X153558571Y-143581380D01*
X153749047Y-143581380D01*
X153844285Y-143533761D01*
X153891904Y-143438523D01*
X153891904Y-143390904D01*
X153844285Y-143295666D01*
X153749047Y-143248047D01*
X153606190Y-143248047D01*
X153510952Y-143200428D01*
X153463333Y-143105190D01*
X153463333Y-143057571D01*
X153510952Y-142962333D01*
X153606190Y-142914714D01*
X153749047Y-142914714D01*
X153844285Y-142962333D01*
X154177619Y-142914714D02*
X154558571Y-142914714D01*
X154320476Y-142581380D02*
X154320476Y-143438523D01*
X154368095Y-143533761D01*
X154463333Y-143581380D01*
X154558571Y-143581380D01*
X155272857Y-143533761D02*
X155177619Y-143581380D01*
X154987142Y-143581380D01*
X154891904Y-143533761D01*
X154844285Y-143438523D01*
X154844285Y-143057571D01*
X154891904Y-142962333D01*
X154987142Y-142914714D01*
X155177619Y-142914714D01*
X155272857Y-142962333D01*
X155320476Y-143057571D01*
X155320476Y-143152809D01*
X154844285Y-143248047D01*
X155749047Y-143581380D02*
X155749047Y-142914714D01*
X155749047Y-143105190D02*
X155796666Y-143009952D01*
X155844285Y-142962333D01*
X155939523Y-142914714D01*
X156034761Y-142914714D01*
X157034761Y-142914714D02*
X157272857Y-143581380D01*
X157510952Y-142914714D01*
X158415714Y-143581380D02*
X157844285Y-143581380D01*
X158130000Y-143581380D02*
X158130000Y-142581380D01*
X158034761Y-142724238D01*
X157939523Y-142819476D01*
X157844285Y-142867095D01*
X158844285Y-143486142D02*
X158891904Y-143533761D01*
X158844285Y-143581380D01*
X158796666Y-143533761D01*
X158844285Y-143486142D01*
X158844285Y-143581380D01*
X159844285Y-143581380D02*
X159272857Y-143581380D01*
X159558571Y-143581380D02*
X159558571Y-142581380D01*
X159463333Y-142724238D01*
X159368095Y-142819476D01*
X159272857Y-142867095D01*
X160796666Y-143581380D02*
X160225238Y-143581380D01*
X160510952Y-143581380D02*
X160510952Y-142581380D01*
X160415714Y-142724238D01*
X160320476Y-142819476D01*
X160225238Y-142867095D01*
D10*
%TO.C,D1*%
X108330380Y-114403095D02*
X107330380Y-114403095D01*
X107330380Y-114165000D01*
X107378000Y-114022142D01*
X107473238Y-113926904D01*
X107568476Y-113879285D01*
X107758952Y-113831666D01*
X107901809Y-113831666D01*
X108092285Y-113879285D01*
X108187523Y-113926904D01*
X108282761Y-114022142D01*
X108330380Y-114165000D01*
X108330380Y-114403095D01*
X108330380Y-112879285D02*
X108330380Y-113450714D01*
X108330380Y-113165000D02*
X107330380Y-113165000D01*
X107473238Y-113260238D01*
X107568476Y-113355476D01*
X107616095Y-113450714D01*
X112080380Y-115707857D02*
X112080380Y-116279285D01*
X112080380Y-115993571D02*
X111080380Y-115993571D01*
X111223238Y-116088809D01*
X111318476Y-116184047D01*
X111366095Y-116279285D01*
X112080380Y-115279285D02*
X111080380Y-115279285D01*
X112080380Y-114707857D01*
X111080380Y-114707857D01*
X111413714Y-113803095D02*
X112080380Y-113803095D01*
X111032761Y-114041190D02*
X111747047Y-114279285D01*
X111747047Y-113660238D01*
X112080380Y-112755476D02*
X112080380Y-113326904D01*
X112080380Y-113041190D02*
X111080380Y-113041190D01*
X111223238Y-113136428D01*
X111318476Y-113231666D01*
X111366095Y-113326904D01*
X111413714Y-111898333D02*
X112080380Y-111898333D01*
X111032761Y-112136428D02*
X111747047Y-112374523D01*
X111747047Y-111755476D01*
X111508952Y-111231666D02*
X111461333Y-111326904D01*
X111413714Y-111374523D01*
X111318476Y-111422142D01*
X111270857Y-111422142D01*
X111175619Y-111374523D01*
X111128000Y-111326904D01*
X111080380Y-111231666D01*
X111080380Y-111041190D01*
X111128000Y-110945952D01*
X111175619Y-110898333D01*
X111270857Y-110850714D01*
X111318476Y-110850714D01*
X111413714Y-110898333D01*
X111461333Y-110945952D01*
X111508952Y-111041190D01*
X111508952Y-111231666D01*
X111556571Y-111326904D01*
X111604190Y-111374523D01*
X111699428Y-111422142D01*
X111889904Y-111422142D01*
X111985142Y-111374523D01*
X112032761Y-111326904D01*
X112080380Y-111231666D01*
X112080380Y-111041190D01*
X112032761Y-110945952D01*
X111985142Y-110898333D01*
X111889904Y-110850714D01*
X111699428Y-110850714D01*
X111604190Y-110898333D01*
X111556571Y-110945952D01*
X111508952Y-111041190D01*
D12*
%TO.C,J1*%
X100465000Y-78553571D02*
X100465000Y-79625000D01*
X100393571Y-79839285D01*
X100250714Y-79982142D01*
X100036428Y-80053571D01*
X99893571Y-80053571D01*
X101965000Y-80053571D02*
X101107857Y-80053571D01*
X101536428Y-80053571D02*
X101536428Y-78553571D01*
X101393571Y-78767857D01*
X101250714Y-78910714D01*
X101107857Y-78982142D01*
X97465000Y-97960571D02*
X97465000Y-96460571D01*
X97965000Y-97532000D01*
X98465000Y-96460571D01*
X98465000Y-97960571D01*
X99179285Y-97960571D02*
X99179285Y-96960571D01*
X99179285Y-96460571D02*
X99107857Y-96532000D01*
X99179285Y-96603428D01*
X99250714Y-96532000D01*
X99179285Y-96460571D01*
X99179285Y-96603428D01*
X100536428Y-97960571D02*
X100536428Y-96460571D01*
X100536428Y-97889142D02*
X100393571Y-97960571D01*
X100107857Y-97960571D01*
X99965000Y-97889142D01*
X99893571Y-97817714D01*
X99822142Y-97674857D01*
X99822142Y-97246285D01*
X99893571Y-97103428D01*
X99965000Y-97032000D01*
X100107857Y-96960571D01*
X100393571Y-96960571D01*
X100536428Y-97032000D01*
X101250714Y-97960571D02*
X101250714Y-96960571D01*
X101250714Y-96460571D02*
X101179285Y-96532000D01*
X101250714Y-96603428D01*
X101322142Y-96532000D01*
X101250714Y-96460571D01*
X101250714Y-96603428D01*
X103107857Y-97960571D02*
X103107857Y-96460571D01*
X103822142Y-96960571D02*
X103822142Y-97960571D01*
X103822142Y-97103428D02*
X103893571Y-97032000D01*
X104036428Y-96960571D01*
X104250714Y-96960571D01*
X104393571Y-97032000D01*
X104465000Y-97174857D01*
X104465000Y-97960571D01*
%TO.C,J3*%
X124595000Y-78553571D02*
X124595000Y-79625000D01*
X124523571Y-79839285D01*
X124380714Y-79982142D01*
X124166428Y-80053571D01*
X124023571Y-80053571D01*
X125166428Y-78553571D02*
X126095000Y-78553571D01*
X125595000Y-79125000D01*
X125809285Y-79125000D01*
X125952142Y-79196428D01*
X126023571Y-79267857D01*
X126095000Y-79410714D01*
X126095000Y-79767857D01*
X126023571Y-79910714D01*
X125952142Y-79982142D01*
X125809285Y-80053571D01*
X125380714Y-80053571D01*
X125237857Y-79982142D01*
X125166428Y-79910714D01*
X120737857Y-97960571D02*
X120737857Y-96460571D01*
X121237857Y-97532000D01*
X121737857Y-96460571D01*
X121737857Y-97960571D01*
X122452142Y-97960571D02*
X122452142Y-96960571D01*
X122452142Y-96460571D02*
X122380714Y-96532000D01*
X122452142Y-96603428D01*
X122523571Y-96532000D01*
X122452142Y-96460571D01*
X122452142Y-96603428D01*
X123809285Y-97960571D02*
X123809285Y-96460571D01*
X123809285Y-97889142D02*
X123666428Y-97960571D01*
X123380714Y-97960571D01*
X123237857Y-97889142D01*
X123166428Y-97817714D01*
X123095000Y-97674857D01*
X123095000Y-97246285D01*
X123166428Y-97103428D01*
X123237857Y-97032000D01*
X123380714Y-96960571D01*
X123666428Y-96960571D01*
X123809285Y-97032000D01*
X124523571Y-97960571D02*
X124523571Y-96960571D01*
X124523571Y-96460571D02*
X124452142Y-96532000D01*
X124523571Y-96603428D01*
X124595000Y-96532000D01*
X124523571Y-96460571D01*
X124523571Y-96603428D01*
X126666428Y-96460571D02*
X126952142Y-96460571D01*
X127095000Y-96532000D01*
X127237857Y-96674857D01*
X127309285Y-96960571D01*
X127309285Y-97460571D01*
X127237857Y-97746285D01*
X127095000Y-97889142D01*
X126952142Y-97960571D01*
X126666428Y-97960571D01*
X126523571Y-97889142D01*
X126380714Y-97746285D01*
X126309285Y-97460571D01*
X126309285Y-96960571D01*
X126380714Y-96674857D01*
X126523571Y-96532000D01*
X126666428Y-96460571D01*
X128595000Y-96960571D02*
X128595000Y-97960571D01*
X127952142Y-96960571D02*
X127952142Y-97746285D01*
X128023571Y-97889142D01*
X128166428Y-97960571D01*
X128380714Y-97960571D01*
X128523571Y-97889142D01*
X128595000Y-97817714D01*
X129095000Y-96960571D02*
X129666428Y-96960571D01*
X129309285Y-96460571D02*
X129309285Y-97746285D01*
X129380714Y-97889142D01*
X129523571Y-97960571D01*
X129666428Y-97960571D01*
D10*
%TO.C,R1*%
X98242380Y-101512666D02*
X97766190Y-101846000D01*
X98242380Y-102084095D02*
X97242380Y-102084095D01*
X97242380Y-101703142D01*
X97290000Y-101607904D01*
X97337619Y-101560285D01*
X97432857Y-101512666D01*
X97575714Y-101512666D01*
X97670952Y-101560285D01*
X97718571Y-101607904D01*
X97766190Y-101703142D01*
X97766190Y-102084095D01*
X98242380Y-100560285D02*
X98242380Y-101131714D01*
X98242380Y-100846000D02*
X97242380Y-100846000D01*
X97385238Y-100941238D01*
X97480476Y-101036476D01*
X97528095Y-101131714D01*
%TO.C,R5*%
X146502380Y-101258666D02*
X146026190Y-101592000D01*
X146502380Y-101830095D02*
X145502380Y-101830095D01*
X145502380Y-101449142D01*
X145550000Y-101353904D01*
X145597619Y-101306285D01*
X145692857Y-101258666D01*
X145835714Y-101258666D01*
X145930952Y-101306285D01*
X145978571Y-101353904D01*
X146026190Y-101449142D01*
X146026190Y-101830095D01*
X145502380Y-100353904D02*
X145502380Y-100830095D01*
X145978571Y-100877714D01*
X145930952Y-100830095D01*
X145883333Y-100734857D01*
X145883333Y-100496761D01*
X145930952Y-100401523D01*
X145978571Y-100353904D01*
X146073809Y-100306285D01*
X146311904Y-100306285D01*
X146407142Y-100353904D01*
X146454761Y-100401523D01*
X146502380Y-100496761D01*
X146502380Y-100734857D01*
X146454761Y-100830095D01*
X146407142Y-100877714D01*
%TO.C,R6*%
X132278380Y-101258666D02*
X131802190Y-101592000D01*
X132278380Y-101830095D02*
X131278380Y-101830095D01*
X131278380Y-101449142D01*
X131326000Y-101353904D01*
X131373619Y-101306285D01*
X131468857Y-101258666D01*
X131611714Y-101258666D01*
X131706952Y-101306285D01*
X131754571Y-101353904D01*
X131802190Y-101449142D01*
X131802190Y-101830095D01*
X131278380Y-100401523D02*
X131278380Y-100592000D01*
X131326000Y-100687238D01*
X131373619Y-100734857D01*
X131516476Y-100830095D01*
X131706952Y-100877714D01*
X132087904Y-100877714D01*
X132183142Y-100830095D01*
X132230761Y-100782476D01*
X132278380Y-100687238D01*
X132278380Y-100496761D01*
X132230761Y-100401523D01*
X132183142Y-100353904D01*
X132087904Y-100306285D01*
X131849809Y-100306285D01*
X131754571Y-100353904D01*
X131706952Y-100401523D01*
X131659333Y-100496761D01*
X131659333Y-100687238D01*
X131706952Y-100782476D01*
X131754571Y-100830095D01*
X131849809Y-100877714D01*
%TO.C,R7*%
X159456380Y-101258666D02*
X158980190Y-101592000D01*
X159456380Y-101830095D02*
X158456380Y-101830095D01*
X158456380Y-101449142D01*
X158504000Y-101353904D01*
X158551619Y-101306285D01*
X158646857Y-101258666D01*
X158789714Y-101258666D01*
X158884952Y-101306285D01*
X158932571Y-101353904D01*
X158980190Y-101449142D01*
X158980190Y-101830095D01*
X158456380Y-100925333D02*
X158456380Y-100258666D01*
X159456380Y-100687238D01*
%TO.C,U1*%
X100076095Y-116717380D02*
X100076095Y-117526904D01*
X100123714Y-117622142D01*
X100171333Y-117669761D01*
X100266571Y-117717380D01*
X100457047Y-117717380D01*
X100552285Y-117669761D01*
X100599904Y-117622142D01*
X100647523Y-117526904D01*
X100647523Y-116717380D01*
X101647523Y-117717380D02*
X101076095Y-117717380D01*
X101361809Y-117717380D02*
X101361809Y-116717380D01*
X101266571Y-116860238D01*
X101171333Y-116955476D01*
X101076095Y-117003095D01*
X98718952Y-107977380D02*
X98718952Y-106977380D01*
X98718952Y-107453571D02*
X99290380Y-107453571D01*
X99290380Y-107977380D02*
X99290380Y-106977380D01*
X100290380Y-107977380D02*
X99718952Y-107977380D01*
X100004666Y-107977380D02*
X100004666Y-106977380D01*
X99909428Y-107120238D01*
X99814190Y-107215476D01*
X99718952Y-107263095D01*
X101242761Y-107977380D02*
X100671333Y-107977380D01*
X100957047Y-107977380D02*
X100957047Y-106977380D01*
X100861809Y-107120238D01*
X100766571Y-107215476D01*
X100671333Y-107263095D01*
X102147523Y-107977380D02*
X101671333Y-107977380D01*
X101671333Y-106977380D01*
X103004666Y-107977380D02*
X102433238Y-107977380D01*
X102718952Y-107977380D02*
X102718952Y-106977380D01*
X102623714Y-107120238D01*
X102528476Y-107215476D01*
X102433238Y-107263095D01*
D12*
%TO.C,J4*%
X148725000Y-78553571D02*
X148725000Y-79625000D01*
X148653571Y-79839285D01*
X148510714Y-79982142D01*
X148296428Y-80053571D01*
X148153571Y-80053571D01*
X150082142Y-79053571D02*
X150082142Y-80053571D01*
X149725000Y-78482142D02*
X149367857Y-79553571D01*
X150296428Y-79553571D01*
X144367857Y-97960571D02*
X144367857Y-96460571D01*
X144867857Y-97532000D01*
X145367857Y-96460571D01*
X145367857Y-97960571D01*
X146082142Y-97960571D02*
X146082142Y-96960571D01*
X146082142Y-96460571D02*
X146010714Y-96532000D01*
X146082142Y-96603428D01*
X146153571Y-96532000D01*
X146082142Y-96460571D01*
X146082142Y-96603428D01*
X147439285Y-97960571D02*
X147439285Y-96460571D01*
X147439285Y-97889142D02*
X147296428Y-97960571D01*
X147010714Y-97960571D01*
X146867857Y-97889142D01*
X146796428Y-97817714D01*
X146725000Y-97674857D01*
X146725000Y-97246285D01*
X146796428Y-97103428D01*
X146867857Y-97032000D01*
X147010714Y-96960571D01*
X147296428Y-96960571D01*
X147439285Y-97032000D01*
X148153571Y-97960571D02*
X148153571Y-96960571D01*
X148153571Y-96460571D02*
X148082142Y-96532000D01*
X148153571Y-96603428D01*
X148225000Y-96532000D01*
X148153571Y-96460571D01*
X148153571Y-96603428D01*
X149796428Y-96460571D02*
X150653571Y-96460571D01*
X150225000Y-97960571D02*
X150225000Y-96460571D01*
X151153571Y-97960571D02*
X151153571Y-96460571D01*
X151796428Y-97960571D02*
X151796428Y-97174857D01*
X151725000Y-97032000D01*
X151582142Y-96960571D01*
X151367857Y-96960571D01*
X151225000Y-97032000D01*
X151153571Y-97103428D01*
X152510714Y-97960571D02*
X152510714Y-96960571D01*
X152510714Y-97246285D02*
X152582142Y-97103428D01*
X152653571Y-97032000D01*
X152796428Y-96960571D01*
X152939285Y-96960571D01*
X154082142Y-96960571D02*
X154082142Y-97960571D01*
X153439285Y-96960571D02*
X153439285Y-97746285D01*
X153510714Y-97889142D01*
X153653571Y-97960571D01*
X153867857Y-97960571D01*
X154010714Y-97889142D01*
X154082142Y-97817714D01*
D10*
%TO.C,R3*%
X77049333Y-143962380D02*
X76716000Y-143486190D01*
X76477904Y-143962380D02*
X76477904Y-142962380D01*
X76858857Y-142962380D01*
X76954095Y-143010000D01*
X77001714Y-143057619D01*
X77049333Y-143152857D01*
X77049333Y-143295714D01*
X77001714Y-143390952D01*
X76954095Y-143438571D01*
X76858857Y-143486190D01*
X76477904Y-143486190D01*
X77382666Y-142962380D02*
X78001714Y-142962380D01*
X77668380Y-143343333D01*
X77811238Y-143343333D01*
X77906476Y-143390952D01*
X77954095Y-143438571D01*
X78001714Y-143533809D01*
X78001714Y-143771904D01*
X77954095Y-143867142D01*
X77906476Y-143914761D01*
X77811238Y-143962380D01*
X77525523Y-143962380D01*
X77430285Y-143914761D01*
X77382666Y-143867142D01*
%TO.C,D3*%
X82573904Y-143962380D02*
X82573904Y-142962380D01*
X82812000Y-142962380D01*
X82954857Y-143010000D01*
X83050095Y-143105238D01*
X83097714Y-143200476D01*
X83145333Y-143390952D01*
X83145333Y-143533809D01*
X83097714Y-143724285D01*
X83050095Y-143819523D01*
X82954857Y-143914761D01*
X82812000Y-143962380D01*
X82573904Y-143962380D01*
X83478666Y-142962380D02*
X84097714Y-142962380D01*
X83764380Y-143343333D01*
X83907238Y-143343333D01*
X84002476Y-143390952D01*
X84050095Y-143438571D01*
X84097714Y-143533809D01*
X84097714Y-143771904D01*
X84050095Y-143867142D01*
X84002476Y-143914761D01*
X83907238Y-143962380D01*
X83621523Y-143962380D01*
X83526285Y-143914761D01*
X83478666Y-143867142D01*
%TO.C,FB1*%
X94260571Y-102179333D02*
X94260571Y-102512666D01*
X94784380Y-102512666D02*
X93784380Y-102512666D01*
X93784380Y-102036476D01*
X94260571Y-101322190D02*
X94308190Y-101179333D01*
X94355809Y-101131714D01*
X94451047Y-101084095D01*
X94593904Y-101084095D01*
X94689142Y-101131714D01*
X94736761Y-101179333D01*
X94784380Y-101274571D01*
X94784380Y-101655523D01*
X93784380Y-101655523D01*
X93784380Y-101322190D01*
X93832000Y-101226952D01*
X93879619Y-101179333D01*
X93974857Y-101131714D01*
X94070095Y-101131714D01*
X94165333Y-101179333D01*
X94212952Y-101226952D01*
X94260571Y-101322190D01*
X94260571Y-101655523D01*
X94784380Y-100131714D02*
X94784380Y-100703142D01*
X94784380Y-100417428D02*
X93784380Y-100417428D01*
X93927238Y-100512666D01*
X94022476Y-100607904D01*
X94070095Y-100703142D01*
%TO.C,FB2*%
X104166571Y-102179333D02*
X104166571Y-102512666D01*
X104690380Y-102512666D02*
X103690380Y-102512666D01*
X103690380Y-102036476D01*
X104166571Y-101322190D02*
X104214190Y-101179333D01*
X104261809Y-101131714D01*
X104357047Y-101084095D01*
X104499904Y-101084095D01*
X104595142Y-101131714D01*
X104642761Y-101179333D01*
X104690380Y-101274571D01*
X104690380Y-101655523D01*
X103690380Y-101655523D01*
X103690380Y-101322190D01*
X103738000Y-101226952D01*
X103785619Y-101179333D01*
X103880857Y-101131714D01*
X103976095Y-101131714D01*
X104071333Y-101179333D01*
X104118952Y-101226952D01*
X104166571Y-101322190D01*
X104166571Y-101655523D01*
X103785619Y-100703142D02*
X103738000Y-100655523D01*
X103690380Y-100560285D01*
X103690380Y-100322190D01*
X103738000Y-100226952D01*
X103785619Y-100179333D01*
X103880857Y-100131714D01*
X103976095Y-100131714D01*
X104118952Y-100179333D01*
X104690380Y-100750761D01*
X104690380Y-100131714D01*
%TO.C,FB3*%
X128452571Y-101925333D02*
X128452571Y-102258666D01*
X128976380Y-102258666D02*
X127976380Y-102258666D01*
X127976380Y-101782476D01*
X128452571Y-101068190D02*
X128500190Y-100925333D01*
X128547809Y-100877714D01*
X128643047Y-100830095D01*
X128785904Y-100830095D01*
X128881142Y-100877714D01*
X128928761Y-100925333D01*
X128976380Y-101020571D01*
X128976380Y-101401523D01*
X127976380Y-101401523D01*
X127976380Y-101068190D01*
X128024000Y-100972952D01*
X128071619Y-100925333D01*
X128166857Y-100877714D01*
X128262095Y-100877714D01*
X128357333Y-100925333D01*
X128404952Y-100972952D01*
X128452571Y-101068190D01*
X128452571Y-101401523D01*
X127976380Y-100496761D02*
X127976380Y-99877714D01*
X128357333Y-100211047D01*
X128357333Y-100068190D01*
X128404952Y-99972952D01*
X128452571Y-99925333D01*
X128547809Y-99877714D01*
X128785904Y-99877714D01*
X128881142Y-99925333D01*
X128928761Y-99972952D01*
X128976380Y-100068190D01*
X128976380Y-100353904D01*
X128928761Y-100449142D01*
X128881142Y-100496761D01*
%TO.C,FB4*%
X152582571Y-101925333D02*
X152582571Y-102258666D01*
X153106380Y-102258666D02*
X152106380Y-102258666D01*
X152106380Y-101782476D01*
X152582571Y-101068190D02*
X152630190Y-100925333D01*
X152677809Y-100877714D01*
X152773047Y-100830095D01*
X152915904Y-100830095D01*
X153011142Y-100877714D01*
X153058761Y-100925333D01*
X153106380Y-101020571D01*
X153106380Y-101401523D01*
X152106380Y-101401523D01*
X152106380Y-101068190D01*
X152154000Y-100972952D01*
X152201619Y-100925333D01*
X152296857Y-100877714D01*
X152392095Y-100877714D01*
X152487333Y-100925333D01*
X152534952Y-100972952D01*
X152582571Y-101068190D01*
X152582571Y-101401523D01*
X152439714Y-99972952D02*
X153106380Y-99972952D01*
X152058761Y-100211047D02*
X152773047Y-100449142D01*
X152773047Y-99830095D01*
%TO.C,FB5*%
X118390571Y-101925333D02*
X118390571Y-102258666D01*
X118914380Y-102258666D02*
X117914380Y-102258666D01*
X117914380Y-101782476D01*
X118390571Y-101068190D02*
X118438190Y-100925333D01*
X118485809Y-100877714D01*
X118581047Y-100830095D01*
X118723904Y-100830095D01*
X118819142Y-100877714D01*
X118866761Y-100925333D01*
X118914380Y-101020571D01*
X118914380Y-101401523D01*
X117914380Y-101401523D01*
X117914380Y-101068190D01*
X117962000Y-100972952D01*
X118009619Y-100925333D01*
X118104857Y-100877714D01*
X118200095Y-100877714D01*
X118295333Y-100925333D01*
X118342952Y-100972952D01*
X118390571Y-101068190D01*
X118390571Y-101401523D01*
X117914380Y-99925333D02*
X117914380Y-100401523D01*
X118390571Y-100449142D01*
X118342952Y-100401523D01*
X118295333Y-100306285D01*
X118295333Y-100068190D01*
X118342952Y-99972952D01*
X118390571Y-99925333D01*
X118485809Y-99877714D01*
X118723904Y-99877714D01*
X118819142Y-99925333D01*
X118866761Y-99972952D01*
X118914380Y-100068190D01*
X118914380Y-100306285D01*
X118866761Y-100401523D01*
X118819142Y-100449142D01*
%TO.C,FB6*%
X142422571Y-101925333D02*
X142422571Y-102258666D01*
X142946380Y-102258666D02*
X141946380Y-102258666D01*
X141946380Y-101782476D01*
X142422571Y-101068190D02*
X142470190Y-100925333D01*
X142517809Y-100877714D01*
X142613047Y-100830095D01*
X142755904Y-100830095D01*
X142851142Y-100877714D01*
X142898761Y-100925333D01*
X142946380Y-101020571D01*
X142946380Y-101401523D01*
X141946380Y-101401523D01*
X141946380Y-101068190D01*
X141994000Y-100972952D01*
X142041619Y-100925333D01*
X142136857Y-100877714D01*
X142232095Y-100877714D01*
X142327333Y-100925333D01*
X142374952Y-100972952D01*
X142422571Y-101068190D01*
X142422571Y-101401523D01*
X141946380Y-99972952D02*
X141946380Y-100163428D01*
X141994000Y-100258666D01*
X142041619Y-100306285D01*
X142184476Y-100401523D01*
X142374952Y-100449142D01*
X142755904Y-100449142D01*
X142851142Y-100401523D01*
X142898761Y-100353904D01*
X142946380Y-100258666D01*
X142946380Y-100068190D01*
X142898761Y-99972952D01*
X142851142Y-99925333D01*
X142755904Y-99877714D01*
X142517809Y-99877714D01*
X142422571Y-99925333D01*
X142374952Y-99972952D01*
X142327333Y-100068190D01*
X142327333Y-100258666D01*
X142374952Y-100353904D01*
X142422571Y-100401523D01*
X142517809Y-100449142D01*
%TO.C,R8*%
X87717333Y-143708380D02*
X87384000Y-143232190D01*
X87145904Y-143708380D02*
X87145904Y-142708380D01*
X87526857Y-142708380D01*
X87622095Y-142756000D01*
X87669714Y-142803619D01*
X87717333Y-142898857D01*
X87717333Y-143041714D01*
X87669714Y-143136952D01*
X87622095Y-143184571D01*
X87526857Y-143232190D01*
X87145904Y-143232190D01*
X88288761Y-143136952D02*
X88193523Y-143089333D01*
X88145904Y-143041714D01*
X88098285Y-142946476D01*
X88098285Y-142898857D01*
X88145904Y-142803619D01*
X88193523Y-142756000D01*
X88288761Y-142708380D01*
X88479238Y-142708380D01*
X88574476Y-142756000D01*
X88622095Y-142803619D01*
X88669714Y-142898857D01*
X88669714Y-142946476D01*
X88622095Y-143041714D01*
X88574476Y-143089333D01*
X88479238Y-143136952D01*
X88288761Y-143136952D01*
X88193523Y-143184571D01*
X88145904Y-143232190D01*
X88098285Y-143327428D01*
X88098285Y-143517904D01*
X88145904Y-143613142D01*
X88193523Y-143660761D01*
X88288761Y-143708380D01*
X88479238Y-143708380D01*
X88574476Y-143660761D01*
X88622095Y-143613142D01*
X88669714Y-143517904D01*
X88669714Y-143327428D01*
X88622095Y-143232190D01*
X88574476Y-143184571D01*
X88479238Y-143136952D01*
%TO.C,R9*%
X98385333Y-143962380D02*
X98052000Y-143486190D01*
X97813904Y-143962380D02*
X97813904Y-142962380D01*
X98194857Y-142962380D01*
X98290095Y-143010000D01*
X98337714Y-143057619D01*
X98385333Y-143152857D01*
X98385333Y-143295714D01*
X98337714Y-143390952D01*
X98290095Y-143438571D01*
X98194857Y-143486190D01*
X97813904Y-143486190D01*
X98861523Y-143962380D02*
X99052000Y-143962380D01*
X99147238Y-143914761D01*
X99194857Y-143867142D01*
X99290095Y-143724285D01*
X99337714Y-143533809D01*
X99337714Y-143152857D01*
X99290095Y-143057619D01*
X99242476Y-143010000D01*
X99147238Y-142962380D01*
X98956761Y-142962380D01*
X98861523Y-143010000D01*
X98813904Y-143057619D01*
X98766285Y-143152857D01*
X98766285Y-143390952D01*
X98813904Y-143486190D01*
X98861523Y-143533809D01*
X98956761Y-143581428D01*
X99147238Y-143581428D01*
X99242476Y-143533809D01*
X99290095Y-143486190D01*
X99337714Y-143390952D01*
%TO.C,U2*%
X80532380Y-113791904D02*
X81341904Y-113791904D01*
X81437142Y-113744285D01*
X81484761Y-113696666D01*
X81532380Y-113601428D01*
X81532380Y-113410952D01*
X81484761Y-113315714D01*
X81437142Y-113268095D01*
X81341904Y-113220476D01*
X80532380Y-113220476D01*
X80627619Y-112791904D02*
X80580000Y-112744285D01*
X80532380Y-112649047D01*
X80532380Y-112410952D01*
X80580000Y-112315714D01*
X80627619Y-112268095D01*
X80722857Y-112220476D01*
X80818095Y-112220476D01*
X80960952Y-112268095D01*
X81532380Y-112839523D01*
X81532380Y-112220476D01*
X91092380Y-115815714D02*
X91092380Y-115149047D01*
X92092380Y-115577619D01*
X91425714Y-114339523D02*
X92092380Y-114339523D01*
X91044761Y-114577619D02*
X91759047Y-114815714D01*
X91759047Y-114196666D01*
X92092380Y-113815714D02*
X91092380Y-113815714D01*
X91568571Y-113815714D02*
X91568571Y-113244285D01*
X92092380Y-113244285D02*
X91092380Y-113244285D01*
X91997142Y-112196666D02*
X92044761Y-112244285D01*
X92092380Y-112387142D01*
X92092380Y-112482380D01*
X92044761Y-112625238D01*
X91949523Y-112720476D01*
X91854285Y-112768095D01*
X91663809Y-112815714D01*
X91520952Y-112815714D01*
X91330476Y-112768095D01*
X91235238Y-112720476D01*
X91140000Y-112625238D01*
X91092380Y-112482380D01*
X91092380Y-112387142D01*
X91140000Y-112244285D01*
X91187619Y-112196666D01*
X92092380Y-111244285D02*
X92092380Y-111815714D01*
X92092380Y-111530000D02*
X91092380Y-111530000D01*
X91235238Y-111625238D01*
X91330476Y-111720476D01*
X91378095Y-111815714D01*
X91425714Y-110387142D02*
X92092380Y-110387142D01*
X91044761Y-110625238D02*
X91759047Y-110863333D01*
X91759047Y-110244285D01*
%TO.C,R2*%
X91638380Y-101512666D02*
X91162190Y-101846000D01*
X91638380Y-102084095D02*
X90638380Y-102084095D01*
X90638380Y-101703142D01*
X90686000Y-101607904D01*
X90733619Y-101560285D01*
X90828857Y-101512666D01*
X90971714Y-101512666D01*
X91066952Y-101560285D01*
X91114571Y-101607904D01*
X91162190Y-101703142D01*
X91162190Y-102084095D01*
X90733619Y-101131714D02*
X90686000Y-101084095D01*
X90638380Y-100988857D01*
X90638380Y-100750761D01*
X90686000Y-100655523D01*
X90733619Y-100607904D01*
X90828857Y-100560285D01*
X90924095Y-100560285D01*
X91066952Y-100607904D01*
X91638380Y-101179333D01*
X91638380Y-100560285D01*
%TO.C,R4*%
X122246380Y-101258666D02*
X121770190Y-101592000D01*
X122246380Y-101830095D02*
X121246380Y-101830095D01*
X121246380Y-101449142D01*
X121294000Y-101353904D01*
X121341619Y-101306285D01*
X121436857Y-101258666D01*
X121579714Y-101258666D01*
X121674952Y-101306285D01*
X121722571Y-101353904D01*
X121770190Y-101449142D01*
X121770190Y-101830095D01*
X121579714Y-100401523D02*
X122246380Y-100401523D01*
X121198761Y-100639619D02*
X121913047Y-100877714D01*
X121913047Y-100258666D01*
%TO.C,D2*%
X71905904Y-143962380D02*
X71905904Y-142962380D01*
X72144000Y-142962380D01*
X72286857Y-143010000D01*
X72382095Y-143105238D01*
X72429714Y-143200476D01*
X72477333Y-143390952D01*
X72477333Y-143533809D01*
X72429714Y-143724285D01*
X72382095Y-143819523D01*
X72286857Y-143914761D01*
X72144000Y-143962380D01*
X71905904Y-143962380D01*
X72858285Y-143057619D02*
X72905904Y-143010000D01*
X73001142Y-142962380D01*
X73239238Y-142962380D01*
X73334476Y-143010000D01*
X73382095Y-143057619D01*
X73429714Y-143152857D01*
X73429714Y-143248095D01*
X73382095Y-143390952D01*
X72810666Y-143962380D01*
X73429714Y-143962380D01*
%TO.C,D4*%
X93241904Y-143962380D02*
X93241904Y-142962380D01*
X93480000Y-142962380D01*
X93622857Y-143010000D01*
X93718095Y-143105238D01*
X93765714Y-143200476D01*
X93813333Y-143390952D01*
X93813333Y-143533809D01*
X93765714Y-143724285D01*
X93718095Y-143819523D01*
X93622857Y-143914761D01*
X93480000Y-143962380D01*
X93241904Y-143962380D01*
X94670476Y-143295714D02*
X94670476Y-143962380D01*
X94432380Y-142914761D02*
X94194285Y-143629047D01*
X94813333Y-143629047D01*
%TO.C,U3*%
X72532380Y-107949904D02*
X73341904Y-107949904D01*
X73437142Y-107902285D01*
X73484761Y-107854666D01*
X73532380Y-107759428D01*
X73532380Y-107568952D01*
X73484761Y-107473714D01*
X73437142Y-107426095D01*
X73341904Y-107378476D01*
X72532380Y-107378476D01*
X72532380Y-106997523D02*
X72532380Y-106378476D01*
X72913333Y-106711809D01*
X72913333Y-106568952D01*
X72960952Y-106473714D01*
X73008571Y-106426095D01*
X73103809Y-106378476D01*
X73341904Y-106378476D01*
X73437142Y-106426095D01*
X73484761Y-106473714D01*
X73532380Y-106568952D01*
X73532380Y-106854666D01*
X73484761Y-106949904D01*
X73437142Y-106997523D01*
X64532380Y-111164190D02*
X64532380Y-111640380D01*
X63532380Y-111640380D01*
X64532380Y-110830857D02*
X63532380Y-110830857D01*
X64246666Y-110497523D01*
X63532380Y-110164190D01*
X64532380Y-110164190D01*
X64532380Y-109164190D02*
X64532380Y-109735619D01*
X64532380Y-109449904D02*
X63532380Y-109449904D01*
X63675238Y-109545142D01*
X63770476Y-109640380D01*
X63818095Y-109735619D01*
X64532380Y-108211809D02*
X64532380Y-108783238D01*
X64532380Y-108497523D02*
X63532380Y-108497523D01*
X63675238Y-108592761D01*
X63770476Y-108688000D01*
X63818095Y-108783238D01*
X64532380Y-107259428D02*
X64532380Y-107830857D01*
X64532380Y-107545142D02*
X63532380Y-107545142D01*
X63675238Y-107640380D01*
X63770476Y-107735619D01*
X63818095Y-107830857D01*
X63532380Y-106926095D02*
X63532380Y-106259428D01*
X64532380Y-106688000D01*
X64151428Y-105878476D02*
X64151428Y-105116571D01*
X63532380Y-104735619D02*
X63532380Y-104116571D01*
X63913333Y-104449904D01*
X63913333Y-104307047D01*
X63960952Y-104211809D01*
X64008571Y-104164190D01*
X64103809Y-104116571D01*
X64341904Y-104116571D01*
X64437142Y-104164190D01*
X64484761Y-104211809D01*
X64532380Y-104307047D01*
X64532380Y-104592761D01*
X64484761Y-104688000D01*
X64437142Y-104735619D01*
X64437142Y-103688000D02*
X64484761Y-103640380D01*
X64532380Y-103688000D01*
X64484761Y-103735619D01*
X64437142Y-103688000D01*
X64532380Y-103688000D01*
X63532380Y-103307047D02*
X63532380Y-102688000D01*
X63913333Y-103021333D01*
X63913333Y-102878476D01*
X63960952Y-102783238D01*
X64008571Y-102735619D01*
X64103809Y-102688000D01*
X64341904Y-102688000D01*
X64437142Y-102735619D01*
X64484761Y-102783238D01*
X64532380Y-102878476D01*
X64532380Y-103164190D01*
X64484761Y-103259428D01*
X64437142Y-103307047D01*
%TO.C,C3*%
X66889333Y-116153142D02*
X66841714Y-116200761D01*
X66698857Y-116248380D01*
X66603619Y-116248380D01*
X66460761Y-116200761D01*
X66365523Y-116105523D01*
X66317904Y-116010285D01*
X66270285Y-115819809D01*
X66270285Y-115676952D01*
X66317904Y-115486476D01*
X66365523Y-115391238D01*
X66460761Y-115296000D01*
X66603619Y-115248380D01*
X66698857Y-115248380D01*
X66841714Y-115296000D01*
X66889333Y-115343619D01*
X67222666Y-115248380D02*
X67841714Y-115248380D01*
X67508380Y-115629333D01*
X67651238Y-115629333D01*
X67746476Y-115676952D01*
X67794095Y-115724571D01*
X67841714Y-115819809D01*
X67841714Y-116057904D01*
X67794095Y-116153142D01*
X67746476Y-116200761D01*
X67651238Y-116248380D01*
X67365523Y-116248380D01*
X67270285Y-116200761D01*
X67222666Y-116153142D01*
%TO.C,C2*%
X67803733Y-99064142D02*
X67756114Y-99111761D01*
X67613257Y-99159380D01*
X67518019Y-99159380D01*
X67375161Y-99111761D01*
X67279923Y-99016523D01*
X67232304Y-98921285D01*
X67184685Y-98730809D01*
X67184685Y-98587952D01*
X67232304Y-98397476D01*
X67279923Y-98302238D01*
X67375161Y-98207000D01*
X67518019Y-98159380D01*
X67613257Y-98159380D01*
X67756114Y-98207000D01*
X67803733Y-98254619D01*
X68184685Y-98254619D02*
X68232304Y-98207000D01*
X68327542Y-98159380D01*
X68565638Y-98159380D01*
X68660876Y-98207000D01*
X68708495Y-98254619D01*
X68756114Y-98349857D01*
X68756114Y-98445095D01*
X68708495Y-98587952D01*
X68137066Y-99159380D01*
X68756114Y-99159380D01*
%TO.C,C1*%
X67803733Y-94435142D02*
X67756114Y-94482761D01*
X67613257Y-94530380D01*
X67518019Y-94530380D01*
X67375161Y-94482761D01*
X67279923Y-94387523D01*
X67232304Y-94292285D01*
X67184685Y-94101809D01*
X67184685Y-93958952D01*
X67232304Y-93768476D01*
X67279923Y-93673238D01*
X67375161Y-93578000D01*
X67518019Y-93530380D01*
X67613257Y-93530380D01*
X67756114Y-93578000D01*
X67803733Y-93625619D01*
X68756114Y-94530380D02*
X68184685Y-94530380D01*
X68470400Y-94530380D02*
X68470400Y-93530380D01*
X68375161Y-93673238D01*
X68279923Y-93768476D01*
X68184685Y-93816095D01*
D14*
%TO.C,J2*%
X73553923Y-84885533D02*
X74461066Y-84885533D01*
X74642495Y-84946009D01*
X74763447Y-85066961D01*
X74823923Y-85248390D01*
X74823923Y-85369342D01*
X73674876Y-84341247D02*
X73614400Y-84280771D01*
X73553923Y-84159819D01*
X73553923Y-83857438D01*
X73614400Y-83736485D01*
X73674876Y-83676009D01*
X73795828Y-83615533D01*
X73916780Y-83615533D01*
X74098209Y-83676009D01*
X74823923Y-84401723D01*
X74823923Y-83615533D01*
D15*
%TO.C,D1*%
X108878000Y-115565000D02*
X110578000Y-115565000D01*
X110578000Y-115565000D02*
X110578000Y-112415000D01*
X108878000Y-115565000D02*
X108878000Y-112415000D01*
D16*
%TO.C,J1*%
X109463840Y-77724000D02*
X109463840Y-77226160D01*
X111465360Y-76725780D02*
X109964220Y-76725780D01*
X111465360Y-76225400D02*
X111465360Y-76725780D01*
X106464100Y-94724220D02*
X106464100Y-92725240D01*
X92466160Y-95224600D02*
X94465140Y-95224600D01*
X91965780Y-94724220D02*
X91965780Y-77724000D01*
X109463840Y-95224600D02*
X106964480Y-95224600D01*
X91965780Y-76725780D02*
X109964220Y-76725780D01*
X109964220Y-76725780D02*
X109964220Y-77226160D01*
X94465140Y-95224600D02*
X94965520Y-95224600D01*
X95465900Y-94724220D02*
X95465900Y-92725240D01*
X99463860Y-95224600D02*
X98966020Y-94724220D01*
X109964220Y-94724220D02*
X109964220Y-77724000D01*
X90464640Y-76725780D02*
X91965780Y-76725780D01*
X98966020Y-94724220D02*
X98966020Y-92725240D01*
X92466160Y-77226160D02*
X92466160Y-77724000D01*
X91965780Y-76225400D02*
X111465360Y-76225400D01*
X109964220Y-94724220D02*
X109463840Y-95224600D01*
X109964220Y-77724000D02*
X109463840Y-77724000D01*
X91965780Y-94724220D02*
X92466160Y-95224600D01*
X95465900Y-92725240D02*
X98966020Y-92725240D01*
X102466140Y-95224600D02*
X102963980Y-94724220D01*
X94965520Y-95224600D02*
X95465900Y-94724220D01*
X91965780Y-76725780D02*
X91965780Y-76225400D01*
X102963980Y-94724220D02*
X102963980Y-92725240D01*
X106964480Y-95224600D02*
X106464100Y-94724220D01*
X90464640Y-77226160D02*
X90464640Y-76725780D01*
X106464100Y-92725240D02*
X102963980Y-92725240D01*
X111465360Y-76474320D02*
X91965780Y-76474320D01*
X109964220Y-76974700D02*
X90464640Y-76974700D01*
X102466140Y-95224600D02*
X99463860Y-95224600D01*
X109964220Y-77226160D02*
X90464640Y-77226160D01*
X91965780Y-77724000D02*
X92466160Y-77724000D01*
%TO.C,J3*%
X134094220Y-94724220D02*
X134094220Y-77724000D01*
X126596140Y-95224600D02*
X127093980Y-94724220D01*
X135595360Y-76725780D02*
X134094220Y-76725780D01*
X114594640Y-76725780D02*
X116095780Y-76725780D01*
X135595360Y-76225400D02*
X135595360Y-76725780D01*
X130594100Y-94724220D02*
X130594100Y-92725240D01*
X116596160Y-95224600D02*
X118595140Y-95224600D01*
X123096020Y-94724220D02*
X123096020Y-92725240D01*
X116095780Y-76225400D02*
X135595360Y-76225400D01*
X135595360Y-76474320D02*
X116095780Y-76474320D01*
X133593840Y-95224600D02*
X131094480Y-95224600D01*
X118595140Y-95224600D02*
X119095520Y-95224600D01*
X130594100Y-92725240D02*
X127093980Y-92725240D01*
X134094220Y-77724000D02*
X133593840Y-77724000D01*
X116596160Y-77226160D02*
X116596160Y-77724000D01*
X134094220Y-76725780D02*
X134094220Y-77226160D01*
X131094480Y-95224600D02*
X130594100Y-94724220D01*
X116095780Y-77724000D02*
X116596160Y-77724000D01*
X134094220Y-94724220D02*
X133593840Y-95224600D01*
X119595900Y-92725240D02*
X123096020Y-92725240D01*
X116095780Y-94724220D02*
X116095780Y-77724000D01*
X134094220Y-77226160D02*
X114594640Y-77226160D01*
X127093980Y-94724220D02*
X127093980Y-92725240D01*
X126596140Y-95224600D02*
X123593860Y-95224600D01*
X114594640Y-77226160D02*
X114594640Y-76725780D01*
X116095780Y-94724220D02*
X116596160Y-95224600D01*
X123593860Y-95224600D02*
X123096020Y-94724220D01*
X119095520Y-95224600D02*
X119595900Y-94724220D01*
X116095780Y-76725780D02*
X116095780Y-76225400D01*
X116095780Y-76725780D02*
X134094220Y-76725780D01*
X119595900Y-94724220D02*
X119595900Y-92725240D01*
X133593840Y-77724000D02*
X133593840Y-77226160D01*
X134094220Y-76974700D02*
X114594640Y-76974700D01*
D15*
%TO.C,R1*%
X98579000Y-101118936D02*
X98579000Y-101573064D01*
X100049000Y-101118936D02*
X100049000Y-101573064D01*
%TO.C,R5*%
X148309000Y-101319064D02*
X148309000Y-100864936D01*
X146839000Y-101319064D02*
X146839000Y-100864936D01*
%TO.C,R6*%
X134085000Y-100864936D02*
X134085000Y-101319064D01*
X132615000Y-100864936D02*
X132615000Y-101319064D01*
%TO.C,R7*%
X158215000Y-101319064D02*
X158215000Y-100864936D01*
X156745000Y-101319064D02*
X156745000Y-100864936D01*
%TO.C,U1*%
X101838000Y-116265000D02*
X104073000Y-116265000D01*
X104073000Y-108525000D02*
X97603000Y-108525000D01*
X104073000Y-116265000D02*
X104073000Y-108525000D01*
X97603000Y-108525000D02*
X97603000Y-116265000D01*
X97603000Y-116265000D02*
X99838000Y-116265000D01*
X101838000Y-116265000D02*
G75*
G03*
X99838000Y-116265000I-1000000J0D01*
G01*
D16*
%TO.C,J4*%
X142725140Y-95224600D02*
X143225520Y-95224600D01*
X140225780Y-94724220D02*
X140726160Y-95224600D01*
X140225780Y-76725780D02*
X158224220Y-76725780D01*
X158224220Y-76725780D02*
X158224220Y-77226160D01*
X158224220Y-94724220D02*
X158224220Y-77724000D01*
X159725360Y-76725780D02*
X158224220Y-76725780D01*
X159725360Y-76474320D02*
X140225780Y-76474320D01*
X158224220Y-94724220D02*
X157723840Y-95224600D01*
X143725900Y-94724220D02*
X143725900Y-92725240D01*
X140726160Y-77226160D02*
X140726160Y-77724000D01*
X154724100Y-92725240D02*
X151223980Y-92725240D01*
X150726140Y-95224600D02*
X151223980Y-94724220D01*
X155224480Y-95224600D02*
X154724100Y-94724220D01*
X158224220Y-76974700D02*
X138724640Y-76974700D01*
X157723840Y-95224600D02*
X155224480Y-95224600D01*
X140726160Y-95224600D02*
X142725140Y-95224600D01*
X143725900Y-92725240D02*
X147226020Y-92725240D01*
X158224220Y-77724000D02*
X157723840Y-77724000D01*
X154724100Y-94724220D02*
X154724100Y-92725240D01*
X143225520Y-95224600D02*
X143725900Y-94724220D01*
X138724640Y-77226160D02*
X138724640Y-76725780D01*
X140225780Y-94724220D02*
X140225780Y-77724000D01*
X138724640Y-76725780D02*
X140225780Y-76725780D01*
X150726140Y-95224600D02*
X147723860Y-95224600D01*
X140225780Y-77724000D02*
X140726160Y-77724000D01*
X140225780Y-76725780D02*
X140225780Y-76225400D01*
X140225780Y-76225400D02*
X159725360Y-76225400D01*
X159725360Y-76225400D02*
X159725360Y-76725780D01*
X158224220Y-77226160D02*
X138724640Y-77226160D01*
X147226020Y-94724220D02*
X147226020Y-92725240D01*
X151223980Y-94724220D02*
X151223980Y-92725240D01*
X157723840Y-77724000D02*
X157723840Y-77226160D01*
X147723860Y-95224600D02*
X147226020Y-94724220D01*
D15*
%TO.C,R3*%
X76988936Y-142467000D02*
X77443064Y-142467000D01*
X76988936Y-140997000D02*
X77443064Y-140997000D01*
%TO.C,D3*%
X81452000Y-142692000D02*
X84312000Y-142692000D01*
X84312000Y-140772000D02*
X81452000Y-140772000D01*
X81452000Y-140772000D02*
X81452000Y-142692000D01*
%TO.C,FB1*%
X96747000Y-101607252D02*
X96747000Y-101084748D01*
X95277000Y-101607252D02*
X95277000Y-101084748D01*
%TO.C,FB2*%
X106653000Y-101607252D02*
X106653000Y-101084748D01*
X105183000Y-101607252D02*
X105183000Y-101084748D01*
%TO.C,FB3*%
X130783000Y-100830748D02*
X130783000Y-101353252D01*
X129313000Y-100830748D02*
X129313000Y-101353252D01*
%TO.C,FB4*%
X154913000Y-100830748D02*
X154913000Y-101353252D01*
X153443000Y-100830748D02*
X153443000Y-101353252D01*
%TO.C,FB5*%
X120877000Y-101353252D02*
X120877000Y-100830748D01*
X119407000Y-101353252D02*
X119407000Y-100830748D01*
%TO.C,FB6*%
X143537000Y-101353252D02*
X143537000Y-100830748D01*
X145007000Y-101353252D02*
X145007000Y-100830748D01*
%TO.C,R8*%
X87656936Y-142467000D02*
X88111064Y-142467000D01*
X87656936Y-140997000D02*
X88111064Y-140997000D01*
%TO.C,R9*%
X98324936Y-142467000D02*
X98779064Y-142467000D01*
X98324936Y-140997000D02*
X98779064Y-140997000D01*
%TO.C,U2*%
X81925000Y-113030000D02*
X81925000Y-116480000D01*
X81925000Y-113030000D02*
X81925000Y-111080000D01*
X90795000Y-113030000D02*
X90795000Y-114980000D01*
X90795000Y-113030000D02*
X90795000Y-111080000D01*
%TO.C,R2*%
X91975000Y-101118936D02*
X91975000Y-101573064D01*
X93445000Y-101118936D02*
X93445000Y-101573064D01*
%TO.C,R4*%
X124179000Y-101319064D02*
X124179000Y-100864936D01*
X122709000Y-101319064D02*
X122709000Y-100864936D01*
%TO.C,D2*%
X70784000Y-140772000D02*
X70784000Y-142692000D01*
X73644000Y-140772000D02*
X70784000Y-140772000D01*
X70784000Y-142692000D02*
X73644000Y-142692000D01*
%TO.C,D4*%
X94980000Y-140772000D02*
X92120000Y-140772000D01*
X92120000Y-142692000D02*
X94980000Y-142692000D01*
X92120000Y-140772000D02*
X92120000Y-142692000D01*
%TO.C,U3*%
X65170000Y-105338000D02*
X65170000Y-109098000D01*
X71990000Y-109098000D02*
X70730000Y-109098000D01*
X71990000Y-103088000D02*
X71990000Y-109098000D01*
X65170000Y-109098000D02*
X66430000Y-109098000D01*
%TO.C,C3*%
X69541000Y-114981000D02*
X69541000Y-113111000D01*
X69541000Y-113111000D02*
X65456000Y-113111000D01*
X65456000Y-114981000D02*
X69541000Y-114981000D01*
%TO.C,C2*%
X65485400Y-99522000D02*
X65485400Y-101392000D01*
X69570400Y-99522000D02*
X65485400Y-99522000D01*
X65485400Y-101392000D02*
X69570400Y-101392000D01*
%TO.C,C1*%
X67709148Y-96493000D02*
X68231652Y-96493000D01*
X67709148Y-95023000D02*
X68231652Y-95023000D01*
D13*
%TO.C,J2*%
X81449400Y-85892200D02*
X81449400Y-76212200D01*
X67049400Y-76212200D02*
X67049400Y-85892200D01*
X81449400Y-90092200D02*
X81449400Y-92712200D01*
X81449400Y-76212200D02*
X67049400Y-76212200D01*
X81449400Y-92712200D02*
X67049400Y-92692200D01*
X67049400Y-92692200D02*
X67049400Y-90092200D01*
%TD*%
M02*
